<?xml version="1.0" encoding="utf-8"?>
<!-- Generator: Adobe Illustrator 18.1.0, SVG Export Plug-In . SVG Version: 6.00 Build 0)  -->
<!DOCTYPE svg PUBLIC "-//W3C//DTD SVG 1.1//EN" "http://www.w3.org/Graphics/SVG/1.1/DTD/svg11.dtd">
<svg version="1.1" id="Warstwa_1" xmlns="http://www.w3.org/2000/svg" xmlns:xlink="http://www.w3.org/1999/xlink" x="0px" y="0px"
	 width="144px" height="144px" viewBox="0 0 144 144" enable-background="new 0 0 144 144" xml:space="preserve">
<path fill="#1769FF" d="M58.6,57.9c0-6.3-4.3-6.3-4.3-6.3H52H36.8v13.4h16.4C56.1,65.1,58.6,64.2,58.6,57.9 M60.6,82.7
	c0-8.3-6.3-8.3-6.3-8.3H36.8v16.1h15.5c0.3,0,0.7,0,1.1,0C55.9,90.4,60.6,89.7,60.6,82.7 M88.5,74.4h19.8c0,0,0.1-9.3-9.2-9.3
	C89.8,65.1,88.5,74.4,88.5,74.4 M119.8,82.4H88.7c0,11.2,10.6,10.5,10.6,10.5c10,0,9.6-6.5,9.6-6.5h10.6c0,17.2-20.6,16-20.6,16
	c-24.7,0-23.1-23-23.1-23s0-23.1,23.1-23.1C123.2,56.3,119.8,82.4,119.8,82.4 M110.8,52H86v-7.4h24.8V52z M62.1,68.5
	c12.1,0,11.3,14.9,11.3,14.9c0,18.4-19.1,17.8-19.1,17.8H36.8h-0.5H23V41h13.3h0.5h17.5c9.5,0,17,5.3,17,16
	C71.3,67.8,62.1,68.5,62.1,68.5 M144,0H0v144h144V0z"/>
</svg>
