<?xml version="1.0" encoding="utf-8"?>
<!-- Generator: Adobe Illustrator 18.1.0, SVG Export Plug-In . SVG Version: 6.00 Build 0)  -->
<!DOCTYPE svg PUBLIC "-//W3C//DTD SVG 1.1//EN" "http://www.w3.org/Graphics/SVG/1.1/DTD/svg11.dtd">
<svg version="1.1" id="Warstwa_1" xmlns="http://www.w3.org/2000/svg" xmlns:xlink="http://www.w3.org/1999/xlink" x="0px" y="0px"
	 width="144px" height="144px" viewBox="0 0 144 144" enable-background="new 0 0 144 144" xml:space="preserve">
<path fill="#E1262E" d="M53.1,86.9c-10.6,0-19.9,6.4-19.9,13.7c0,8,8,14.2,18.1,14.2c13.4,0,20.2-4.6,20.2-13.7
	c0-0.9-0.1-1.8-0.3-2.6c-0.9-3.5-4.1-5.8-9.1-9.1c-0.7-0.5-1.4-0.9-2.1-1.4c-2.1-0.6-4.4-1-6.7-1L53.1,86.9z M61,58.7
	c2.6-3,3.7-7.8,3.1-13c-1.2-9.2-7.8-16.9-14.7-17.1l-0.3,0c-2.4,0-4.6,1-6.3,2.9c-2.6,2.9-3.6,7.6-3,12.7
	c1.2,9.2,7.9,17.2,14.7,17.4h0.1h0C57.2,61.6,59.3,60.6,61,58.7 M134.4,69.6c0,1.4-1.1,2.4-2.4,2.4h-17.7v17.7
	c0,1.4-1.1,2.4-2.4,2.4h-5c-1.4,0-2.5-1.1-2.5-2.4V72H86.7c-1.3,0-2.4-1.1-2.4-2.4v-5c0-1.3,1.1-2.4,2.4-2.4h17.7V44.4
	c0-1.4,1.1-2.4,2.5-2.4h5c1.4,0,2.4,1.1,2.4,2.4v17.7H132c1.3,0,2.4,1.1,2.4,2.4V69.6z M85.9,23.7l-7,5c-0.4,0.3-0.9,0.5-1.4,0.5H75
	c3.2,3.9,5.1,9.4,5.1,15.5c0,6.8-3.5,13.3-9.7,18.2c-4.8,3.8-5,4.8-5,7c0.1,1.2,3.4,5.1,7.2,7.7c8.7,6.1,11.9,12.2,11.9,22.2
	c0,10.5-8,19.6-20.3,23.2c-4,1.1-8.2,1.7-12.7,1.7c-5,0-9.8-0.6-14.3-1.7c-8.7-2.2-15.1-6.3-18.1-11.7c-1.3-2.3-1.9-4.8-1.9-7.3
	c0-2.6,0.6-5.3,1.9-7.9c4.8-10.1,17.3-16.9,31.2-16.9c0.1,0,0.3,0,0.4,0c-1.1-2-1.7-4-1.7-6.2c0-1.1,0.1-2.2,0.4-3.3
	c-14.6-0.3-25.5-11-25.5-25.1c0-9.9,7.9-19.6,19.3-23.5c3.4-1.2,6.9-1.8,10.3-1.8h31.1c1.1,0,2,0.7,2.3,1.7
	C87.1,22,86.8,23.1,85.9,23.7 M144,0H0v144h144V0z"/>
</svg>
