<?xml version="1.0" encoding="utf-8"?>
<!-- Generator: Adobe Illustrator 18.1.1, SVG Export Plug-In . SVG Version: 6.00 Build 0)  -->
<!DOCTYPE svg PUBLIC "-//W3C//DTD SVG 1.1//EN" "http://www.w3.org/Graphics/SVG/1.1/DTD/svg11.dtd">
<svg version="1.1" id="Warstwa_1" xmlns="http://www.w3.org/2000/svg" xmlns:xlink="http://www.w3.org/1999/xlink" x="0px" y="0px"
	 width="112px" height="112px" viewBox="26 65 112 112" enable-background="new 26 65 112 112" xml:space="preserve">
<g>
	<g>
		<defs>
			<rect id="SVGID_1_" x="26" y="65" width="112" height="112"/>
		</defs>
		<clipPath id="SVGID_2_">
			<use xlink:href="#SVGID_1_"  overflow="visible"/>
		</clipPath>
		<path clip-path="url(#SVGID_2_)" fill="#D0282D" d="M113.8,106.5c0,18.9-10.5,32.9-25.9,32.9c-5.2,0-10.1-2.8-11.7-6
			c0,0-2.8,11.1-3.4,13.2c-2.1,7.6-8,16-8,16c-0.1-1-2.5-10.4-1.6-18.8c0.4-4,6.2-26.2,6.2-26.2s-1.5-3.1-1.5-7.6
			c0-7.1,4.1-12.4,9.3-12.4c4.4,0,6.5,3.3,6.5,7.2c0,4.4-2.8,11-4.2,17.1c-1.2,5.1,2.6,9.3,7.6,9.3c9.1,0,15.2-11.7,15.2-25.6
			c0-10.5-7.1-18.4-20-18.4c-14.6,0-23.7,10.9-23.7,23c0,4.2,0.6,5.6,2.2,8.1c0.9,1.4,2.1,3,2.1,3l-2.5,6.6c0,0-1.7-0.7-2.7-1.3
			c-5.8-3.1-8.7-9.3-8.7-17.6c0-13.7,11.5-30,34.3-30C101.7,79,113.8,92.3,113.8,106.5 M138,65H26v112h112V65z"/>
	</g>
</g>
</svg>
