<?xml version="1.0" encoding="utf-8"?>
<!-- Generator: Adobe Illustrator 18.1.0, SVG Export Plug-In . SVG Version: 6.00 Build 0)  -->
<!DOCTYPE svg PUBLIC "-//W3C//DTD SVG 1.1//EN" "http://www.w3.org/Graphics/SVG/1.1/DTD/svg11.dtd">
<svg version="1.1" id="Warstwa_1" xmlns="http://www.w3.org/2000/svg" xmlns:xlink="http://www.w3.org/1999/xlink" x="0px" y="0px"
	 width="144px" height="144px" viewBox="0 0 144 144" enable-background="new 0 0 144 144" xml:space="preserve">
<path fill="#4B9EBF" d="M122.1,47.2c0.1,1.1,0.1,2.3,0.1,3.4c0,35-26,75.4-73.5,75.4C34,126,20.4,121.6,9,114.1
	c2,0.2,22.3,2.4,38.3-11c-19.4-0.9-24.1-18.4-24.1-18.4s5.7,1.3,11.7-0.5c-21.4-5-20.7-26.3-20.7-26.3s5.9,3.5,11.7,3.3
	C8,47.5,15.5,29.8,17.8,25.9c12.7,16,31.8,26.6,53.3,27.7c-0.4-1.9-0.7-4-0.7-6C70.4,32.9,82,21,96.2,21c7.4,0,14.2,3.2,18.9,8.4
	c5.9-1.2,11.4-3.4,16.4-6.4c-1.9,6.2-6,11.4-11.4,14.7c5.2-0.6,10.2-2.1,14.8-4.2C131.5,38.7,127.2,43.4,122.1,47.2 M0,144h144V0H0
	V144z"/>
</svg>
