<?xml version="1.0" encoding="utf-8"?>
<!-- Generator: Adobe Illustrator 18.0.0, SVG Export Plug-In . SVG Version: 6.00 Build 0)  -->
<!DOCTYPE svg PUBLIC "-//W3C//DTD SVG 1.1//EN" "http://www.w3.org/Graphics/SVG/1.1/DTD/svg11.dtd" [
	<!ENTITY ns_flows "http://ns.adobe.com/Flows/1.0/">
	<!ENTITY ns_extend "http://ns.adobe.com/Extensibility/1.0/">
	<!ENTITY ns_ai "http://ns.adobe.com/AdobeIllustrator/10.0/">
	<!ENTITY ns_graphs "http://ns.adobe.com/Graphs/1.0/">
]>
<svg version="1.1" id="Layer_1" xmlns:x="&ns_extend;" xmlns:i="&ns_ai;" xmlns:graph="&ns_graphs;"
	 xmlns="http://www.w3.org/2000/svg" xmlns:xlink="http://www.w3.org/1999/xlink" xmlns:a="http://ns.adobe.com/AdobeSVGViewerExtensions/3.0/"
	 x="0px" y="0px" width="112px" height="18.352px" viewBox="0 -2.359 112 18.352" enable-background="new 0 -2.359 112 18.352"
	 xml:space="preserve">
<g>
	<path fill="#FFFFFF" d="M9.177,0.035v3.667H3.67v2.751H7.8v3.667H3.67v3.669H0V10.12V6.453V3.702V0.035h3.67H9.177z M19.679,0.034
		v7.494c0,1.947-0.592,3.204-2.287,3.204h-0.028c-1.694,0-2.286-1.257-2.286-3.204V0.034h-3.682v7.727c0,4.54,3.096,6.42,5.968,6.42
		h0.015h0.013c2.781,0,5.968-1.88,5.968-6.42V0.034C23.36,0.034,19.679,0.034,19.679,0.034z M32.264,0.035h-3.67H25.15v3.667h3.444
		v10.087h3.67V3.702h3.441V0.035H32.264z M46.009,0.034v7.494c0,1.947-0.592,3.204-2.287,3.204h-0.027
		c-1.697,0-2.287-1.257-2.287-3.204V0.034h-3.682v7.727c0,4.54,3.096,6.42,5.969,6.42h0.014h0.013c2.781,0,5.968-1.88,5.968-6.42
		V0.034C49.69,0.034,46.009,0.034,46.009,0.034z M55.544,6.694h2.289c0.752-0.013,1.358-0.854,1.358-1.61
		c0-0.755-0.606-1.368-1.358-1.381V3.702h-2.289V6.694z M59.651,13.789L57.2,10.142h-1.656v3.647h-3.67V3.702V0.035h3.67h2.39v0.003
		c2.746,0.053,4.958,2.293,4.958,5.051c0,1.749-0.891,3.29-2.244,4.196l2.964,4.504C63.612,13.789,59.651,13.789,59.651,13.789z
		 M70.504,8.231h3.158l-1.25-4.529h-0.369h-0.288L70.504,8.231z M74.872,0.035l4.452,13.754h-4.13l-0.584-2.12h-5.054l-0.584,2.12
		h-4.129l4.452-13.754h0.792h4.255C74.342,0.035,74.872,0.035,74.872,0.035z M95.825,0.035h-3.608h-0.981l-3.012,8.428L85.15,0.035
		h-4.588v13.754h3.67V4.904l3.067,8.885h1.928l2.99-8.893v8.893h3.67V0.035H95.825z M104.73,10.601c1.91,0,3.46-1.779,3.46-3.691
		c0-1.909-1.55-3.69-3.46-3.69c-1.912,0-3.46,1.781-3.46,3.69C101.27,8.822,102.818,10.601,104.73,10.601 M104.73-0.359
		c4.016,0,7.27,3.255,7.27,7.269c0,4.016-3.254,7.271-7.27,7.271s-7.27-3.255-7.27-7.271C97.46,2.896,100.714-0.359,104.73-0.359"/>
</g>
</svg>
