<?xml version="1.0" encoding="utf-8"?>
<!-- Generator: Adobe Illustrator 18.1.0, SVG Export Plug-In . SVG Version: 6.00 Build 0)  -->
<!DOCTYPE svg PUBLIC "-//W3C//DTD SVG 1.1//EN" "http://www.w3.org/Graphics/SVG/1.1/DTD/svg11.dtd">
<svg version="1.1" id="Warstwa_1" xmlns="http://www.w3.org/2000/svg" xmlns:xlink="http://www.w3.org/1999/xlink" x="0px" y="0px"
	 width="576px" height="576px" viewBox="-95 97 576 576" enable-background="new -95 97 576 576" xml:space="preserve">
<rect x="-95" y="97" fill="#163A33" width="576" height="576"/>
<rect x="-95" y="241" fill="#FFFFFF" width="576" height="143.7"/>
<path fill="#1A9E67" d="M-6.3,326.2H-8v-25H5.7v1.6H-6.2v10.6H5.1v1.6H-6.2v11.2H-6.3z"/>
<path fill="#1A9E67" d="M27.9,301.3v16.2c0,2.9-0.8,5.1-2.5,6.7s-4,2.4-7,2.4c-2.9,0-5.2-0.8-6.8-2.4c-1.6-1.6-2.4-3.9-2.4-6.8
	v-16.1H11v16.2c0,2.4,0.7,4.3,2,5.6s3.2,2,5.7,2c2.4,0,4.2-0.7,5.5-2s2-3.1,2-5.5v-16.3L27.9,301.3L27.9,301.3z"/>
<path fill="#1A9E67" d="M41.2,326.2h-1.8v-23.3h-8.1v-1.6h18v1.6h-8.1V326.2z"/>
<path fill="#1A9E67" d="M71.4,301.3v16.2c0,2.9-0.8,5.1-2.5,6.7s-4,2.4-7,2.4c-2.9,0-5.2-0.8-6.8-2.4c-1.6-1.6-2.4-3.9-2.4-6.8
	v-16.1h1.8v16.2c0,2.4,0.7,4.3,2,5.6s3.2,2,5.7,2c2.4,0,4.2-0.7,5.5-2s2-3.1,2-5.5v-16.3L71.4,301.3L71.4,301.3z"/>
<path fill="#1A9E67" d="M80,315.4v10.9h-1.7v-25h5.9c3.1,0,5.4,0.6,6.9,1.7s2.2,2.9,2.2,5.2c0,1.7-0.4,3.1-1.3,4.2
	c-0.9,1.2-2.2,2-4,2.5l6.8,11.4h-2.1l-6.4-10.9L80,315.4L80,315.4z M80,313.9h4.8c2.1,0,3.7-0.5,4.9-1.4c1.2-0.9,1.7-2.3,1.7-4.2
	c0-1.9-0.6-3.3-1.7-4.2c-1.1-0.9-3-1.3-5.6-1.3H80L80,313.9L80,313.9z"/>
<path fill="#1A9E67" d="M111,317.4h-10.2l-3.5,8.8h-1.9l10-25.1h1.1l9.8,25.1h-2L111,317.4z M101.5,315.9h8.9l-3.4-9
	c-0.3-0.7-0.6-1.7-1-2.9c-0.3,1.1-0.6,2.1-1,3L101.5,315.9z"/>
<path fill="#1A9E67" d="M131,326.2l-9.3-23.1h-0.1c0.1,1.4,0.1,2.9,0.1,4.3v18.7H120v-25h2.7l8.9,22h0.1l8.9-22h2.6v25h-1.8v-18.9
	c0-1.3,0.1-2.7,0.2-4.1h-0.1l-9.3,23H131V326.2z"/>
<path fill="#1A9E67" d="M171.2,313.7c0,4-1,7.1-3,9.4s-4.7,3.5-8.2,3.5s-6.2-1.2-8.2-3.5s-3-5.5-3-9.4c0-4,1-7.1,3-9.4
	s4.7-3.4,8.2-3.4s6.2,1.1,8.2,3.4S171.2,309.7,171.2,313.7z M150.8,313.7c0,3.6,0.8,6.3,2.4,8.3c1.6,2,3.9,2.9,6.9,2.9
	s5.3-1,6.9-2.9c1.6-1.9,2.4-4.7,2.4-8.3c0-3.6-0.8-6.4-2.4-8.3c-1.6-1.9-3.9-2.9-6.9-2.9s-5.3,1-6.9,2.9
	C151.6,307.4,150.8,310.2,150.8,313.7z"/>
<path fill="#33B573" d="M430.6,469.4c0,2.1-1.4,4.2-3.5,4.2H-34.2c-2.1,0-4.1-2-4.1-4.2V205c0-2.1,2-3.9,4.1-3.9h461.3
	c2.1,0,3.5,1.8,3.5,3.9V469.4z M194.5,180.7c1.7,0,3.1,1.5,3.1,3.2c0,1.8-1.4,3.2-3.1,3.2s-3.1-1.5-3.1-3.2
	C191.3,182.1,192.7,180.7,194.5,180.7 M416.2,171.6c0,0-174.1-7.8-232.2-7.8c-51.1,0-204.2,7.8-204.2,7.8
	c-19.2,0-40.2,15.8-40.2,35.3v286.4h516.5V206.9C456.1,187.4,435.4,171.6,416.2,171.6"/>
<path fill="#33B573" d="M481,494.2H-95V527h576V494.2z M-7.5,513.9h-58.1c-2.6,0-4.7-1.9-4.7-4.5c0-2.6,2.1-4.5,4.7-4.5h58.1
	c2.6,0,4.7,1.9,4.7,4.5C-2.8,511.9-4.9,513.9-7.5,513.9z"/>
</svg>
