<?xml version="1.0" encoding="utf-8"?>
<!-- Generator: Adobe Illustrator 18.0.0, SVG Export Plug-In . SVG Version: 6.00 Build 0)  -->
<!DOCTYPE svg PUBLIC "-//W3C//DTD SVG 1.1//EN" "http://www.w3.org/Graphics/SVG/1.1/DTD/svg11.dtd">
<svg version="1.1" id="Layer_1" xmlns="http://www.w3.org/2000/svg" xmlns:xlink="http://www.w3.org/1999/xlink" x="0px" y="0px"
	 width="448px" height="448px" viewBox="0 0 448 448" enable-background="new 0 0 448 448" xml:space="preserve">
<rect x="258" y="76" fill="#33B573" width="28" height="4"/>
<rect x="258" y="84" fill="#33B573" width="28" height="4"/>
<rect x="258" y="92" fill="#33B573" width="28" height="4"/>
<path fill="#33B573" d="M254,56h24v12h12v36h-36V56z M246,48v64h52V64l-16-16H246z"/>
<path fill="#33B573" d="M354,60h16v12h12v28h-28V60z M342,48v64h52V64l-16-16H342z"/>
<rect x="358" y="78" fill="#33B573" width="20" height="6"/>
<rect x="358" y="88" fill="#33B573" width="20" height="6"/>
<g>
	<defs>
		<rect id="SVGID_1_" x="54" y="48" width="340" height="328"/>
	</defs>
	<clipPath id="SVGID_2_">
		<use xlink:href="#SVGID_1_"  overflow="visible"/>
	</clipPath>
	<path clip-path="url(#SVGID_2_)" fill="#33B573" d="M290,192h-36v-48h24v8c0,2.2,1.7,4,4,4h8V192z M282,136h-28c-4.4,0-8,3.6-8,8
		v48c0,4.4,3.5,8,8,8h36c4.4,0,8-3.6,8-8v-40L282,136z"/>
	<path clip-path="url(#SVGID_2_)" fill="#33B573" d="M290,276c0,2.2-1.8,4-4,4h-28c-2.2,0-4-1.8-4-4v-40c0-2.2,1.8-4,4-4h16h4v8
		c0,2.2,1.7,4,4,4h8V276z M282,224h-24c-6.6,0-12,5.4-12,12v40c0,6.6,5.3,12,12,12h28c6.6,0,12-5.4,12-12v-36L282,224z"/>
	<path clip-path="url(#SVGID_2_)" fill="#33B573" d="M290,360c0,4.4-3.6,8-8,8h-20c-4.4,0-8-3.6-8-8v-32c0-4.4,3.5-8,8-8h16v8
		c0,2.2,1.7,4,4,4h8V360z M282,312h-20c-8.8,0-16,7.1-16,16v32c0,8.8,7.1,16,16,16h20c8.8,0,16-7.2,16-16v-32L282,312z"/>
	<path clip-path="url(#SVGID_2_)" fill="#33B573" d="M198,360c0,6.6-5.4,12-12,12h-20c-6.6,0-12-5.4-12-12v-32c0-6.6,5.3-12,12-12
		h16v12c0,2.2,1.7,4,4,4h12V360z M186,312h-20c-8.8,0-16,7.1-16,16v32c0,8.8,7.1,16,16,16h20c8.8,0,16-7.2,16-16v-32L186,312z"/>
	<path clip-path="url(#SVGID_2_)" fill="#33B573" d="M198,276c0,4.4-3.6,8-8,8h-28c-4.4,0-8-3.6-8-8v-40c0-4.4,3.5-8,8-8h20v12
		c0,2.2,1.7,4,4,4h12V276z M186,224h-24c-6.6,0-12,5.4-12,12v40c0,6.6,5.3,12,12,12h28c6.6,0,12-5.4,12-12v-36L186,224z"/>
	<path clip-path="url(#SVGID_2_)" fill="#33B573" d="M198,192c0,2.2-1.8,4-4,4h-36c-2.2,0-4-1.8-4-4v-48c0-2.2,1.8-4,4-4h24v12
		c0,2.2,1.7,4,4,4h12V192z M186,136h-28c-4.4,0-8,3.6-8,8v48c0,4.4,3.5,8,8,8h36c4.4,0,8-3.6,8-8v-40L186,136z"/>
</g>
<rect x="160" y="86" fill="#33B573" width="32" height="4"/>
<rect x="160" y="94" fill="#33B573" width="32" height="4"/>
<path fill="#33B573" d="M154,52h28v16h16v40h-44V52z M150,48v64h52V64l-16-16H150z"/>
<rect x="160" y="78" fill="#33B573" width="32" height="4"/>
<rect x="62" y="90" fill="#33B573" width="36" height="2"/>
<rect x="62" y="96" fill="#33B573" width="36" height="2"/>
<rect x="62" y="84" fill="#33B573" width="36" height="2"/>
<rect x="62" y="78" fill="#33B573" width="36" height="2"/>
<path fill="#33B573" d="M56,50h32v16h16v44H56V50z M54,48v64h52V64L90,48H54z"/>
<g>
	<defs>
		<rect id="SVGID_3_" x="54" y="48" width="340" height="328"/>
	</defs>
	<clipPath id="SVGID_4_">
		<use xlink:href="#SVGID_3_"  overflow="visible"/>
	</clipPath>
	<path clip-path="url(#SVGID_4_)" fill="#33B573" d="M104,276c0,5.5-4.5,10-10,10H66c-5.5,0-10-4.5-10-10v-40c0-5.5,4.4-10,10-10h22
		v12c0,2.2,1.7,4,4,4h12V276z M90,224H66c-6.6,0-12,5.4-12,12v40c0,6.6,5.3,12,12,12h28c6.6,0,12-5.4,12-12v-36L90,224z"/>
	<path clip-path="url(#SVGID_4_)" fill="#33B573" d="M104,360c0,7.7-6.3,14-14,14H70c-7.7,0-14-6.3-14-14v-32c0-7.7,6.2-14,14-14h18
		v12c0,2.2,1.7,4,4,4h12V360z M90,312H70c-8.8,0-16,7.1-16,16v32c0,8.8,7.1,16,16,16h20c8.8,0,16-7.2,16-16v-32L90,312z"/>
	<path clip-path="url(#SVGID_4_)" fill="#33B573" d="M104,192c0,3.3-2.7,6-6,6H62c-3.3,0-6-2.7-6-6v-48c0-3.3,2.6-6,6-6h26v12
		c0,2.2,1.7,4,4,4h12V192z M90,136H62c-4.4,0-8,3.6-8,8v48c0,4.4,3.5,8,8,8h36c4.4,0,8-3.6,8-8v-40L90,136z"/>
	<path clip-path="url(#SVGID_4_)" fill="#33B573" d="M97.7,168H62.3c-0.2,0-0.3-0.1-0.3-0.3v-1.4c0-0.2,0.1-0.3,0.3-0.3h35.4
		c0.2,0,0.3,0.1,0.3,0.3v1.4C98,167.8,97.8,168,97.7,168"/>
	<path clip-path="url(#SVGID_4_)" fill="#33B573" d="M97.7,174H62.3c-0.2,0-0.3-0.1-0.3-0.3v-1.4c0-0.2,0.1-0.3,0.3-0.3h35.4
		c0.2,0,0.3,0.1,0.3,0.3v1.4C98,173.8,97.8,174,97.7,174"/>
	<path clip-path="url(#SVGID_4_)" fill="#33B573" d="M97.7,180H62.3c-0.2,0-0.3-0.1-0.3-0.3v-1.4c0-0.2,0.1-0.3,0.3-0.3h35.4
		c0.2,0,0.3,0.1,0.3,0.3v1.4C98,179.8,97.8,180,97.7,180"/>
	<path clip-path="url(#SVGID_4_)" fill="#33B573" d="M97.7,186H62.3c-0.2,0-0.3-0.1-0.3-0.3v-1.4c0-0.2,0.1-0.3,0.3-0.3h35.4
		c0.2,0,0.3,0.1,0.3,0.3v1.4C98,185.8,97.8,186,97.7,186"/>
	<path clip-path="url(#SVGID_4_)" fill="#33B573" d="M97.6,256H62.4c-0.2,0-0.4-0.2-0.4-0.4v-1.2c0-0.2,0.2-0.4,0.4-0.4h35.2
		c0.2,0,0.4,0.2,0.4,0.4v1.2C98,255.8,97.8,256,97.6,256"/>
	<path clip-path="url(#SVGID_4_)" fill="#33B573" d="M97.6,262H62.4c-0.2,0-0.4-0.2-0.4-0.4v-1.2c0-0.2,0.2-0.4,0.4-0.4h35.2
		c0.2,0,0.4,0.2,0.4,0.4v1.2C98,261.8,97.8,262,97.6,262"/>
	<path clip-path="url(#SVGID_4_)" fill="#33B573" d="M97.6,268H62.4c-0.2,0-0.4-0.2-0.4-0.4v-1.2c0-0.2,0.2-0.4,0.4-0.4h35.2
		c0.2,0,0.4,0.2,0.4,0.4v1.2C98,267.8,97.8,268,97.6,268"/>
	<path clip-path="url(#SVGID_4_)" fill="#33B573" d="M97.6,274H62.4c-0.2,0-0.4-0.2-0.4-0.4v-1.2c0-0.2,0.2-0.4,0.4-0.4h35.2
		c0.2,0,0.4,0.2,0.4,0.4v1.2C98,273.8,97.8,274,97.6,274"/>
	<path clip-path="url(#SVGID_4_)" fill="#33B573" d="M97.5,342h-35c-0.3,0-0.5-0.2-0.5-0.5v-1c0-0.3,0.2-0.5,0.5-0.5h35
		c0.3,0,0.5,0.2,0.5,0.5v1C98,341.8,97.7,342,97.5,342"/>
	<path clip-path="url(#SVGID_4_)" fill="#33B573" d="M97.5,348h-35c-0.3,0-0.5-0.2-0.5-0.5v-1c0-0.3,0.2-0.5,0.5-0.5h35
		c0.3,0,0.5,0.2,0.5,0.5v1C98,347.8,97.7,348,97.5,348"/>
	<path clip-path="url(#SVGID_4_)" fill="#33B573" d="M97.5,354h-35c-0.3,0-0.5-0.2-0.5-0.5v-1c0-0.3,0.2-0.5,0.5-0.5h35
		c0.3,0,0.5,0.2,0.5,0.5v1C98,353.8,97.7,354,97.5,354"/>
	<path clip-path="url(#SVGID_4_)" fill="#33B573" d="M97.5,360h-35c-0.3,0-0.5-0.2-0.5-0.5v-1c0-0.3,0.2-0.5,0.5-0.5h35
		c0.3,0,0.5,0.2,0.5,0.5v1C98,359.8,97.7,360,97.5,360"/>
	<path clip-path="url(#SVGID_4_)" fill="#33B573" d="M191.5,170h-31c-0.3,0-0.5-0.2-0.5-0.5v-3c0-0.3,0.2-0.5,0.5-0.5h31
		c0.3,0,0.5,0.2,0.5,0.5v3C192,169.8,191.7,170,191.5,170"/>
	<path clip-path="url(#SVGID_4_)" fill="#33B573" d="M191.5,178h-31c-0.3,0-0.5-0.2-0.5-0.5v-3c0-0.3,0.2-0.5,0.5-0.5h31
		c0.3,0,0.5,0.2,0.5,0.5v3C192,177.8,191.7,178,191.5,178"/>
	<path clip-path="url(#SVGID_4_)" fill="#33B573" d="M191.5,186h-31c-0.3,0-0.5-0.2-0.5-0.5v-3c0-0.3,0.2-0.5,0.5-0.5h31
		c0.3,0,0.5,0.2,0.5,0.5v3C192,185.8,191.7,186,191.5,186"/>
	<path clip-path="url(#SVGID_4_)" fill="#33B573" d="M191.3,258h-30.6c-0.4,0-0.7-0.3-0.7-0.7v-2.6c0-0.4,0.3-0.7,0.7-0.7h30.6
		c0.4,0,0.7,0.3,0.7,0.7v2.6C192,257.7,191.6,258,191.3,258"/>
	<path clip-path="url(#SVGID_4_)" fill="#33B573" d="M191.3,266h-30.6c-0.4,0-0.7-0.3-0.7-0.7v-2.6c0-0.4,0.3-0.7,0.7-0.7h30.6
		c0.4,0,0.7,0.3,0.7,0.7v2.6C192,265.7,191.6,266,191.3,266"/>
	<path clip-path="url(#SVGID_4_)" fill="#33B573" d="M191.3,274h-30.6c-0.4,0-0.7-0.3-0.7-0.7v-2.6c0-0.4,0.3-0.7,0.7-0.7h30.6
		c0.4,0,0.7,0.3,0.7,0.7v2.6C192,273.7,191.6,274,191.3,274"/>
	<path clip-path="url(#SVGID_4_)" fill="#33B573" d="M191,344h-30c-0.6,0-1-0.4-1-1v-2c0-0.5,0.4-1,1-1h30c0.5,0,1,0.5,1,1v2
		C192,343.5,191.5,344,191,344"/>
	<path clip-path="url(#SVGID_4_)" fill="#33B573" d="M191,352h-30c-0.6,0-1-0.5-1-1v-2c0-0.5,0.4-1,1-1h30c0.5,0,1,0.5,1,1v2
		C192,351.5,191.5,352,191,352"/>
	<path clip-path="url(#SVGID_4_)" fill="#33B573" d="M191,360h-30c-0.6,0-1-0.5-1-1v-2c0-0.5,0.4-1,1-1h30c0.5,0,1,0.5,1,1v2
		C192,359.5,191.5,360,191,360"/>
	<path clip-path="url(#SVGID_4_)" fill="#33B573" d="M285.5,168h-27c-0.3,0-0.5-0.2-0.5-0.5v-3c0-0.3,0.2-0.5,0.5-0.5h27
		c0.3,0,0.5,0.2,0.5,0.5v3C286,167.8,285.7,168,285.5,168"/>
	<path clip-path="url(#SVGID_4_)" fill="#33B573" d="M285.5,176h-27c-0.3,0-0.5-0.2-0.5-0.5v-3c0-0.3,0.2-0.5,0.5-0.5h27
		c0.3,0,0.5,0.2,0.5,0.5v3C286,175.8,285.7,176,285.5,176"/>
	<path clip-path="url(#SVGID_4_)" fill="#33B573" d="M285.5,184h-27c-0.3,0-0.5-0.2-0.5-0.5v-3c0-0.3,0.2-0.5,0.5-0.5h27
		c0.3,0,0.5,0.2,0.5,0.5v3C286,183.8,285.7,184,285.5,184"/>
	<path clip-path="url(#SVGID_4_)" fill="#33B573" d="M285.2,258h-26.4c-0.4,0-0.8-0.4-0.8-0.8v-2.4c0-0.4,0.4-0.8,0.8-0.8h26.4
		c0.4,0,0.8,0.4,0.8,0.8v2.4C286,257.6,285.6,258,285.2,258"/>
	<path clip-path="url(#SVGID_4_)" fill="#33B573" d="M285.2,266h-26.4c-0.4,0-0.8-0.4-0.8-0.8v-2.4c0-0.4,0.4-0.8,0.8-0.8h26.4
		c0.4,0,0.8,0.4,0.8,0.8v2.4C286,265.6,285.6,266,285.2,266"/>
	<path clip-path="url(#SVGID_4_)" fill="#33B573" d="M285.2,274h-26.4c-0.4,0-0.8-0.4-0.8-0.8v-2.4c0-0.4,0.4-0.8,0.8-0.8h26.4
		c0.4,0,0.8,0.4,0.8,0.8v2.4C286,273.6,285.6,274,285.2,274"/>
	<path clip-path="url(#SVGID_4_)" fill="#33B573" d="M377.1,174h-18.2c-0.5,0-0.9-0.4-0.9-0.9v-4.2c0-0.5,0.4-0.9,0.9-0.9h18.2
		c0.5,0,0.9,0.4,0.9,0.9v4.2C378,173.6,377.6,174,377.1,174"/>
	<path clip-path="url(#SVGID_4_)" fill="#33B573" d="M377.1,184h-18.2c-0.5,0-0.9-0.4-0.9-0.9v-4.2c0-0.5,0.4-0.9,0.9-0.9h18.2
		c0.5,0,0.9,0.4,0.9,0.9v4.2C378,183.6,377.6,184,377.1,184"/>
	<path clip-path="url(#SVGID_4_)" fill="#33B573" d="M376.9,260h-17.8c-0.6,0-1.1-0.5-1.1-1.1v-3.8c0-0.6,0.5-1.1,1.1-1.1h17.8
		c0.6,0,1.1,0.5,1.1,1.1v3.8C378,259.5,377.5,260,376.9,260"/>
	<path clip-path="url(#SVGID_4_)" fill="#33B573" d="M376.9,270h-17.8c-0.6,0-1.1-0.5-1.1-1.1v-3.8c0-0.6,0.5-1.1,1.1-1.1h17.8
		c0.6,0,1.1,0.5,1.1,1.1v3.8C378,269.5,377.5,270,376.9,270"/>
	<path clip-path="url(#SVGID_4_)" fill="#33B573" d="M285,344h-26c-0.6,0-1-0.4-1-1v-2c0-0.5,0.4-1,1-1h26c0.5,0,1,0.5,1,1v2
		C286,343.5,285.5,344,285,344"/>
	<path clip-path="url(#SVGID_4_)" fill="#33B573" d="M285,352h-26c-0.6,0-1-0.5-1-1v-2c0-0.5,0.4-1,1-1h26c0.5,0,1,0.5,1,1v2
		C286,351.5,285.5,352,285,352"/>
	<path clip-path="url(#SVGID_4_)" fill="#33B573" d="M285,360h-26c-0.6,0-1-0.5-1-1v-2c0-0.5,0.4-1,1-1h26c0.5,0,1,0.5,1,1v2
		C286,359.5,285.5,360,285,360"/>
	<path clip-path="url(#SVGID_4_)" fill="#33B573" d="M376.5,348h-17c-0.8,0-1.5-0.7-1.5-1.5v-3c0-0.8,0.7-1.5,1.5-1.5h17
		c0.8,0,1.5,0.7,1.5,1.5v3C378,347.3,377.3,348,376.5,348"/>
	<path clip-path="url(#SVGID_4_)" fill="#33B573" d="M376.5,358h-17c-0.8,0-1.5-0.7-1.5-1.5v-3c0-0.8,0.7-1.5,1.5-1.5h17
		c0.8,0,1.5,0.7,1.5,1.5v3C378,357.3,377.3,358,376.5,358"/>
	<path clip-path="url(#SVGID_4_)" fill="#33B573" d="M382,188h-28v-40h16v8c0,2.2,1.7,4,4,4h8V188z M393.4,151.4l-14.9-14.9
		c-0.4-0.4-0.9-0.6-1.4-0.6H350c-4.4,0-8,3.6-8,8v48c0,4.4,3.5,8,8,8h36c4.4,0,8-3.6,8-8v-39.2C394,152.3,393.8,151.8,393.4,151.4"
		/>
	<path clip-path="url(#SVGID_4_)" fill="#33B573" d="M382,276h-28v-40h16v8c0,2.2,1.7,4,4,4h8V276z M393,239L378.9,225
		c-0.6-0.6-1.5-1-2.3-1H354c-6.6,0-12,5.4-12,12v40c0,6.6,5.3,12,12,12h28c6.6,0,12-5.4,12-12v-34.6C394,240.5,393.6,239.6,393,239"
		/>
	<path clip-path="url(#SVGID_4_)" fill="#33B573" d="M382,360c0,2.2-1.8,4-4,4h-20c-2.2,0-4-1.8-4-4v-32c0-2.2,1.8-4,4-4h12v8
		c0,2.2,1.7,4,4,4h8V360z M394,329.7c0-1.1-0.5-2.2-1.3-3l-13.5-13.5c-0.8-0.8-1.9-1.2-3-1.2H358c-8.8,0-16,7.1-16,16v32
		c0,8.8,7.1,16,16,16h20c8.8,0,16-7.2,16-16V329.7z"/>
</g>
</svg>
