<?xml version="1.0" encoding="utf-8"?>
<!-- Generator: Adobe Illustrator 18.1.0, SVG Export Plug-In . SVG Version: 6.00 Build 0)  -->
<!DOCTYPE svg PUBLIC "-//W3C//DTD SVG 1.1//EN" "http://www.w3.org/Graphics/SVG/1.1/DTD/svg11.dtd">
<svg version="1.1" id="Warstwa_1" xmlns="http://www.w3.org/2000/svg" xmlns:xlink="http://www.w3.org/1999/xlink" x="0px" y="0px"
	 width="576px" height="576px" viewBox="-95 97 576 576" enable-background="new -95 97 576 576" xml:space="preserve">
<rect x="-95" y="97" fill="#3E1D34" width="576" height="576"/>
<rect x="-95" y="241" fill="#FFFFFF" width="576" height="144"/>
<path fill="#ED2E7A" d="M-6.4,317.6h-10.2l-3.5,8.8H-22l10-25.1h1.1l9.8,25.1h-2L-6.4,317.6z M-16,316h8.9l-3.4-9
	c-0.3-0.7-0.6-1.7-1-2.9c-0.3,1.1-0.6,2.1-1,3L-16,316z"/>
<path fill="#ED2E7A" d="M12.8,326.4l-9.3-23.1H3.4c0.1,1.4,0.1,2.9,0.1,4.3v18.7H1.8v-25h2.7l8.9,22h0.1l8.9-22H25v25h-1.8v-18.9
	c0-1.3,0.1-2.7,0.2-4.1h-0.1l-9.3,23h-1.2V326.4z"/>
<path fill="#ED2E7A" d="M31.4,326.4v-25h1.7v25H31.4z"/>
<path fill="#ED2E7A" d="M49.4,313.8h9.2v11.4c-2.4,1-5.1,1.5-8.2,1.5c-3.9,0-7-1.1-9.1-3.3c-2.1-2.2-3.2-5.4-3.2-9.5
	c0-2.5,0.5-4.8,1.6-6.8c1-2,2.5-3.5,4.5-4.6c1.9-1.1,4.2-1.6,6.7-1.6c2.7,0,5.2,0.5,7.3,1.5l-0.7,1.6c-2.2-1-4.4-1.5-6.7-1.5
	c-3.3,0-5.9,1-7.8,3.1c-1.9,2-2.9,4.8-2.9,8.2c0,3.8,0.9,6.6,2.8,8.5c1.8,1.9,4.5,2.8,8.1,2.8c2.3,0,4.3-0.3,5.9-1v-8.8h-7.4
	L49.4,313.8L49.4,313.8z"/>
<path fill="#ED2E7A" d="M76.2,317.6H66l-3.5,8.8h-1.9l10-25.1h1.1l9.8,25.1h-2L76.2,317.6z M66.6,316h8.9l-3.4-9
	c-0.3-0.7-0.6-1.7-1-2.9c-0.3,1.1-0.6,2.1-1,3L66.6,316z"/>
<path fill="#ED2E7A" d="M113.9,313.9c0,4-1,7.1-3,9.4s-4.7,3.5-8.2,3.5s-6.2-1.2-8.2-3.5s-3-5.5-3-9.4c0-4,1-7.1,3-9.4
	s4.7-3.4,8.2-3.4s6.2,1.1,8.2,3.4S113.9,309.9,113.9,313.9z M93.4,313.9c0,3.6,0.8,6.3,2.4,8.3s3.9,2.9,6.9,2.9s5.3-1,6.9-2.9
	s2.4-4.7,2.4-8.3c0-3.6-0.8-6.4-2.4-8.3s-3.9-2.9-6.9-2.9s-5.3,1-6.9,2.9C94.2,307.5,93.4,310.3,93.4,313.9z"/>
<path fill="#ED2E7A" d="M132.7,319.9c0,2.1-0.8,3.7-2.3,5c-1.5,1.2-3.6,1.8-6.1,1.8c-3.1,0-5.4-0.3-7-1V324c1.8,0.8,4.1,1.1,6.9,1.1
	c2.1,0,3.7-0.5,4.9-1.4s1.8-2.2,1.8-3.7c0-0.9-0.2-1.7-0.6-2.3c-0.4-0.6-1-1.2-1.9-1.7s-2.2-1.1-4-1.7c-2.6-0.9-4.3-1.8-5.3-2.8
	s-1.5-2.4-1.5-4.1c0-1.9,0.7-3.4,2.2-4.6s3.3-1.8,5.6-1.8s4.6,0.4,6.6,1.3l-0.6,1.5c-2.1-0.9-4.1-1.3-5.9-1.3
	c-1.8,0-3.3,0.4-4.4,1.3s-1.6,2-1.6,3.5c0,0.9,0.2,1.7,0.5,2.3c0.3,0.6,0.9,1.1,1.6,1.6c0.8,0.5,2.1,1,3.9,1.7
	c1.9,0.7,3.4,1.3,4.4,2c1,0.6,1.7,1.3,2.1,2.2C132.5,317.8,132.7,318.8,132.7,319.9z"/>
<path fill="#ED2E7A" d="M158.9,307.3c0,1.5-0.5,2.9-1.5,3.9c-1,1.1-2.3,1.7-3.9,2v0.1c2,0.3,3.5,0.9,4.6,1.9c1,1,1.6,2.4,1.6,4.1
	c0,2.3-0.8,4.1-2.4,5.4c-1.6,1.3-3.9,1.9-6.9,1.9c-2.5,0-4.8-0.5-6.6-1.4v-1.7c1,0.5,2,0.9,3.2,1.2c1.2,0.3,2.3,0.4,3.4,0.4
	c2.5,0,4.4-0.5,5.7-1.5s1.9-2.5,1.9-4.3c0-1.7-0.6-2.9-1.9-3.8c-1.3-0.9-3.2-1.3-5.7-1.3h-2.7v-1.6h2.7c2.1,0,3.7-0.5,4.9-1.5
	s1.8-2.3,1.8-4c0-1.4-0.5-2.5-1.5-3.3s-2.3-1.3-3.9-1.3c-1.2,0-2.4,0.2-3.4,0.5s-2.2,0.9-3.5,1.8l-0.8-1.1c1-0.8,2.1-1.4,3.5-1.9
	s2.8-0.7,4.2-0.7c2.3,0,4.1,0.5,5.3,1.6C158.3,303.8,158.9,305.3,158.9,307.3z"/>
<path fill="#ED2E7A" d="M164.3,325.1c0-1.1,0.5-1.7,1.4-1.7s1.4,0.6,1.4,1.7s-0.5,1.7-1.4,1.7C164.7,326.7,164.3,326.2,164.3,325.1z
	"/>
<path fill="#ED2E7A" d="M178.4,311.4c2.7,0,4.8,0.6,6.3,1.9s2.3,3.1,2.3,5.3c0,2.6-0.8,4.6-2.4,6c-1.6,1.4-3.8,2.1-6.6,2.1
	c-1.2,0-2.4-0.1-3.5-0.4c-1.1-0.2-2.1-0.6-2.8-1.1v-1.8c1.2,0.6,2.3,1.1,3.3,1.3s2,0.4,3.1,0.4c2.2,0,3.9-0.6,5.3-1.7
	c1.3-1.2,2-2.7,2-4.7c0-1.9-0.6-3.3-1.9-4.4c-1.3-1.1-3-1.6-5.2-1.6c-1.5,0-3,0.2-4.6,0.7l-1-0.7l1-11.4h12v1.6H175l-0.8,8.8
	C176,311.5,177.4,311.4,178.4,311.4z"/>
<rect x="276" y="241" fill="#2E2337" width="130" height="144"/>
<rect x="209" y="240" fill="#2E2337" width="22" height="146"/>
<rect x="-60" y="241" fill="#2E2337" width="22" height="144"/>
<path fill="#ED2E7A" d="M288.4,439.7h106.8v0.8H288.4V439.7z M288.4,419.5h106.8v0.8H288.4V419.5z M288.4,400.1h106.8v0.8H288.4
	V400.1z M282.5,450.9c0,6.2,5.4,11.5,11.4,11.5l96.8-0.6c6,0,8.7-5.9,8.7-12.1V337.9H282.5V450.9z"/>
<polygon fill="#ED2E7A" points="337.1,97 337.1,272.3 296.8,272.3 296.8,97 282.5,97 282.5,335.4 399.4,335.4 399.4,97 "/>
<path fill="#ED2E7A" d="M241.2,454.4v-17.3h-28.6v22.7h24C239.3,459.9,241.2,457.1,241.2,454.4"/>
<path fill="#ED2E7A" d="M-66.9,459.9h23v-22.7h-27.8v17.3C-71.7,457.1-69.5,459.9-66.9,459.9"/>
<rect x="-43.1" y="437.1" fill="#ED2E7A" width="254.9" height="22.7"/>
<polygon fill="#ED2E7A" points="209.1,474.2 211.3,460.7 -42.7,460.7 -39.3,474.2 "/>
<path fill="#ED2E7A" d="M202.6,387.9c0,4-3.2,7.2-7.2,7.2H-25.8c-4,0-7.2-3.2-7.2-7.2V239.1c0-4,3.2-7.2,7.2-7.2h221.2
	c4,0,7.2,3.2,7.2,7.2V387.9z M205.5,220.1H-36.7c-4,0-7.2,3.2-7.2,7.2v172.4c0,4,3.2,7.2,7.2,7.2h242.2c4,0,7.2-3.2,7.2-7.2V227.3
	C212.6,223.3,209.4,220.1,205.5,220.1"/>
<path fill="#ED2E7A" d="M213.5,400.5c0,4-3.2,7.2-7.2,7.2H-37.4c-4,0-7.2-3.2-7.2-7.2v-174c0-4,3.2-7.2,7.2-7.2h243.7
	c4,0,7.2,3.2,7.2,7.2V400.5z M204.2,432.9h-8.4v-4.2h8.4V432.9z M228.7,407.2l4.9,1.1c-0.9,4.1,2.6,8.6,7.6,12.9V195.4
	c0-2.6-2-4.7-4.6-4.7H-67c-2.6,0-4.7,2.1-4.7,4.7v240.1h312.9v-7.8C233.3,421.5,227,414.7,228.7,407.2"/>
<path fill="#ED2E7A" d="M259.7,459.1c4.7-1.5,11-4.2,11.8-9.3c0.9-6.5-7.6-12.4-17.5-19.2c-4.4-3-8.9-6.2-12.7-9.4v6.5
	c3.1,2.4,6.5,4.8,9.8,7c7.1,4.9,15.9,11,15.4,14.3c-0.1,0.8-1.2,2.9-8.3,5.2c-16.2,5.3-22,14.2-24.2,20.7h5.4
	C241.5,469.9,246.9,463.3,259.7,459.1"/>
<path fill="#ED2E7A" d="M232.8,482.8l5-0.5c0-0.3-0.2-3.4,1.5-7.3h-5.4C232.6,479.3,232.8,482.5,232.8,482.8"/>
<path fill="#ED2E7A" d="M233.6,408.3l-4.9-1.1c-1.7,7.5,4.6,14.3,12.6,20.5v-6.5C236.2,416.8,232.7,412.4,233.6,408.3"/>
<path fill="#ED2E7A" d="M415.2,569.2h-6.9c-0.1-0.1-0.1-0.3-0.1-0.4c-2.3-5.3-10.8-8.1-25.3-8.4c-12.3-0.3-26.6-9.7-27.9-18.2
	c-1.1-6.9,6.4-11,12.9-13.2c12.5-4.3,20-12,18.7-19.3c-2.2-12-26.3-18.3-66.2-17.2l0.1,2.5c56.2-1.6,63,11.2,63.7,15.1
	c1.1,5.9-5.9,12.7-17,16.5c-13.4,4.6-15.3,11.2-14.6,16c1.5,9.8,16.8,20.1,30.4,20.4c15.6,0.4,21,3.5,22.8,6.3h-8.9
	c-14.8,0-26.8,11.9-26.8,26.7c0,2.9,2.4,5.3,5.3,5.3h61.4c2.9,0,5.3-2.3,5.3-5.3C442,581.1,430,569.2,415.2,569.2"/>
<path fill="#ED2E7A" d="M-95,562.5v6.7h441.2c4.1,0,7.5-2.8,8-6.7H-95z"/>
<path fill="#ED2E7A" d="M354.2,555.2c-0.1-0.5-0.2-1-0.5-1.5l-25.3-61l-3.9-9.2l-2.3-5.4c-0.9-1.9-2.9-3-5-3h-43.9h-33.9
	c-1.7,4-1.5,7.1-1.5,7.3l-5,0.5c0-0.3-0.3-3.5,1.1-7.8H-95v26.2c2.6-0.1,5-0.4,5-0.4c0.8,0,1.5,1.1,1.5,2.5v3.7H-95v2.8
	c0.4,0,0.9,0,1.3,0c3.3,0,8-0.4,8-0.4c0.8,0,1.5,1.1,1.5,2.5v3.5H-95v2.7c3.1-0.1,6.7-0.4,6.7-0.4c0.8,0,1.5,1.1,1.5,2.5v4.5H-95
	v2.3c2.2-0.1,4.1-0.3,4.1-0.3c0.8,0,1.6,1.1,1.6,2.5v3.9H-95v3.5c0.5-0.9,1.9-1.5,6.2-1.5c0,0,36.2,1.3,59.3,1.3s59.3-1.3,59.3-1.3
	c5.7,0,6.3,1.1,6.3,2.5v9.8h-131v14.3h443.7h6.4c0-0.1,0-0.2,0-0.3C355.2,559.8,354.9,557.3,354.2,555.2z M174.8,504.1
	c0-1.4,0.7-2.5,1.5-2.5c0,0,4.5,0.4,7.7,0.4s7.8-0.4,7.8-0.4c0.8,0,1.6,1.1,1.6,2.5v3.7h-18.5v-3.7H174.8z M174.8,512.6
	c0-1.4,0.7-2.5,1.5-2.5c0,0,4.7,0.4,8,0.4s8.1-0.4,8.1-0.4c0.8,0,1.7,1.1,1.7,2.5v3.6h-19.3V512.6z M110,511.8v3.5H70.5v-3.5
	c0-1.4,1.3-2.5,3.1-2.5c0,0,9.6,0.4,16.7,0.4s16.7-0.4,16.7-0.4C108.7,509.4,110,510.5,110,511.8z M88.2,503.3
	c0-1.4,0.8-2.5,1.7-2.5c0,0,4.8,0.4,8.1,0.4c3.3,0,8-0.4,8-0.4c0.8,0,1.5,1.1,1.5,2.5v3.7H88.2L88.2,503.3L88.2,503.3z M66.3,503.3
	c0-1.4,0.8-2.5,1.7-2.5c0,0,4.8,0.4,8.1,0.4c3.3,0,8-0.4,8-0.4c0.8,0,1.5,1.1,1.5,2.5v3.7H66.3L66.3,503.3L66.3,503.3z M-62.4,520.8
	c0-1.4,0.8-2.5,1.7-2.5c0,0,4.8,0.4,8.1,0.4c3.3,0,8-0.4,8-0.4c0.8,0,1.5,1.1,1.5,2.5v3.8h-19.3L-62.4,520.8L-62.4,520.8z
	 M-81.7,515.4v-3.5c0-1.4,0.9-2.5,1.7-2.5c0,0,4.8,0.4,8.2,0.4c3.3,0,8-0.4,8-0.4c0.8,0,1.5,1.1,1.5,2.5v3.5H-81.7z M-59.9,515.4
	v-2.8c0-1.4,0.8-2.5,1.7-2.5c0,0,4.8,0.4,8.1,0.4c3.3,0,8-0.4,8-0.4c0.8,0,1.5,1.1,1.5,2.5v2.8H-59.9z M-40.5,520.8
	c0-1.4,0.8-2.5,1.6-2.5c0,0,4.8,0.4,8.1,0.4c3.3,0,8-0.4,8-0.4c0.8,0,1.6,1.1,1.6,2.5v3.8h-19.3L-40.5,520.8L-40.5,520.8z
	 M-38,515.4v-2.8c0-1.4,0.8-2.5,1.6-2.5c0,0,4.8,0.4,8.1,0.4c3.3,0,8-0.4,8-0.4c0.8,0,1.6,1.1,1.6,2.5v2.8H-38z M-18.7,520.8
	c0-1.4,0.8-2.5,1.6-2.5c0,0,4.7,0.4,8.1,0.4c3.3,0,8-0.4,8-0.4c0.8,0,1.6,1.1,1.6,2.5v3.8h-19.3L-18.7,520.8L-18.7,520.8z
	 M-16.1,515.4v-2.8c0-1.4,0.8-2.5,1.6-2.5c0,0,4.7,0.4,8.1,0.4c3.3,0,8-0.4,8-0.4c0.8,0,1.6,1.1,1.6,2.5v2.8H-16.1z M3.2,520.8
	c0-1.4,0.7-2.5,1.6-2.5c0,0,4.7,0.4,8.1,0.4c3.3,0,8.1-0.4,8.1-0.4c0.8,0,1.6,1.1,1.6,2.5v3.8H3.3v-3.8H3.2z M5.7,515.4v-2.8
	c0-1.4,0.7-2.5,1.6-2.5c0,0,4.7,0.4,8.1,0.4c3.3,0,8.1-0.4,8.1-0.4c0.8,0,1.6,1.1,1.6,2.5v2.8H5.7z M25.1,520.1
	c0-1.4,0.6-2.5,1.4-2.5c0,0,4.5,0.4,7.9,0.4c3.3,0,7.9-0.4,7.9-0.4c0.8,0,1.3,1.1,1.3,2.5v4.5H25.1L25.1,520.1L25.1,520.1z
	 M27.6,515.4v-3.5c0-1.4,0.6-2.5,1.4-2.5c0,0,4.5,0.4,7.9,0.4s7.9-0.4,7.9-0.4c0.8,0,1.3,1.1,1.3,2.5v3.5H27.6z M43.6,529.1
	c0-1.4,0.7-2.5,1.5-2.5c0,0,4.7,0.4,8,0.4s8.1-0.4,8.1-0.4c0.8,0,1.7,1.1,1.7,2.5v3.9H43.6L43.6,529.1L43.6,529.1z M46.1,524.6v-4.5
	c0-1.4,0.8-2.5,1.6-2.5c0,0,4.8,0.4,8.1,0.4c3.3,0,8-0.4,8-0.4c0.8,0,1.6,1.1,1.6,2.5v4.5H46.1z M48.6,515.4v-3.5
	c0-1.4,0.8-2.5,1.6-2.5c0,0,4.8,0.4,8.1,0.4c3.3,0,8-0.4,8-0.4c0.8,0,1.6,1.1,1.6,2.5v3.5H48.6z M44.4,503.3c0-1.4,0.8-2.5,1.6-2.5
	c0,0,4.8,0.4,8.1,0.4s8-0.4,8-0.4c0.8,0,1.6,1.1,1.6,2.5v3.7H44.4L44.4,503.3L44.4,503.3z M23.4,503.3c0-1.4,0.6-2.5,1.4-2.5
	c0,0,4.5,0.4,7.9,0.4c3.3,0,7.9-0.4,7.9-0.4c0.8,0,1.3,1.1,1.3,2.5v3.7H23.4L23.4,503.3L23.4,503.3z M1.5,504c0-1.4,0.7-2.5,1.6-2.5
	c0,0,4.7,0.4,8.1,0.4c3.3,0,8.1-0.4,8.1-0.4c0.8,0,1.6,1.1,1.6,2.5v3H1.6v-3H1.5z M-20.3,504c0-1.4,0.8-2.5,1.6-2.5
	c0,0,4.7,0.4,8.1,0.4c3.3,0,8-0.4,8-0.4c0.8,0,1.6,1.1,1.6,2.5v3h-19.3L-20.3,504L-20.3,504z M-42.2,504c0-1.4,0.8-2.5,1.6-2.5
	c0,0,4.8,0.4,8.1,0.4c3.3,0,8-0.4,8-0.4c0.8,0,1.6,1.1,1.6,2.5v3h-19.3L-42.2,504L-42.2,504z M-64.1,504c0-1.4,0.8-2.5,1.7-2.5
	c0,0,4.8,0.4,8.1,0.4c3.3,0,8-0.4,8-0.4c0.8,0,1.5,1.1,1.5,2.5v3h-19.3L-64.1,504L-64.1,504z M-86,507v-3.7c0-1.4,0.9-2.5,1.7-2.5
	c0,0,4.8,0.4,8.2,0.4c3.3,0,8-0.4,8-0.4c0.8,0,1.5,1.1,1.5,2.5v3.7H-86z M-84.3,520.1c0-1.4,0.9-2.5,1.7-2.5c0,0,4.8,0.4,8.2,0.4
	c3.3,0,8-0.4,8-0.4c0.8,0,1.5,1.1,1.5,2.5v4.5h-19.3v-4.5H-84.3z M-67.4,533h-19.3v-3.9c0-1.4,0.7-2.5,1.5-2.5c0,0,4.6,0.4,8,0.4
	c3.3,0,8.1-0.4,8.1-0.4c0.8,0,1.8,1.1,1.8,2.5v3.9H-67.4z M-45.6,533h-19.3v-4c0-1.4,0.9-2.5,1.7-2.5c0,0,4.8,0.4,8.2,0.4
	c3.3,0,8-0.4,8-0.4c0.8,0,1.5,1.1,1.5,2.5v4H-45.6z M-23.7,533H-43v-4c0-1.4,0.7-2.5,1.6-2.5c0,0,4.7,0.4,8.1,0.4
	c3.3,0,8.1-0.4,8.1-0.4c0.8,0,1.7,1.1,1.7,2.5v4H-23.7z M-1.8,533h-19.3v-4c0-1.4,0.6-2.5,1.5-2.5c0,0,4.6,0.4,7.9,0.4
	s8.1-0.4,8.1-0.4c0.8,0,1.8,1.1,1.8,2.5V533z M20,533H0.7v-4c0-1.4,0.8-2.5,1.7-2.5c0,0,4.8,0.4,8.1,0.4c3.3,0,8-0.4,8-0.4
	c0.8,0,1.6,1.1,1.6,2.5v4H20z M22.6,533v-3.9c0-1.4,0.4-2.5,1.2-2.5c0,0,4.3,0.4,7.7,0.4c3.3,0,8-0.4,8-0.4c0.8,0,1.6,1.1,1.6,2.5
	v3.9H22.6z M69.7,547.3H38.6v-9.8c0-1.4,1-2.5,2.4-2.5c0,0,7.5,0.4,13,0.4s13.2-0.4,13.2-0.4c1.4,0,2.6,1.1,2.6,2.5v9.8H69.7z
	 M92.4,533H65.5v-3.9c0-1.4,0.8-2.5,2-2.5c0,0,6.5,0.4,11.2,0.4s11.4-0.4,11.4-0.4c1.2,0,2.3,1.1,2.3,2.5V533z M107.5,524.6H68v-4.5
	c0-1.4,1.3-2.5,3.1-2.5c0,0,9.6,0.4,16.7,0.4s16.7-0.4,16.7-0.4c1.8,0,3,1.1,3,2.5L107.5,524.6L107.5,524.6z M129.4,524.6H110v-4.5
	c0-1.4,0.8-2.5,1.7-2.5c0,0,4.8,0.4,8.1,0.4s8-0.4,8-0.4c0.8,0,1.5,1.1,1.5,2.5L129.4,524.6L129.4,524.6z M131.9,515.4h-19.3v-3.5
	c0-1.4,0.8-2.5,1.7-2.5c0,0,4.8,0.4,8.1,0.4s8-0.4,8-0.4c0.8,0,1.5,1.1,1.5,2.5L131.9,515.4L131.9,515.4z M136.9,507H110v-3.7
	c0-1.4,1-2.5,2.2-2.5c0,0,6.6,0.4,11.4,0.4c4.7,0,11.3-0.4,11.3-0.4c1.2,0,2.1,1.1,2.1,2.5v3.7H136.9z M171.4,524.6h-21.9v-3.5
	c0-1.4,1-2.5,1.9-2.5c0,0,5.3,0.4,9,0.4c3.6,0,8.9-0.4,8.9-0.4c0.9,0,2.1,1.1,2.1,2.5V524.6z M171.4,516.2h-19.3v-3.6
	c0-1.4,0.7-2.5,1.5-2.5c0,0,4.7,0.4,8,0.4s8.1-0.4,8.1-0.4c0.8,0,1.7,1.1,1.7,2.5V516.2z M171.4,507.8h-18.5v-3.7
	c0-1.4,0.6-2.5,1.5-2.5c0,0,4.5,0.4,7.7,0.4s7.8-0.4,7.8-0.4c0.8,0,1.6,1.1,1.6,2.5v3.7H171.4z M195.8,524.6h-21v-3.5
	c0-1.4,0.7-2.5,1.6-2.5c0,0,5,0.4,8.7,0.4s8.8-0.4,8.8-0.4c0.9,0,1.9,1.1,1.9,2.5V524.6z M195.8,504.1c0-1.4,0.8-2.5,1.6-2.5
	c0,0,4.6,0.4,7.8,0.4s7.6-0.4,7.6-0.4c0.8,0,1.4,1.1,1.4,2.5v3.7h-18.5L195.8,504.1L195.8,504.1z M196.7,512.6
	c0-1.4,0.9-2.5,1.7-2.5c0,0,4.9,0.4,8.2,0.4s8-0.4,8-0.4c0.8,0,1.4,1.1,1.4,2.5v3.6h-19.3L196.7,512.6L196.7,512.6z M219.4,524.6
	h-21v-3.5c0-1.4,1-2.5,1.9-2.5c0,0,5.3,0.4,8.9,0.4s8.6-0.4,8.6-0.4c0.9,0,1.6,1.1,1.6,2.5V524.6z M329.6,518.8
	c0.8,0,1.6,1.1,1.6,2.5v3.4h-19.3v-3.4c0-1.4,0.8-2.5,1.6-2.5c0,0,4.7,0.4,8.1,0.4S329.6,518.8,329.6,518.8z M271.5,530.3
	c0-1.4,0.7-2.5,1.5-2.5c0,0,4.7,0.4,8,0.4s8.1-0.4,8.1-0.4c0.8,0,1.7,1.1,1.7,2.5v3.5h-19.3V530.3z M267.3,524.6v-3.3
	c0-1.4,0.7-2.5,1.5-2.5c0,0,4.7,0.4,8,0.4c3.3,0,8.1-0.4,8.1-0.4c0.8,0,1.7,1.1,1.7,2.5v3.3H267.3z M289.2,524.6v-3.3
	c0-1.4,0.9-2.5,1.7-2.5c0,0,4.9,0.4,8.2,0.4c3.3,0,8-0.4,8-0.4c0.8,0,1.4,1.1,1.4,2.5v3.3H289.2z M293.4,530.3
	c0-1.4,0.9-2.5,1.7-2.5c0,0,4.9,0.4,8.2,0.4c3.3,0,8-0.4,8-0.4c0.8,0,1.4,1.1,1.4,2.5v3.5h-19.3
	C293.4,533.8,293.4,530.3,293.4,530.3z M325.4,509.8c0.8,0,1.6,1.1,1.6,2.5v4h-19.3v-4c0-1.4,0.8-2.5,1.6-2.5c0,0,4.7,0.4,8.1,0.4
	C320.7,510.2,325.4,509.8,325.4,509.8z M303.5,503.3c0-1.4,0.8-2.5,1.6-2.5c0,0,4.7,0.4,8.1,0.4c3.3,0,8-0.4,8-0.4
	c0.8,0,1.6,1.1,1.6,2.5v3.7h-19.3V503.3z M304.3,512.4v3.8H285v-3.8c0-1.4,0.9-2.5,1.7-2.5c0,0,4.9,0.4,8.2,0.4c3.3,0,8-0.4,8-0.4
	C303.7,509.9,304.3,511,304.3,512.4z M280.8,503.4c0-1.4,0.9-2.5,1.7-2.5c0,0,4.9,0.4,8.2,0.4c3.3,0,8-0.4,8-0.4
	c0.8,0,1.4,1.1,1.4,2.5v3.5h-19.3V503.4z M282.5,512.4v3.8h-19.3v-3.8c0-1.4,0.7-2.5,1.6-2.5c0,0,4.7,0.4,8,0.4
	c3.3,0,8.1-0.4,8.1-0.4C281.6,509.9,282.5,511,282.5,512.4z M258.9,503.4c0-1.4,0.7-2.5,1.6-2.5c0,0,4.7,0.4,8,0.4s8.1-0.4,8.1-0.4
	c0.8,0,1.7,1.1,1.7,2.5v3.5H259v-3.5H258.9z M236.2,503.4c0-1.4,0.7-2.5,1.5-2.5c0,0,4.7,0.4,8,0.4s8.1-0.4,8.1-0.4
	c0.8,0,1.7,1.1,1.7,2.5v3.5h-19.3V503.4z M240.4,512.4c0-1.4,0.7-2.5,1.5-2.5c0,0,4.7,0.4,8,0.4s8.1-0.4,8.1-0.4
	c0.8,0,1.7,1.1,1.7,2.5v3.8h-19.3V512.4z M244.6,521.4c0-1.4,0.7-2.5,1.5-2.5c0,0,4.7,0.4,8,0.4c3.3,0,8.1-0.4,8.1-0.4
	c0.8,0,1.7,1.1,1.7,2.5v3.3h-19.3C244.6,524.7,244.6,521.4,244.6,521.4z M248.8,530.3c0-1.4,0.7-2.5,1.5-2.5c0,0,4.7,0.4,8,0.4
	c3.3,0,8.1-0.4,8.1-0.4c0.8,0,1.7,1.1,1.7,2.5v3.5h-19.3V530.3z M294.2,548.2h-42.9v-9.4c0-1.4,1.4-2.5,3.3-2.5c0,0,10.4,0.4,18,0.4
	s18.1-0.4,18.1-0.4c1.9,0,3.5,1.1,3.5,2.5V548.2z M316.1,548.2h-18.5v-9.4c0-1.4,0.6-2.5,1.4-2.5c0,0,4.6,0.4,7.9,0.4
	c3.3,0,7.8-0.4,7.8-0.4c0.8,0,1.4,1.1,1.4,2.5C316.1,538.8,316.1,548.2,316.1,548.2z M316.1,530.2c0-1.4,0.8-2.5,1.6-2.5
	c0,0,4.7,0.4,8.1,0.4c3.3,0,8-0.4,8-0.4c0.8,0,1.6,1.1,1.6,2.5v3.7h-19.3C316.1,533.9,316.1,530.2,316.1,530.2z M338.8,548.2h-18.5
	v-9.4c0-1.4,0.6-2.5,1.4-2.5c0,0,4.6,0.4,7.9,0.4c3.3,0,7.8-0.4,7.8-0.4c0.8,0,1.4,1.1,1.4,2.5C338.8,538.8,338.8,548.2,338.8,548.2
	z"/>
<path fill="#ED2E7A" d="M401.1,97v355.3c0,6.2-4.9,11.8-11.1,11.8h-97.6c-6.2,0-11.6-5.6-11.6-11.8V97h-6l-1.5,377.2h43.9
	c2.1,0,4.9,1.1,5.8,3l2.3,5.4H403c1.7,0,3.1-1.8,3.1-3.5L407.7,97H401.1z"/>
</svg>
