<?xml version="1.0" encoding="utf-8"?>
<!-- Generator: Adobe Illustrator 18.1.0, SVG Export Plug-In . SVG Version: 6.00 Build 0)  -->
<!DOCTYPE svg PUBLIC "-//W3C//DTD SVG 1.1//EN" "http://www.w3.org/Graphics/SVG/1.1/DTD/svg11.dtd">
<svg version="1.1" id="Warstwa_1" xmlns="http://www.w3.org/2000/svg" xmlns:xlink="http://www.w3.org/1999/xlink" x="0px" y="0px"
	 width="576px" height="576px" viewBox="-95 97 576 576" enable-background="new -95 97 576 576" xml:space="preserve">
<rect x="-95" y="97" fill="#113036" width="576" height="576"/>
<rect x="-95" y="241" fill="#FFFFFF" width="576" height="144"/>
<path fill="#19837E" d="M87.1,294.4h-8.7l-3,7.6h-1.7l8.6-21.5h1l8.4,21.5H90L87.1,294.4z M79,293.1h7.7l-2.9-7.7
	c-0.2-0.6-0.5-1.4-0.9-2.5c-0.3,0.9-0.6,1.8-0.9,2.5L79,293.1z"/>
<path fill="#19837E" d="M104.2,302l-8-19.8h-0.1c0.1,1.2,0.1,2.5,0.1,3.7V302h-1.4v-21.4h2.3l7.6,18.8h0.1l7.6-18.8h2.3V302h-1.5
	v-16.2c0-1.1,0.1-2.3,0.2-3.5h-0.1l-8,19.7H104.2z"/>
<path fill="#19837E" d="M120.7,302v-21.4h1.5V302H120.7z"/>
<path fill="#19837E" d="M136.7,291.2h7.9v9.8c-2.1,0.9-4.4,1.3-7,1.3c-3.4,0-6-1-7.8-2.9s-2.7-4.6-2.7-8.1c0-2.2,0.4-4.1,1.3-5.8
	c0.9-1.7,2.2-3,3.8-3.9s3.6-1.4,5.7-1.4c2.3,0,4.4,0.4,6.3,1.3l-0.6,1.3c-1.9-0.9-3.8-1.3-5.8-1.3c-2.8,0-5.1,0.9-6.7,2.6
	s-2.5,4.1-2.5,7.1c0,3.2,0.8,5.6,2.4,7.3c1.6,1.6,3.9,2.4,6.9,2.4c2,0,3.6-0.3,5-0.8v-7.5h-6.4v-1.4H136.7z"/>
<path fill="#19837E" d="M160.3,294.4h-8.7l-3,7.6h-1.7l8.6-21.5h1l8.4,21.5h-1.7L160.3,294.4z M152.1,293.1h7.7l-2.9-7.7
	c-0.2-0.6-0.5-1.4-0.9-2.5c-0.3,0.9-0.6,1.8-0.9,2.5L152.1,293.1z"/>
<path fill="#19837E" d="M93.9,347h-1.2L88,330.5c-0.4-1.4-0.7-2.5-0.9-3.3c-0.2,0.8-0.4,1.8-0.7,2.9s-1.9,6.7-4.7,16.9h-1.3
	l-5.9-21.4h1.6l3.8,13.8c0.1,0.6,0.3,1.1,0.4,1.5c0.1,0.5,0.2,0.9,0.3,1.3s0.2,0.8,0.3,1.2s0.2,0.8,0.2,1.2c0.2-1.3,0.7-3.3,1.5-6
	l3.7-13H88l4.3,14.9c0.5,1.7,0.9,3.1,1.1,4.2c0.1-0.7,0.3-1.5,0.5-2.2s1.7-6.4,4.5-16.8h1.5L93.9,347z"/>
<path fill="#19837E" d="M121.6,336.2c0,3.4-0.8,6.1-2.5,8.1s-4,3-7,3s-5.3-1-7-3s-2.5-4.7-2.5-8.1s0.9-6.1,2.6-8
	c1.7-2,4.1-2.9,7-2.9c3,0,5.3,1,7,3S121.6,332.8,121.6,336.2z M104.1,336.2c0,3.1,0.7,5.4,2.1,7.1s3.3,2.5,5.9,2.5s4.5-0.8,5.9-2.5
	s2-4,2-7.1s-0.7-5.5-2-7.1s-3.3-2.5-5.9-2.5c-2.5,0-4.5,0.8-5.9,2.5S104.1,333.2,104.1,336.2z"/>
<path fill="#19837E" d="M128,337.6v9.3h-1.5v-21.4h5.1c2.7,0,4.6,0.5,5.9,1.5c1.3,1,1.9,2.5,1.9,4.4c0,1.4-0.4,2.6-1.1,3.6
	s-1.9,1.7-3.4,2.1l5.8,9.8h-1.8l-5.5-9.3H128z M128,336.4h4.1c1.8,0,3.2-0.4,4.2-1.2c1-0.8,1.5-2,1.5-3.6s-0.5-2.8-1.5-3.6
	s-2.6-1.1-4.8-1.1H128V336.4z"/>
<path fill="#19837E" d="M158.7,347h-1.8l-8.2-11.3l-2.9,2.5v8.8h-1.5v-21.4h1.5v11.1l2.4-2.4l8.4-8.8h1.9l-8.8,9.1L158.7,347z"/>
<path fill="#19837E" d="M161.8,325.6h5.9c2.6,0,4.6,0.4,5.8,1.3s1.9,2.3,1.9,4.1c0,1.2-0.4,2.3-1.1,3.1c-0.8,0.8-1.9,1.4-3.3,1.6
	v0.1c1.7,0.3,3,0.8,3.8,1.6s1.2,2,1.2,3.4c0,2-0.7,3.5-2,4.6s-3.2,1.6-5.6,1.6h-6.6L161.8,325.6L161.8,325.6z M163.3,335.1h4.7
	c2,0,3.5-0.3,4.4-1s1.4-1.7,1.4-3.1s-0.5-2.5-1.5-3.1s-2.6-1-4.6-1h-4.3L163.3,335.1L163.3,335.1z M163.3,336.4v9.2h5
	c4,0,5.9-1.6,5.9-4.8c0-2.9-2.1-4.4-6.3-4.4L163.3,336.4L163.3,336.4z"/>
<path fill="#19837E" d="M192.3,347h-11.7v-21.4h11.7v1.4h-10.2v8.1h9.6v1.4h-9.6v9.2h10.2V347z"/>
<path fill="#19837E" d="M212.7,347h-1.5l-12.7-19h-0.1c0.1,2.3,0.2,4,0.2,5.1V347h-1.4v-21.4h1.5l12.7,19h0.1
	c-0.1-1.8-0.1-3.4-0.1-5v-14h1.5V347H212.7z"/>
<path fill="#19837E" d="M227.9,326.6c-2.7,0-4.8,0.9-6.3,2.6s-2.3,4.1-2.3,7.1c0,3.1,0.7,5.4,2.2,7.1s3.5,2.5,6.2,2.5
	c1.8,0,3.4-0.2,5-0.7v1.3c-1.4,0.5-3.2,0.7-5.3,0.7c-3,0-5.4-1-7.1-2.9s-2.6-4.7-2.6-8.1c0-2.2,0.4-4.1,1.2-5.8s2-2.9,3.6-3.8
	c1.5-0.9,3.3-1.4,5.4-1.4c2.1,0,4,0.4,5.6,1.2l-0.6,1.3C231.3,327,229.6,326.6,227.9,326.6z"/>
<path fill="#19837E" d="M252.9,347h-1.5v-10.5h-12.5V347h-1.5v-21.4h1.5v9.5h12.5v-9.5h1.5C252.9,325.6,252.9,347,252.9,347z"/>
<rect x="309" y="241" fill="#213D4E" width="26" height="144"/>
<rect x="6" y="241" fill="#213D4E" width="26" height="144"/>
<path fill="#219E97" d="M298,394c0,5.5-4.5,10-10,10H56c-5.5,0-10-4.5-10-10V231c0-5.5,4.5-10,10-10h232c5.5,0,10,4.5,10,10V394z
	 M103,426H46v-12h57V426z M324.7,192H16.6c-3.7,0-6.7,3-6.7,6.7l2.9,227.1c0,3.7,3,7.2,6.7,7.2h301.4c3.7,0,6.7-3.4,6.7-7.2
	l3.8-226.9C331.4,195.3,328.4,192,324.7,192"/>
<path fill="#219E97" d="M328.5,425.8c0,4.3-3.5,8.2-7.7,8.2H19.4c-4.3,0-7.7-3.9-7.7-8.2L8.8,198.9c0-4.3,3.5-8,7.7-8h308.1
	c4.3,0,7.7,3.7,7.7,8L328.5,425.8z M331.1,185H10.6c-4.1,0-7.5,3-7.5,7.2l3,240.9c0,4.2,3.4,7.9,7.5,7.9h313.5
	c4.1,0,7.5-3.9,7.5-8.1l4-240.4C338.6,188.2,335.3,185,331.1,185"/>
<path fill="#219E97" d="M431,597h-20v-10.4c0-1.4,1.2-2.6,2.1-2.6c0,0,5.1,0.5,8.6,0.5s8-0.5,8-0.5c0.9,0,1.3,1.2,1.3,2.6
	C431,586.6,431,597,431,597z M407,574.9c0-1.4,1.3-2.6,2.1-2.6c0,0,5.3,0.5,8.8,0.5s8.4-0.5,8.4-0.5c0.9,0,1.7,1.2,1.7,2.6v5.1h-21
	V574.9z M407,597h-20v-10.4c0-1.4,1.3-2.6,2.1-2.6c0,0,5.1,0.5,8.6,0.5s8-0.5,8-0.5c0.9,0,1.2,1.2,1.2,2.6V597H407z M384,597h-45
	v-10.4c0-1.4,1.8-2.6,3.8-2.6c0,0,11.1,0.5,19.1,0.5s18.8-0.5,18.8-0.5c2,0,3.4,1.2,3.4,2.6V597H384z M336,575
	c0-1.4,1.2-2.6,2.1-2.6c0,0,5.2,0.5,8.8,0.5c3.5,0,8.4-0.5,8.4-0.5c0.9,0,1.8,1.2,1.8,2.6v5h-21v-5H336z M334,563.8
	c0-1.4,0.9-2.6,1.8-2.6c0,0,4.9,0.5,8.5,0.5c3.6,0,8.3-0.5,8.3-0.5c0.9,0,1.5,1.2,1.5,2.6v4.2h-20v-4.2H334z M330,552.2
	c0-1.4,1.3-2.6,2.1-2.6c0,0,5.3,0.5,8.8,0.5s8.4-0.5,8.4-0.5c0.9,0,1.7,1.2,1.7,2.6v4.8h-21V552.2z M328,541.1c0-1.4,1-2.6,1.8-2.6
	c0,0,5,0.5,8.5,0.5s8.2-0.5,8.2-0.5c0.9,0,1.4,1.2,1.4,2.6v3.9h-20v-3.9H328z M322.9,490c-0.5-0.2-0.3-0.2,0.2-0.3
	c1.2-0.2,2-0.6,2.4-1.1c1.6-2,3.1-4,4.6-6c0.1-0.5-0.1-0.6-1.9-0.6c-0.2-0.3,0.4-0.2,0.6-0.2c2.2,0,4.4-0.1,6.6,0
	c1.9,0,1.7,1,1.8,1.6c0.1,1,0.3,2.1,0.6,3.1c1.9-0.9,3.5-1.9,5-2.9c0.8-0.6,1.6-1.2,3-1.6c1.9-0.5,4.5-0.4,6.7-0.2
	c-0.5,0-0.9,0.1-1.2,0.3c-0.7,0.3-1,0.8-1.2,1.2c-1,1.6-2,3.2-3,4.9c-0.2,0.3-0.4,0.6-0.2,0.9c0.3,0.4,1.2,0.7,2.1,0.9
	c-3-0.1-6.1-0.1-9.1,0.1c-0.5,0-1.3,0-1.3-0.2c0.9,0,1.8-0.2,2.4-0.6c0.5-0.3,0.8-0.7,1.1-1.1c1.1-1.6,2.2-3.1,3.3-4.7
	c-0.9,0.2-1.4,0.6-2,0.9c-2.8,1.7-5.7,3.3-8.4,5c-0.5,0.3-1.3,0.6-1.8,0.5c-0.3,0-0.5-0.2-0.6-0.5c-0.3-1.1-0.5-2.3-0.6-3.4
	c-0.1-0.5,0-0.9-0.1-1.4c0-0.1-0.9-1-0.9-1c-1.3,1.6-2.5,3.2-3.7,4.8c-0.1,0.2-0.3,0.4-0.1,0.6c0.1,0.1,0.4,0.2,0.6,0.3
	c0.3,0.1,1.8,0.7,2.1,0.7c-1.2,0.1-2.4,0-3.6,0C325.7,489.9,323,490,322.9,490 M323,579h-21v-4.5c0-1.5,1.3-2.7,2.2-2.7
	c0,0,5.5,0.5,9.1,0.5c3.6,0,8.4-0.5,8.4-0.5c0.9,0,1.3,1.2,1.3,2.7C323,574.5,323,579,323,579z M299,567h-21v-4.4
	c0-1.5,1.3-2.7,2.2-2.7c0,0,5.5,0.5,9.1,0.5c3.6,0,8.4-0.5,8.4-0.5c0.9,0,1.3,1.2,1.3,2.7V567z M299,579h-21v-4.5
	c0-1.5,1.3-2.7,2.2-2.7c0,0,5.5,0.5,9.1,0.5c3.6,0,8.4-0.5,8.4-0.5c0.9,0,1.3,1.2,1.3,2.7V579z M275,579h-21v-4.5
	c0-1.5,1.3-2.7,2.2-2.7c0,0,5.5,0.5,9.1,0.5c3.6,0,8.4-0.5,8.4-0.5c0.9,0,1.3,1.2,1.3,2.7V579z M263,540.9c0-1.5,1.3-2.7,2.3-2.7
	c0,0,5.8,0.5,9.8,0.5s9.3-0.5,9.3-0.5c1,0,1.5,1.2,1.5,2.7V551h-23L263,540.9L263,540.9z M288,540.9c0-1.5,1.2-2.7,2.2-2.7
	c0,0,5.8,0.5,9.8,0.5s9.4-0.5,9.4-0.5c1,0,1.6,1.2,1.6,2.7V551h-23V540.9z M306.7,487.2c3.1-1.8,6.3-3.6,9.5-5.3
	c0.4-0.2,1.1-0.5,1.9-0.3c0.8,0.2,0.6,0.6,0.6,1c0,1.2,0.1,2.4,0.2,3.6c0,0.6,0.1,1.2,0.1,1.9c0,0.4-0.3,1,0.3,1.3
	c0.1,0,1.7,0.6,1.8,0.6c-1.6,0-3.1-0.1-4.6-0.1c-0.3,0-4.2,0.3-4.2,0.2c0-0.1-0.1-0.2-0.1-0.2c2.4-0.3,2.9-1.6,2.5-2.5
	c-0.5-1.2-10,0.1-9.2,1.7c0.1,0.3,0.8,0.4,1.4,0.6c0.3,0.1,0.6,0.1,0.9,0.2c-0.3-0.1-3.1,0-3.7,0c-1.3,0-2.6,0-3.9,0.1
	C303.2,489.4,304.9,488.2,306.7,487.2 M354.5,487.3c0.9-1.3,2.1-2.7,3.1-4c0.4-0.5,0.3-0.8-0.9-1.1c-0.7-0.1-0.7-0.3-0.2-0.4
	s2.2,0,2.8,0c1.9,0,3.9,0,5.8,0c0.2,0,0.4,0,0.6,0c0.2,0,0.3,0.1,0.2,0.2c-1.5,0.2-2.6,0.4-3.1,1c-0.7,1.1-1.5,2.2-2.3,3.3
	c-0.6,0.9-2.1,2-1.6,3c0.1,0.2,0.9,0.6,1.4,0.6c-3.2,0.1-6.4,0-9.6,0c-0.3,0-0.5,0-0.6-0.1C353,489.4,353.8,488.3,354.5,487.3
	 M363.2,484.9c0.1,0.1-0.1,0.2-0.3,0.2C362.6,485,362.6,484.9,363.2,484.9 M370.3,482.4c4-0.9,8.6-1.1,13.1-1c0.3,0,0.5,0,0.7,0.1
	c0.3,0.1,0.4,0.3,0.3,0.4c-0.1,0.2-0.3,0.3-0.5,0.4c-0.4,0.3-0.7,0.6-0.8,1c0,0,0,0.1-0.1,0.1c-0.1,0.1-0.4,0.1-0.6,0
	c-0.2-0.1-0.2-0.2-0.2-0.3l-0.3-0.9c-0.2-0.1,0-0.2-0.1-0.4c-0.1-0.1-0.3-0.2-0.6-0.2c-0.8,0-1.9,0-2.7,0.1
	c-6,0.4-10.6,2.4-11.1,4.8c-0.3,1.3,1.8,2.7,5.3,2.8c0.6,0,1.3,0,1.8-0.2c1.4-0.5,1.6-1.8,1.4-2.4c0.4-0.5-1.2-0.4-1.5-0.7
	c3,0,6.1,0,9.1,0c-1.8,0-2.5,1.1-2.9,1.6c-0.6,0.8-1.2,1.4-3.1,1.8c-3.5,0.7-8.7,0.4-12.1-0.2c-1.6-0.3-2.8-1.4-3.1-2.1
	C361.1,485,365.9,483.4,370.3,482.4 M395.4,482.1c0.3-0.2,0.5-0.3,0.8-0.4c2.4-0.8,2.7,1.3,2.7,1.8c0.1,1.9,0.3,3.7,0.3,5.6
	c0,0.5,0.8,0.6,1.5,0.8c0.1,0-2.4,0-2.6,0c-1.2,0-2.4,0-3.6,0c-0.9,0-1.9,0.1-2.6-0.1c0.8,0,1.7-0.5,1.9-0.8
	c0.3-0.3,0.8-1.9-0.3-1.9c-1.8,0-3.6-0.1-5.3,0c-1.4,0.1-2.3,0.9-2.6,1.4c-0.2,0.2-0.4,0.6,0,0.8c0.4,0.3,1.3,0.3,1.8,0.5
	c0,0-1.8,0-2,0c-1.7-0.1-3.4,0.1-5.1,0.1c-1.2,0,0.2-0.2,0-0.3c1.8,0,2.8-0.6,3.8-1.1C387.9,486.4,391.6,484.2,395.4,482.1
	 M405.3,499.5l1.9,9.5c0.1,0.5-0.4,0.9-1,0.9h-12.6c-0.7,0-1.3-0.6-1.4-1.2l-1.9-9.2c-0.1-0.5,0.4-0.7,1-0.7h12.6
	C404.6,499,405.2,499,405.3,499.5 M417.7,538.4c0.9,0,1.3,1.2,1.3,2.6v4h-20v-4c0-1.4,1-2.6,1.9-2.6c0,0,4.9,0.5,8.4,0.5
	C412.8,538.8,417.7,538.4,417.7,538.4 M383,575c0-1.4,1.4-2.6,2.3-2.6c0,0,5.4,0.5,9,0.5c3.5,0,8.2-0.5,8.2-0.5
	c0.9,0,1.5,1.2,1.5,2.6v5h-21V575z M381,563.8c0-1.4,1.1-2.6,2-2.6c0,0,5.2,0.5,8.7,0.5s8.1-0.5,8.1-0.5c0.9,0,1.2,1.2,1.2,2.6v4.2
	h-20V563.8z M377,557v-4.8c0-1.4,1.5-2.6,2.4-2.6c0,0,5.5,0.5,9,0.5s8.2-0.5,8.2-0.5c0.9,0,1.4,1.2,1.4,2.6v4.8H377z M360,575
	c0-1.4,1.2-2.6,2.1-2.6c0,0,5.2,0.5,8.8,0.5c3.5,0,8.4-0.5,8.4-0.5c0.9,0,1.8,1.2,1.8,2.6v5h-21v-5H360z M375,545v-3.9
	c0-1.4,1.2-2.6,2.1-2.6c0,0,5.2,0.5,8.7,0.5s8.1-0.5,8.1-0.5c0.9,0,1.1,1.2,1.1,2.6v3.9H375z M358,563.8c0-1.4,0.9-2.6,1.8-2.6
	c0,0,4.9,0.5,8.5,0.5c3.6,0,8.2-0.5,8.2-0.5c0.9,0,1.5,1.2,1.5,2.6v4.2h-20V563.8z M352,545v-3.9c0-1.4,1-2.6,1.9-2.6
	c0,0,5,0.5,8.5,0.5s8.2-0.5,8.2-0.5c0.9,0,1.4,1.2,1.4,2.6v3.9H352z M354,552.2c0-1.4,1.3-2.6,2.1-2.6c0,0,5.3,0.5,8.8,0.5
	s8.4-0.5,8.4-0.5c0.9,0,1.7,1.2,1.7,2.6v4.8h-21V552.2z M422,552.1v4.9h-21v-4.9c0-1.4,1.3-2.6,2.2-2.6c0,0,5.2,0.5,8.7,0.5
	s8.6-0.5,8.6-0.5C421.3,549.5,422,550.6,422,552.1 M425,563.7v4.3h-20v-4.3c0-1.4,1-2.6,1.8-2.6c0,0,5,0.5,8.5,0.5s8.2-0.5,8.2-0.5
	C424.5,561.1,425,562.3,425,563.7 M247,545h-29v-4.5c0-1.5,1.4-2.7,2.6-2.7c0,0,7.3,0.5,12.4,0.5s12-0.5,12-0.5c1.3,0,2,1.2,2,2.7
	V545z M244,557h-21v-4.6c0-1.5,1.1-2.7,2-2.7c0,0,5.3,0.5,8.9,0.5c3.6,0,8.5-0.5,8.5-0.5c0.9,0,1.6,1.2,1.6,2.7
	C244,552.4,244,557,244,557z M241,569h-21v-4.7c0-1.5,1.2-2.7,2.1-2.7c0,0,5.4,0.5,9,0.5s8.4-0.5,8.4-0.5c0.9,0,1.5,1.2,1.5,2.7V569
	z M217,569h-43v-4.7c0-1.5,1.9-2.7,3.8-2.7c0,0,10.8,0.5,18.4,0.5c7.6,0,17.8-0.5,17.8-0.5c1.9,0,2.9,1.2,2.9,2.7v4.7H217z M203,581
	h-29v-4.5c0-1.5,1.1-2.7,2.4-2.7c0,0,7.1,0.5,12.2,0.5s12.1-0.5,12.1-0.5c1.3,0,2.3,1.2,2.3,2.7V581z M178,599h-34v-10.7
	c0-1.5,1.7-2.7,3.2-2.7c0,0,8.5,0.5,14.4,0.5s13.9-0.5,13.9-0.5c1.5,0,2.5,1.2,2.5,2.7L178,599L178,599z M142,599H0v-10.7
	c0-1.5,1-2.7,7.2-2.7c0,0,39.3,1.4,64.2,1.4c24.9,0,63.9-1.4,63.9-1.4c6.2,0,6.6,1.2,6.6,2.7L142,599L142,599z M-2,599h-34v-10.7
	c0-1.5,1.6-2.7,3-2.7c0,0,8.4,0.5,14.3,0.5s14-0.5,14-0.5c1.5,0,2.6,1.2,2.6,2.7V599H-2z M-38,576.5c0-1.5,1-2.7,1.9-2.7
	c0,0,5.2,0.5,8.8,0.5c3.6,0,8.6-0.5,8.6-0.5c0.9,0,1.7,1.2,1.7,2.7v4.5h-21V576.5z M-39,569h-29v-4.7c0-1.5,1.2-2.7,2.5-2.7
	c0,0,7.1,0.5,12.3,0.5s12.1-0.5,12.1-0.5c1.3,0,2.2,1.2,2.2,2.7v4.7H-39z M-41,581h-29v-4.5c0-1.5,1.3-2.7,2.5-2.7
	c0,0,7.2,0.5,12.3,0.5s12-0.5,12-0.5c1.3,0,2.1,1.2,2.1,2.7v4.5H-41z M-66,552.3c0-1.5,1.5-2.7,2.7-2.7c0,0,7.4,0.5,12.5,0.5
	s11.9-0.5,11.9-0.5c1.3,0,1.8,1.2,1.8,2.7v4.6h-29v-4.6H-66z M-64,540.5c0-1.5,1.1-2.7,2-2.7c0,0,5.2,0.5,8.8,0.5
	c3.6,0,8.5-0.5,8.5-0.5c0.9,0,1.6,1.2,1.6,2.7v4.5h-21v-4.5H-64z M-60,519.9c0-1.5,1.2-2.7,2.2-2.7c0,0,5.8,0.5,9.8,0.5
	s9.4-0.5,9.4-0.5c1,0,1.6,1.2,1.6,2.7V530h-23V519.9z M-29.5,538.3c3.6,0,8.3-0.5,8.3-0.5c0.9,0,1.2,1.2,1.2,2.7v4.5h-20v-4.5
	c0-1.5,0.8-2.7,1.7-2.7C-38.3,537.9-33.1,538.3-29.5,538.3 M-28,519.9c0-1.5,1.2-2.7,2.2-2.7c0,0,5.8,0.5,9.8,0.5s9.4-0.5,9.4-0.5
	c1,0,1.6,1.2,1.6,2.7V530h-23V519.9z M-3,519.9c0-1.5,1.1-2.7,2.1-2.7c0,0,5.7,0.5,9.8,0.5c4,0,9.4-0.5,9.4-0.5c1,0,1.7,1.2,1.7,2.7
	V530H-3V519.9z M22,519.9c0-1.5,1.1-2.7,2.1-2.7c0,0,5.7,0.5,9.7,0.5s9.5-0.5,9.5-0.5c1,0,1.7,1.2,1.7,2.7V530H22L22,519.9L22,519.9
	z M49.4,538.6c0.9,0,1.6,1.2,1.6,2.7v3.7H30v-3.7c0-1.5,1.1-2.7,2-2.7c0,0,5.1,0.5,8.7,0.5C44.3,539.1,49.4,538.6,49.4,538.6
	 M47,519.9c0-1.5,1-2.7,2-2.7c0,0,5.7,0.5,9.7,0.5s9.6-0.5,9.6-0.5c1,0,1.8,1.2,1.8,2.7V530h-23v-10.1H47z M72.7,538.6
	c0.9,0,1.3,1.2,1.3,2.7v3.7H53v-3.7c0-1.5,1.3-2.7,2.2-2.7c0,0,5.3,0.5,8.9,0.5S72.7,538.6,72.7,538.6 M72,519.9
	c0-1.5,0.9-2.7,1.9-2.7c0,0,5.6,0.5,9.7,0.5c4,0,9.1-0.5,9.1-0.5c1,0,1.3,1.2,1.3,2.7V530H72V519.9z M98,541.3v3.7H77v-3.7
	c0-1.5,1.1-2.7,2-2.7c0,0,5.3,0.5,8.9,0.5s8.5-0.5,8.5-0.5C97.3,538.6,98,539.8,98,541.3 M81,569v-3.9c0-1.5,1.1-2.7,2-2.7
	c0,0,5.2,0.5,8.8,0.5c3.6,0,8.5-0.5,8.5-0.5c0.9,0,1.7,1.2,1.7,2.7v3.9H81z M80,576.3c0-1.5,1-2.7,1.9-2.7c0,0,5.1,0.5,8.8,0.5
	c3.6,0,8.6-0.5,8.6-0.5c0.9,0,1.7,1.2,1.7,2.7v4.7H80V576.3z M60,557v-3.9c0-1.5,1.1-2.7,2-2.7c0,0,5.3,0.5,8.9,0.5s8.5-0.5,8.5-0.5
	c0.9,0,1.6,1.2,1.6,2.7v3.9H60z M57,569v-3.9c0-1.5,1.2-2.7,2.1-2.7c0,0,5.4,0.5,9,0.5s8.4-0.5,8.4-0.5c0.9,0,1.5,1.2,1.5,2.7v3.9
	H57z M56,576.3c0-1.5,1.3-2.7,2.2-2.7c0,0,5.4,0.5,9,0.5s8.4-0.5,8.4-0.5c0.9,0,1.4,1.2,1.4,2.7v4.7H56V576.3z M36,557v-3.9
	c0-1.5,1.3-2.7,2.2-2.7c0,0,5.4,0.5,9,0.5s8.4-0.5,8.4-0.5c0.9,0,1.4,1.2,1.4,2.7v3.9H36z M33,569v-3.9c0-1.5,1.4-2.7,2.3-2.7
	c0,0,5.5,0.5,9.1,0.5s8.3-0.5,8.3-0.5c0.9,0,1.2,1.2,1.2,2.7v3.9H33z M33,576.3c0-1.5,1.1-2.7,2.1-2.7c0,0,5.3,0.5,8.9,0.5
	s8.5-0.5,8.5-0.5c0.9,0,1.6,1.2,1.6,2.7v4.7h-21v-4.7H33z M13,557v-4.6c0-1.5,0.9-2.7,1.8-2.7c0,0,5.1,0.5,8.7,0.5s8.3-0.5,8.3-0.5
	c0.9,0,1.2,1.2,1.2,2.7v4.6H13z M10,569v-4.7c0-1.5,1.2-2.7,2.1-2.7c0,0,5.3,0.5,8.9,0.5s8.5-0.5,8.5-0.5c0.9,0,1.5,1.2,1.5,2.7v4.7
	H10z M9,576.5c0-1.5,1.1-2.7,2-2.7c0,0,5.2,0.5,8.8,0.5c3.6,0,8.5-0.5,8.5-0.5c0.9,0,1.7,1.2,1.7,2.7v4.5H9V576.5z M6,545v-4.5
	c0-1.5,1.2-2.7,2.1-2.7c0,0,5.4,0.5,9,0.5s8.4-0.5,8.4-0.5c0.9,0,1.5,1.2,1.5,2.7v4.5H6z M-10,557v-4.6c0-1.5,0.7-2.7,1.6-2.7
	c0,0,4.9,0.5,8.5,0.5s8.4-0.5,8.4-0.5c0.9,0,1.5,1.2,1.5,2.7v4.6H-10z M-13,569v-4.7c0-1.5,0.8-2.7,1.7-2.7c0,0,5,0.5,8.6,0.5
	s8.4-0.5,8.4-0.5c0.9,0,1.3,1.2,1.3,2.7v4.7H-13z M-15,576.5c0-1.5,1.3-2.7,2.2-2.7c0,0,5.5,0.5,9.1,0.5s8.4-0.5,8.4-0.5
	c0.9,0,1.3,1.2,1.3,2.7v4.5h-21V576.5z M-17,545v-4.5c0-1.5,0.9-2.7,1.8-2.7c0,0,4.9,0.5,8.5,0.5s8.6-0.5,8.6-0.5
	c0.9,0,1.2,1.2,1.2,2.7v4.5H-17z M-16,564.3v4.7h-21v-4.7c0-1.5,1.3-2.7,2.2-2.7c0,0,5.4,0.5,9,0.5s8.4-0.5,8.4-0.5
	C-16.5,561.7-16,562.9-16,564.3 M-34,557v-4.6c0-1.5,1.2-2.7,2.1-2.7c0,0,5.3,0.5,8.9,0.5s8.5-0.5,8.5-0.5c0.9,0,1.5,1.2,1.5,2.7
	v4.6H-34z M102.8,550.4c0.9,0,1.2,1.2,1.2,2.7v3.9H83v-3.9c0-1.5,1.3-2.7,2.2-2.7c0,0,5.3,0.5,8.9,0.5
	C97.8,550.9,102.8,550.4,102.8,550.4 M101,541.3c0-1.5,1-2.7,1.9-2.7c0,0,5.1,0.5,8.7,0.5s8.6-0.5,8.6-0.5c0.9,0,1.8,1.2,1.8,2.7
	v3.7h-21V541.3z M104,519.9c0-1.5,1-2.7,2-2.7c0,0,5.7,0.5,9.7,0.5s9.6-0.5,9.6-0.5c1,0,1.8,1.2,1.8,2.7V530h-23v-10.1H104z
	 M134.7,538.3c3.6,0,8.2-0.5,8.2-0.5c0.9,0,1.1,1.2,1.1,2.7v4.5h-20v-4.5c0-1.5,1-2.7,1.9-2.7C125.9,537.9,131.1,538.3,134.7,538.3
	 M129,519.9c0-1.5,0.9-2.7,1.9-2.7c0,0,5.6,0.5,9.6,0.5s9.1-0.5,9.1-0.5c1,0,1.3,1.2,1.3,2.7V530h-22L129,519.9L129,519.9z
	 M153,519.9c0-1.5,1.3-2.7,2.3-2.7c0,0,5.8,0.5,9.9,0.5c4,0,9.3-0.5,9.3-0.5c1,0,1.5,1.2,1.5,2.7V530h-23V519.9z M178,519.9
	c0-1.5,1.2-2.7,2.2-2.7c0,0,5.8,0.5,9.8,0.5s9.4-0.5,9.4-0.5c1,0,1.6,1.2,1.6,2.7V530h-23V519.9z M194,545v-4.5
	c0-1.5,1.4-2.7,2.3-2.7c0,0,5.5,0.5,9.1,0.5s8.4-0.5,8.4-0.5c0.9,0,1.3,1.2,1.3,2.7v4.5H194z M177,552.3c0-1.5,1.8-2.7,3.7-2.7
	c0,0,10.9,0.5,18.5,0.5s17.8-0.5,17.8-0.5c1.9,0,3,1.2,3,2.7v4.6h-43V552.3z M171,545v-4.5c0-1.5,1.1-2.7,2-2.7c0,0,5.4,0.5,9,0.5
	s8.4-0.5,8.4-0.5c0.9,0,1.5,1.2,1.5,2.7v4.5H171z M154,557v-4.6c0-1.5,0.9-2.7,1.8-2.7c0,0,5,0.5,8.7,0.5c3.6,0,8.3-0.5,8.3-0.5
	c0.9,0,1.2,1.2,1.2,2.7v4.6H154z M151,569v-4.7c0-1.5,1.1-2.7,2-2.7c0,0,5.3,0.5,8.9,0.5c3.6,0,8.5-0.5,8.5-0.5
	c0.9,0,1.6,1.2,1.6,2.7v4.7H151z M150,576.5c0-1.5,1.1-2.7,2-2.7c0,0,5.2,0.5,8.9,0.5c3.6,0,8.5-0.5,8.5-0.5c0.9,0,1.6,1.2,1.6,2.7
	v4.5h-21V576.5z M147,545v-4.5c0-1.5,1.2-2.7,2.1-2.7c0,0,5.5,0.5,9.1,0.5s8.4-0.5,8.4-0.5c0.9,0,1.4,1.2,1.4,2.7v4.5H147z M131,557
	v-4.6c0-1.5,0.9-2.7,1.8-2.7c0,0,5,0.5,8.6,0.5s8.4-0.5,8.4-0.5c0.9,0,1.3,1.2,1.3,2.7v4.6H131z M128,569v-4.7c0-1.5,1-2.7,1.9-2.7
	c0,0,5.1,0.5,8.7,0.5s8.3-0.5,8.3-0.5c0.9,0,1.2,1.2,1.2,2.7v4.7H128z M127,576.5c0-1.5,0.9-2.7,1.8-2.7c0,0,5,0.5,8.6,0.5
	s8.3-0.5,8.3-0.5c0.9,0,1.3,1.2,1.3,2.7v4.5h-20L127,576.5L127,576.5z M107,557v-3.9c0-1.5,1.2-2.7,2.1-2.7c0,0,5.3,0.5,8.9,0.5
	c3.6,0,8.5-0.5,8.5-0.5c0.9,0,1.5,1.2,1.5,2.7v3.9H107z M125,576.3v4.7h-21v-4.7c0-1.5,1.1-2.7,2-2.7c0,0,5.2,0.5,8.8,0.5
	c3.6,0,8.5-0.5,8.5-0.5C124.3,573.7,125,574.9,125,576.3 M104,569v-3.9c0-1.5,1.3-2.7,2.2-2.7c0,0,5.4,0.5,9,0.5s8.4-0.5,8.4-0.5
	c0.9,0,1.4,1.2,1.4,2.7v3.9H104z M203,519.9c0-1.5,1.2-2.7,2.2-2.7c0,0,5.8,0.5,9.8,0.5s9.4-0.5,9.4-0.5c1,0,1.6,1.2,1.6,2.7V530
	h-23V519.9z M420.6,497l-25.5-44h-0.6l-3.7-8.4c-1.6,0.7-1.7,0.6-3.3,0.3c-0.1,0-0.1,0.4-0.1,0.4l3.5,7.7h-5.1l-3.5-8h-3.5l3.5,8
	h-5.1l-3.4-8h-3.5l3.3,8h-5.1l-3.2-8h-3.5l3.2,8h-5.1l-3.1-8h-3.5l3,8h-5.1l-3-8h-3.5l2.9,8h-5.1l-2.8-8h-3.5l2.8,8h-5l-2.7-8h-3.5
	l2.6,8h-5.1l-2.5-8h-3.5l2.5,8h-5.1l-2.4-8h-3.5l2.3,8H308l-2.2-8h-3.5l2.2,8h-5.1l-2.1-8h-3.5l2,8h-5.1l-1.9-8h-3.5l1.9,8h-5.1
	l-1.8-8h-3.5l1.7,8h-5.1l-1.7-8h-3.5l1.6,8h-5.1l-1.5-8h-3.5l1.5,8h-5.1l-1.4-8h-3.5l1.3,8h-5.1l-1.2-8h-3.5l1.2,8h-5.1l-1.1-8h-3.5
	l1,8h-5.1l-0.9-8h-3.5l0.9,8h-5.1l-0.8-8h-3.5l0.7,8h-5.1l-0.6-8h-3.5l0.6,8h-5.1l-0.5-8h-3.5l0.4,8h-5.1l-0.3-8h-3.5l0.3,8h-5.1
	l-0.2-8h-3.5l0.1,8h-5.1v-8H175v8h-5.1l0.1-8h-3.5l-0.2,8h-5.1l0.3-8H158l-0.3,8h-5.1l0.4-8h-3.5l-0.5,8h-5.1l0.6-8H141l-0.6,8h-5.1
	l0.7-8h-3.5l-0.8,8h-5.1l0.9-8H124l-0.9,8H118l1-8h-3.5l-1.1,8h-5.1l1.2-8H107l-1.2,8h-5.1l1.3-8h-3.5l-1.4,8H92l1.5-8H90l-1.6,8
	h-5.1l1.6-8h-3.5l-1.7,8h-5.1l1.8-8h-3.5l-1.9,8h-5.1l2-8h-3.5l-2,8h-5.1l2.1-8h-3.5l-2.2,8h-5.1l2.3-8h-3.5l-2.3,8H40l2.4-8h-3.5
	l-2.5,8h-5.1l2.6-8h-3.5l-2.7,8h-5.1l2.7-8h-3.5l-2.8,8h-5.1l2.9-8h-3.5l-3,8H5.2l3.1-8H4.8l-3.1,8h-5.1l3.2-8h-3.5l-3.3,8h-5.1
	l3.4-8h-3.5l-3.5,8h-5.1l3.5-8h-3.5l-3.6,8h-5.1l3.7-8h-3.5l-3.8,8h-5.1l3.9-8h-1.1c-0.9,0-1.8,0.3-2.6,0.6l-3.7,7.4h-3l-21.1,45.5
	c-0.3,1.2-18.4,111.9-18.4,111.9c0.5,4.7,4.4,8.6,9.1,8.6h513.4c4.6,0,8.6-3.8,9.1-8.4L420.6,497z"/>
<path fill="#219E97" d="M391.2,486.5c1,0,1.9,0,2.9,0c0.4,0,0.9,0,0.8-0.2c-0.1-0.6,0.3-1.3-0.3-1.9c0-0.2,0-0.4,0-0.6
	c-0.5,0-0.7,0.1-0.9,0.3c-1.1,0.6-2.3,1.2-3.3,1.8c-0.3,0.2-0.9,0.3-0.6,0.5C390.1,486.5,390.7,486.4,391.2,486.5"/>
<path fill="#219E97" d="M315.3,485.2c0-0.2,0.1-0.8-0.1-1.3c0-0.2-0.1-0.4-0.4-0.6c-1.8,1-3.4,1.7-5.2,2.7c0.9,0,2.6,0.2,2.9,0.2
	C315.4,486.2,315.4,486.3,315.3,485.2"/>
<path fill="#219E97" d="M400.2,508.2c0.1,0,0.2-0.1,0.2-0.2c-0.1-0.6-0.2-1.2-0.4-1.8v-0.1c-0.7,0.3-1.4,0.4-2.2,0.3
	c-0.8-0.1-1.5-0.4-2.1-0.9c-0.9-0.8-1.1-1.8-0.5-2.6c0.6-0.7,2.1-1.3,4-0.6c0,0,0,0,0-0.1c-0.1-0.6-0.3-1.3-0.4-1.9
	c0-0.1-0.1-0.1-0.2-0.1c-0.8-0.2-1.6-0.2-2.4-0.1c-3.2,0.3-4.9,2.7-3.7,5.2C393.8,507.5,397.3,508.9,400.2,508.2"/>
<path fill="#219E97" d="M400.5,504c0.1,0.5,0.2,1,0.5,2h3.2l-2.4-2H400.5z"/>
<path fill="#219E97" d="M401.9,503.9c0.1,0,1.5-1.9,1.6-1.9h-3.3c0,0,0.3,1.5,0.4,2C401,504,401.3,503.9,401.9,503.9"/>
<path fill="#219E97" d="M-9.8,391H-95v24h23v-3h23v3h31v3h-31v4h-23v-4h-23v23h85.3c5.4,0,9.8-4.4,9.8-9.8v-30.5
	C0,395.4-4.4,391-9.8,391z"/>
<path fill="#219E97" d="M481,538c-4-10.5-13.4-28.3-56.3-28.3c-1.1,0-2.3,0-3.5,0l0.1,5c45.7-1,52.5,18,55.8,27.2
	c0.1,0.4,0.3,0.7,0.4,1.1l-18.5,0.4c-1.8,0-3.3,1.2-3.9,2.9L455,546v1.7v1l18.2,22.1c0.1,0.1,3.7,3.9,7.8,7.6V538z"/>
<path fill="#219E97" d="M481,579.8c-4.3-3.8-8.2-8-8.5-8.3L455,550.3v5v1.2l0.2,0.4c0.1,0.2,0.1,0.4,0.2,0.6l25.5,41.2v-18.9H481z"
	/>
</svg>
