<?xml version="1.0" encoding="utf-8"?>
<!-- Generator: Adobe Illustrator 18.1.0, SVG Export Plug-In . SVG Version: 6.00 Build 0)  -->
<!DOCTYPE svg PUBLIC "-//W3C//DTD SVG 1.1//EN" "http://www.w3.org/Graphics/SVG/1.1/DTD/svg11.dtd">
<svg version="1.1" id="Warstwa_1" xmlns="http://www.w3.org/2000/svg" xmlns:xlink="http://www.w3.org/1999/xlink" x="0px" y="0px"
	 width="576px" height="576px" viewBox="-95 97 576 576" enable-background="new -95 97 576 576" xml:space="preserve">
<rect x="-95" y="97" fill="#163A33" width="576" height="576"/>
<rect x="-95" y="241.3" fill="#FFFFFF" width="576" height="143.7"/>
<path fill="#33B573" d="M227.7,326.5h-1.8l-14.8-22.2H211c0.1,2.6,0.2,4.6,0.2,6v16.2h-1.7v-25h1.7l14.8,22.1h0.1
	c-0.1-2.1-0.2-4-0.2-5.8v-16.3h1.7v25H227.7z"/>
<path fill="#33B573" d="M200.6,317.7h-10.2l-3.5,8.8H185l10-25.1h1.1l9.8,25.1h-2L200.6,317.7z M191,316.1h8.9l-3.4-9
	c-0.3-0.7-0.6-1.7-1-2.9c-0.3,1.1-0.6,2.1-1,3L191,316.1z"/>
<path fill="#33B573" d="M261.2,315.6v10.9h-1.7v-25h5.9c3.1,0,5.4,0.6,6.9,1.7s2.2,2.9,2.2,5.2c0,1.7-0.4,3.1-1.3,4.2
	c-0.9,1.2-2.2,2-4,2.5l6.8,11.4h-2.1l-6.4-10.9L261.2,315.6L261.2,315.6z M261.2,314.1h4.8c2.1,0,3.7-0.5,4.9-1.4
	c1.2-0.9,1.7-2.3,1.7-4.2c0-1.9-0.6-3.3-1.7-4.2c-1.1-0.9-3-1.3-5.6-1.3h-4.1C261.2,303,261.2,314.1,261.2,314.1z"/>
<path fill="#33B573" d="M301.3,314c0,4-1,7.1-3,9.4s-4.7,3.5-8.2,3.5s-6.2-1.2-8.2-3.5s-3-5.5-3-9.4c0-4,1-7.1,3-9.4
	s4.7-3.4,8.2-3.4s6.2,1.1,8.2,3.4S301.3,310,301.3,314z M280.9,314c0,3.6,0.8,6.3,2.4,8.3c1.6,2,3.9,2.9,6.9,2.9s5.3-1,6.9-2.9
	s2.4-4.7,2.4-8.3c0-3.6-0.8-6.4-2.4-8.3s-3.9-2.9-6.9-2.9s-5.3,1-6.9,2.9C281.7,307.7,280.9,310.4,280.9,314z"/>
<path fill="#33B573" d="M307,326.5v-25h1.7v25H307z"/>
<path fill="#33B573" d="M253.8,313.8c0,4.2-1.1,7.4-3.3,9.5c-2.2,2.1-5.4,3.2-9.7,3.2h-6v-25h6.8c4,0,7,1,9.1,3.1
	C252.7,306.8,253.8,309.8,253.8,313.8z M251.9,313.9c0-3.6-0.9-6.3-2.7-8.1c-1.8-1.8-4.5-2.7-8-2.7h-4.6V325h4.1
	C248.1,325,251.9,321.3,251.9,313.9z"/>
<path fill="#33B573" d="M356,450.5H167v-283h189V450.5z M292.3,136.6c0,1.7-1.4,3.1-3.1,3.1h-0.1l0,0h-50l0,0c-1.7-0.1-3-1.4-3-3.1
	s1.3-3,3-3.1l0,0h50l0,0h0.1C290.9,133.5,292.3,134.9,292.3,136.6 M377,485.5v-329c0,0,0-42-42-42H191c0,0-42,0-42,42v329
	c0,0,0,10,10,10h208C367,495.5,377,495.5,377,485.5 M359,544c0,6.9-5.6,12.5-12.5,12.5S334,550.9,334,544s5.6-12.5,12.5-12.5
	S359,537.1,359,544 M317.5,544c0,6.9-5.6,12.5-12.5,12.5s-12.5-5.6-12.5-12.5s5.6-12.5,12.5-12.5S317.5,537.1,317.5,544 M276,544
	c0,6.9-5.6,12.5-12.5,12.5S251,550.9,251,544s5.6-12.5,12.5-12.5S276,537.1,276,544 M234.5,544c0,6.9-5.6,12.5-12.5,12.5
	s-12.5-5.6-12.5-12.5s5.6-12.5,12.5-12.5S234.5,537.1,234.5,544 M193,544c0,6.9-5.6,12.5-12.5,12.5S168,550.9,168,544
	s5.6-12.5,12.5-12.5S193,537.1,193,544 M377,557.5v-47c0,0,0-10-10-10h-73l0,0v7.1c0,10.1-10,10.1-10,10.1h-41
	c-10,0-10-10.1-10-10.1v-7.1l0,0h-74c0,0-10,0-10,10v47c0,0,0,42,42,42h144C335,599.5,377,599.5,377,557.5"/>
<path fill="#33B573" d="M334.8,313.8c0,4.2-1.1,7.4-3.3,9.5s-5.4,3.2-9.7,3.2h-6v-25h6.8c4,0,7,1,9.1,3.1
	C333.8,306.8,334.8,309.8,334.8,313.8z M332.9,313.9c0-3.6-0.9-6.3-2.7-8.1c-1.8-1.8-4.5-2.7-8-2.7h-4.6V325h4.1
	C329.2,325,332.9,321.3,332.9,313.9z"/>
</svg>
