<?xml version="1.0" encoding="utf-8"?>
<!-- Generator: Adobe Illustrator 18.1.0, SVG Export Plug-In . SVG Version: 6.00 Build 0)  -->
<!DOCTYPE svg PUBLIC "-//W3C//DTD SVG 1.1//EN" "http://www.w3.org/Graphics/SVG/1.1/DTD/svg11.dtd">
<svg version="1.1" id="Warstwa_1" xmlns="http://www.w3.org/2000/svg" xmlns:xlink="http://www.w3.org/1999/xlink" x="0px" y="0px"
	 width="576px" height="576px" viewBox="-95 97 576 576" enable-background="new -95 97 576 576" xml:space="preserve">
<rect x="-95" y="97" fill="#113036" width="576" height="576"/>
<rect x="-95" y="241" fill="#FFFFFF" width="576" height="144"/>
<path fill="#19837E" d="M137.1,316.9h-8.7l-3,7.6h-1.7l8.6-21.5h1l8.4,21.5H140L137.1,316.9z M129,315.6h7.7l-2.9-7.7
	c-0.2-0.6-0.5-1.4-0.9-2.5c-0.3,0.9-0.6,1.8-0.9,2.5L129,315.6z"/>
<path fill="#19837E" d="M157.7,309.2c0,2.1-0.7,3.7-2.1,4.8s-3.4,1.7-6,1.7h-3.3v8.8h-1.5v-21.4h5.2
	C155.2,303.1,157.7,305.1,157.7,309.2z M146.3,314.3h2.9c2.4,0,4.2-0.4,5.2-1.2s1.6-2.1,1.6-3.9c0-1.7-0.5-2.9-1.5-3.7
	c-1-0.8-2.6-1.2-4.7-1.2h-3.5V314.3z"/>
<path fill="#19837E" d="M175.3,309.2c0,2.1-0.7,3.7-2.1,4.8s-3.4,1.7-6,1.7h-3.3v8.8h-1.5v-21.4h5.2
	C172.7,303.1,175.3,305.1,175.3,309.2z M163.9,314.3h2.9c2.4,0,4.2-0.4,5.2-1.2s1.6-2.1,1.6-3.9c0-1.7-0.5-2.9-1.5-3.7
	c-1-0.8-2.6-1.2-4.7-1.2h-3.5V314.3z"/>
<path fill="#19837E" d="M179.9,324.5v-21.4h1.5v20h10.2v1.4H179.9z"/>
<path fill="#19837E" d="M207,324.5h-11.7v-21.4H207v1.4h-10.2v8.1h9.6v1.4h-9.6v9.2H207V324.5z"/>
<path fill="#19837E" d="M228.1,313.7h7.9v9.8c-2.1,0.9-4.4,1.3-7,1.3c-3.4,0-6-1-7.8-2.9s-2.7-4.6-2.7-8.1c0-2.2,0.4-4.1,1.3-5.8
	c0.9-1.7,2.2-3,3.8-3.9s3.6-1.4,5.7-1.4c2.3,0,4.4,0.4,6.3,1.3l-0.6,1.3c-1.9-0.9-3.8-1.3-5.8-1.3c-2.8,0-5.1,0.9-6.7,2.6
	c-1.7,1.7-2.5,4.1-2.5,7.1c0,3.2,0.8,5.6,2.4,7.3c1.6,1.6,3.9,2.4,6.9,2.4c2,0,3.6-0.3,5-0.8v-7.5h-6.4v-1.4H228.1z"/>
<path fill="#19837E" d="M253.2,319c0,1.8-0.7,3.2-2,4.2s-3.1,1.6-5.2,1.6c-2.6,0-4.6-0.3-6-0.9v-1.5c1.5,0.7,3.5,1,5.9,1
	c1.8,0,3.2-0.4,4.2-1.2c1-0.8,1.5-1.9,1.5-3.2c0-0.8-0.2-1.5-0.5-2c-0.3-0.5-0.9-1-1.7-1.5c-0.8-0.5-1.9-0.9-3.4-1.4
	c-2.2-0.8-3.7-1.6-4.5-2.4s-1.3-2-1.3-3.5c0-1.6,0.6-2.9,1.9-3.9c1.3-1,2.9-1.5,4.8-1.5c2,0,3.9,0.4,5.7,1.1l-0.5,1.3
	c-1.8-0.7-3.5-1.1-5.1-1.1s-2.8,0.4-3.8,1.1s-1.4,1.7-1.4,3c0,0.8,0.1,1.4,0.4,1.9c0.3,0.5,0.8,1,1.4,1.4s1.8,0.9,3.4,1.5
	c1.7,0.6,2.9,1.1,3.8,1.7c0.8,0.5,1.5,1.2,1.8,1.8C253,317.1,253.2,318,253.2,319z"/>
<path fill="#19837E" d="M264.5,303.1l-8,21.4H255l8-21.4H264.5z"/>
<path fill="#19837E" d="M285.9,313.7c0,3.4-0.8,6.1-2.5,8.1c-1.7,2-4,3-7,3s-5.3-1-7-3c-1.7-2-2.5-4.7-2.5-8.1s0.9-6.1,2.6-8
	c1.7-2,4.1-2.9,7-2.9c3,0,5.3,1,7,3S285.9,310.3,285.9,313.7z M268.4,313.7c0,3.1,0.7,5.4,2.1,7.1s3.3,2.5,5.9,2.5s4.5-0.8,5.9-2.5
	c1.4-1.7,2-4,2-7.1s-0.7-5.5-2-7.1c-1.3-1.6-3.3-2.5-5.9-2.5c-2.5,0-4.5,0.8-5.9,2.5S268.4,310.7,268.4,313.7z"/>
<path fill="#19837E" d="M302.7,319c0,1.8-0.7,3.2-2,4.2c-1.3,1-3.1,1.6-5.2,1.6c-2.6,0-4.6-0.3-6-0.9v-1.5c1.5,0.7,3.5,1,5.9,1
	c1.8,0,3.2-0.4,4.2-1.2c1-0.8,1.5-1.9,1.5-3.2c0-0.8-0.2-1.5-0.5-2c-0.3-0.5-0.9-1-1.7-1.5c-0.8-0.5-1.9-0.9-3.4-1.4
	c-2.2-0.8-3.7-1.6-4.5-2.4s-1.3-2-1.3-3.5c0-1.6,0.6-2.9,1.9-3.9c1.3-1,2.9-1.5,4.8-1.5c2,0,3.9,0.4,5.7,1.1l-0.5,1.3
	c-1.8-0.7-3.5-1.1-5.1-1.1s-2.8,0.4-3.8,1.1s-1.4,1.7-1.4,3c0,0.8,0.1,1.4,0.4,1.9c0.3,0.5,0.8,1,1.4,1.4s1.8,0.9,3.4,1.5
	c1.7,0.6,2.9,1.1,3.8,1.7c0.8,0.5,1.5,1.2,1.8,1.8C302.5,317.1,302.7,318,302.7,319z"/>
<path fill="#219E97" d="M2.8,521.3h-22.6v-4.2h-34.3v-3.3h34.3v-2.5H2.8v2.5h36.8v3.3H2.8V521.3z M-49.5,525.5
	c0-0.5,0.2-0.9,0.5-1.2s0.7-0.5,1.1-0.5c0.2,0.9-0.6,1.8-1.5,1.9C-49.5,525.6-49.5,525.6-49.5,525.5 M-47.3,531.5
	c-0.3,0.2-0.7,0.3-1,0.1c-0.6-0.3-1.2-0.3-1.8,0c-0.5,0.2-0.9,0.1-1.2-0.2c-0.6-0.6-1-1.3-1.3-2.2c-0.2-0.6-0.2-1.3-0.1-1.9
	c0.2-0.9,0.9-1.6,1.8-1.7c0.3,0,0.6,0,0.9,0.1c0.5,0.2,1,0.2,1.6,0c0.9-0.3,1.7-0.1,2.3,0.7c-1.3,0.8-1.1,2.6,0.2,3.2
	C-46.2,530.3-46.6,531-47.3,531.5 M33.7,524.7h15.9v-24.1c0-5.2-4.2-9.4-9.4-9.4h-95.9c-5.2,0-9.4,4.2-9.4,9.4v29
	c0,5.2,4.2,9.4,9.4,9.4h80.6l1.7-9.1C27.2,526.9,30.2,524.7,33.7,524.7"/>
<path fill="#219E97" d="M333.5,389.1v1.6c0,5.6-4.5,10.1-10,10.1h-213c-5.6,0-10-4.5-10-10v-1.7l-2.7-153.6v-0.1v-0.2
	c0-5.5,4.5-10,10-10h219.7c5.5,0,10,4.5,10,10L333.5,389.1z M106.7,415.6c0-0.6,0.2-1,0.6-1.4c0.3-0.3,0.8-0.6,1.3-0.6
	c0.2,1-0.7,2.2-1.7,2.2C106.8,415.8,106.7,415.8,106.7,415.6 M103.1,420c-0.2-0.7-0.3-1.5-0.1-2.3c0.2-1,1.1-1.8,2.1-1.9
	c0.3,0,0.7,0,1,0.2c0.6,0.3,1.2,0.3,1.9,0c1-0.4,2-0.1,2.7,0.8c-1.6,0.9-1.3,3.1,0.3,3.8c-0.4,0.8-0.8,1.7-1.6,2.2
	c-0.4,0.3-0.8,0.3-1.2,0.1c-0.7-0.4-1.4-0.4-2.1,0c-0.5,0.3-1,0.1-1.4-0.3C103.8,421.8,103.3,420.9,103.1,420 M357.9,190H77.2
	c-9.4,0-17.1,7.2-17.1,16.6l2.7,214.9c0,9.4,7.6,16.9,17.1,16.9h23.2h0.1v10h229.2v-10h21.5c9.4,0,17.1-7.7,17.1-17.2l4-214.6
	C375,197.2,367.4,190,357.9,190"/>
<path fill="#219E97" d="M118.2,512.5c-0.6,0.5-1.3,0.5-2,0.2c-1.2-0.6-2.4-0.6-3.6,0c-0.9,0.4-1.7,0.2-2.4-0.5
	c-1.2-1.2-2-2.6-2.5-4.2c-0.4-1.2-0.5-2.5-0.2-3.7c0.4-1.7,1.8-3,3.5-3.2c0.5-0.1,1.1,0.1,1.7,0.3c1.1,0.4,2,0.4,3.1,0
	c1.7-0.7,3.3-0.2,4.4,1.3c-2.6,1.5-2.1,5.1,0.5,6.2C120.1,510.2,119.4,511.5,118.2,512.5 M114.9,498.4c0.6-0.6,1.3-0.9,2.1-1
	c0.3,1.7-1.2,3.6-2.8,3.7c-0.3,0-0.3-0.1-0.3-0.3C113.9,499.9,114.3,499.1,114.9,498.4 M93.9,449.4c-1.2,0-2.4,0.9-2.4,2.1v71.8
	c0,0.6,0.4,1.1,0.7,1.5H344c0.3-0.4,0.9-0.9,0.9-1.5v-71.8c0-1.2-1.4-2.1-2.6-2.1H93.9z"/>
<path fill="#219E97" d="M387.6,575.7h-46.9v-5.9h46.9V575.7z M365,593.3h-17.6v-10.9H365V593.3z M339.9,592.4h-31.8v-10.9h31.8
	C339.9,581.5,339.9,592.4,339.9,592.4z M307.3,575.7h-17.6v-5.9h17.6C307.3,569.8,307.3,575.7,307.3,575.7z M299.8,593.3H124.9
	v-10.9h174.9V593.3z M117.4,593.3H88.1v-10.9h29.3L117.4,593.3L117.4,593.3z M85.6,569.8h17.6v5.9H85.6V569.8z M80.6,548.1h17.6v5.9
	H80.6V548.1z M79.7,593.3H62.1v-10.9h17.6V593.3z M40.4,569.8h36.8v5.9H40.4V569.8z M42.1,559h36.8v5.9H42.1V559z M45.4,548.1h26.8
	v5.9H45.4V548.1z M51.3,533.9h17.6v10.9H51.3V533.9z M77.2,533.9h17.6v10.9H77.2V533.9z M103.2,533.9h17.6v10.9h-17.6V533.9z
	 M107.3,564.8H89.7V559h17.6V564.8z M124.1,553.9h-17.6V548h17.6V553.9z M128.3,533.9h17.6v10.9h-17.6V533.9z M128.3,575.7h-17.6
	v-5.9h17.6L128.3,575.7L128.3,575.7z M115.7,559h17.6v5.9h-17.6V559z M150,553.9h-17.6V548H150V553.9z M154.2,533.9h17.6v10.9h-17.6
	V533.9z M154.2,575.7h-17.6v-5.9h17.6V575.7z M140.8,559h17.6v5.9h-17.6V559z M176,553.9h-18.4V548H176V553.9z M180.1,533.9h16.7
	v10.9h-16.7V533.9z M179.3,575.7h-17.6v-5.9h17.6V575.7z M166.7,559h17.6v5.9h-17.6V559z M201.9,553.9h-18.4V548h18.4V553.9z
	 M205.2,575.7h-17.6v-5.9h17.6V575.7z M191.8,559h17.6v5.9h-17.6V559z M205.2,533.9h17.6v10.9h-17.6V533.9z M227,553.9h-17.6V548
	H227V553.9z M230.3,575.7h-17.6v-5.9h17.6V575.7z M217.8,559h17.6v5.9h-17.6V559z M231.2,533.9h17.6v10.9h-17.6V533.9z M252.9,553.9
	h-17.6V548h17.6V553.9z M256.3,575.7h-17.6v-5.9h17.6C256.3,569.8,256.3,575.7,256.3,575.7z M242.9,559h17.6v5.9h-17.6V559z
	 M257.1,533.9h16.7v10.9h-16.7C257.1,544.8,257.1,533.9,257.1,533.9z M278.9,553.9h-17.6V548h17.6V553.9z M281.4,575.7h-17.6v-5.9
	h17.6V575.7z M268.8,559h17.6v5.9h-17.6V559z M282.2,533.9h17.6v10.9h-17.6V533.9z M304.8,553.9h-17.6V548h17.6V553.9z M311.5,564.8
	h-17.6V559h17.6V564.8z M308.1,533.9h17.6v10.9h-17.6V533.9z M331.6,553.9H314V548h17.6V553.9z M332.4,575.7h-17.6v-5.9h17.6V575.7z
	 M318.2,559h17.6v5.9h-17.6C318.2,564.9,318.2,559,318.2,559z M334.1,533.9h16.7v10.9h-16.7V533.9z M355,553.9h-17.6V548H355V553.9z
	 M384.3,564.8h-37.6V559h37.6C384.3,559,384.3,564.8,384.3,564.8z M382.6,553.9h-20.9V548h20.9C382.6,548,382.6,553.9,382.6,553.9z
	 M359.2,533.9h17.5v10.9h-17.6v-10.9H359.2z M412.9,604.9l-8.5-74c-0.4-3.1-3.4-5.5-7.1-5.5h-41.2c-0.4,0.5-1.1,0.8-1.8,0.8H81.4
	c-0.7,0-1.4-0.3-1.8-0.8H50.5v4.9c0,5.2-4.2,9.4-9.4,9.4H25.8l-12,64.8c-0.1,0.8-0.1,1.6,0.1,2.3c-0.1,0.5-0.2,1.1-0.2,1.6l1.1,11.6
	h396.9l1.1-11.5c0-0.5-0.1-1.1-0.2-1.5C412.9,606.3,413,605.6,412.9,604.9"/>
<path fill="#219E97" d="M50.5,530.3v-4.9H34.6c-3.5,0-6.5,2.2-7.1,5.1l-1.7,9.1h15.3C46.3,539.7,50.5,535.5,50.5,530.3"/>
<path fill="#219E97" d="M354.2,526.3c0.7,0,1.4-0.3,1.8-0.8H79.5c0.4,0.5,1.1,0.8,1.8,0.8H354.2z"/>
<path fill="#219E97" d="M15.4,625.6c0,3.7,3,7,6.7,7h382.4c3.7,0,6.7-3.3,6.7-7l0.4-4.7H15L15.4,625.6z"/>
<path fill="#219E97" d="M481,602.8l-20.7,0.4c-0.3-0.6-0.6-1.5-0.9-2.2c-3-8.4-9.2-25.5-47.8-25.5c-1,0-1.9,0-2.9,0l0.1,4.2
	c38.2-0.8,43.9,15.1,46.7,22.7c0.1,0.3,0.2,0.6,0.3,0.9l-15.5,0.3c-1.5,0-2.7,1-3.2,2.4l-0.1-0.3v1.5v0.8l15.3,18.5
	c0.1,0.1,10.1,10.7,14.1,11.9c4.1,1.2,14.4,1,14.5,1h0.1C481,639.4,481,602.8,481,602.8z"/>
<path fill="#219E97" d="M481,640.2L481,640.2c-0.2,0-1.2,0-2.7,0c-3.4,0-9.2-0.1-12.2-1c-4.2-1.3-14.1-11.7-14.5-12.1L437,609.4v4.2
	v1l0.2,0.4c0.1,0.2,0.1,0.3,0.2,0.5l21.6,34.8c0.7,1.1,1.9,1.7,3.1,1.7l18.9-0.3C481,651.7,481,640.2,481,640.2z"/>
</svg>
