<?xml version="1.0" encoding="utf-8"?>
<!-- Generator: Adobe Illustrator 18.1.0, SVG Export Plug-In . SVG Version: 6.00 Build 0)  -->
<!DOCTYPE svg PUBLIC "-//W3C//DTD SVG 1.1//EN" "http://www.w3.org/Graphics/SVG/1.1/DTD/svg11.dtd">
<svg version="1.1" id="Warstwa_1" xmlns="http://www.w3.org/2000/svg" xmlns:xlink="http://www.w3.org/1999/xlink" x="0px" y="0px"
	 width="576px" height="576px" viewBox="270 -270 576 576" enable-background="new 270 -270 576 576" xml:space="preserve">
<rect x="270" y="-270" fill="#113036" width="576" height="575.8"/>
<rect x="364" y="-126.1" fill="#FFFFFF" width="483.1" height="144"/>
<path fill="#19837E" d="M401.6-72h-10.2l-3.5,8.8H386l10-25.1h1.1l9.8,25.1h-2L401.6-72z M392-73.6h8.9l-3.4-9
	c-0.3-0.7-0.6-1.7-1-2.9c-0.3,1.1-0.6,2.1-1,3L392-73.6z"/>
<path fill="#19837E" d="M425.6-81c0,2.4-0.8,4.3-2.5,5.6c-1.6,1.3-4,1.9-7,1.9h-3.9v10.3h-1.7v-25h6.1
	C422.6-88.2,425.6-85.8,425.6-81z M412.3-75h3.4c2.8,0,4.8-0.5,6.1-1.4c1.3-0.9,1.9-2.4,1.9-4.5c0-1.9-0.6-3.4-1.8-4.3
	c-1.2-0.9-3-1.4-5.5-1.4h-4.1V-75L412.3-75z"/>
<path fill="#19837E" d="M446.1-81c0,2.4-0.8,4.3-2.5,5.6c-1.6,1.3-4,1.9-7,1.9h-3.9v10.3H431v-25h6.1
	C443.1-88.2,446.1-85.8,446.1-81z M432.8-75h3.4c2.8,0,4.8-0.5,6.1-1.4c1.3-0.9,1.9-2.4,1.9-4.5c0-1.9-0.6-3.4-1.8-4.3
	c-1.2-0.9-3-1.4-5.5-1.4h-4.1V-75L432.8-75z"/>
<path fill="#19837E" d="M451.5-63.2v-25h1.7v23.3h11.9v1.6L451.5-63.2L451.5-63.2z"/>
<path fill="#19837E" d="M483.1-63.2h-13.7v-25h13.7v1.6h-11.9v9.5h11.2v1.6h-11.2v10.7h11.9V-63.2z"/>
<path fill="#19837E" d="M389.5-18.2v-25h1.7v23.3h11.9v1.6L389.5-18.2L389.5-18.2z"/>
<path fill="#19837E" d="M407.5-18.2v-25h1.7v25H407.5z"/>
<path fill="#19837E" d="M430.1-24.6c0,2.1-0.8,3.7-2.3,5c-1.5,1.2-3.6,1.8-6.1,1.8c-3.1,0-5.4-0.3-7-1v-1.7c1.8,0.8,4.1,1.1,6.9,1.1
	c2.1,0,3.7-0.5,4.9-1.4c1.2-0.9,1.8-2.2,1.8-3.7c0-0.9-0.2-1.7-0.6-2.4c-0.4-0.6-1-1.2-1.9-1.7s-2.2-1.1-4-1.7
	c-2.6-0.9-4.3-1.8-5.3-2.8s-1.5-2.4-1.5-4.1c0-1.9,0.7-3.4,2.2-4.6c1.5-1.2,3.3-1.8,5.6-1.8s4.6,0.4,6.6,1.3l-0.6,1.5
	c-2.1-0.9-4.1-1.3-5.9-1.3c-1.8,0-3.3,0.4-4.4,1.3s-1.6,2-1.6,3.5c0,0.9,0.2,1.7,0.5,2.3s0.9,1.1,1.6,1.6c0.8,0.5,2.1,1,3.9,1.7
	c1.9,0.7,3.4,1.3,4.4,2c1,0.6,1.7,1.3,2.1,2.2C429.9-26.7,430.1-25.8,430.1-24.6z"/>
<path fill="#19837E" d="M447.4-27h-10.2l-3.5,8.8h-1.9l10-25.1h1.1l9.8,25.1h-2L447.4-27z M437.9-28.6h8.9l-3.4-9
	c-0.3-0.7-0.6-1.7-1-2.9c-0.3,1.1-0.6,2.1-1,3L437.9-28.6z"/>
<rect x="270.1" y="-126" fill="#FFFFFF" width="72" height="144"/>
<rect x="593.6" y="-126" fill="#00303F" width="176.7" height="144"/>
<rect x="330.3" y="-126" fill="#00303F" width="28.5" height="144"/>
<path fill="#167672" d="M781.9,163.2l-6.3-37.5c-1-5.9-5.9-9.7-11.6-9.7h-4.8h-3.9v-15.5c0.9,0.2,1.7,0.3,2.6,0.5v-0.3
	c18.2,3.3,29.7,9.9,33.9,19.5c5.2,11.8,0.2,27.6-7.7,43C784.1,163.4,782.8,167.1,781.9,163.2 M747.5-1.3h-1.3h-87.5h-3.9v-5.5h3.9
	h87.5h1.3V-1.3z M737.6,28.6c0-1.3,0.5-2.3,1.3-3.2c0.7-0.8,1.6-1.3,2.7-1.4c0.4,2.3-1.5,4.8-3.6,5C737.6,29,737.6,28.8,737.6,28.6
	 M743.1,44.1c-0.8,0.7-1.7,0.8-2.7,0.3c-1.5-0.8-2.9-0.8-4.4,0c-1.1,0.6-2.2,0.3-3.1-0.6c-1.6-1.7-2.7-3.7-3.2-6
	c-0.4-1.5-0.5-3.1-0.1-4.6c0.5-2.3,2.3-4.1,4.5-4.3c0.7-0.1,1.5,0.1,2.2,0.4c1.3,0.5,2.5,0.5,3.8,0c2.2-0.9,4.2-0.3,5.7,1.7
	c-3.3,2-2.7,6.8,0.6,8.3C745.6,41.1,744.7,42.8,743.1,44.1 M742.3,168.8h-13.9v-8.2h13.9V168.8z M725.8,150.6h13.9v4.5h-13.9V150.6z
	 M724.9,142.4h13.9v4.5h-13.9V142.4z M724.1,134.2H738v4.5h-13.9V134.2z M723.2,122.4h13v9.1h-13V122.4z M723.2,168.8h-13.9v-8.2
	h13.9V168.8z M707.6,150.6h13v4.5h-13V150.6z M706.8,142.4h13v4.5h-13V142.4z M705.9,134.2h13v4.5h-13V134.2z M704.2,122.4h13v9.1
	h-13V122.4z M702.4,156.1h-13.9v-5.5h13.9V156.1z M698.1,131.5h-13.9v-9.1h13.9V131.5z M693.5,100.6c-4.2,0-7.6-3.6-7.6-8
	s3.4-8,7.6-8s7.6,3.6,7.6,8S697.7,100.6,693.5,100.6 M686.8,134.2h13.9v5.5h-13.9V134.2z M687.7,142.4h13.9v5.5h-13.9V142.4z
	 M702.4,168.8h-32.9v-8.2h32.9V168.8z M683.4,156.1h-13.9v-5.5h13.9V156.1z M668.6,142.4h13.9v5.5h-13.9V142.4z M667.8,134.2h13.9
	v5.5h-13.9V134.2z M666.9,122.4h13v9.1h-13V122.4z M626.2,156.1h-35.5v-5.5h35.5V156.1z M609.8,168.8h-13.9v-8.2h13.9V168.8z
	 M589.8,168.8h-24.2v-8.2h24.2V168.8z M564.7,156.1h-13v-5.5h13V156.1z M559.5,168.8H426.2v-8.2h133.4L559.5,168.8L559.5,168.8z
	 M420.1,168.8h-22.5v-8.2h22.5V168.8z M395,150.6h13.9v4.5H395V150.6z M391.5,134.2h13.9v4.5h-13.9
	C391.5,138.7,391.5,134.2,391.5,134.2z M391.5,147.9h-28.6v-5.5h28.6V147.9z M391.5,168.8h-13.9v-8.2h13.9V168.8z M360.3,150.6h28.6
	v4.5h-28.6V150.6z M363.8,134.2h21.7v4.5h-21.7V134.2z M382.9,131.5H369v-9.1h13.9V131.5z M402.8,131.5h-13.9v-9.1h13.9V131.5z
	 M364.7-128.6c0-4.5,3.5-8.2,7.8-8.2H582c4.3,0,7.8,3.7,7.8,8.2V23.3c0,4.5-3.5,8.2-7.8,8.2H372.5c-4.3,0-7.8-3.7-7.8-8.2V-128.6z
	 M574.3,142.4h13v5.5h-13V142.4z M570.8,150.6h13.9v5.5h-13.9V150.6z M569.9,134.2h13.9v5.5h-13.9V134.2z M565.6,122.4h13.9v9.1
	h-13.9V122.4z M555.2,142.4h13.9v5.5h-13.9V142.4z M550,134.2h13.9v5.5H550V134.2z M545.7,122.4h13.9v9.1h-13.9V122.4z M536.1,142.4
	h13v5.5h-13V142.4z M531.8,150.6h13.9v5.5h-13.9V150.6z M530.1,134.2H544v5.5h-13.9V134.2z M526.6,122.4h13v9.1h-13V122.4z
	 M516.2,142.4h13.9v5.5h-13.9V142.4L516.2,142.4z M512.8,150.6h13v5.5h-13V150.6z M510.2,134.2H524v5.5h-13.9v-5.5H510.2z
	 M506.7,122.4h13.9v9.1h-13.9V122.4z M497.2,142.4h13v5.5h-13V142.4z M492.8,150.6h13.9v5.5h-13.9V150.6z M486.8,122.4h13.9v9.1
	h-13.9V122.4z M490.2,134.2h13.9v5.5h-13.9V134.2z M477.3,142.4h13.9v5.5h-13.9V142.4z M472.9,150.6h13.9v5.5h-13.9V150.6z
	 M471.2,134.2h13v5.5h-13V134.2z M467.7,122.4h13v9.1h-13V122.4z M458.2,142.4h13v4.5h-13V142.4z M453.9,150.6h13v4.5h-13V150.6z
	 M447.8,122.4h13.9v9.1h-13.9V122.4z M451.3,134.2h13v4.5h-13V134.2z M438.3,142.4h13.9v4.5h-13.9V142.4z M434,150.6h13.9v4.5H434
	V150.6z M427.9,122.4h13.9v9.1h-13.9V122.4z M431.4,134.2h13.9v4.5h-13.9V134.2z M418.4,142.4h13.9v4.5h-13.9V142.4z M414.9,150.6
	h13v4.5h-13V150.6z M408.8,122.4h13v9.1h-13V122.4z M412.3,147h-13v-4.5h13V147z M411.4,134.2h13.9v4.5h-13.9V134.2z M598.5,131.5
	h-13v-9.1h13V131.5z M604.6,122.4h13.9v9.1h-13.9V122.4z M607.2,134.2h17.3v5.5h-17.3V134.2z M589,134.2h13v5.5h-13V134.2z
	 M595.9,142.4h28.6v5.5h-28.6V142.4z M598.5-44h161.1v0.9H598.5V-44z M598.5-53.1h161.1v0.9H598.5V-53.1z M759.6-62.2v0.9H598.5
	v-0.9 M598.5-71.3h161.1v0.9H598.5V-71.3z M598.5-80.4h161.1v0.9H598.5V-80.4z M598.5-89.5h161.1v0.9H598.5V-89.5z M598.5-98.6
	h161.1v0.9H598.5V-98.6z M598.5-107.7h161.1v0.9H598.5V-107.7z M598.5-116.8h161.1v0.9H598.5V-116.8z M598.5-125.9h161.1v0.9H598.5
	V-125.9z M598.5-135h161.1v0.9H598.5V-135z M786,173.4c10.5-18.8,18.4-39.6,11.3-55.8c-5.3-12-18.7-19.7-39.4-23.3V66h7.8v-212.3
	c0-6.8-3.9-10.5-10.4-10.5H350.8c-6.5,0-13,3.7-13,10.5V66h6.9v50h-5.3c-5.8,0-10.7,4-11.6,9.9l-11.7,74.6
	c-1.2,7.5,4.3,14.6,11.6,14.6h428.7h6.1h7.9c2.5,0.7,4.4,1.7,5.6,3.5c1.6,2.2,1.9,5.7,1,10.7c-1.2,6.9-17.2,14.5-27.7,18l-1-6.6
	c-0.3-1.8-1.4-3.3-3.1-3.9L706,222.1c-1.1-0.4-2.4-0.4-3.5,0.1l-54,25.5c-1.3,0.6-2.2,1.8-2.6,3.2l-5,19.4c-0.6,2.4,0.5,4.8,2.6,5.8
	l37,17.1c0.2-0.6,1.8-6.4,4-13.5c0.3-1,0.6-2,0.9-3.1c1.1-4.1,2.3-8.7,5.6-11.1c10.3-7.6,49.1-25,49.4-25.1l0.3,0.8
	c-0.4,0.2-39,17.5-49.3,25c-3.1,2.3-4.2,6.5-5.3,10.6c-0.3,1.1-0.6,2.1-0.9,3.2c-2.3,7.4-4,13.4-4,13.5l-0.4-0.1l4.4,2
	c1.2,0.5,2.5,0.6,3.7,0l60-26.2c2-0.9,3.2-3.1,2.8-5.3l-1.9-12.2c4.8-1.6,29.1-10,31.2-21.7c1.1-6.2,0.6-10.9-1.8-14.2
	c-0.2-0.3-0.4-0.5-0.6-0.8c7.2-0.1,12.7-7.4,11.4-14.9L786,173.4z"/>
<path fill="#167672" d="M336.1,65.1v-211.4c0-7.8,7.3-12.3,14.7-12.3h404.4c7.4,0,12.1,4.5,12.1,12.3V66h1.7c4.1,0,6.1-4.4,6.1-8.7
	v-211c0-6.8-4-11.4-10.4-11.4H341.6c-6.6,0-13.3,4.8-13.3,11.7V57.3C328.3,61.6,332.6,65.1,336.1,65.1"/>
<image overflow="visible" width="434" height="197" xlink:href="87FFA547.jpg"  transform="matrix(0.7499 0 0 0.7499 876 -238.9658)">
</image>
</svg>
