<?xml version="1.0" encoding="utf-8"?>
<!-- Generator: Adobe Illustrator 18.1.0, SVG Export Plug-In . SVG Version: 6.00 Build 0)  -->
<!DOCTYPE svg PUBLIC "-//W3C//DTD SVG 1.1//EN" "http://www.w3.org/Graphics/SVG/1.1/DTD/svg11.dtd">
<svg version="1.1" id="Warstwa_1" xmlns="http://www.w3.org/2000/svg" xmlns:xlink="http://www.w3.org/1999/xlink" x="0px" y="0px"
	 width="576px" height="576px" viewBox="-95 97 576 576" enable-background="new -95 97 576 576" xml:space="preserve">
<rect x="-95" y="97" fill="#0D2D3A" width="576" height="576"/>
<rect x="-95" y="241.3" fill="#FFFFFF" width="576" height="143.7"/>
<path fill="#0F7A94" d="M20.6,295.2H10.4L6.9,304H5l10-25.1h1.1l9.8,25.1h-2L20.6,295.2z M11,293.6h8.9l-3.4-9
	c-0.3-0.7-0.6-1.7-1-2.9c-0.3,1.1-0.6,2.1-1,3L11,293.6z"/>
<path fill="#0F7A94" d="M44.6,286.2c0,2.4-0.8,4.3-2.5,5.6c-1.6,1.3-4,1.9-7,1.9h-3.9V304h-1.7v-25h6.1
	C41.6,279,44.6,281.4,44.6,286.2z M31.3,292.2h3.4c2.8,0,4.8-0.5,6.1-1.4c1.3-0.9,1.9-2.4,1.9-4.5c0-1.9-0.6-3.4-1.8-4.3
	c-1.2-0.9-3-1.4-5.5-1.4h-4.1V292.2z"/>
<path fill="#0F7A94" d="M65.1,286.2c0,2.4-0.8,4.3-2.5,5.6c-1.6,1.3-4,1.9-7,1.9h-3.9V304H50v-25h6.1
	C62.1,279,65.1,281.4,65.1,286.2z M51.8,292.2h3.4c2.8,0,4.8-0.5,6.1-1.4c1.3-0.9,1.9-2.4,1.9-4.5c0-1.9-0.6-3.4-1.8-4.3
	c-1.2-0.9-3-1.4-5.5-1.4h-4.1V292.2z"/>
<path fill="#0F7A94" d="M84.3,297.6c0,2.1-0.8,3.7-2.3,5c-1.5,1.2-3.6,1.8-6.1,1.8c-3.1,0-5.4-0.3-7-1v-1.7c1.8,0.8,4.1,1.1,6.9,1.1
	c2.1,0,3.7-0.5,4.9-1.4c1.2-0.9,1.8-2.2,1.8-3.7c0-0.9-0.2-1.7-0.6-2.3c-0.4-0.6-1-1.2-1.9-1.7s-2.2-1.1-4-1.7
	c-2.6-0.9-4.3-1.8-5.3-2.8s-1.5-2.4-1.5-4.1c0-1.9,0.7-3.4,2.2-4.6s3.3-1.8,5.6-1.8c2.3,0,4.6,0.4,6.6,1.3l-0.6,1.5
	c-2.1-0.9-4.1-1.3-5.9-1.3s-3.3,0.4-4.4,1.3s-1.6,2-1.6,3.5c0,0.9,0.2,1.7,0.5,2.3c0.3,0.6,0.9,1.1,1.6,1.6c0.8,0.5,2.1,1,3.9,1.7
	c1.9,0.7,3.4,1.3,4.4,2c1,0.6,1.7,1.3,2.1,2.2C84.1,295.5,84.3,296.4,84.3,297.6z"/>
<path fill="#0F7A94" d="M28.4,349H27l-5.5-19.3c-0.5-1.6-0.8-2.9-1-3.9c-0.2,1-0.4,2.1-0.8,3.4c-0.3,1.3-2.2,7.9-5.5,19.8h-1.5
	l-6.9-25h1.8l4.4,16.1c0.2,0.6,0.3,1.3,0.5,1.8c0.1,0.6,0.3,1.1,0.4,1.6s0.2,1,0.3,1.4c0.1,0.5,0.2,0.9,0.3,1.4
	c0.3-1.5,0.9-3.9,1.7-7.1l4.3-15.2h1.9l5,17.4c0.6,2,1,3.6,1.2,4.9c0.1-0.8,0.3-1.7,0.6-2.6c0.2-0.9,2-7.5,5.3-19.6h1.8L28.4,349z"
	/>
<path fill="#0F7A94" d="M53.4,349H39.7v-25h13.7v1.6H41.5v9.5h11.2v1.6H41.5v10.7h11.9V349z"/>
<path fill="#0F7A94" d="M59.1,324.1H66c3.1,0,5.4,0.5,6.8,1.6c1.4,1,2.2,2.6,2.2,4.8c0,1.4-0.4,2.7-1.3,3.6c-0.9,1-2.2,1.6-3.9,1.9
	v0.1c2,0.3,3.5,0.9,4.4,1.9s1.4,2.3,1.4,4c0,2.3-0.8,4.1-2.3,5.3c-1.5,1.2-3.7,1.9-6.5,1.9h-7.7V324.1z M60.8,335.2h5.5
	c2.3,0,4.1-0.4,5.1-1.2c1.1-0.8,1.6-2,1.6-3.7s-0.6-2.9-1.8-3.6c-1.2-0.8-3-1.1-5.4-1.1h-5L60.8,335.2L60.8,335.2z M60.8,336.7v10.8
	h5.9c4.6,0,6.9-1.9,6.9-5.6c0-3.4-2.4-5.1-7.3-5.1L60.8,336.7L60.8,336.7z"/>
<path fill="none" stroke="#0F7A94" stroke-width="40" stroke-miterlimit="10" d="M-24.7,204.5c0,0-6,0-6,6V508c0,0,0,6,6,6h435.4
	c0,0,6,0,6-6V210.5c0,0,0-6-6-6H-24.7z"/>
<path fill="#213D4E" d="M416.5,370.5c5.2,0,9.5-4.3,9.5-9.5s-4.3-9.5-9.5-9.5s-9.5,4.3-9.5,9.5S411.3,370.5,416.5,370.5"/>
</svg>
