<?xml version="1.0" encoding="utf-8"?>
<!-- Generator: Adobe Illustrator 18.1.0, SVG Export Plug-In . SVG Version: 6.00 Build 0)  -->
<!DOCTYPE svg PUBLIC "-//W3C//DTD SVG 1.1//EN" "http://www.w3.org/Graphics/SVG/1.1/DTD/svg11.dtd">
<svg version="1.1" id="Warstwa_1" xmlns="http://www.w3.org/2000/svg" xmlns:xlink="http://www.w3.org/1999/xlink" x="0px" y="0px"
	 width="576px" height="576px" viewBox="-95 97 576 576" enable-background="new -95 97 576 576" xml:space="preserve">
<rect x="-95" y="97" fill="#113036" width="576" height="576"/>
<rect x="-95" y="241" fill="#FFFFFF" width="576" height="144"/>
<path fill="#19837E" d="M16.4,317.6H6.2l-3.5,8.8H0.8l10-25.1h1.1l9.8,25.1h-2L16.4,317.6z M6.9,316h8.9l-3.4-9
	c-0.3-0.7-0.6-1.7-1-2.9c-0.3,1.1-0.6,2.1-1,3L6.9,316z"/>
<path fill="#19837E" d="M31.2,326.4h-1.8V303h-8.1v-1.6h18v1.6h-8.1C31.2,303,31.2,326.4,31.2,326.4z"/>
<path fill="#19837E" d="M54.4,317.6H44.2l-3.5,8.8h-1.9l10-25.1h1.1l9.8,25.1h-2L54.4,317.6z M44.9,316h8.9l-3.4-9
	c-0.3-0.7-0.6-1.7-1-2.9c-0.3,1.1-0.6,2.1-1,3L44.9,316z"/>
<path fill="#19837E" d="M64.4,315.5v10.9h-1.7v-25h5.9c3.1,0,5.4,0.6,6.9,1.7c1.5,1.1,2.2,2.9,2.2,5.2c0,1.7-0.4,3.1-1.3,4.2
	c-0.9,1.2-2.2,2-4,2.5l6.8,11.4h-2.1l-6.4-10.9H64.4L64.4,315.5z M64.4,314h4.8c2.1,0,3.7-0.5,4.9-1.4s1.7-2.3,1.7-4.2
	c0-1.9-0.6-3.3-1.7-4.2c-1.1-0.9-3-1.3-5.6-1.3h-4.1L64.4,314L64.4,314z"/>
<path fill="#19837E" d="M82.8,326.4v-25h1.7v25H82.8z"/>
<path fill="#19837E" d="M105.9,326.4h-1.8V303H96v-1.6h18v1.6h-8.1V326.4z"/>
<path fill="#19837E" d="M138,313.9c0,4-1,7.1-3,9.4s-4.7,3.5-8.2,3.5s-6.2-1.2-8.2-3.5s-3-5.5-3-9.4c0-4,1-7.1,3-9.4
	s4.7-3.4,8.2-3.4s6.2,1.1,8.2,3.4C137.1,306.8,138,309.9,138,313.9z M117.6,313.9c0,3.6,0.8,6.3,2.4,8.3c1.6,2,3.9,2.9,6.9,2.9
	s5.3-1,6.9-2.9c1.6-1.9,2.4-4.7,2.4-8.3s-0.8-6.4-2.4-8.3c-1.6-1.9-3.9-2.9-6.9-2.9s-5.3,1-6.9,2.9
	C118.4,307.5,117.6,310.3,117.6,313.9z"/>
<path fill="#19837E" d="M156.9,319.9c0,2.1-0.8,3.7-2.3,5c-1.5,1.2-3.6,1.8-6.1,1.8c-3.1,0-5.4-0.3-7-1V324c1.8,0.8,4.1,1.1,6.9,1.1
	c2.1,0,3.7-0.5,4.9-1.4s1.8-2.2,1.8-3.7c0-0.9-0.2-1.7-0.6-2.4c-0.4-0.6-1-1.2-1.9-1.7s-2.2-1.1-4-1.7c-2.6-0.9-4.3-1.8-5.3-2.8
	s-1.5-2.4-1.5-4.1c0-1.9,0.7-3.4,2.2-4.6s3.3-1.8,5.6-1.8s4.6,0.4,6.6,1.3l-0.6,1.5c-2.1-0.9-4.1-1.3-5.9-1.3
	c-1.8,0-3.3,0.4-4.4,1.3s-1.6,2-1.6,3.5c0,0.9,0.2,1.7,0.5,2.3c0.3,0.6,0.9,1.1,1.6,1.6c0.8,0.5,2.1,1,3.9,1.7
	c1.9,0.7,3.4,1.3,4.4,2c1,0.6,1.7,1.3,2.1,2.2C156.6,317.8,156.9,318.8,156.9,319.9z"/>
<path fill="#219E97" d="M7.6,412.5c0.1-0.1,0.3-0.3,0.4-0.4c0.3-0.2,0.5-0.3,0.8-0.4c0.2-0.1,0.3-0.4,0.3-0.6s-0.3-0.6-0.5-0.6
	c-0.3,0-0.6,0-1,0C7.6,410.5,7.6,412.5,7.6,412.5z M6,416.2c0-2.1,0-4.2,0-6.3c0-0.4,0.5-0.9,0.9-0.9c0.6,0,1.2,0,1.8,0
	c0.6,0,1.1,0.4,1.5,0.8c0.3,0.3,0.4,0.7,0.5,1.2c0,0.5-0.1,0.9-0.5,1.2c-0.2,0.2-0.5,0.4-0.8,0.6c0,0-0.1,0-0.1,0.1
	c0.2,0.4,0.4,0.7,0.6,1c0.4,0.7,0.8,1.4,1.2,2.1v0.1H9.2c-0.1-0.3-0.2-0.5-0.4-0.8c-0.5-0.9-0.9-1.7-1.4-2.5v3.3L6,416.2L6,416.2z"
	/>
<path fill="#219E97" d="M3.3,413.5c-0.2-1-0.4-1.9-0.6-2.9l0,0c-0.2,1-0.4,1.9-0.6,2.9H3.3z M-0.4,416.2c0-0.2,0.1-0.3,0.1-0.5
	c0.3-1,0.6-2,1-3.1c0.3-1,0.6-1.9,0.9-2.9c0.1-0.4,0.3-0.6,0.7-0.8c0.4-0.2,1,0,1.3,0.4s0.4,0.9,0.5,1.3c0.2,0.6,0.4,1.2,0.5,1.8
	c0.4,1.2,0.7,2.4,1.1,3.5c0,0.1,0,0.1,0,0.2H4.1c-0.1-0.5-0.2-0.9-0.4-1.4c-0.7,0-1.3,0-2,0c0,0-0.1,0-0.1,0.1
	c-0.1,0.4-0.3,0.9-0.4,1.3h-1.6V416.2z"/>
<path fill="#219E97" d="M-5.8,413.5c-0.2-1-0.4-1.9-0.6-2.9l0,0c-0.2,1-0.4,1.9-0.6,2.9H-5.8z M-9.5,416.1c0.2-0.5,0.3-1,0.5-1.4
	c0.2-0.6,0.4-1.2,0.5-1.7c0.3-1,0.6-2.1,1-3.1c0.1-0.4,0.4-0.6,0.7-0.8c0.4-0.1,1,0.1,1.3,0.4c0.3,0.4,0.4,0.9,0.5,1.3
	c0.2,0.6,0.4,1.2,0.5,1.8c0.4,1.2,0.7,2.4,1.1,3.5c0,0,0,0.1,0,0.2H-5c-0.1-0.5-0.3-0.9-0.4-1.4c-0.7,0-1.3,0-2,0c0,0-0.1,0-0.1,0.1
	c-0.1,0.4-0.3,0.9-0.4,1.3h-1.6V416.1z"/>
<polygon fill="#219E97" points="-2.7,416.2 -2.7,410.4 -4.1,410.4 -4.1,409 0.3,409 0.3,410.4 -1.1,410.4 -1.1,416.2 "/>
<rect x="11.4" y="409.1" fill="#219E97" width="1.6" height="7.2"/>
<path fill="#219E97" d="M-16.5,409.1c0,1,0,2,0,3c0,0.3,0,0.7-0.1,1c-0.1,0.4-0.2,0.7-0.4,1c-0.2,0.3-0.4,0.6-0.6,0.8
	c-0.3,0.3-0.7,0.6-1.2,0.8c-0.3,0.1-0.6,0.2-0.9,0.2c-0.2,0-0.3,0-0.5,0v-1c0.3-0.1,0.5-0.2,0.8-0.3c0.2-0.1,0.4-0.2,0.6-0.3
	c0.2-0.1,0.4-0.3,0.6-0.4c0.2-0.2,0.4-0.4,0.5-0.6c0.2-0.2,0.3-0.5,0.4-0.8c0.1-0.2,0.1-0.4,0.2-0.7c0-0.2,0.1-0.4,0.1-0.6
	c0-0.1,0-0.2,0-0.3c0-0.7,0-1.3,0-2h0.5V409.1z"/>
<path fill="#219E97" d="M-14.3,409.1c0,0.7,0,1.4,0,2.1c0,0.2,0.1,0.5,0.1,0.7c0,0.3,0.2,0.6,0.3,0.9c0.2,0.3,0.3,0.6,0.6,0.9
	c0.2,0.2,0.4,0.4,0.6,0.5c0.3,0.2,0.7,0.4,1.1,0.6c0.2,0.1,0.4,0.1,0.6,0.1v1c-0.5,0-1.1-0.1-1.5-0.3c-0.3-0.1-0.5-0.3-0.7-0.4
	c-0.4-0.3-0.7-0.6-0.9-0.9c-0.2-0.3-0.4-0.6-0.5-1c-0.1-0.2-0.1-0.4-0.2-0.6c0-0.1,0-0.2,0-0.4c0-1.1,0-2.2,0-3.3L-14.3,409.1
	L-14.3,409.1z"/>
<rect x="-16.2" y="409.1" fill="#219E97" width="1" height="6.9"/>
<path fill="#219E97" d="M413.3,487c2.6-0.4,10.8-1.5,19.6-2.7L411,471.8l-17.9,2.1c-5.7,0-10.3,4.1-10.6,9.2l22.1,9.6
	C405.7,491.2,408.2,487.8,413.3,487"/>
<path fill="#219E97" d="M458,479.7l-17.9-9.5c-1.1-0.7-2.3-1.4-3.7-1.3l-23.9,2.8l21.9,12.5c11-1.4,22.5-2.9,25.5-3.3
	C459.4,480.5,458.5,479.9,458,479.7"/>
<path fill="#219E97" d="M434.4,484.2L434.4,484.2c-0.5,0-0.9,0.1-1.4,0.1l1,0.6L434.4,484.2z"/>
<path fill="#219E97" d="M-95,522.1v6.4h432.7c3.9,0,7.1-3.2,7.6-6.4H-95z"/>
<path fill="#219E97" d="M481,506l-20.8-24.5c-2.8,0.4-40.7,5.3-46.9,6.2c-4.9,0.8-7.2,4.1-7.9,5.4l31.8,40.6l43.8-8.2V506z"/>
<path fill="#219E97" d="M481,526.4l-44.1,8.3l-32.2-41.1v-0.1l0.1,0.1h0.1l0,0h-0.1h-0.1l-0.1-0.1l-0.1-0.1l-0.5-0.1l-22-9.1v8.7
	c-8.8,1.2-27.9,2.3-33.3-3.7c-1.4-1.6-1.6-3.6-0.9-6.1c1.3-4.8,0.8-8.7-1.7-11.7c-4.6-5.5-14.4-5.9-19.1-5.7l-3.8-10.7l-22-29.5
	c-0.9-1.8-2.7-2.4-4.7-2.4h-66.4c5.4-5.6,8.8-12.4,8.8-20l8.8-195.1c0-13.9-11.2-24.3-25.1-24.3H-42.1c-13.9,0-25.1,9.8-25.1,23.6
	l8.8,196.5c0,7.5,3.3,14.5,8.5,19.3H-95v41c0.3-0.7,0.9-1.3,1.4-1.3c0,0,4.4,0.4,7.6,0.4s7.3-0.4,7.3-0.4c0.8,0,1.1,1,1.1,2.3v4.3
	H-95v1.5c0.1,0,0.1,0,0.1,0c0.8,0,1.3,1,1.3,2.3v4.2H-95v10h0.1c0,0,4.7,0.4,7.9,0.4s7.3-0.4,7.3-0.4c0.8,0,1.2,1,1.2,2.3v4.5H-95
	v1.5c3.6-0.1,6.8-0.3,6.8-0.3c1.3,0,1.8,1,1.8,2.3v10.1H-95v13.6h434.3h6.1c0-0.8,0-0.6,0-0.7c0-1.5-0.3-4-0.9-6.1
	c-0.1-0.5-0.2-1.1-0.5-1.5l-15.9-44.2c4.9,0,12.3,0.8,15.5,4.6c1.8,2.2,2.2,5,1.2,8.8c-1,3.6-0.4,6.7,1.8,9.1
	c4.1,4.5,12.9,5.7,21.4,5.7c5.8,0,11.5-0.5,13.9-0.9v4.8c0,0.8,0.7,1.5,1.3,2l46.7,41c0.6,0.5,1.5,0.8,2.3,0.6l48.8-8.2L481,526.4
	L481,526.4z M-28.8,230.9c0-4.1,3.3-7.5,7.5-7.5h214.8c4.1,0,7.5,3.3,7.5,7.5v162c0,4.1-3.3,7.5-7.5,7.5H-21.3
	c-4.1,0-7.5-3.3-7.5-7.5V230.9z M189.4,463.4c0.8,0,1.1,1,1.1,2.3v4.3H173v-4.3c0-1.3,1-2.3,1.8-2.3c0,0,4.3,0.4,7.3,0.4
	C185.1,463.8,189.4,463.4,189.4,463.4z M182.6,418v-2.4h4v2.4H182.6z M174.8,471.5c0,0,4.7,0.4,7.8,0.4c3.2,0,7.4-0.4,7.4-0.4
	c0.8,0,1.3,1,1.3,2.3v4.2H173v-4.2C173,472.5,174.1,471.5,174.8,471.5z M-73.6,486v-5c0-1.3,1.2-2.3,2-2.3c0,0,4.8,0.4,8,0.4
	c3.2,0,7.3-0.4,7.3-0.4c0.8,0,1.1,1,1.1,2.3v5.1h-18.4V486z M-57.6,489.5v4.5H-76v-4.5c0-1.3,1-2.3,1.8-2.3c0,0,4.6,0.4,7.8,0.4
	s7.4-0.4,7.4-0.4C-58.2,487.2-57.6,488.2-57.6,489.5z M-71.2,477.2V473c0-1.3,1.2-2.3,2-2.3c0,0,4.8,0.4,8,0.4s7.3-0.4,7.3-0.4
	c0.8,0,1.1,1,1.1,2.3v4.2H-71.2z M-55.2,489.4c0-1.3,1.2-2.3,2-2.3c0,0,4.8,0.4,8,0.4s7.3-0.4,7.3-0.4c0.8,0,1.1,1,1.1,2.3v4.6
	h-18.4V489.4z M-52.8,486v-4.4c0-1.3,1.2-2.3,2-2.3c0,0,4.8,0.4,7.9,0.4s7.3-0.4,7.3-0.4c0.8,0,1.2,1,1.2,2.3v4.4H-52.8z
	 M-50.4,477.2v-3.5c0-1.3,1.2-2.3,2-2.3c0,0,4.6,0.4,7.7,0.4c3.2,0,7.6-0.4,7.6-0.4c0.8,0,1.1,1,1.1,2.3v3.5H-50.4z M-34.4,489.4
	c0-1.3,1.1-2.3,1.9-2.3c0,0,4.7,0.4,7.9,0.4c3.2,0,7.4-0.4,7.4-0.4c0.8,0,1.3,1,1.3,2.3v4.6h-18.5V489.4z M-32,486v-4.4
	c0-1.3,1.2-2.3,2-2.3c0,0,4.7,0.4,7.9,0.4s7.3-0.4,7.3-0.4c0.8,0,1.2,1,1.2,2.3v4.4H-32z M49.6,470.7c0.8,0,0.9,1,0.9,2.3v4.2H32.9
	V473c0-1.3,0.9-2.3,1.7-2.3c0,0,4.3,0.4,7.5,0.4S49.6,470.7,49.6,470.7z M48.9,469.2v-4.3c0-1.3,1.2-2.3,2-2.3c0,0,4.7,0.4,7.9,0.4
	s7.3-0.4,7.3-0.4c0.8,0,1.2,1,1.2,2.3v4.3H48.9z M46.5,469.2H28.9v-4.3c0-1.3,0.9-2.3,1.7-2.3c0,0,4.5,0.4,7.7,0.4s7.2-0.4,7.2-0.4
	c0.8,0,1,1,1,2.3V469.2z M29.3,471.4c0.8,0,1.2,1,1.2,2.3v3.5H12.1v-3.5c0-1.3,1.1-2.3,1.9-2.3c0,0,4.5,0.4,7.7,0.4
	S29.3,471.4,29.3,471.4z M26.5,469.2H8.1v-3.6c0-1.3,1.1-2.3,1.9-2.3c0,0,4.7,0.4,7.9,0.4c3.2,0,7.4-0.4,7.4-0.4
	c0.8,0,1.3,1,1.3,2.3v3.6H26.5z M8.5,471.4c0.8,0,1.1,1,1.1,2.3v3.5H-8.8v-3.5c0-1.3,1.1-2.3,1.9-2.3c0,0,4.5,0.4,7.7,0.4
	S8.5,471.4,8.5,471.4z M5.7,469.2h-18.5v-3.6c0-1.3,1.1-2.3,1.9-2.3c0,0,4.7,0.4,7.9,0.4c3.2,0,7.4-0.4,7.4-0.4c0.8,0,1.2,1,1.2,2.3
	L5.7,469.2L5.7,469.2z M-12.3,471.4c0.8,0,1.1,1,1.1,2.3v3.5h-18.4v-3.5c0-1.3,1.2-2.3,2-2.3c0,0,4.5,0.4,7.7,0.4
	S-12.3,471.4-12.3,471.4z M-13.6,489.4c0-1.3,1-2.3,1.8-2.3c0,0,4.6,0.4,7.8,0.4c3.2,0,7.4-0.4,7.4-0.4c0.8,0,1.4,1,1.4,2.3v4.6
	h-18.4V489.4z M-11.2,486v-4.4c0-1.3,1.1-2.3,1.9-2.3c0,0,4.7,0.4,7.9,0.4c3.2,0,7.3-0.4,7.3-0.4c0.8,0,1.2,1,1.2,2.3v4.4H-11.2z
	 M7.3,489.4c0-1.3,1.2-2.3,2-2.3c0,0,4.8,0.4,7.9,0.4s7.3-0.4,7.3-0.4c0.8,0,1.2,1,1.2,2.3v4.6H7.3V489.4z M9.7,486v-4.4
	c0-1.3,1.1-2.3,1.9-2.3c0,0,4.7,0.4,7.9,0.4s7.4-0.4,7.4-0.4c0.8,0,1.3,1,1.3,2.3v4.4H9.7z M28.1,489.5c0-1.3,0.8-2.3,1.6-2.3
	c0,0,4.3,0.4,7.5,0.4s7.3-0.4,7.3-0.4c0.8,0,1.2,1,1.2,2.3v4.5H28.1V489.5z M30.5,486v-5c0-1.3,0.9-2.3,1.7-2.3c0,0,4.5,0.4,7.7,0.4
	s7.2-0.4,7.2-0.4c0.8,0,1,1,1,2.3v5.1H30.5V486z M48.1,489.5c0-1.3,1.1-2.3,1.8-2.3c0,0,4.6,0.4,7.8,0.4s7.4-0.4,7.4-0.4
	c0.8,0,1.3,1,1.3,2.3v4.5H48L48.1,489.5L48.1,489.5z M50.5,486v-5c0-1.3,1.2-2.3,2-2.3c0,0,4.7,0.4,7.9,0.4s7.3-0.4,7.3-0.4
	c0.8,0,1.2,1,1.2,2.3v5.1H50.5V486z M52.9,477.2V473c0-1.3,1.2-2.3,2-2.3c0,0,4.7,0.4,7.9,0.4s7.3-0.4,7.3-0.4c0.8,0,1.2,1,1.2,2.3
	v4.2H52.9z M69.7,469.2v-4.3c0-1.3,1.2-2.3,2-2.3c0,0,4.8,0.4,8,0.4s7.3-0.4,7.3-0.4c0.8,0,1.2,1,1.2,2.3v4.3H69.7z M73.7,473.1
	c0-1.3,1.6-2.3,3.3-2.3c0,0,9.4,0.4,16.1,0.4c6.7,0,15.6-0.4,15.6-0.4c1.7,0,2.6,1,2.6,2.3v4.2H73.7L73.7,473.1L73.7,473.1z
	 M90.5,469.2v-4.3c0-1.3,1.2-2.3,2-2.3c0,0,4.8,0.4,8,0.4s7.3-0.4,7.3-0.4c0.8,0,1.2,1,1.2,2.3v4.3H90.5z M-20.7,406.8h96.5
	l-14.6,12.8h-94.5L-20.7,406.8z M-33.6,465.6c0-1.3,1.2-2.3,2-2.3c0,0,4.7,0.4,7.9,0.4s7.3-0.4,7.3-0.4c0.8,0,1.2,1,1.2,2.3v3.6
	h-18.4V465.6z M-54.4,465.6c0-1.3,1.2-2.3,2-2.3c0,0,4.8,0.4,7.9,0.4s7.3-0.4,7.3-0.4c0.8,0,1.2,1,1.2,2.3v3.6h-18.4V465.6z
	 M-75.2,464.9c0-1.3,1.2-2.3,2-2.3c0,0,4.8,0.4,8,0.4c3.2,0,7.3-0.4,7.3-0.4c0.8,0,1.1,1,1.1,2.3v4.3h-18.4V464.9z M-91.2,473.1
	c0-1.3,0.8-2.3,1.6-2.3c0,0,4.4,0.4,7.6,0.4s7.3-0.4,7.3-0.4c0.8,0,1.1,1,1.1,2.3v4.2h-17.6V473.1z M-93.6,486v-5
	c0-1.3,0.8-2.3,1.6-2.3c0,0,4.4,0.4,7.6,0.4c3.2,0,7.3-0.4,7.3-0.4c0.8,0,1.1,1,1.1,2.3v5.1h-17.6V486z M40.9,507.7H-84v-10.1
	c0-1.3,1-2.3,6.5-2.3c0,0,34.7,1.2,56.6,1.2s56.1-1.2,56.1-1.2c5.5,0,5.7,1,5.7,2.3V507.7z M72.9,507.7H43.3v-10.1
	c0-1.3,1.4-2.3,2.7-2.3c0,0,7.4,0.4,12.5,0.4c5.2,0,12.2-0.4,12.2-0.4c1.3,0,2.2,1,2.2,2.3L72.9,507.7L72.9,507.7z M94.5,494H68.9
	v-4.5c0-1.3,1.2-2.3,2.3-2.3c0,0,6.4,0.4,10.9,0.4s10.5-0.4,10.5-0.4c1.1,0,1.9,1,1.9,2.3L94.5,494L94.5,494z M108.9,486H71.3v-5
	c0-1.3,1.6-2.3,3.3-2.3c0,0,9.4,0.4,16.1,0.4c6.7,0,15.6-0.4,15.6-0.4c1.7,0,2.6,1,2.6,2.3L108.9,486L108.9,486z M129.7,486h-18.4
	v-5c0-1.3,1.2-2.3,2-2.3c0,0,4.8,0.4,8,0.4s7.3-0.4,7.3-0.4c0.8,0,1.2,1,1.2,2.3v5H129.7z M132.1,477.2h-18.4V473
	c0-1.3,1.2-2.3,2-2.3c0,0,4.8,0.4,8,0.4s7.3-0.4,7.3-0.4c0.8,0,1.2,1,1.2,2.3v4.2H132.1z M136.9,469.2h-25.6v-4.3
	c0-1.3,1.3-2.3,2.5-2.3c0,0,6.5,0.4,11,0.4s10.5-0.4,10.5-0.4c1.1,0,1.7,1,1.7,2.3L136.9,469.2L136.9,469.2z M169.8,486H149v-4
	c0-1.3,1.4-2.3,2.2-2.3c0,0,5.3,0.4,8.7,0.4c3.5,0,8.2-0.4,8.2-0.4c0.9,0,1.7,1,1.7,2.3L169.8,486L169.8,486z M169.8,478h-18.4v-4.2
	c0-1.3,1.1-2.3,1.8-2.3c0,0,4.6,0.4,7.8,0.4c3.2,0,7.4-0.4,7.4-0.4c0.8,0,1.3,1,1.3,2.3v4.2H169.8z M169.8,470h-17.6v-4.3
	c0-1.3,1-2.3,1.8-2.3c0,0,4.4,0.4,7.5,0.4c3.1,0,7.1-0.4,7.1-0.4c0.8,0,1.2,1,1.2,2.3L169.8,470L169.8,470z M193,486h-20v-4
	c0-1.3,1.1-2.3,2-2.3c0,0,5,0.4,8.4,0.4c3.5,0,8.1-0.4,8.1-0.4c0.9,0,1.5,1,1.5,2.3V486z M193,465.7c0-1.3,1.2-2.3,2-2.3
	c0,0,4.6,0.4,7.7,0.4s7-0.4,7-0.4c0.8,0,1,1,1,2.3v4.3H193V465.7z M193.8,473.8c0-1.3,1.3-2.3,2.1-2.3c0,0,4.8,0.4,8,0.4
	s7.3-0.4,7.3-0.4c0.8,0,1.1,1,1.1,2.3v4.2h-18.4v-4.2H193.8z M215.4,486h-20v-4c0-1.3,1.3-2.3,2.2-2.3c0,0,5.2,0.4,8.7,0.4
	s7.9-0.4,7.9-0.4c0.9,0,1.2,1,1.2,2.3L215.4,486L215.4,486z M321.9,482v4h-18.4v-4c0-1.3,1.1-2.3,1.9-2.3c0,0,4.7,0.4,7.9,0.4
	c3.2,0,7.4-0.4,7.4-0.4C321.4,479.7,321.9,480.7,321.9,482z M261,482.1c0-1.3,1.1-2.3,1.9-2.3c0,0,4.7,0.4,7.8,0.4s7.4-0.4,7.4-0.4
	c0.8,0,1.3,1,1.3,2.3v3.9H261V482.1z M257,478v-4.4c0-1.3,1.1-2.3,1.9-2.3c0,0,4.7,0.4,7.8,0.4s7.4-0.4,7.4-0.4c0.8,0,1.3,1,1.3,2.3
	v4.4H257z M265,490.7c0-1.3,1.1-2.3,1.9-2.3c0,0,4.7,0.4,7.8,0.4s7.4-0.4,7.4-0.4c0.8,0,1.3,1,1.3,2.3v4.2H265V490.7z M281.8,486
	v-3.9c0-1.3,1.3-2.3,2.1-2.3c0,0,4.8,0.4,8,0.4s7.3-0.4,7.3-0.4c0.8,0,1.1,1,1.1,2.3v3.9H281.8z M285.8,490.7c0-1.3,1.3-2.3,2.1-2.3
	c0,0,4.8,0.4,8,0.4s7.3-0.4,7.3-0.4c0.8,0,1.1,1,1.1,2.3v4.2h-18.4v-4.2H285.8z M317.9,473.5v4.6h-18.4v-4.6c0-1.3,1.1-2.3,1.9-2.3
	c0,0,4.7,0.4,7.9,0.4s7.4-0.4,7.4-0.4C317.4,471.1,317.9,472.2,317.9,473.5z M295.5,464.9c0-1.3,1.1-2.3,1.9-2.3
	c0,0,4.7,0.4,7.9,0.4s7.4-0.4,7.4-0.4c0.8,0,1.2,1,1.2,2.3v4.3h-18.4V464.9z M296.3,473.6v4.4h-18.4v-4.4c0-1.3,1.3-2.3,2.1-2.3
	c0,0,4.8,0.4,8,0.4s7.3-0.4,7.3-0.4C296,471.3,296.3,472.3,296.3,473.6z M273.8,465.1c0-1.3,1.3-2.3,2.1-2.3c0,0,4.8,0.4,8,0.4
	s7.3-0.4,7.3-0.4c0.8,0,1.1,1,1.1,2.3v4.2h-18.4v-4.2H273.8z M253,465.1c0-1.3,1.1-2.3,1.9-2.3c0,0,4.7,0.4,7.8,0.4s7.4-0.4,7.4-0.4
	c0.8,0,1.3,1,1.3,2.3v4.2H253V465.1z M231.4,465.1c0-1.3,1.1-2.3,1.8-2.3c0,0,4.6,0.4,7.8,0.4c3.2,0,7.4-0.4,7.4-0.4
	c0.8,0,1.3,1,1.3,2.3v4.2h-18.4v-4.2H231.4z M235.4,473.6c0-1.3,1.1-2.3,1.8-2.3c0,0,4.6,0.4,7.8,0.4s7.4-0.4,7.4-0.4
	c0.8,0,1.3,1,1.3,2.3v4.4h-18.4v-4.4H235.4z M239.4,482.1c0-1.3,1.1-2.3,1.8-2.3c0,0,4.6,0.4,7.8,0.4s7.4-0.4,7.4-0.4
	c0.8,0,1.3,1,1.3,2.3v3.9h-18.4v-3.9H239.4z M243.4,490.7c0-1.3,1.1-2.3,1.8-2.3c0,0,4.6,0.4,7.8,0.4c3.2,0,7.4-0.4,7.4-0.4
	c0.8,0,1.3,1,1.3,2.3v4.2h-18.4v-4.2H243.4z M286.6,508.5h-40.8v-9.8c0-1.3,1.8-2.3,3.6-2.3c0,0,10.1,0.4,17.3,0.4
	c7.2,0,16.9-0.4,16.9-0.4c1.8,0,3,1,3,2.3V508.5z M307.5,508.5h-17.6v-9.8c0-1.3,1-2.3,1.8-2.3c0,0,4.5,0.4,7.7,0.4s7.1-0.4,7.1-0.4
	c0.8,0,1,1,1,2.3V508.5z M307.5,490.5c0-1.3,1.1-2.3,1.9-2.3c0,0,4.5,0.4,7.7,0.4s7.7-0.4,7.7-0.4c0.8,0,1.1,1,1.1,2.3v4.3h-18.4
	L307.5,490.5L307.5,490.5z M329.1,498.7v9.8h-17.6v-9.8c0-1.3,1-2.3,1.8-2.3c0,0,4.3,0.4,7.5,0.4s7.5-0.4,7.5-0.4
	C328.9,496.4,329.1,497.4,329.1,498.7z"/>
</svg>
