<?xml version="1.0" encoding="utf-8"?>
<!-- Generator: Adobe Illustrator 18.1.0, SVG Export Plug-In . SVG Version: 6.00 Build 0)  -->
<!DOCTYPE svg PUBLIC "-//W3C//DTD SVG 1.1//EN" "http://www.w3.org/Graphics/SVG/1.1/DTD/svg11.dtd">
<svg version="1.1" id="Warstwa_1" xmlns="http://www.w3.org/2000/svg" xmlns:xlink="http://www.w3.org/1999/xlink" x="0px" y="0px"
	 width="576px" height="576px" viewBox="-95 97 576 576" enable-background="new -95 97 576 576" xml:space="preserve">
<rect x="-95" y="97" fill="#3B2038" width="576" height="576"/>
<path fill="#FFFFFF" d="M82,482.9l-12.9,2.7l1.4,6.5l12.9-2.7L82,482.9z M62.6,487l-12.9,2.7l1.4,6.5l12.9-2.7L62.6,487z
	 M84.3,462.2l1.4,6.5l-6.5,1.4l1.4,6.5l6.5-1.4l5.5,25.8l-45.2,9.6l-5.5-25.8l6.5-1.4l-1.4-6.5l-6.5,1.4l-1.4-6.5l12.9-2.7l2.7,12.9
	l19.4-4.1L71.4,465L84.3,462.2z M34.9,547l12.9-2.7l-5.5-25.8l-12.9,2.7L34.9,547z M105.9,531.9l12.9-2.7l-5.5-25.8l-12.9,2.7
	L105.9,531.9z M48.7,517l45.2-9.6l6.9,32.3l-6.5,1.4l5.5,25.8l-12.9,2.7l-5.5-25.8l-6.5,1.4l5.5,25.8l-12.9,2.7L62,547.9l-6.5,1.4
	L48.7,517z"/>
<path fill="#FFFFFF" d="M175.3,131.4L146,157.1l-38.4-8.8l16.1,35L103.2,216l39.2-4.1l25.7,29.1l8.1-37.5l36.4-14.7l-34.2-19.1
	L175.3,131.4z M163.9,159.6l0.9,11.1l0.6,7.3l6.4,3.6l9.3,5.2l-9.9,4l-6.7,2.7l-1.5,7.1l-2.4,11.1l-7.8-8.8l-4.7-5.3l-7,0.7
	l-11.3,1.2l5.6-8.9l3.9-6.3l-3.1-6.7l-4.4-9.6l11.2,2.6l6.8,1.6l5.3-4.6L163.9,159.6z"/>
<path fill="#FFFFFF" d="M252.5,175.2L237.9,188l-19.2-4.4l8.1,17.5l-10.3,16.4l19.6-2L249,230l4.1-18.7l18.2-7.4l-17.1-9.5
	L252.5,175.2z M246.8,189.3l0.5,5.6l0.3,3.6l3.2,1.8l4.6,2.6l-5,2l-3.4,1.4l-0.8,3.5l-1.2,5.5l-3.9-4.4l-2.3-2.6l-3.5,0.4l-5.6,0.6
	l2.8-4.5l2-3.1l-1.6-3.4l-2.2-4.8l5.6,1.3l3.4,0.8l2.6-2.3L246.8,189.3z"/>
<path fill="#ED2E7A" d="M-2.1,436.3c14.3-3,28.3,6.1,31.3,20.3c3,14.3-6.1,28.3-20.3,31.3c-14.3,3-28.3-6.1-31.3-20.3
	C-25.5,453.4-16.3,439.4-2.1,436.3 M7.5,481.6c10.7-2.3,17.5-12.8,15.3-23.5c-2.3-10.7-12.8-17.5-23.5-15.3
	c-10.7,2.3-17.5,12.8-15.3,23.5C-13.7,477-3.2,483.8,7.5,481.6 M2.9,475.8l6.5-1.4L8,467.9l-6.5,1.4L2.9,475.8z M-2.6,450l6.5-1.4
	l3.4,16.1l-6.5,1.4L-2.6,450z"/>
<path fill="#FFFFFF" d="M266,539.5h-39.9l4.2-33.6h31.5L266,539.5z M258.6,480.8h-67.1V506h22l-13.6,109h16.8l8.4-67.1h42l8.4,67.1
	h16.8l-13.6-109.1h22v-25.2L258.6,480.8L258.6,480.8L258.6,480.8z"/>
<path fill="#ED2E7A" d="M280.2,286.3c-21.6-7-44.9-7-66.6,0c-1.7-5.3-3.4-10.6-5.1-15.8c25-8.1,51.9-8.1,76.8,0
	C283.6,275.8,281.9,281,280.2,286.3 M180.3,331h-16.6v-16.6h16.6V331z M246.9,247.8c-23.7,0-45.8,6.1-64.2,16.6
	c-31.6-28.9-68.7-10.8-68.7-10.8c10.9,8.1,22.9,19.2,33.8,41.8c-7.7,10.7-13.1,22.8-15.7,35.7h-35V381l45.7,11.4
	c7.8,13.2,18.8,24.8,32.3,33.8l21.8,54.6h33.3v-34.4c5.5,0.7,11,1.1,16.6,1.1c5.7,0,11.2-0.5,16.6-1.1v34.4h33.3l21.8-54.6
	c27.2-18.3,44.7-46.6,44.7-78.6C363.4,292.5,311.2,247.8,246.9,247.8"/>
<path fill="#FFFFFF" d="M333.8,334.9c10.9-3.6,22.7,2.4,26.2,13.4c3.6,10.9-2.4,22.7-13.4,26.2c-10.9,3.5-22.6-2.5-26.2-13.4
	C316.9,350.1,322.9,338.4,333.8,334.9 M391.1,371.5l0.6-0.1l0,0l-14-16.7l14-16.7l-21.1-5.3l1.4-21.8l-20.2,8.1l-11.6-18.5
	L328.7,319l-20.2-8.2l1.5,21.7l-21.1,5.3l14,16.7l-14,16.7l21.1,5.3l-1.5,21.7l0,0l0.6-0.2l21.3-6.9l-8.3,55.2l31.7-10.3l-2-46.5
	l25.7,38.7l31.5-10l-39.2-39.8L391.1,371.5z"/>
</svg>
