<?xml version="1.0" encoding="utf-8"?>
<!-- Generator: Adobe Illustrator 18.1.0, SVG Export Plug-In . SVG Version: 6.00 Build 0)  -->
<!DOCTYPE svg PUBLIC "-//W3C//DTD SVG 1.1//EN" "http://www.w3.org/Graphics/SVG/1.1/DTD/svg11.dtd">
<svg version="1.1" id="Warstwa_1" xmlns="http://www.w3.org/2000/svg" xmlns:xlink="http://www.w3.org/1999/xlink" x="0px" y="0px"
	 width="576px" height="576px" viewBox="-95 97 576 576" enable-background="new -95 97 576 576" xml:space="preserve">
<rect x="-95" y="97" fill="#3E1D34" width="576" height="576"/>
<rect x="-95" y="241" fill="#FFFFFF" width="576" height="144"/>
<path fill="#ED2E7A" d="M8.5,301.4h6.9c3.1,0,5.4,0.5,6.8,1.6c1.4,1,2.2,2.6,2.2,4.8c0,1.4-0.4,2.7-1.3,3.6c-0.9,1-2.2,1.6-3.9,1.9
	v0.1c2,0.3,3.5,0.9,4.4,1.9s1.4,2.3,1.4,4c0,2.3-0.8,4.1-2.3,5.3c-1.5,1.2-3.7,1.9-6.5,1.9H8.5V301.4z M10.3,312.5h5.5
	c2.3,0,4.1-0.4,5.1-1.2c1.1-0.8,1.6-2,1.6-3.7s-0.6-2.9-1.8-3.6c-1.2-0.8-3-1.1-5.4-1.1h-5L10.3,312.5L10.3,312.5z M10.3,314.1v10.8
	h5.9c4.6,0,6.9-1.9,6.9-5.6c0-3.4-2.4-5.1-7.3-5.1L10.3,314.1L10.3,314.1z"/>
<path fill="#ED2E7A" d="M44.1,326.4H30.4v-25h13.7v1.6H32.2v9.5h11.2v1.6H32.2v10.7h11.9V326.4z"/>
<path fill="#ED2E7A" d="M70.8,313.9c0,4-1,7.1-3,9.4s-4.7,3.5-8.2,3.5s-6.2-1.2-8.2-3.5s-3-5.5-3-9.4c0-4,1-7.1,3-9.4
	s4.7-3.4,8.2-3.4s6.2,1.1,8.2,3.4S70.8,309.9,70.8,313.9z M50.4,313.9c0,3.6,0.8,6.3,2.4,8.3s3.9,2.9,6.9,2.9s5.3-1,6.9-2.9
	s2.4-4.7,2.4-8.3c0-3.6-0.8-6.4-2.4-8.3s-3.9-2.9-6.9-2.9s-5.3,1-6.9,2.9C51.2,307.5,50.4,310.3,50.4,313.9z"/>
<path fill="#ED2E7A" d="M90.3,319.9c0,2.1-0.8,3.7-2.3,5c-1.5,1.2-3.6,1.8-6.1,1.8c-3.1,0-5.4-0.3-7-1V324c1.8,0.8,4.1,1.1,6.9,1.1
	c2.1,0,3.7-0.5,4.9-1.4c1.2-0.9,1.8-2.2,1.8-3.7c0-0.9-0.2-1.7-0.6-2.3c-0.4-0.6-1-1.2-1.9-1.7s-2.2-1.1-4-1.7
	c-2.6-0.9-4.3-1.8-5.3-2.8s-1.5-2.4-1.5-4.1c0-1.9,0.7-3.4,2.2-4.6s3.3-1.8,5.6-1.8c2.3,0,4.6,0.4,6.6,1.3l-0.6,1.5
	c-2.1-0.9-4.1-1.3-5.9-1.3s-3.3,0.4-4.4,1.3s-1.6,2-1.6,3.5c0,0.9,0.2,1.7,0.5,2.3c0.3,0.6,0.9,1.1,1.6,1.6c0.8,0.5,2.1,1,3.9,1.7
	c1.9,0.7,3.4,1.3,4.4,2c1,0.6,1.7,1.3,2.1,2.2C90.1,317.8,90.3,318.8,90.3,319.9z"/>
<path fill="#ED2E7A" d="M404.2,188.2c-1.8,0-3.3-1.5-3.3-3.3s1.5-3.3,3.3-3.3c1.8,0,3.3,1.5,3.3,3.3S406,188.2,404.2,188.2
	 M407.5,499c0,2.1-0.9,4.1-2.9,4.1H-5.3c-2.1,0-4.6-2.1-4.6-4.1V202.7c0-2.1,1.9-3.3,3.9-3.3h410.1c2.1,0,3.3,1.3,3.3,3.3V499H407.5
	z M-5.8,181.6c1.8,0,3.3,1.5,3.3,3.3s-1.5,3.3-3.3,3.3s-3.3-1.5-3.3-3.3S-7.7,181.6-5.8,181.6 M416.8,175.5H-19.3
	c-7.6,0-13.7,6.1-13.7,13.7v343c0,7.6,6.1,13.7,13.7,13.7h7.7v-15.5c0-0.5,0.4-0.9,0.9-0.9h8.9c0.5,0,0.9,0.4,0.9,0.9V546h398.5
	v-15.5c0-0.5,0.4-0.9,0.9-0.9h8.9c0.5,0,0.9,0.4,0.9,0.9V546h8.5c7.6,0,13.7-6.1,13.7-13.7v-343
	C430.5,181.6,424.4,175.5,416.8,175.5"/>
<path fill="#ED2E7A" d="M-2.5,530.3H-10c-0.4,0-0.7,0.3-0.7,0.7v11.9v5.6c0,0.4,1.1,0.7,1.6,0.7h7.5c0.8,0,0-0.3,0-0.7v-5.6V531
	C-1.7,530.6-2.1,530.3-2.5,530.3"/>
<path fill="#ED2E7A" d="M406.6,530.3h-7.5c-0.4,0-0.7,0.3-0.7,0.8v12.7v6c0,0.4,1.1,1.2,1.6,1.2h7.5c0.8,0,0-0.8,0-1.2v-6v-12.7
	C407.5,530.7,407.1,530.3,406.6,530.3"/>
<rect x="130.8" y="546.8" fill="#ED2E7A" width="131.7" height="47.8"/>
<path fill="#ED2E7A" d="M281.4,574.5c-2,0-3.7-1.7-3.7-3.7s1.7-3.7,3.7-3.7s3.7,1.7,3.7,3.7S283.5,574.5,281.4,574.5 M281.4,565.3
	c-3.1,0-5.7,2.6-5.7,5.7c0,3.1,2.6,5.7,5.7,5.7s5.7-2.6,5.7-5.7C287.1,567.8,284.6,565.3,281.4,565.3"/>
<rect x="262.6" y="587.9" fill="#ED2E7A" width="0.8" height="0.8"/>
<rect x="-95" y="588.8" fill="#ED2E7A" width="225" height="5.8"/>
<rect x="-95" y="546.8" fill="#ED2E7A" width="225" height="4.9"/>
<rect x="-95" y="552.5" fill="#ED2E7A" width="225" height="35.4"/>
<path fill="#ED2E7A" d="M481,552.5H263.4v35.4H481V552.5z M281.4,577.6c-3.6,0-6.6-3-6.6-6.6s3-6.6,6.6-6.6s6.6,3,6.6,6.6
	S285.1,577.6,281.4,577.6z"/>
<rect x="263.4" y="588.8" fill="#ED2E7A" width="217.6" height="5.8"/>
<rect x="263.4" y="546.8" fill="#ED2E7A" width="217.6" height="4.9"/>
</svg>
