<?xml version="1.0" encoding="utf-8"?>
<!-- Generator: Adobe Illustrator 18.1.0, SVG Export Plug-In . SVG Version: 6.00 Build 0)  -->
<!DOCTYPE svg PUBLIC "-//W3C//DTD SVG 1.1//EN" "http://www.w3.org/Graphics/SVG/1.1/DTD/svg11.dtd">
<svg version="1.1" id="Warstwa_1" xmlns="http://www.w3.org/2000/svg" xmlns:xlink="http://www.w3.org/1999/xlink" x="0px" y="0px"
	 width="576px" height="576px" viewBox="-95 97 576 576" enable-background="new -95 97 576 576" xml:space="preserve">
<rect x="-95" y="97" fill="#113036" width="576" height="576"/>
<rect x="-95" y="241" fill="#FFFFFF" width="576" height="144"/>
<path fill="#19837E" d="M85.2,313.6h7.9v8.4c-2.1,0.8-4.4,1.1-7,1.1c-3.4,0-6-0.8-7.8-2.5s-2.7-4-2.7-7c0-1.9,0.4-3.5,1.3-5
	s2.2-2.6,3.8-3.4c1.7-0.8,3.6-1.2,5.7-1.2c2.3,0,4.4,0.4,6.3,1.1l-0.6,1.2c-1.9-0.7-3.8-1.1-5.8-1.1c-2.8,0-5.1,0.8-6.7,2.3
	c-1.7,1.5-2.5,3.5-2.5,6.1c0,2.8,0.8,4.9,2.4,6.3s3.9,2.1,6.9,2.1c2,0,3.6-0.2,5-0.7v-6.5H85v-1.2H85.2z"/>
<path fill="#19837E" d="M110.2,322.9H98.5v-18.5h11.7v1.2H100v7h9.6v1.2H100v7.9h10.2V322.9z"/>
<path fill="#19837E" d="M133.1,313.6c0,2.9-0.8,5.2-2.5,7c-1.7,1.7-4,2.6-7,2.6s-5.3-0.9-7-2.6s-2.5-4-2.5-7c0-2.9,0.9-5.3,2.6-6.9
	c1.7-1.7,4.1-2.5,7-2.5c3,0,5.3,0.8,7,2.5C132.2,308.4,133.1,310.7,133.1,313.6z M115.6,313.6c0,2.6,0.7,4.7,2.1,6.1
	c1.4,1.4,3.3,2.2,5.9,2.2c2.6,0,4.5-0.7,5.9-2.1s2-3.5,2-6.2s-0.7-4.7-2-6.1s-3.3-2.1-5.9-2.1c-2.5,0-4.5,0.7-5.9,2.1
	C116.2,309,115.6,311,115.6,313.6z"/>
<path fill="#19837E" d="M149.8,318.1c0,1.5-0.7,2.8-2,3.7c-1.3,0.9-3.1,1.4-5.2,1.4c-2.6,0-4.6-0.2-6-0.7v-1.3
	c1.5,0.6,3.5,0.8,5.9,0.8c1.8,0,3.2-0.3,4.2-1s1.5-1.6,1.5-2.7c0-0.7-0.2-1.3-0.5-1.7c-0.3-0.5-0.9-0.9-1.7-1.3s-1.9-0.8-3.4-1.2
	c-2.2-0.6-3.7-1.3-4.5-2.1c-0.8-0.8-1.3-1.8-1.3-3c0-1.4,0.6-2.5,1.9-3.4c1.3-0.9,2.9-1.3,4.8-1.3c2,0,3.9,0.3,5.7,1l-0.5,1.1
	c-1.8-0.6-3.5-1-5.1-1s-2.8,0.3-3.8,0.9c-0.9,0.6-1.4,1.5-1.4,2.6c0,0.7,0.1,1.2,0.4,1.7s0.8,0.8,1.4,1.2s1.8,0.8,3.4,1.3
	c1.7,0.5,2.9,1,3.8,1.4c0.8,0.5,1.5,1,1.8,1.6C149.6,316.6,149.8,317.3,149.8,318.1z"/>
<rect x="328.5" y="241" fill="#213D4E" width="26" height="144"/>
<rect x="25.5" y="241" fill="#213D4E" width="26" height="144"/>
<path fill="#219E97" d="M240.4,453.9c0-0.9-0.6-1.9-1.5-1.9H52.7c-0.9,0-1.6,0.9-1.6,1.9v12.9h189.3L240.4,453.9L240.4,453.9z"/>
<path fill="#219E97" d="M324.6,398.8c0,5-4.1,9-9.1,9H67.4c-5,0-9.1-4-9.1-9l-1.1-177.5c0-5,4.1-8.9,9.1-8.9h250.3
	c5,0,9.1,3.9,9.1,8.9L324.6,398.8z M345.4,189H37c-2.6,0-4.8,2-4.8,4.7l1.1,236.7c0,2.6,2.1,4.6,4.8,4.6h306.1c2.6,0,4.8-2,4.8-4.7
	l1.1-236.7C350.2,191,348,189,345.4,189"/>
<path fill="#219E97" d="M335.1,450.5c0-0.4-0.3-0.8-0.8-0.8H311c-0.4,0-0.8,0.3-0.8,0.8v8.6c0,0.4,0.3,0.8,0.8,0.8h23.3
	c0.4,0,0.8-0.3,0.8-0.8V450.5z"/>
<path fill="#219E97" d="M351.3,430.3c0,3.9-3.2,7-7,7H38.2c-3.9,0-7-3.1-7-7l-1.1-236.7c0-3.9,3.2-6.9,7-6.9h308.4c3.9,0,7,3,7,6.9
	L351.3,430.3z M320.3,442.7h15.5v2.3h-15.5V442.7z M335.9,459.2c0,0.7-0.6,1.3-1.3,1.3h-23.7c-0.7,0-1.3-0.6-1.3-1.3v-9
	c0-0.7,0.6-1.3,1.3-1.3h23.7c0.7,0,1.3,0.6,1.3,1.3V459.2z M350.2,179.7H32.9c-4.4,0-7.9,3.6-7.9,7.9l1.1,262.8l0.6,8.4
	c0,4.4,3.6,7.9,7.9,7.9h15v-12.9v-2.3v-4c0-0.4,0.4-0.2,0.8-0.2h21.3c0.4,0,1.2-0.2,1.2,0.2v3.7H239c1.6,0,3.1,1.1,3.1,2.6v12.9h107
	c4.4,0,7.9-3.5,7.9-7.9v-10.2l1.1-261.1C358.1,183.3,354.6,179.7,350.2,179.7"/>
<rect x="-75.3" y="428.8" fill="#219E97" width="25.6" height="24.1"/>
<rect x="-75.3" y="455.1" fill="#219E97" width="25.6" height="13.2"/>
<path fill="#219E97" d="M-3.4,438.6L-3.4,438.6L-3.4,438.6C-3.5,438.6-3.4,438.6-3.4,438.6"/>
<path fill="#219E97" d="M-48.2,585.3c0,8.6,6.7,15.7,15.3,15.7H429c8.6,0,15.5-7.1,15.5-15.7v-11.5H-48.2V585.3z"/>
<polygon fill="#219E97" points="399.9,472.2 399.1,470.7 9.2,470.7 9.2,472.2 "/>
<polygon fill="#219E97" points="-16.3,472.2 9.2,472.2 9.2,470.7 -15.7,470.7 "/>
<polygon fill="#219E97" points="-20.6,480.7 405.3,480.7 404.6,479.2 3.2,479.2 -20,479.2 "/>
<polygon fill="#219E97" points="-20.9,481.5 -21.5,482.3 406.4,482.3 405.7,481.5 "/>
<path fill="#219E97" d="M403.1,476.9l-0.7-0.8H8.5c-0.2,0-0.4,0.8-0.7,0.8H403.1z"/>
<path fill="#219E97" d="M-18.9,476.9H7.8c0.3,0,0.5-0.8,0.7-0.8h-26.8L-18.9,476.9z"/>
<path fill="#219E97" d="M398.7,470.7c-0.9-2.3-2.4-2.3-4-2.3H9.2v2.3H398.7z"/>
<path fill="#219E97" d="M-15.3,470.3l-0.1,0.3H9.3v-2.3h-21.6C-13.6,468.3-14.8,469.2-15.3,470.3"/>
<path fill="#219E97" d="M9,473.8h392l-0.7-0.8H9.3v0.6C9.2,473.7,9,473.8,9,473.8"/>
<path fill="#219E97" d="M-17.2,473.8H9l0.2-0.1V473h-25.8L-17.2,473.8z"/>
<path fill="#219E97" d="M5.7,479.2h398.5l-0.7-1.6H7.3C6.8,478.4,6.3,478.4,5.7,479.2"/>
<path fill="#219E97" d="M-19.7,479.2H5.7c0.6-0.8,1.2-0.8,1.6-1.6h-26.5L-19.7,479.2z"/>
<path fill="#219E97" d="M374.1,547.5l1.5-14.5c0-0.7,0.6-1.1,1.4-1.1h22c0.8,0,1.4,0.4,1.4,1.1l2.1,14.5H374.1z M372.6,521.1
	c0-0.5,0.6-0.8,1.4-0.8h22c0.8,0,1.4,0.3,1.4,0.8l2.1,7h-28.4L372.6,521.1z M368.5,508.7c0-0.5,0.6-0.8,1.4-0.8H392
	c0.8,0,1.4,0.3,1.4,0.8l2.1,7H367L368.5,508.7z M364.3,495.5c0-0.5,0.6-0.8,1.4-0.8h22.1c0.8,0,1.4,0.3,1.4,0.8l2.1,7h-28.5
	L364.3,495.5z M323.3,549l0.9-14.8c0-0.7,0.4-1.4,0.8-1.4h13.5c0.5,0,0.8,0.8,0.8,1.4l1.3,14.8H323.3z M303.6,549l0.9-14.8
	c0-0.7,0.4-1.4,0.8-1.4h13.5c0.5,0,0.8,0.8,0.8,1.4L321,549H303.6z M272.9,549l1.5-14.8c0-0.7,0.6-1.4,1.4-1.4h22.1
	c0.8,0,1.4,0.8,1.4,1.4l2.1,14.8H272.9z M253.2,549l0.9-14.8c0-0.7,0.4-1.4,0.8-1.4h13.5c0.5,0,0.8,0.8,0.8,1.4l1.3,14.8H253.2z
	 M233.6,543.6l0.9-8.9c0-0.7,0.4-1.2,0.8-1.2h13.5c0.5,0,0.8,0.5,0.8,1.2l1.3,8.9H233.6z M56.6,562.2l1.7-13.4
	c0-0.8,0.6-1.4,1.4-1.4h187.9c0.8,0,1.4,0.6,1.4,1.4l1.7,13.4H56.6z M55.7,533.9c0-0.7,0.4-1.2,0.8-1.2H70c0.5,0,0.8,0.5,0.8,1.2
	l1.3,8.9H54.7L55.7,533.9z M23,549l1.5-14.8c0-0.7,0.6-1.4,1.4-1.4H48c0.8,0,1.4,0.8,1.4,1.4l2.1,14.8H23z M3.8,528.1l0.9-7.3
	c0-0.5,0.4-1.3,0.8-1.3H19c0.5,0,0.8,0.7,0.8,1.3l1.3,7.3H3.8z M2.1,549L3,534.2c0-0.7,0.4-1.4,0.8-1.4h13.5c0.5,0,0.8,0.8,0.8,1.4
	l1.3,14.8H2.1z M9.7,507.2c0-0.5,0.6-0.9,1.3-0.9h21.7c0.7,0,1.3,0.3,1.3,0.9l2,6.9H8L9.7,507.2z M14.8,493.3c0-0.5,0.4-0.9,0.8-0.9
	h13.5c0.5,0,0.8,0.3,0.8,0.9l1.3,6.9H13.8L14.8,493.3z M42.1,528.1H24.7l0.9-7.3c0-0.5,0.4-1.3,0.8-1.3h13.5c0.5,0,0.8,0.7,0.8,1.3
	L42.1,528.1z M35.6,493.3c0-0.5,0.4-0.9,0.8-0.9h13.5c0.5,0,0.8,0.3,0.8,0.9l1.3,6.9H34.6L35.6,493.3z M56.1,493.3
	c0-0.5,0.4-0.9,0.8-0.9h13.5c0.5,0,0.8,0.3,0.8,0.9l1.3,6.9H55.1L56.1,493.3z M75.8,493.3c0-0.5,0.4-0.9,0.8-0.9h13.5
	c0.5,0,0.8,0.3,0.8,0.9l1.3,6.9H74.8L75.8,493.3z M95.4,493.3c0-0.5,0.4-0.9,0.8-0.9h13.5c0.5,0,0.8,0.3,0.8,0.9l1.3,6.9H94.4
	L95.4,493.3z M115.1,493.3c0-0.5,0.4-0.9,0.8-0.9h13.5c0.5,0,0.8,0.3,0.8,0.9l1.3,6.9h-17.4L115.1,493.3z M134.8,493.3
	c0-0.5,0.4-0.9,0.8-0.9h13.5c0.5,0,0.8,0.3,0.8,0.9l1.3,6.9h-17.4L134.8,493.3z M154.5,493.3c0-0.5,0.4-0.9,0.8-0.9h13.5
	c0.5,0,0.8,0.3,0.8,0.9l1.3,6.9h-17.4L154.5,493.3z M174.1,493.3c0-0.5,0.4-0.9,0.8-0.9h13.5c0.5,0,0.8,0.3,0.8,0.9l1.3,6.9h-17.4
	L174.1,493.3z M193.8,493.3c0-0.5,0.4-0.9,0.8-0.9h13.5c0.5,0,0.8,0.3,0.8,0.9l1.3,6.9h-17.4L193.8,493.3z M213.5,493.3
	c0-0.5,0.4-0.9,0.8-0.9h13.5c0.5,0,0.8,0.3,0.8,0.9l1.3,6.9h-17.4L213.5,493.3z M233.2,493.3c0-0.5,0.4-0.9,0.8-0.9h13.5
	c0.5,0,0.8,0.3,0.8,0.9l1.3,6.9h-17.4L233.2,493.3z M252.9,493.3c0-0.5,0.4-0.9,0.8-0.9h13.5c0.5,0,0.8,0.3,0.8,0.9l1.3,6.9h-17.4
	L252.9,493.3z M272.5,493.3c0-0.5,0.4-0.9,0.8-0.9h13.5c0.5,0,0.8,0.3,0.8,0.9l1.3,6.9h-17.4L272.5,493.3z M292.2,493.3
	c0-0.5,0.4-0.9,0.8-0.9h13.5c0.5,0,0.8,0.3,0.8,0.9l1.3,6.9h-17.4L292.2,493.3z M313.8,493.3c0-0.5,0.4-0.9,0.8-0.9h13.5
	c0.5,0,0.8,0.3,0.8,0.9l1.3,6.9h-17.4L313.8,493.3z M282.2,520.8c0-0.5,0.4-1.3,0.8-1.3h13.5c0.5,0,0.8,0.7,0.8,1.3l1.3,7.3h-17.4
	L282.2,520.8z M278.4,514.1l0.9-6.9c0-0.5,0.4-0.9,0.8-0.9h13.5c0.5,0,0.8,0.3,0.8,0.9l1.3,6.9H278.4z M262.5,520.8
	c0-0.5,0.4-1.3,0.8-1.3h13.5c0.5,0,0.8,0.7,0.8,1.3l1.3,7.3h-17.4L262.5,520.8z M258.8,514.1l0.9-6.9c0-0.5,0.4-0.9,0.8-0.9H274
	c0.5,0,0.8,0.3,0.8,0.9l1.3,6.9H258.8z M242.8,520.8c0-0.5,0.4-1.3,0.8-1.3h13.5c0.5,0,0.8,0.7,0.8,1.3l1.3,7.3h-17.4L242.8,520.8z
	 M239.1,514.1l0.9-6.9c0-0.5,0.4-0.9,0.8-0.9h13.5c0.5,0,0.8,0.3,0.8,0.9l1.3,6.9H239.1z M222.2,528.1l0.9-7.3
	c0-0.5,0.4-1.3,0.8-1.3h13.5c0.5,0,0.8,0.7,0.8,1.3l1.3,7.3H222.2z M214.8,533.9c0-0.7,0.4-1.2,0.8-1.2h13.5c0.5,0,0.8,0.5,0.8,1.2
	l1.3,8.9h-17.4L214.8,533.9z M219.4,514.1l0.9-6.9c0-0.5,0.4-0.9,0.8-0.9h13.5c0.5,0,0.8,0.3,0.8,0.9l1.3,6.9H219.4z M202.5,528.1
	l0.9-7.3c0-0.5,0.4-1.3,0.8-1.3h13.5c0.5,0,0.8,0.7,0.8,1.3l1.3,7.3H202.5z M195.2,533.9c0-0.7,0.4-1.2,0.8-1.2h13.5
	c0.5,0,0.8,0.5,0.8,1.2l1.3,8.9h-17.4L195.2,533.9z M199.7,514.1l0.9-6.9c0-0.5,0.4-0.9,0.8-0.9h13.5c0.5,0,0.8,0.3,0.8,0.9l1.3,6.9
	H199.7z M182.9,528.1l0.9-7.3c0-0.5,0.4-1.3,0.8-1.3h13.5c0.5,0,0.8,0.7,0.8,1.3l1.3,7.3H182.9z M175.5,533.9c0-0.7,0.4-1.2,0.8-1.2
	h13.5c0.5,0,0.8,0.5,0.8,1.2l1.3,8.9h-17.4L175.5,533.9z M180,514.1l0.9-6.9c0-0.5,0.4-0.9,0.8-0.9h13.5c0.5,0,0.8,0.3,0.8,0.9
	l1.3,6.9H180z M163.2,528.1l0.9-7.3c0-0.5,0.4-1.3,0.8-1.3h13.5c0.5,0,0.8,0.7,0.8,1.3l1.3,7.3H163.2z M155.8,533.9
	c0-0.7,0.4-1.2,0.8-1.2h13.5c0.5,0,0.8,0.5,0.8,1.2l1.3,8.9h-17.4L155.8,533.9z M160.4,514.1l0.9-6.9c0-0.5,0.4-0.9,0.8-0.9h13.5
	c0.5,0,0.8,0.3,0.8,0.9l1.3,6.9H160.4z M143.5,528.1l0.9-7.3c0-0.5,0.4-1.3,0.8-1.3h13.5c0.5,0,0.8,0.7,0.8,1.3l1.3,7.3H143.5z
	 M136.1,533.9c0-0.7,0.4-1.2,0.8-1.2h13.5c0.5,0,0.8,0.5,0.8,1.2l1.3,8.9h-17.4L136.1,533.9z M140.7,514.1l0.9-6.9
	c0-0.5,0.4-0.9,0.8-0.9h13.5c0.5,0,0.8,0.3,0.8,0.9l1.3,6.9H140.7z M123.8,528.1l0.9-7.3c0-0.5,0.4-1.3,0.8-1.3H139
	c0.5,0,0.8,0.7,0.8,1.3l1.3,7.3H123.8z M116.4,533.9c0-0.7,0.4-1.2,0.8-1.2h13.5c0.5,0,0.8,0.5,0.8,1.2l1.3,8.9h-17.4L116.4,533.9z
	 M121,514.1l0.9-6.9c0-0.5,0.4-0.9,0.8-0.9h13.5c0.5,0,0.8,0.3,0.8,0.9l1.3,6.9H121z M104.1,528.1l0.9-7.3c0-0.5,0.4-1.3,0.8-1.3
	h13.5c0.5,0,0.8,0.7,0.8,1.3l1.3,7.3H104.1z M96.2,533.9c0-0.7,0.4-1.2,0.8-1.2h13.5c0.5,0,0.8,0.5,0.8,1.2l1.3,8.9H95.2L96.2,533.9
	z M101.3,514.1l0.9-6.9c0-0.5,0.4-0.9,0.8-0.9h13.5c0.5,0,0.8,0.3,0.8,0.9l1.3,6.9H101.3z M84.5,528.1l0.9-7.3
	c0-0.5,0.4-1.3,0.8-1.3h13.5c0.5,0,0.8,0.7,0.8,1.3l1.3,7.3H84.5z M76.5,533.9c0-0.7,0.4-1.2,0.8-1.2h13.5c0.5,0,0.8,0.5,0.8,1.2
	l1.3,8.9H75.5L76.5,533.9z M81.6,514.1l0.9-6.9c0-0.5,0.4-0.9,0.8-0.9h13.5c0.5,0,0.8,0.3,0.8,0.9l1.3,6.9H81.6z M65.7,520.8
	c0-0.5,0.4-1.3,0.8-1.3H80c0.5,0,0.8,0.7,0.8,1.3l1.3,7.3H64.7L65.7,520.8z M62,514.1l0.9-6.9c0-0.5,0.4-0.9,0.8-0.9h13.5
	c0.5,0,0.8,0.3,0.8,0.9l1.3,6.9H62z M42.3,514.1l0.9-6.9c0-0.5,0.4-0.9,0.8-0.9h13.5c0.5,0,0.8,0.3,0.8,0.9l1.3,6.9H42.3z M46,520.8
	c0-0.5,0.4-1.3,0.8-1.3h13.5c0.5,0,0.8,0.7,0.8,1.3l1.3,7.3H45L46,520.8z M331.1,507.2l2.6,6.9h-35.5l1.9-6.9c0-0.5,0.8-0.9,1.7-0.9
	h27.6C330.3,506.3,331.1,506.7,331.1,507.2 M336.5,528.1H301l1.9-7.3c0-0.5,0.8-1.3,1.7-1.3h27.6c0.9,0,1.7,0.7,1.7,1.3L336.5,528.1
	z M444.1,560.2c-0.1-2.8-0.8-5.6-2.2-8.1l-30.5-62.3l-2.5-3.6H-23.6l-0.8,1.4l-22.3,67.5c-0.4,1.2-0.8,2.3-1,3.6
	c-0.1,0.4-0.1,1-0.1,1.4l-0.8,13h493L444.1,560.2z"/>
<polygon fill="#219E97" points="-22.6,484.6 -23.2,485.4 408.6,485.4 407.9,484.6 "/>
<path fill="#219E97" d="M402,475.3l-0.7-0.8H9c0,0-0.1,0.8-0.3,0.8H402z"/>
<path fill="#219E97" d="M-18,475.3H8.7c0.1,0,0.2-0.8,0.3-0.8h-26.4L-18,475.3z"/>
<polygon fill="#219E97" points="-21.7,483.1 -22.3,483.8 407.5,483.8 406.8,483.1 "/>
<path fill="#219E97" d="M398.9,470c0-0.1-0.1-0.1-0.1-0.2l0.4,0.6L398.9,470z"/>
<g>
	<polygon fill="#219E97" points="-76.1,429.5 -76.1,428.8 -95,428.8 -95,452.8 -76.1,452.8 	"/>
	<path fill="#219E97" d="M2.6,428.8h-52.4v24.1h46.6v2.3h-46.6v14h-25.9h-0.5v-14H-95v24.1h74.5l4.5-9.2l0.1-0.4c0.6-1.1,1.7-2,3-2
		H8.5v-32.8C8.5,431.5,5.8,428.8,2.6,428.8z M-3.2,441.2v-0.3v-0.3v-1.7H1c-0.6,0.6-1.2,1.2-1.7,1.8c0,0,0,0.3-0.1,0.3
		C-1.6,440.9-2.4,441.1-3.2,441.2L-3.2,441.2z M1,443.5h-4.2v-0.4c0,0,0,0-0.1,0c0,0.1,0,0.1,0,0.2c0.1,0,0,0.2,0,0.2h-0.1
		c0,0,0,1.2,0,1.8c0,0.1,0,0,0,0c-0.4,0.1-0.9,0.1-1.3,0.1c-0.7,0-1.4-0.2-2-0.5c-1-0.5-1.7-1.2-2.1-2.2c-0.2-0.4-0.3-0.9-0.4-1.4
		c-0.1-1.6,0.4-3,1.7-4c0.6-0.5,1.2-0.8,1.9-0.9c0.4-0.1,0.9-0.1,1.3-0.1c0.3,0,0.6,0.1,0.9,0.2l0.1,0.2c0,0.6,0,1.2-0.1,1.8
		c-0.2-0.1-0.6-0.2-0.8-0.2c-0.7-0.1-1.4,0.1-2,0.5s-0.9,1-1,1.7c-0.2,1.1,0.5,2.3,1.5,2.8c0.8,0.4,1.7,0.4,2.5,0
		c0-0.5,0.1-0.8,0.1-1.1v-0.8l0,0c0.8,0,1.6,0,2.4,0h0.1c0.6,0.6,1.2,1.5,1.8,2.1C1.1,443.3,1.1,443.5,1,443.5L1,443.5z M-3.5,443.1
		L-3.5,443.1L-3.5,443.1L-3.5,443.1L-3.5,443.1C-3.5,443.1-3.4,443.1-3.5,443.1z"/>
</g>
</svg>
