<?xml version="1.0" encoding="utf-8"?>
<!-- Generator: Adobe Illustrator 18.1.0, SVG Export Plug-In . SVG Version: 6.00 Build 0)  -->
<!DOCTYPE svg PUBLIC "-//W3C//DTD SVG 1.1//EN" "http://www.w3.org/Graphics/SVG/1.1/DTD/svg11.dtd">
<svg version="1.1" id="Warstwa_1" xmlns="http://www.w3.org/2000/svg" xmlns:xlink="http://www.w3.org/1999/xlink" x="0px" y="0px"
	 width="576px" height="576px" viewBox="-95 97 576 576" enable-background="new -95 97 576 576" xml:space="preserve">
<rect x="-95" y="97" fill="#3E1D34" width="576" height="575.8"/>
<rect x="-95" y="240.9" fill="#FFFFFF" width="576" height="143.7"/>
<path fill="#ED2E7A" d="M63.4,291.4h9.2v11.4c-2.4,1-5.1,1.5-8.2,1.5c-3.9,0-7-1.1-9.1-3.3c-2.1-2.2-3.2-5.4-3.2-9.5
	c0-2.5,0.5-4.8,1.6-6.8c1-2,2.5-3.5,4.5-4.6c1.9-1.1,4.2-1.6,6.7-1.6c2.7,0,5.2,0.5,7.3,1.5l-0.7,1.6c-2.2-1-4.4-1.5-6.7-1.5
	c-3.3,0-5.9,1-7.8,3.1c-1.9,2-2.9,4.8-2.9,8.2c0,3.8,0.9,6.6,2.8,8.5c1.8,1.9,4.5,2.8,8.1,2.8c2.3,0,4.3-0.3,5.9-1v-8.8h-7.4
	L63.4,291.4L63.4,291.4z"/>
<path fill="#ED2E7A" d="M92.5,304H78.8v-25h13.7v1.6H80.6v9.5h11.2v1.6H80.6v10.7h11.9V304z"/>
<path fill="#ED2E7A" d="M119.2,291.5c0,4-1,7.1-3,9.4s-4.7,3.5-8.2,3.5s-6.2-1.2-8.2-3.5s-3-5.5-3-9.4c0-4,1-7.1,3-9.4
	s4.7-3.4,8.2-3.4s6.2,1.1,8.2,3.4S119.2,287.5,119.2,291.5z M98.7,291.5c0,3.6,0.8,6.3,2.4,8.3s3.9,2.9,6.9,2.9s5.3-1,6.9-2.9
	s2.4-4.7,2.4-8.3c0-3.6-0.8-6.4-2.4-8.3c-1.6-1.9-3.9-2.9-6.9-2.9s-5.3,1-6.9,2.9C99.5,285.2,98.7,287.9,98.7,291.5z"/>
<path fill="#ED2E7A" d="M144.8,304h-1.4l-5.5-19.3c-0.5-1.6-0.8-2.9-1-3.9c-0.2,1-0.4,2.1-0.8,3.4c-0.3,1.3-2.2,7.9-5.5,19.8h-1.5
	l-6.9-25h1.8l4.4,16.1c0.2,0.6,0.3,1.3,0.5,1.8c0.1,0.6,0.3,1.1,0.4,1.6c0.1,0.5,0.2,1,0.3,1.4c0.1,0.5,0.2,0.9,0.3,1.4
	c0.3-1.5,0.9-3.9,1.7-7.1l4.3-15.2h1.9l5,17.4c0.6,2,1,3.6,1.2,4.9c0.1-0.8,0.3-1.7,0.6-2.6c0.2-0.9,2-7.5,5.3-19.6h1.8L144.8,304z"
	/>
<path fill="#ED2E7A" d="M177.1,291.5c0,4-1,7.1-3,9.4s-4.7,3.5-8.2,3.5s-6.2-1.2-8.2-3.5s-3-5.5-3-9.4c0-4,1-7.1,3-9.4
	s4.7-3.4,8.2-3.4s6.2,1.1,8.2,3.4S177.1,287.5,177.1,291.5z M156.7,291.5c0,3.6,0.8,6.3,2.4,8.3c1.6,2,3.9,2.9,6.9,2.9
	s5.3-1,6.9-2.9c1.6-1.9,2.4-4.7,2.4-8.3c0-3.6-0.8-6.4-2.4-8.3c-1.6-1.9-3.9-2.9-6.9-2.9s-5.3,1-6.9,2.9
	C157.5,285.2,156.7,287.9,156.7,291.5z"/>
<path fill="#ED2E7A" d="M184.6,293.1V304h-1.7v-25h5.9c3.1,0,5.4,0.6,6.9,1.7s2.2,2.9,2.2,5.2c0,1.7-0.4,3.1-1.3,4.2
	c-0.9,1.2-2.2,2-4,2.5l6.8,11.4h-2.1l-6.4-10.9L184.6,293.1L184.6,293.1z M184.6,291.6h4.8c2.1,0,3.7-0.5,4.9-1.4s1.7-2.3,1.7-4.2
	c0-1.9-0.6-3.3-1.7-4.2c-1.1-0.9-3-1.3-5.6-1.3h-4.1L184.6,291.6L184.6,291.6z"/>
<path fill="#ED2E7A" d="M220.5,304h-2.1l-9.6-13.2l-3.3,2.9V304h-1.7v-25h1.7v13l2.8-2.8l9.8-10.2h2.2l-10.2,10.6L220.5,304z"/>
<path fill="#ED2E7A" d="M237.8,297.6c0,2.1-0.8,3.7-2.3,5c-1.5,1.2-3.6,1.8-6.1,1.8c-3.1,0-5.4-0.3-7-1v-1.7
	c1.8,0.8,4.1,1.1,6.9,1.1c2.1,0,3.7-0.5,4.9-1.4s1.8-2.2,1.8-3.7c0-0.9-0.2-1.7-0.6-2.3c-0.4-0.6-1-1.2-1.9-1.7s-2.2-1.1-4-1.7
	c-2.6-0.9-4.3-1.8-5.3-2.8s-1.5-2.4-1.5-4.1c0-1.9,0.7-3.4,2.2-4.6s3.3-1.8,5.6-1.8s4.6,0.4,6.6,1.3l-0.6,1.5
	c-2.1-0.9-4.1-1.3-5.9-1.3c-1.8,0-3.3,0.4-4.4,1.3s-1.6,2-1.6,3.5c0,0.9,0.2,1.7,0.5,2.3c0.3,0.6,0.9,1.1,1.7,1.6s2.1,1,3.9,1.7
	c1.9,0.7,3.4,1.3,4.4,2c1,0.6,1.7,1.3,2.1,2.2C237.6,295.5,237.8,296.4,237.8,297.6z"/>
<path fill="#ED2E7A" d="M67.2,349H53.5v-25h13.7v1.6H55.3v9.5h11.2v1.6H55.3v10.7h11.9V349z"/>
<path fill="#ED2E7A" d="M91,349h-1.8l-14.8-22.2h-0.1c0.1,2.6,0.2,4.6,0.2,6V349h-1.7v-25h1.7l14.8,22.1h0.1c-0.1-2.1-0.2-4-0.2-5.8
	V324h1.7L91,349L91,349z"/>
<path fill="#ED2E7A" d="M111.9,342.6c0,2.1-0.8,3.7-2.3,5c-1.5,1.2-3.6,1.8-6.1,1.8c-3.1,0-5.4-0.3-7-1v-1.7
	c1.8,0.8,4.1,1.1,6.9,1.1c2.1,0,3.7-0.5,4.9-1.4c1.2-0.9,1.8-2.2,1.8-3.7c0-0.9-0.2-1.7-0.6-2.3c-0.4-0.6-1-1.2-1.9-1.7
	s-2.2-1.1-4-1.7c-2.6-0.9-4.3-1.8-5.3-2.8s-1.5-2.4-1.5-4.1c0-1.9,0.7-3.4,2.2-4.6s3.3-1.8,5.6-1.8c2.3,0,4.6,0.4,6.6,1.3l-0.6,1.5
	c-2.1-0.9-4.1-1.3-5.9-1.3s-3.3,0.4-4.4,1.3s-1.6,2-1.6,3.5c0,0.9,0.2,1.7,0.5,2.3c0.3,0.6,0.9,1.1,1.6,1.6c0.8,0.5,2.1,1,3.9,1.7
	c1.9,0.7,3.4,1.3,4.4,2c1,0.6,1.7,1.3,2.1,2.2C111.7,340.5,111.9,341.4,111.9,342.6z"/>
<path fill="#ED2E7A" d="M130.8,349h-13.7v-25h13.7v1.6h-11.9v9.5h11.2v1.6h-11.2v10.7h11.9V349z"/>
<path fill="#ED2E7A" d="M147.5,349l-9.3-23.1h-0.1c0.1,1.4,0.1,2.9,0.1,4.3v18.7h-1.7v-25h2.7l8.9,22h0.1l8.9-22h2.6v25h-1.8V330
	c0-1.3,0.1-2.7,0.2-4.1H158l-9.3,23h-1.2V349z"/>
<path fill="#ED2E7A" d="M166.7,324h6.9c3.1,0,5.4,0.5,6.8,1.6c1.4,1,2.2,2.6,2.2,4.8c0,1.4-0.4,2.7-1.3,3.6c-0.9,1-2.2,1.6-3.9,1.9
	v0.1c2,0.3,3.5,0.9,4.4,1.9s1.4,2.3,1.4,4c0,2.3-0.8,4.1-2.3,5.3c-1.5,1.2-3.7,1.9-6.5,1.9h-7.7L166.7,324L166.7,324z M168.4,335.2
	h5.5c2.3,0,4.1-0.4,5.1-1.2c1.1-0.8,1.6-2,1.6-3.7s-0.6-2.9-1.8-3.6c-1.2-0.8-3-1.1-5.4-1.1h-5L168.4,335.2L168.4,335.2z
	 M168.4,336.7v10.8h5.9c4.6,0,6.9-1.9,6.9-5.6c0-3.4-2.4-5.1-7.3-5.1L168.4,336.7L168.4,336.7z"/>
<path fill="#ED2E7A" d="M188.6,349v-25h1.7v23.3h11.9v1.6h-13.6V349z"/>
<path fill="#ED2E7A" d="M220.2,349h-13.7v-25h13.7v1.6h-11.9v9.5h11.2v1.6h-11.2v10.7h11.9V349z"/>
<path fill="#ED2E7A" d="M249,349h-15.6v-1.5l6.6-6.9c1.9-1.9,3.2-3.4,3.9-4.4c0.7-1,1.3-2,1.7-2.9s0.5-1.9,0.5-2.9
	c0-1.5-0.5-2.7-1.5-3.6s-2.3-1.4-3.8-1.4c-2.1,0-4.1,0.8-6,2.3l-0.9-1.2c2.1-1.8,4.4-2.6,6.9-2.6c2.2,0,3.9,0.6,5.1,1.7
	c1.2,1.1,1.9,2.8,1.9,4.8c0,1.7-0.4,3.3-1.3,4.8s-2.4,3.4-4.6,5.7l-6.4,6.6v0.1h13.4v1.4H249z"/>
<rect x="326" y="240.9" fill="#480041" width="44" height="144"/>
<path fill="#ED2E7A" d="M270.4,395.7c0,2-1.6,3.6-3.6,3.6H43.2c-2,0-3.6-1.6-3.6-3.6v-175c0-2,1.6-3.6,3.6-3.6h223.6
	c2,0,3.6,1.6,3.6,3.6L270.4,395.7L270.4,395.7z M291.4,191.3H20.8c-3.1,0-5.5,2.5-5.5,5.5v219.7c0,3.1,2.5,5.5,5.5,5.5H33v-0.1
	c0-1.5,1.2-2.8,2.8-2.8H275c1.5,0,2.8,1.2,2.8,2.8v0.2h13.6c3.1,0,5.5-2.5,5.5-5.5V196.8C297,193.8,294.5,191.3,291.4,191.3"/>
<rect x="235" y="420.6" fill="#ED2E7A" width="19.9" height="11.1"/>
<path fill="#ED2E7A" d="M-78.4,564.3c0,2.3,2.1,4.6,4.4,6.1h534.5c2.3-1.5,3.9-3.7,3.9-6.1v-2.8H-78.3L-78.4,564.3L-78.4,564.3z"/>
<path fill="#ED2E7A" d="M237.2,450.8c0,8.6-36.8,15.6-82.2,15.6s-82.2-7-82.2-15.6s36.8-15.6,82.2-15.6S237.2,442.2,237.2,450.8"/>
<rect x="361.1" y="309.3" fill="#ED2E7A" width="0.7" height="1.5"/>
<rect x="361.1" y="317.4" fill="#ED2E7A" width="2.2" height="7.4"/>
<path fill="#ED2E7A" d="M361.9,330.6c-0.9,0-1.7,0.8-1.7,1.7s0.8,1.7,1.7,1.7s1.7-0.8,1.7-1.7S362.9,330.6,361.9,330.6"/>
<path fill="#ED2E7A" d="M361.1,276.6c0.7,0,1.5-0.5,1.5-1.2v-6.5c0-0.7-0.8-1.2-1.5-1.2c-0.7,0-1.5,0.5-1.5,1.2v6.5
	C359.6,276,360.4,276.6,361.1,276.6"/>
<path fill="#ED2E7A" d="M347.8,266.2c0-0.5,0.5-0.4,1-0.4h6.4c0.5,0,0.7-0.1,0.7,0.4v68.3c0,0.5-0.2,1.3-0.7,1.3h-6.4
	c-0.5,0-1-0.8-1-1.3V266.2z M348.5,336.6h6.7c0.7,0,1.5-0.7,1.5-1.4v-69.3c0-0.7-0.8-0.8-1.5-0.8h-6.7c-0.7,0-1.4,0.1-1.4,0.8v69.3
	C347.1,335.9,347.8,336.6,348.5,336.6"/>
<path fill="#ED2E7A" d="M378.7,406.6h-5.1v47.3c0,1.6-1.3,2.9-2.9,2.9h-46.6c-1.6,0-2.9-1.3-2.9-2.9v-47.3h-4.7
	c-10.8,0-19.6,25.8-19.6,36.6v13.9c0,1.4,1.2,2.6,2.6,2.6h95.9c1.4,0,2.6-1.2,2.6-2.6v-13.9C398,432.4,389.6,406.6,378.7,406.6"/>
<path fill="#ED2E7A" d="M367,341.7h-22.9v-82.6H367V341.7z M365.3,368.5c-0.8,0-1.5-0.7-1.5-1.5s0.7-1.5,1.5-1.5
	c0.8,0,1.5,0.7,1.5,1.5S366.1,368.5,365.3,368.5 M365.3,375.2c-0.8,0-1.5-0.7-1.5-1.5s0.7-1.5,1.5-1.5c0.8,0,1.5,0.7,1.5,1.5
	C366.8,374.5,366.1,375.2,365.3,375.2 M365.3,381.8c-0.8,0-1.5-0.7-1.5-1.5s0.7-1.5,1.5-1.5c0.8,0,1.5,0.7,1.5,1.5
	C366.8,381.2,366.1,381.8,365.3,381.8 M365.3,388.4c-0.8,0-1.5-0.7-1.5-1.5s0.7-1.5,1.5-1.5c0.8,0,1.5,0.7,1.5,1.5
	C366.8,387.8,366.1,388.4,365.3,388.4 M365.3,395.1c-0.8,0-1.5-0.7-1.5-1.5s0.7-1.5,1.5-1.5c0.8,0,1.5,0.7,1.5,1.5
	S366.1,395.1,365.3,395.1 M365.3,401.7c-0.8,0-1.5-0.7-1.5-1.5s0.7-1.5,1.5-1.5c0.8,0,1.5,0.7,1.5,1.5
	C366.8,401.1,366.1,401.7,365.3,401.7 M365.3,408.4c-0.8,0-1.5-0.7-1.5-1.5s0.7-1.5,1.5-1.5c0.8,0,1.5,0.7,1.5,1.5
	S366.1,408.4,365.3,408.4 M365.3,415c-0.8,0-1.5-0.7-1.5-1.5s0.7-1.5,1.5-1.5c0.8,0,1.5,0.7,1.5,1.5S366.1,415,365.3,415
	 M365.3,421.6c-0.8,0-1.5-0.7-1.5-1.5s0.7-1.5,1.5-1.5c0.8,0,1.5,0.7,1.5,1.5C366.8,421,366.1,421.6,365.3,421.6 M365.3,428.3
	c-0.8,0-1.5-0.7-1.5-1.5s0.7-1.5,1.5-1.5c0.8,0,1.5,0.7,1.5,1.5C366.8,427.6,366.1,428.3,365.3,428.3 M365.3,434.9
	c-0.8,0-1.5-0.7-1.5-1.5s0.7-1.5,1.5-1.5c0.8,0,1.5,0.7,1.5,1.5S366.1,434.9,365.3,434.9 M365.3,441.5c-0.8,0-1.5-0.7-1.5-1.5
	s0.7-1.5,1.5-1.5c0.8,0,1.5,0.7,1.5,1.5S366.1,441.5,365.3,441.5 M360.1,368.5c-0.8,0-1.5-0.7-1.5-1.5s0.7-1.5,1.5-1.5
	c0.8,0,1.5,0.7,1.5,1.5S360.9,368.5,360.1,368.5 M360.1,375.2c-0.8,0-1.5-0.7-1.5-1.5s0.7-1.5,1.5-1.5c0.8,0,1.5,0.7,1.5,1.5
	C361.6,374.5,360.9,375.2,360.1,375.2 M360.1,381.8c-0.8,0-1.5-0.7-1.5-1.5s0.7-1.5,1.5-1.5c0.8,0,1.5,0.7,1.5,1.5
	C361.6,381.2,360.9,381.8,360.1,381.8 M360.1,388.4c-0.8,0-1.5-0.7-1.5-1.5s0.7-1.5,1.5-1.5c0.8,0,1.5,0.7,1.5,1.5
	C361.6,387.8,360.9,388.4,360.1,388.4 M360.1,395.1c-0.8,0-1.5-0.7-1.5-1.5s0.7-1.5,1.5-1.5c0.8,0,1.5,0.7,1.5,1.5
	S360.9,395.1,360.1,395.1 M360.1,401.7c-0.8,0-1.5-0.7-1.5-1.5s0.7-1.5,1.5-1.5c0.8,0,1.5,0.7,1.5,1.5
	C361.6,401.1,360.9,401.7,360.1,401.7 M360.1,408.4c-0.8,0-1.5-0.7-1.5-1.5s0.7-1.5,1.5-1.5c0.8,0,1.5,0.7,1.5,1.5
	S360.9,408.4,360.1,408.4 M360.1,415c-0.8,0-1.5-0.7-1.5-1.5s0.7-1.5,1.5-1.5c0.8,0,1.5,0.7,1.5,1.5S360.9,415,360.1,415
	 M360.1,421.6c-0.8,0-1.5-0.7-1.5-1.5s0.7-1.5,1.5-1.5c0.8,0,1.5,0.7,1.5,1.5C361.6,421,360.9,421.6,360.1,421.6 M360.1,428.3
	c-0.8,0-1.5-0.7-1.5-1.5s0.7-1.5,1.5-1.5c0.8,0,1.5,0.7,1.5,1.5C361.6,427.6,360.9,428.3,360.1,428.3 M360.1,434.9
	c-0.8,0-1.5-0.7-1.5-1.5s0.7-1.5,1.5-1.5c0.8,0,1.5,0.7,1.5,1.5S360.9,434.9,360.1,434.9 M360.1,441.5c-0.8,0-1.5-0.7-1.5-1.5
	s0.7-1.5,1.5-1.5c0.8,0,1.5,0.7,1.5,1.5S360.9,441.5,360.1,441.5 M355,368.5c-0.8,0-1.5-0.7-1.5-1.5s0.7-1.5,1.5-1.5
	s1.5,0.7,1.5,1.5S355.8,368.5,355,368.5 M355,375.2c-0.8,0-1.5-0.7-1.5-1.5s0.7-1.5,1.5-1.5s1.5,0.7,1.5,1.5
	C356.4,374.5,355.8,375.2,355,375.2 M355,381.8c-0.8,0-1.5-0.7-1.5-1.5s0.7-1.5,1.5-1.5s1.5,0.7,1.5,1.5
	C356.4,381.2,355.8,381.8,355,381.8 M355,388.4c-0.8,0-1.5-0.7-1.5-1.5s0.7-1.5,1.5-1.5s1.5,0.7,1.5,1.5
	C356.4,387.8,355.8,388.4,355,388.4 M355,395.1c-0.8,0-1.5-0.7-1.5-1.5s0.7-1.5,1.5-1.5s1.5,0.7,1.5,1.5
	C356.4,394.4,355.8,395.1,355,395.1 M355,401.7c-0.8,0-1.5-0.7-1.5-1.5s0.7-1.5,1.5-1.5s1.5,0.7,1.5,1.5
	C356.4,401.1,355.8,401.7,355,401.7 M355,408.4c-0.8,0-1.5-0.7-1.5-1.5s0.7-1.5,1.5-1.5s1.5,0.7,1.5,1.5
	C356.4,407.7,355.8,408.4,355,408.4 M355,415c-0.8,0-1.5-0.7-1.5-1.5s0.7-1.5,1.5-1.5s1.5,0.7,1.5,1.5
	C356.4,414.3,355.8,415,355,415 M355,421.6c-0.8,0-1.5-0.7-1.5-1.5s0.7-1.5,1.5-1.5s1.5,0.7,1.5,1.5
	C356.4,421,355.8,421.6,355,421.6 M355,428.3c-0.8,0-1.5-0.7-1.5-1.5s0.7-1.5,1.5-1.5s1.5,0.7,1.5,1.5
	C356.4,427.6,355.8,428.3,355,428.3 M355,434.9c-0.8,0-1.5-0.7-1.5-1.5s0.7-1.5,1.5-1.5s1.5,0.7,1.5,1.5S355.8,434.9,355,434.9
	 M355,441.5c-0.8,0-1.5-0.7-1.5-1.5s0.7-1.5,1.5-1.5s1.5,0.7,1.5,1.5S355.8,441.5,355,441.5 M349.8,368.5c-0.8,0-1.5-0.7-1.5-1.5
	s0.7-1.5,1.5-1.5c0.8,0,1.5,0.7,1.5,1.5S350.6,368.5,349.8,368.5 M349.8,375.2c-0.8,0-1.5-0.7-1.5-1.5s0.7-1.5,1.5-1.5
	c0.8,0,1.5,0.7,1.5,1.5C351.3,374.5,350.6,375.2,349.8,375.2 M349.8,381.8c-0.8,0-1.5-0.7-1.5-1.5s0.7-1.5,1.5-1.5
	c0.8,0,1.5,0.7,1.5,1.5C351.3,381.2,350.6,381.8,349.8,381.8 M349.8,388.4c-0.8,0-1.5-0.7-1.5-1.5s0.7-1.5,1.5-1.5
	c0.8,0,1.5,0.7,1.5,1.5C351.3,387.8,350.6,388.4,349.8,388.4 M349.8,395.1c-0.8,0-1.5-0.7-1.5-1.5s0.7-1.5,1.5-1.5
	c0.8,0,1.5,0.7,1.5,1.5S350.6,395.1,349.8,395.1 M349.8,401.7c-0.8,0-1.5-0.7-1.5-1.5s0.7-1.5,1.5-1.5c0.8,0,1.5,0.7,1.5,1.5
	C351.3,401.1,350.6,401.7,349.8,401.7 M349.8,408.4c-0.8,0-1.5-0.7-1.5-1.5s0.7-1.5,1.5-1.5c0.8,0,1.5,0.7,1.5,1.5
	S350.6,408.4,349.8,408.4 M349.8,415c-0.8,0-1.5-0.7-1.5-1.5s0.7-1.5,1.5-1.5c0.8,0,1.5,0.7,1.5,1.5S350.6,415,349.8,415
	 M349.8,421.6c-0.8,0-1.5-0.7-1.5-1.5s0.7-1.5,1.5-1.5c0.8,0,1.5,0.7,1.5,1.5C351.3,421,350.6,421.6,349.8,421.6 M349.8,428.3
	c-0.8,0-1.5-0.7-1.5-1.5s0.7-1.5,1.5-1.5c0.8,0,1.5,0.7,1.5,1.5C351.3,427.6,350.6,428.3,349.8,428.3 M349.8,434.9
	c-0.8,0-1.5-0.7-1.5-1.5s0.7-1.5,1.5-1.5c0.8,0,1.5,0.7,1.5,1.5S350.6,434.9,349.8,434.9 M349.8,441.5c-0.8,0-1.5-0.7-1.5-1.5
	s0.7-1.5,1.5-1.5c0.8,0,1.5,0.7,1.5,1.5S350.6,441.5,349.8,441.5 M344.6,368.5c-0.8,0-1.5-0.7-1.5-1.5s0.7-1.5,1.5-1.5
	c0.8,0,1.5,0.7,1.5,1.5S345.5,368.5,344.6,368.5 M344.6,375.2c-0.8,0-1.5-0.7-1.5-1.5s0.7-1.5,1.5-1.5c0.8,0,1.5,0.7,1.5,1.5
	C346.1,374.5,345.5,375.2,344.6,375.2 M344.6,381.8c-0.8,0-1.5-0.7-1.5-1.5s0.7-1.5,1.5-1.5c0.8,0,1.5,0.7,1.5,1.5
	C346.1,381.2,345.5,381.8,344.6,381.8 M344.6,388.4c-0.8,0-1.5-0.7-1.5-1.5s0.7-1.5,1.5-1.5c0.8,0,1.5,0.7,1.5,1.5
	C346.1,387.8,345.5,388.4,344.6,388.4 M344.6,395.1c-0.8,0-1.5-0.7-1.5-1.5s0.7-1.5,1.5-1.5c0.8,0,1.5,0.7,1.5,1.5
	S345.5,395.1,344.6,395.1 M344.6,401.7c-0.8,0-1.5-0.7-1.5-1.5s0.7-1.5,1.5-1.5c0.8,0,1.5,0.7,1.5,1.5
	C346.1,401.1,345.5,401.7,344.6,401.7 M344.6,408.4c-0.8,0-1.5-0.7-1.5-1.5s0.7-1.5,1.5-1.5c0.8,0,1.5,0.7,1.5,1.5
	S345.5,408.4,344.6,408.4 M344.6,415c-0.8,0-1.5-0.7-1.5-1.5s0.7-1.5,1.5-1.5c0.8,0,1.5,0.7,1.5,1.5S345.5,415,344.6,415
	 M344.6,421.6c-0.8,0-1.5-0.7-1.5-1.5s0.7-1.5,1.5-1.5c0.8,0,1.5,0.7,1.5,1.5C346.1,421,345.5,421.6,344.6,421.6 M344.6,428.3
	c-0.8,0-1.5-0.7-1.5-1.5s0.7-1.5,1.5-1.5c0.8,0,1.5,0.7,1.5,1.5C346.1,427.6,345.5,428.3,344.6,428.3 M344.6,434.9
	c-0.8,0-1.5-0.7-1.5-1.5s0.7-1.5,1.5-1.5c0.8,0,1.5,0.7,1.5,1.5S345.5,434.9,344.6,434.9 M344.6,441.5c-0.8,0-1.5-0.7-1.5-1.5
	s0.7-1.5,1.5-1.5c0.8,0,1.5,0.7,1.5,1.5S345.5,441.5,344.6,441.5 M341.9,247.7c0,0.6-0.5,1.1-1.1,1.1h-9.6c-0.6,0-1.1-0.5-1.1-1.1
	v-9.6c0-0.6,0.5-1.1,1.1-1.1h9.6c0.6,0,1.1,0.5,1.1,1.1C341.9,238.1,341.9,247.7,341.9,247.7z M339.5,368.5c-0.8,0-1.5-0.7-1.5-1.5
	s0.7-1.5,1.5-1.5s1.5,0.7,1.5,1.5S340.3,368.5,339.5,368.5 M339.5,375.2c-0.8,0-1.5-0.7-1.5-1.5s0.7-1.5,1.5-1.5s1.5,0.7,1.5,1.5
	C341,374.5,340.3,375.2,339.5,375.2 M339.5,381.8c-0.8,0-1.5-0.7-1.5-1.5s0.7-1.5,1.5-1.5s1.5,0.7,1.5,1.5
	C341,381.2,340.3,381.8,339.5,381.8 M339.5,388.4c-0.8,0-1.5-0.7-1.5-1.5s0.7-1.5,1.5-1.5s1.5,0.7,1.5,1.5
	C341,387.8,340.3,388.4,339.5,388.4 M339.5,395.1c-0.8,0-1.5-0.7-1.5-1.5s0.7-1.5,1.5-1.5s1.5,0.7,1.5,1.5S340.3,395.1,339.5,395.1
	 M339.5,401.7c-0.8,0-1.5-0.7-1.5-1.5s0.7-1.5,1.5-1.5s1.5,0.7,1.5,1.5C341,401.1,340.3,401.7,339.5,401.7 M339.5,408.4
	c-0.8,0-1.5-0.7-1.5-1.5s0.7-1.5,1.5-1.5s1.5,0.7,1.5,1.5S340.3,408.4,339.5,408.4 M339.5,415c-0.8,0-1.5-0.7-1.5-1.5
	s0.7-1.5,1.5-1.5s1.5,0.7,1.5,1.5S340.3,415,339.5,415 M339.5,421.6c-0.8,0-1.5-0.7-1.5-1.5s0.7-1.5,1.5-1.5s1.5,0.7,1.5,1.5
	C341,421,340.3,421.6,339.5,421.6 M339.5,428.3c-0.8,0-1.5-0.7-1.5-1.5s0.7-1.5,1.5-1.5s1.5,0.7,1.5,1.5
	C341,427.6,340.3,428.3,339.5,428.3 M339.5,434.9c-0.8,0-1.5-0.7-1.5-1.5s0.7-1.5,1.5-1.5s1.5,0.7,1.5,1.5S340.3,434.9,339.5,434.9
	 M339.5,441.5c-0.8,0-1.5-0.7-1.5-1.5s0.7-1.5,1.5-1.5s1.5,0.7,1.5,1.5S340.3,441.5,339.5,441.5 M334.3,368.5
	c-0.8,0-1.5-0.7-1.5-1.5s0.7-1.5,1.5-1.5c0.8,0,1.5,0.7,1.5,1.5S335.1,368.5,334.3,368.5 M334.3,375.2c-0.8,0-1.5-0.7-1.5-1.5
	s0.7-1.5,1.5-1.5c0.8,0,1.5,0.7,1.5,1.5C335.8,374.5,335.1,375.2,334.3,375.2 M334.3,381.8c-0.8,0-1.5-0.7-1.5-1.5s0.7-1.5,1.5-1.5
	c0.8,0,1.5,0.7,1.5,1.5C335.8,381.2,335.1,381.8,334.3,381.8 M334.3,388.4c-0.8,0-1.5-0.7-1.5-1.5s0.7-1.5,1.5-1.5
	c0.8,0,1.5,0.7,1.5,1.5C335.8,387.8,335.1,388.4,334.3,388.4 M334.3,395.1c-0.8,0-1.5-0.7-1.5-1.5s0.7-1.5,1.5-1.5
	c0.8,0,1.5,0.7,1.5,1.5S335.1,395.1,334.3,395.1 M334.3,401.7c-0.8,0-1.5-0.7-1.5-1.5s0.7-1.5,1.5-1.5c0.8,0,1.5,0.7,1.5,1.5
	C335.8,401.1,335.1,401.7,334.3,401.7 M334.3,408.4c-0.8,0-1.5-0.7-1.5-1.5s0.7-1.5,1.5-1.5c0.8,0,1.5,0.7,1.5,1.5
	S335.1,408.4,334.3,408.4 M334.3,415c-0.8,0-1.5-0.7-1.5-1.5s0.7-1.5,1.5-1.5c0.8,0,1.5,0.7,1.5,1.5S335.1,415,334.3,415
	 M334.3,421.6c-0.8,0-1.5-0.7-1.5-1.5s0.7-1.5,1.5-1.5c0.8,0,1.5,0.7,1.5,1.5C335.8,421,335.1,421.6,334.3,421.6 M334.3,428.3
	c-0.8,0-1.5-0.7-1.5-1.5s0.7-1.5,1.5-1.5c0.8,0,1.5,0.7,1.5,1.5C335.8,427.6,335.1,428.3,334.3,428.3 M334.3,434.9
	c-0.8,0-1.5-0.7-1.5-1.5s0.7-1.5,1.5-1.5c0.8,0,1.5,0.7,1.5,1.5S335.1,434.9,334.3,434.9 M334.3,441.5c-0.8,0-1.5-0.7-1.5-1.5
	s0.7-1.5,1.5-1.5c0.8,0,1.5,0.7,1.5,1.5S335.1,441.5,334.3,441.5 M329.2,368.5c-0.8,0-1.5-0.7-1.5-1.5s0.7-1.5,1.5-1.5
	c0.8,0,1.5,0.7,1.5,1.5S330,368.5,329.2,368.5 M329.2,375.2c-0.8,0-1.5-0.7-1.5-1.5s0.7-1.5,1.5-1.5c0.8,0,1.5,0.7,1.5,1.5
	C330.6,374.5,330,375.2,329.2,375.2 M329.2,381.8c-0.8,0-1.5-0.7-1.5-1.5s0.7-1.5,1.5-1.5c0.8,0,1.5,0.7,1.5,1.5
	C330.6,381.2,330,381.8,329.2,381.8 M329.2,388.4c-0.8,0-1.5-0.7-1.5-1.5s0.7-1.5,1.5-1.5c0.8,0,1.5,0.7,1.5,1.5
	C330.6,387.8,330,388.4,329.2,388.4 M329.2,395.1c-0.8,0-1.5-0.7-1.5-1.5s0.7-1.5,1.5-1.5c0.8,0,1.5,0.7,1.5,1.5
	C330.6,394.4,330,395.1,329.2,395.1 M329.2,401.7c-0.8,0-1.5-0.7-1.5-1.5s0.7-1.5,1.5-1.5c0.8,0,1.5,0.7,1.5,1.5
	C330.6,401.1,330,401.7,329.2,401.7 M329.2,408.4c-0.8,0-1.5-0.7-1.5-1.5s0.7-1.5,1.5-1.5c0.8,0,1.5,0.7,1.5,1.5
	C330.6,407.7,330,408.4,329.2,408.4 M329.2,415c-0.8,0-1.5-0.7-1.5-1.5s0.7-1.5,1.5-1.5c0.8,0,1.5,0.7,1.5,1.5
	C330.6,414.3,330,415,329.2,415 M329.2,421.6c-0.8,0-1.5-0.7-1.5-1.5s0.7-1.5,1.5-1.5c0.8,0,1.5,0.7,1.5,1.5
	C330.6,421,330,421.6,329.2,421.6 M329.2,428.3c-0.8,0-1.5-0.7-1.5-1.5s0.7-1.5,1.5-1.5c0.8,0,1.5,0.7,1.5,1.5
	C330.6,427.6,330,428.3,329.2,428.3 M329.2,434.9c-0.8,0-1.5-0.7-1.5-1.5s0.7-1.5,1.5-1.5c0.8,0,1.5,0.7,1.5,1.5
	S330,434.9,329.2,434.9 M329.2,441.5c-0.8,0-1.5-0.7-1.5-1.5s0.7-1.5,1.5-1.5c0.8,0,1.5,0.7,1.5,1.5S330,441.5,329.2,441.5
	 M369.3,225.2h-43.7c-1.6,0-2.9,0.9-2.9,2.5v177.1v47.3c0,1.6,1.3,3.2,2.9,3.2h43.7c1.6,0,2.9-1.6,2.9-3.2v-47.3V227.7
	C372.2,226.2,370.9,225.2,369.3,225.2"/>
<path fill="#ED2E7A" d="M415.3,540.8l1.4-9.8c0-0.8,0.4-1.5,0.9-1.5c4.1,0.4,8.5,0.4,13.2,0c0.5,0,0.9,0.8,0.9,1.6l0.9,9.8
	L415.3,540.8L415.3,540.8z M395.1,540.8l1.4-9.8c0-0.8,0.4-1.5,0.9-1.5c4.1,0.4,8.5,0.4,13.2,0c0.5,0,0.9,0.8,0.9,1.6l0.9,9.8
	L395.1,540.8L395.1,540.8z M393.8,521.3c0-0.6,0.5-1.2,1-1.2H407c0.6,0,1,0.5,1,1.2l0.7,5.5h-15.6L393.8,521.3z M357.9,540.8
	l2.7-9.8c0-0.8,0.8-1.5,1.8-1.5c8.1,0.4,16.9,0.4,26.2,0c1,0,1.8,0.8,1.8,1.6l1.8,9.8L357.9,540.8L357.9,540.8z M356.4,521.3
	c0-0.6,0.5-1.2,1-1.2h12.2c0.6,0,1,0.5,1,1.2l0.7,5.5h-15.7L356.4,521.3z M353.1,511.8c0-0.6,0.5-1.2,1-1.2h12.2c0.6,0,1,0.5,1,1.2
	l0.7,5.5h-15.7L353.1,511.8z M349.2,502.2c0-0.6,0.5-1.2,1-1.2h12.2c0.6,0,1,0.5,1,1.2l0.7,5.5h-15.7L349.2,502.2z M345.6,492.6
	c0-0.6,0.5-1.2,1-1.2h12.2c0.6,0,1,0.5,1,1.2l0.7,5.5h-15.7L345.6,492.6z M320.9,540.8l1.4-8.9c0-0.7,0.4-1.4,0.9-1.4
	c4.1,0.4,8.5,0.4,13.2,0c0.5,0,0.9,0.7,0.9,1.4l0.9,8.9H320.9z M301.4,540.8l1.4-8.9c0-0.7,0.4-1.4,0.9-1.4c4.1,0.4,8.5,0.4,13.2,0
	c0.5,0,0.9,0.7,0.9,1.4l0.9,8.9H301.4z M281.9,540.8l1.4-8.9c0-0.7,0.4-1.4,0.9-1.4c4.1,0.4,8.5,0.4,13.2,0c0.5,0,0.9,0.7,0.9,1.4
	l0.9,8.9H281.9z M279,506.4c0-0.7,0.4-1.2,0.9-1.2c4.1,0.4,8.5,0.4,13.2,0c0.5,0,0.9,0.5,0.9,1.2l0.9,8.6h-17.3L279,506.4z
	 M273.7,477.6c0-0.7,0.4-1.3,0.9-1.3c4.1,0.4,8.5,0.4,13.2,0c0.5,0,0.9,0.6,0.9,1.3l0.9,8.7h-17.3L273.7,477.6z M239.2,540.8
	l2.1-9.8c0-0.8,0.6-1.5,1.4-1.5c6.4,0.4,13.3,0.4,20.7,0c0.8,0,1.4,0.8,1.4,1.6l1.4,9.8L239.2,540.8L239.2,540.8z M184.9,540.8
	l2.1-9.8c0-0.8,0.6-1.5,1.4-1.5c6.4,0.4,13.3,0.4,20.7,0c0.8,0,1.4,0.8,1.4,1.6l1.4,9.8L184.9,540.8L184.9,540.8z M42,540.8l2.8-9.7
	c0-0.8,0.7-1.6,1.7-1.6c43.7,1.1,87.3,1,131,0c0.9,0,1.7,0.8,1.7,1.7l2.8,9.7H42V540.8z M42.7,521.3c0-0.6,0.5-1.2,1-1.2h12.2
	c0.6,0,1,0.5,1,1.2l0.7,5.5H41.9L42.7,521.3z M12,540.8l2.1-9.8c0-0.8,0.6-1.5,1.4-1.5c6.4,0.4,13.3,0.4,20.7,0
	c0.8,0,1.4,0.8,1.4,1.6l1.4,9.8L12,540.8L12,540.8z M5.3,521.3c0-0.6,0.5-1.2,1-1.2h12.2c0.6,0,1,0.5,1,1.2l0.7,5.5H4.5L5.3,521.3z
	 M-39.3,526.8l0.7-5.9c0-0.4,0.3-0.7,0.7-0.7h38c0.4,0,0.7,0.3,0.7,0.7l0.7,5.9H-39.3z M-45.2,540.8l2.1-9.8c0-0.8,0.6-1.5,1.4-1.5
	c6.4,0.4,13.3,0.4,20.7,0c0.8,0,1.4,0.8,1.4,1.6l1.4,9.8L-45.2,540.8L-45.2,540.8z M-34.1,511.2c0-0.5,0.4-0.9,0.8-0.9
	c8.9,0.5,17.5,0.4,25.9,0c0.4,0,0.8,0.5,0.8,1l0.7,6h-29L-34.1,511.2z M-30.5,501.7c0-0.4,0.4-0.9,0.8-0.9c8.9,0.5,17.5,0.4,25.9,0
	c0.4,0,0.8,0.5,0.8,1l0.7,6h-29L-30.5,501.7z M-3.5,498.1h-15.7l0.7-5.5c0-0.6,0.5-1.2,1-1.2h12.2c0.6,0,1,0.5,1,1.2L-3.5,498.1z
	 M-19.1,477.6c0-0.7,0.4-1.3,0.9-1.3c4.1,0.4,8.5,0.4,13.2,0c0.5,0,0.9,0.6,0.9,1.3l0.9,8.7h-17.3L-19.1,477.6z M-1.1,510.6h12.2
	c0.6,0,1,0.5,1,1.2l0.7,5.5H-2.9l0.7-5.5C-2.2,511.1-1.7,510.6-1.1,510.6 M0.2,492.6c0-0.6,0.5-1.2,1-1.2h12.2c0.6,0,1,0.5,1,1.2
	l0.7,5.5H-0.6L0.2,492.6z M15.7,502.2l0.7,5.5H0.7l0.7-5.5c0-0.6,0.5-1.2,1-1.2h12.2C15.2,501,15.7,501.5,15.7,502.2 M17.5,510.6
	h12.2c0.6,0,1,0.5,1,1.2l0.7,5.5H15.7l0.7-5.5C16.5,511.1,17,510.6,17.5,510.6 M18.2,477.6c0-0.7,0.4-1.3,0.9-1.3
	c4.1,0.4,8.5,0.4,13.2,0c0.5,0,0.9,0.6,0.9,1.3l0.9,8.7H16.8L18.2,477.6z M18.2,498.1l0.7-5.5c0-0.6,0.5-1.2,1-1.2h12.2
	c0.6,0,1,0.5,1,1.2l0.7,5.5H18.2z M35.1,507.7H19.4l0.7-5.5c0-0.6,0.5-1.2,1-1.2h12.2c0.6,0,1,0.5,1,1.2L35.1,507.7z M39,526.8H23.3
	l0.7-5.5c0-0.6,0.5-1.2,1-1.2h12.2c0.6,0,1,0.5,1,1.2L39,526.8z M36.2,510.6h12.2c0.6,0,1,0.5,1,1.2l0.7,5.5H34.4l0.7-5.5
	C35.2,511.1,35.6,510.6,36.2,510.6 M37.8,477.6c0-0.7,0.4-1.3,0.9-1.3c4.1,0.4,8.5,0.4,13.2,0c0.5,0,0.9,0.6,0.9,1.3l0.9,8.7H36.4
	L37.8,477.6z M36.9,498.1l0.7-5.5c0-0.6,0.5-1.2,1-1.2h12.2c0.6,0,1,0.5,1,1.2l0.7,5.5H36.9z M38.1,507.7l0.7-5.5
	c0-0.6,0.5-1.2,1-1.2H52c0.6,0,1,0.5,1,1.2l0.7,5.5H38.1z M54.9,510.6h12.2c0.6,0,1,0.5,1,1.2l0.7,5.5H53.1l0.7-5.5
	C53.9,511.1,54.3,510.6,54.9,510.6 M56.3,492.6c0-0.6,0.5-1.2,1-1.2h12.2c0.6,0,1,0.5,1,1.2l0.7,5.5H55.5L56.3,492.6z M57.3,477.6
	c0-0.7,0.4-1.3,0.9-1.3c4.1,0.4,8.5,0.4,13.2,0c0.5,0,0.9,0.6,0.9,1.3l0.9,8.7H55.9L57.3,477.6z M56.8,507.7l0.7-5.5
	c0-0.6,0.5-1.2,1-1.2h12.2c0.6,0,1,0.5,1,1.2l0.7,5.5H56.8z M76.3,526.8H60.6l0.7-5.5c0-0.6,0.5-1.2,1-1.2h12.2c0.6,0,1,0.5,1,1.2
	L76.3,526.8z M85.7,510.6c0.6,0,1,0.5,1,1.2l0.7,5.5H71.7l0.7-5.5c0-0.6,0.5-1.2,1-1.2H85.7z M75,492.6c0-0.6,0.5-1.2,1-1.2h12.2
	c0.6,0,1,0.5,1,1.2l0.7,5.5H74.2L75,492.6z M76.8,477.6c0-0.7,0.4-1.3,0.9-1.3c4.1,0.4,8.5,0.4,13.2,0c0.5,0,0.9,0.6,0.9,1.3
	l0.9,8.7H75.4L76.8,477.6z M93.6,492.6c0-0.6,0.5-1.2,1-1.2h12.2c0.6,0,1,0.5,1,1.2l0.7,5.5H92.8L93.6,492.6z M104.3,477.6
	c0-0.7,0.4-1.3,0.9-1.3c4.1,0.4,8.5,0.4,13.2,0c0.5,0,0.9,0.6,0.9,1.3l0.9,8.7h-17.3L104.3,477.6z M123.8,477.6
	c0-0.7,0.4-1.3,0.9-1.3c4.1,0.4,8.5,0.4,13.2,0c0.5,0,0.9,0.6,0.9,1.3l0.9,8.7h-17.3L123.8,477.6z M143.3,477.6
	c0-0.7,0.4-1.3,0.9-1.3c4.1,0.4,8.5,0.4,13.2,0c0.5,0,0.9,0.6,0.9,1.3l0.9,8.7H142L143.3,477.6z M162.9,477.6c0-0.7,0.4-1.3,0.9-1.3
	c4.1,0.4,8.5,0.4,13.2,0c0.5,0,0.9,0.6,0.9,1.3l0.9,8.7h-17.3L162.9,477.6z M182.6,492.6l0.7,5.5h-15.7l0.7-5.5c0-0.6,0.5-1.2,1-1.2
	h12.2C182.1,491.4,182.6,492,182.6,492.6 M183.8,502.2l0.7,5.5h-15.7l0.7-5.5c0-0.6,0.5-1.2,1-1.2h12.2
	C183.4,501,183.8,501.5,183.8,502.2 M173.4,521.3c0-0.6,0.5-1.2,1-1.2h12.2c0.6,0,1,0.5,1,1.2l0.7,5.5h-15.7L173.4,521.3z
	 M165.2,517.2l0.7-5.5c0-0.6,0.5-1.2,1-1.2h12.2c0.6,0,1,0.5,1,1.2l0.7,5.5H165.2z M154.8,521.3c0-0.6,0.5-1.2,1-1.2H168
	c0.6,0,1,0.5,1,1.2l0.7,5.5H154L154.8,521.3z M165.2,502.2l0.7,5.5h-15.7l0.7-5.5c0-0.6,0.5-1.2,1-1.2h12.2
	C164.7,501,165.2,501.5,165.2,502.2 M148.9,498.1l0.7-5.5c0-0.6,0.5-1.2,1-1.2h12.2c0.6,0,1,0.5,1,1.2l0.7,5.5H148.9z M146.5,517.2
	l0.7-5.5c0-0.6,0.5-1.2,1-1.2h12.2c0.6,0,1,0.5,1,1.2l0.7,5.5H146.5z M136.1,521.3c0-0.6,0.5-1.2,1-1.2h12.2c0.6,0,1,0.5,1,1.2
	l0.7,5.5h-15.7L136.1,521.3z M146.5,502.2l0.7,5.5h-15.7l0.7-5.5c0-0.6,0.5-1.2,1-1.2h12.2C146,501,146.5,501.5,146.5,502.2
	 M130.3,498.1l0.7-5.5c0-0.6,0.5-1.2,1-1.2h12.2c0.6,0,1,0.5,1,1.2l0.7,5.5H130.3z M127.8,517.2l0.7-5.5c0-0.6,0.5-1.2,1-1.2h12.2
	c0.6,0,1,0.5,1,1.2l0.7,5.5H127.8z M117.4,521.3c0-0.6,0.5-1.2,1-1.2h12.2c0.6,0,1,0.5,1,1.2l0.7,5.5h-15.7L117.4,521.3z
	 M127.8,502.2l0.7,5.5h-15.7l0.7-5.5c0-0.6,0.5-1.2,1-1.2h12.2C127.3,501,127.8,501.5,127.8,502.2 M111.6,498.1l0.7-5.5
	c0-0.6,0.5-1.2,1-1.2h12.2c0.6,0,1,0.5,1,1.2l0.7,5.5H111.6z M109.2,517.2l0.7-5.5c0-0.6,0.5-1.2,1-1.2h12.2c0.6,0,1,0.5,1,1.2
	l0.7,5.5H109.2z M98.7,521.3c0-0.6,0.5-1.2,1-1.2h12.2c0.6,0,1,0.5,1,1.2l0.7,5.5H98L98.7,521.3z M94.1,507.7l0.7-5.5
	c0-0.6,0.5-1.2,1-1.2H108c0.6,0,1,0.5,1,1.2l0.7,5.5H94.1z M75.4,507.7l0.7-5.5c0-0.6,0.5-1.2,1-1.2h12.2c0.6,0,1,0.5,1,1.2l0.7,5.5
	H75.4z M95,526.8H79.3l0.7-5.5c0-0.6,0.5-1.2,1-1.2h12.2c0.6,0,1,0.5,1,1.2L95,526.8z M90.5,517.2l0.7-5.5c0-0.6,0.5-1.2,1-1.2h12.2
	c0.6,0,1,0.5,1,1.2l0.7,5.5H90.5z M185.7,510.6h12.2c0.6,0,1,0.5,1,1.2l0.7,5.5h-15.7l0.7-5.5C184.6,511.1,185.1,510.6,185.7,510.6
	 M187,492.6c0-0.6,0.5-1.2,1-1.2h12.2c0.6,0,1,0.5,1,1.2l0.7,5.5h-15.7L187,492.6z M189.3,477.6c0-0.7,0.4-1.3,0.9-1.3
	c4.1,0.4,8.5,0.4,13.2,0c0.5,0,0.9,0.6,0.9,1.3l0.9,8.7H188L189.3,477.6z M206.8,491.4H219c0.6,0,1,0.5,1,1.2l0.7,5.5H205l0.7-5.5
	C205.7,492,206.2,491.4,206.8,491.4 M208.8,477.6c0-0.7,0.4-1.3,0.9-1.3c4.1,0.4,8.5,0.4,13.2,0c0.5,0,0.9,0.6,0.9,1.3l0.9,8.7
	h-17.3L208.8,477.6z M258.9,491.4c0.4,0,0.7,0.3,0.7,0.7l0.7,5.9h-36.7l0.7-5.9c0-0.4,0.3-0.7,0.7-0.7H258.9z M228.4,477.6
	c0-0.7,0.4-1.3,0.9-1.3c4.1,0.4,8.5,0.4,13.2,0c0.5,0,0.9,0.6,0.9,1.3l0.9,8.7H227L228.4,477.6z M247.9,477.6c0-0.7,0.4-1.3,0.9-1.3
	c4.1,0.4,8.5,0.4,13.2,0c0.5,0,0.9,0.6,0.9,1.3l0.9,8.7h-17.3L247.9,477.6z M206.2,507.7l0.7-5.5c0-0.6,0.5-1.2,1-1.2h12.2
	c0.6,0,1,0.5,1,1.2l0.7,5.5H206.2z M224.9,507.7l0.7-5.9c0-0.4,0.3-0.7,0.7-0.7h33.8c0.4,0,0.7,0.3,0.7,0.7l0.7,5.9H224.9z
	 M260.9,510.6c0.4,0,1.5,0.3,1.5,0.7l0.7,5.9h-41.9l0.7-5.9c0-0.4,0.3-0.7,0.7-0.7H260.9z M187.5,507.7l0.7-5.5c0-0.6,0.5-1.2,1-1.2
	h12.2c0.6,0,1,0.5,1,1.2l0.7,5.5H187.5z M207.1,526.8h-15.7l0.7-5.5c0-0.6,0.5-1.2,1-1.2h12.2c0.6,0,1,0.5,1,1.2L207.1,526.8z
	 M202.6,517.2l0.7-5.5c0-0.6,0.5-1.2,1-1.2h12.2c0.6,0,1,0.5,1,1.2l0.7,5.5H202.6z M264.8,526.8H210l0.7-5.7c0-0.6,0.5-1.3,1.2-1.3
	c16.7,0.6,34.5,0.5,50.9,0c0.6,0,1.2,0.7,1.2,1.3L264.8,526.8z M293.2,477.6c0-0.7,0.4-1.3,0.9-1.3c4.1,0.4,8.5,0.4,13.2,0
	c0.5,0,0.9,0.6,0.9,1.3l0.9,8.7h-17.3L293.2,477.6z M314.5,515h-17.3l1.4-8.6c0-0.7,0.4-1.2,0.9-1.2c4.1,0.4,8.5,0.4,13.2,0
	c0.5,0,0.9,0.5,0.9,1.2L314.5,515z M312.7,477.6c0-0.7,0.4-1.3,0.9-1.3c4.1,0.4,8.5,0.4,13.2,0c0.5,0,0.9,0.6,0.9,1.3l0.9,8.7h-17.3
	L312.7,477.6z M333.1,506.4l0.9,8.6h-17.3l1.4-8.6c0-0.7,0.4-1.2,0.9-1.2c4.1,0.4,8.5,0.4,13.2,0
	C332.7,505.2,333.1,505.7,333.1,506.4 M364.3,492.6c0-0.6,0.5-1.2,1-1.2h12.2c0.6,0,1,0.5,1,1.2l0.7,5.5h-15.6L364.3,492.6z
	 M382.1,502.2l0.7,5.5h-15.6l0.7-5.5c0-0.6,0.5-1.2,1-1.2h12.2C381.7,501,382.1,501.5,382.1,502.2 M383,492.6c0-0.6,0.5-1.2,1-1.2
	h12.2c0.6,0,1,0.5,1,1.2l0.7,5.5h-15.7L383,492.6z M400.8,502.2l0.7,5.5h-15.7l0.7-5.5c0-0.6,0.5-1.2,1-1.2h12.2
	C400.4,501,400.8,501.5,400.8,502.2 M371,517.2l0.7-5.5c0-0.6,0.5-1.2,1-1.2H385c0.6,0,1,0.5,1,1.2l0.7,5.5H371z M375.1,521.3
	c0-0.6,0.5-1.2,1-1.2h12.2c0.6,0,1,0.5,1,1.2l0.7,5.5h-15.6L375.1,521.3z M404.7,511.8l0.7,5.5h-15.7l0.7-5.5c0-0.6,0.5-1.2,1-1.2
	h12.2C404.2,510.6,404.7,511.1,404.7,511.8 M410.2,507.4c0-0.8,0.4-1.5,0.9-1.5c4.1,0.4,8.5,0.4,13.2,0c0.5,0,0.9,0.8,0.9,1.6
	l0.9,9.8h-17.3L410.2,507.4z M262.5,425.3c0.8,0,1.5,0.7,1.5,1.5s-0.7,1.5-1.5,1.5s-1.5-0.7-1.5-1.5
	C261,425.9,261.7,425.3,262.5,425.3 M464.2,554.1L464.2,554.1L464.2,554.1c0-0.3-0.1-0.6-0.2-0.8l-35.1-71.4l-5.6-11.4
	c-0.8-1.6-2.4-2.6-4.2-2.6H308H21.7c0.8-1.5,1.2-3.2,0.9-5.1c-1.1-6-9.4-8.7-19-11.9c-8.1-2.7-19.1-6.3-18.1-10.6
	c0-0.1,0.5-1.6,7.8-2.7c6.1-0.9,15-1.2,25.3-1.5c4.6-0.1,9.7-0.3,15-0.5v3.1c0,4.3,3.5,7.8,7.8,7.8h216.1
	c-4.4,5.6-8.2,12.5-5.9,16.8c1.2,2.3,3.4,3.4,6.8,3.4c5.4,0,13.8-2.9,26.1-8.8c2.5-1.2,12.8-3.2,18.8-4.3l-1-5.8
	c-1.7,0.3-16.3,2.8-20.3,4.8c-21.7,10.4-25.1,7.9-25.1,7.9c-0.2-0.4,0-3.1,4.1-8.9c1.5-2,3-3.8,4.3-5.2h3.9c4.3,0,7.8-3.5,7.8-7.8
	v-15.7v-0.2c0-1.5-1.3-2.8-2.8-2.8h-18.6v12.5h-21.4v-12.5H36.6c-1.6,0-3,1.3-3,3v5.3c-5.4,0.2-10.6,0.4-15.2,0.5
	c-24.5,0.7-38,1.1-40.1,9.8c-0.8,3.5-0.3,8.6,7.3,13c4.4,2.5,10.1,4.4,15.7,6.3c4.9,1.6,13.1,4.3,14,6.2c0,0.1-0.8,1.9-1.8,3.8
	h-44.3c-1.7,0-3.3,1-4.1,2.5L-77.8,554l0,0c-0.2,0-0.5,0.9-0.5,1.4v5.2h542.6v-5.2C464.3,555,464.4,554.1,464.2,554.1"/>
</svg>
