<?xml version="1.0" encoding="utf-8"?>
<!-- Generator: Adobe Illustrator 18.1.0, SVG Export Plug-In . SVG Version: 6.00 Build 0)  -->
<!DOCTYPE svg PUBLIC "-//W3C//DTD SVG 1.1//EN" "http://www.w3.org/Graphics/SVG/1.1/DTD/svg11.dtd">
<svg version="1.1" id="Warstwa_1" xmlns="http://www.w3.org/2000/svg" xmlns:xlink="http://www.w3.org/1999/xlink" x="0px" y="0px"
	 width="576px" height="576px" viewBox="-95 97 576 576" enable-background="new -95 97 576 576" xml:space="preserve">
<rect x="-95" y="97" fill="#163A33" width="576" height="576"/>
<rect x="-95" y="241.3" fill="#FFFFFF" width="576" height="143.7"/>
<path fill="#33B573" d="M38.5,326.5v-25h1.7v25H38.5z"/>
<path fill="#33B573" d="M68.4,314c0,4-1,7.1-3,9.4s-4.7,3.5-8.2,3.5s-6.2-1.2-8.2-3.5s-3-5.5-3-9.4c0-4,1-7.1,3-9.4s4.7-3.4,8.2-3.4
	s6.2,1.1,8.2,3.4S68.4,310,68.4,314z M47.9,314c0,3.6,0.8,6.3,2.4,8.3s3.9,2.9,6.9,2.9s5.3-1,6.9-2.9s2.4-4.7,2.4-8.3
	c0-3.6-0.8-6.4-2.4-8.3s-3.9-2.9-6.9-2.9s-5.3,1-6.9,2.9C48.7,307.7,47.9,310.4,47.9,314z"/>
<path fill="#33B573" d="M87.9,320.1c0,2.1-0.8,3.7-2.3,5c-1.5,1.2-3.6,1.8-6.1,1.8c-3.1,0-5.4-0.3-7-1v-1.7c1.8,0.8,4.1,1.1,6.9,1.1
	c2.1,0,3.7-0.5,4.9-1.4c1.2-0.9,1.8-2.2,1.8-3.7c0-0.9-0.2-1.7-0.6-2.3c-0.4-0.6-1-1.2-1.9-1.7s-2.2-1.1-4-1.7
	c-2.6-0.9-4.3-1.8-5.3-2.8s-1.5-2.4-1.5-4.1c0-1.9,0.7-3.4,2.2-4.6s3.3-1.8,5.6-1.8c2.3,0,4.6,0.4,6.6,1.3l-0.6,1.5
	c-2.1-0.9-4.1-1.3-5.9-1.3s-3.3,0.4-4.4,1.3s-1.6,2-1.6,3.5c0,0.9,0.2,1.7,0.5,2.3c0.3,0.6,0.9,1.1,1.6,1.6c0.8,0.5,2.1,1,3.9,1.7
	c1.9,0.7,3.4,1.3,4.4,2c1,0.6,1.7,1.3,2.1,2.2C87.7,318,87.9,318.9,87.9,320.1z"/>
<path fill="#33B573" d="M226.5,520c0,1.7-1.4,3-3,3H17c-1.7,0-3-1.4-3-3V205.1c0-1.7,1.4-3,3-3h206.5c1.7,0,3,1.4,3,3V520z
	 M120,576.4c-11.4,0-20.6-9.2-20.6-20.6c0-11.4,9.2-20.6,20.6-20.6s20.6,9.2,20.6,20.6C140.6,567.1,131.4,576.4,120,576.4
	 M103.5,165.6h33.4c2.5,0,4.6,2.3,4.6,4.8s-2,4.8-4.6,4.8h-33.4c-2.5,0-4.6-2.3-4.6-4.8C99,167.8,101,165.6,103.5,165.6
	 M244.7,173.8c0-31.4-25.4-56.8-56.8-56.8H51.7c-31.4,0-56.8,25.4-56.8,56.8v367.8c0,31.4,25.4,56.8,56.8,56.8h136.2
	c31.4,0,56.8-25.4,56.8-56.8L244.7,173.8L244.7,173.8z"/>
</svg>
