<?xml version="1.0" encoding="utf-8"?>
<!-- Generator: Adobe Illustrator 18.1.0, SVG Export Plug-In . SVG Version: 6.00 Build 0)  -->
<!DOCTYPE svg PUBLIC "-//W3C//DTD SVG 1.1//EN" "http://www.w3.org/Graphics/SVG/1.1/DTD/svg11.dtd">
<svg version="1.1" id="Warstwa_1" xmlns="http://www.w3.org/2000/svg" xmlns:xlink="http://www.w3.org/1999/xlink" x="0px" y="0px"
	 width="576px" height="576px" viewBox="-95 97 576 576" enable-background="new -95 97 576 576" xml:space="preserve">
<rect x="-95" y="97" fill="#3E1D34" width="576" height="576"/>
<rect x="-95" y="241" fill="#FFFFFF" width="576" height="144"/>
<path fill="#ED2E7A" d="M58.5,326.4v-25h1.7v25H58.5z"/>
<path fill="#ED2E7A" d="M69.1,315.5v10.9h-1.7v-25h5.9c3.1,0,5.4,0.6,6.9,1.7s2.2,2.9,2.2,5.2c0,1.7-0.4,3.1-1.3,4.2
	c-0.9,1.2-2.2,2-4,2.5l6.8,11.4h-2.1l-6.4-10.9L69.1,315.5L69.1,315.5z M69.1,314h4.8c2.1,0,3.7-0.5,4.9-1.4
	c1.2-0.9,1.7-2.3,1.7-4.2c0-1.9-0.6-3.3-1.7-4.2c-1.1-0.9-3-1.3-5.6-1.3h-4.1L69.1,314L69.1,314z"/>
<path fill="#ED2E7A" d="M88.2,326.4v-25h1.7v25H88.2z"/>
<path fill="#ED2E7A" d="M112.3,326.4h-2l-7.4-11.7l-7.5,11.7h-1.9l8.4-13l-7.6-12h2l6.8,10.7l6.9-10.7h1.9l-7.7,11.9L112.3,326.4z"
	/>
<path fill="#ED2E7A" d="M275.2,402.3H35.7V222.8h239.5V402.3L275.2,402.3z M301.4,190.5c0-1.8-1.7-3.3-3.6-3.3
	c0,0-107.3-1.7-143.1-1.7c-35.5,0-142.1,1.7-142.1,1.7c-1.8,0-3.3,1.5-3.3,3.3v244.1c0,1.8,1.4,3.3,3.2,3.3c0,0,106.8,1.7,142.5,1.7
	s142.7-1.7,142.7-1.7c1.8,0,3.5-1.5,3.5-3.3V190.5H301.4z"/>
<path fill="#ED2E7A" d="M201.8,151.7h-4.7v24.5c0,0.3,0.1,1-0.3,1h-84.1c-0.3,0-0.6-0.7-0.6-1v-24.5h-3.7c-0.4,0-1.2,0.7-1.2,1.1
	v31.4c0,0.4,0.8,0.7,1.2,0.7h93.2c0.4,0,0.8-0.3,0.8-0.7v-31.4C202.7,152.4,202.3,151.7,201.8,151.7"/>
<path fill="#ED2E7A" d="M154.3,158.8c2.3,0,4.1,1.9,4.1,4.2s-1.9,4.2-4.1,4.2c-2.3,0-4.1-1.9-4.1-4.2S152,158.8,154.3,158.8
	 M196.5,151c0-0.3,0.5-0.6,0.2-0.6h-82.4c-0.3,0-1.4,0.3-1.4,0.6v24.7c0,0.3,1,0.9,1.4,0.9h82.4c0.3,0-0.2-0.6-0.2-0.9L196.5,151
	L196.5,151z"/>
<path fill="#ED2E7A" d="M187.5,440.3h7c0.6,0,1.1,0.8,1.1,1.4s-0.5,1.4-1.1,1.4h-7c-0.6,0-1.1-0.8-1.1-1.4S186.9,440.3,187.5,440.3
	 M200.8,440.3h7c0.6,0,1.1,0.8,1.1,1.4s-0.5,1.4-1.1,1.4h-7c-0.6,0-1.1-0.8-1.1-1.4S200.2,440.3,200.8,440.3 M214.1,440.3h7
	c0.6,0,1.1,0.8,1.1,1.4s-0.5,1.4-1.1,1.4h-7c-0.6,0-1.1-0.8-1.1-1.4S213.5,440.3,214.1,440.3 M253.7,456.9h-57.5
	c-0.4-1.4-1.3-2.6-2.5-3.4c6-2.3,11.2-4.9,15.2-8.3h46.2v-6.9H59.7v6.9h41.2c3.7,3.5,8.4,5.6,13.9,7.8c-1.8,0.6-3.1,2.6-3.6,3.9
	H61.5c-1,0-1.9,1.1-1.9,2.1v13H255v-13C255.2,458,254.7,456.9,253.7,456.9"/>
<path fill="#ED2E7A" d="M101.2,507.2h-65l0,0v-0.7h65V507.2z M101.2,510.7H36.3V510h64.9V510.7z M101.2,514.2H36.3v-0.7h64.9V514.2z
	 M101.2,517.6H36.3v-1.4h64.9V517.6z M32.9,499.7h64.9v0.7H32.9V499.7z M32.9,496.2h64.9v1.4H32.9V496.2z M32.9,493.4h64.9v0.7H32.9
	V493.4z M32.9,490h64.9v0.7H32.9V490z M68.2,479.6h6.1c0.1,0,0.2,0.2,0.2,0.3l-3,4.7c-0.1,0.1-0.2,0.1-0.3,0l-3-4.7
	C68,479.8,68.1,479.6,68.2,479.6 M75.5,482.8l3-4.7c0.1-0.1,0.2-0.1,0.3,0l3,4.7c0.1,0.1,0,0.3-0.2,0.3h-6.1
	C75.5,483.1,75.4,482.9,75.5,482.8 M88.3,503.1h9.5v0.7H79.5h-2.3h-14H33v-0.7h41.4L287,487.2v-14.5H29.5v34.5h2.3l0.3,14.5h258.4
	V488L88.3,503.1z"/>
<polygon fill="#ED2E7A" points="74.3,503.1 63.1,503.8 77.1,503.8 88.3,503.1 "/>
<path fill="#ED2E7A" d="M-39.2,606.7h410.6c3.2,0,5.9-2.8,6.3-6.2H-46.2C-45.7,603.9-42.4,606.7-39.2,606.7"/>
<path fill="#ED2E7A" d="M365.6,585.9h-14.5v-9.4c0-1.4,0.4-2.4,1.1-2.4c0,0,3.6,0.4,6.2,0.4s6.2-0.4,6.2-0.4c0.7,0,1.1,1.1,1.1,2.4
	v9.4H365.6z M347,568c0-1.4,1-2.4,1.6-2.4c0,0,3.9,0.4,6.5,0.4s6.4-0.4,6.4-0.4c0.7,0,1.3,1.1,1.3,2.4v3.4H347V568z M347,585.9
	h-13.8v-9.4c0-1.4,0.4-2.4,1.1-2.4c0,0,3.6,0.4,6.2,0.4s5.8-0.4,5.8-0.4c0.7,0,0.7,1.1,0.7,2.4V585.9z M330.4,585.9h-33.1v-9.4
	c0-1.4,0.8-2.4,2.3-2.4c0,0,8.1,0.4,14,0.4c6,0,14.2-0.4,14.2-0.4c1.5,0,2.6,1.1,2.6,2.4C330.4,576.5,330.4,585.9,330.4,585.9z
	 M294.5,568.2c0-1.4,0.6-2.4,1.3-2.4c0,0,3.7,0.4,6.3,0.4s6.6-0.4,6.6-0.4c0.7,0,1.6,1.1,1.6,2.4v3.3h-15.9v-3.3H294.5z
	 M291.1,559.2c0-1.4,0.7-2.4,1.4-2.4c0,0,3.7,0.4,6.4,0.4c2.6,0,6.2-0.4,6.2-0.4c0.7,0,1.2,1.1,1.2,2.4v3.2h-15.2V559.2z
	 M287.6,550.3c0-1.4,0.8-2.4,1.4-2.4c0,0,3.8,0.4,6.4,0.4s6.5-0.4,6.5-0.4c0.7,0,1.5,1.1,1.5,2.4v3.9h-15.9v-3.9H287.6z
	 M284.1,541.4c0-1.4,0.8-2.4,1.5-2.4c0,0,3.8,0.4,6.5,0.4c2.6,0,6.1-0.4,6.1-0.4c0.7,0,1.1,1.1,1.1,2.4v3.8h-15.2V541.4z
	 M302.8,541.4c0-1.4,0.5-2.4,1.1-2.4c0,0,3.6,0.4,6.3,0.4c2.6,0,6.4-0.4,6.4-0.4c0.7,0,1.4,1.1,1.4,2.4v3.8h-15.2V541.4z
	 M321.4,550.3v3.9h-15.9v-3.9c0-1.4,0.8-2.4,1.4-2.4c0,0,3.8,0.4,6.4,0.4c2.6,0,6.5-0.4,6.5-0.4C320.6,547.9,321.4,549,321.4,550.3
	 M319.4,541.4c0-1.4,1-2.4,1.6-2.4c0,0,4,0.4,6.6,0.4s6-0.4,6-0.4c0.7,0,0.9,1.1,0.9,2.4v3.8h-15.2v-3.8H319.4z M338.7,550.3v3.9
	h-15.9v-3.9c0-1.4,0.9-2.4,1.6-2.4c0,0,3.9,0.4,6.6,0.4c2.6,0,6.4-0.4,6.4-0.4C338,547.9,338.7,549,338.7,550.3 M338,541.3
	c0-1.4,0.5-2.4,1.1-2.4c0,0,3.7,0.4,6.3,0.4s6.4-0.4,6.4-0.4c0.7,0,1.3,1.1,1.3,2.4v3.9H338V541.3z M355.2,547.7
	c0.7,0,1.4,1.1,1.4,2.4v4h-15.9v-4c0-1.4,0.8-2.4,1.4-2.4c0,0,3.9,0.4,6.5,0.4C351.3,548.2,355.2,547.7,355.2,547.7 M329.7,568.2
	c0-1.4,0.8-2.4,1.4-2.4c0,0,3.9,0.4,6.5,0.4s6.6-0.4,6.6-0.4c0.7,0,1.4,1.1,1.4,2.4v3.3h-15.9C329.7,571.5,329.7,568.2,329.7,568.2z
	 M326.3,562.5v-3.2c0-1.4,0.8-2.4,1.5-2.4c0,0,3.9,0.4,6.5,0.4c2.6,0,6.2-0.4,6.2-0.4c0.7,0,1,1.1,1,2.4v3.2H326.3z M309.7,562.5
	v-3.2c0-1.4,0.4-2.4,1-2.4c0,0,3.6,0.4,6.2,0.4s6.5-0.4,6.5-0.4c0.7,0,1.5,1.1,1.5,2.4v3.2H309.7z M311.8,568.2c0-1.4,1-2.4,1.6-2.4
	c0,0,3.9,0.4,6.5,0.4s6.4-0.4,6.4-0.4c0.7,0,1.3,1.1,1.3,2.4v3.3h-15.9L311.8,568.2L311.8,568.2z M358.2,556.7
	c0.7,0,1.2,1.1,1.2,2.4v3.4h-14.5v-3.4c0-1.4,0.3-2.4,1-2.4c0,0,3.5,0.4,6.2,0.4C354.7,557.1,358.2,556.7,358.2,556.7 M271,562.5
	h-15.9v-3.4c0-1.4,0.7-2.4,1.4-2.4c0,0,4.1,0.4,7,0.4s6.5-0.4,6.5-0.4c0.7,0,1,1.1,1,2.4V562.5z M253.8,550.6c0-1.4,0.6-2.4,1.3-2.4
	c0,0,3.8,0.4,6.4,0.4c2.6,0,6.6-0.4,6.6-0.4c0.7,0,1.5,1.1,1.5,2.4v3.6h-15.9L253.8,550.6L253.8,550.6z M252.4,542.1
	c0-1.4,0.9-2.4,1.6-2.4c0,0,3.8,0.4,6.3,0.4s6.1-0.4,6.1-0.4c0.6,0,1.2,1.1,1.2,2.4v3.8h-15.2V542.1z M252.4,562.5h-16.6v-3.4
	c0-1.4,0.9-2.4,1.6-2.4c0,0,4.1,0.4,7,0.4c2.9,0,6.7-0.4,6.7-0.4c0.7,0,1.3,1.1,1.3,2.4C252.4,559.1,252.4,562.5,252.4,562.5z
	 M234.4,545.9h-15.2v-3.8c0-1.4,0.5-2.4,1.1-2.4c0,0,3.5,0.4,6,0.4s6.4-0.4,6.4-0.4c0.6,0,1.6,1.1,1.6,2.4L234.4,545.9L234.4,545.9z
	 M234.4,554.2h-15.9v-3.6c0-1.4,0.5-2.4,1.2-2.4c0,0,3.7,0.4,6.3,0.4s6.7-0.4,6.7-0.4c0.7,0,1.7,1.1,1.7,2.4V554.2z M234.4,562.5
	h-18.6v-3.4c0-1.4,1.2-2.4,1.9-2.4c0,0,4.4,0.4,7.2,0.4s7.4-0.4,7.4-0.4c0.7,0,2.1,1.1,2.1,2.4L234.4,562.5L234.4,562.5z
	 M206.8,545.2h-20.7v-3.9c0-1.4,0.4-2.4,1.3-2.4c0,0,5,0.4,8.8,0.4c3.7,0,8.9-0.4,8.9-0.4c0.9,0,1.7,1.1,1.7,2.4V545.2z
	 M202.7,553.5h-15.2v-3.7c0-1.4,0.6-2.4,1.3-2.4c0,0,3.8,0.4,6.4,0.4c2.6,0,6.3-0.4,6.3-0.4c0.7,0,1.2,1.1,1.2,2.4V553.5z
	 M200.6,562.5h-14.5V558c0-1.4,0.3-2.4,1-2.4c0,0,3.6,0.4,6.2,0.4c2.6,0,6.2-0.4,6.2-0.4c0.7,0,1.1,1.1,1.1,2.4V562.5z M183.4,562.5
	h-31.1V558c0-1.4,1-2.4,2.4-2.4c0,0,7.6,0.4,13.1,0.4s13.2-0.4,13.2-0.4c1.4,0,2.4,1.1,2.4,2.4L183.4,562.5L183.4,562.5z
	 M171.6,570.8h-20.7V567c0-1.4,0.4-2.4,1.3-2.4c0,0,4.9,0.4,8.7,0.4c3.7,0,9-0.4,9-0.4c0.9,0,1.8,1.1,1.8,2.4v3.8H171.6z M153,585.3
	h-24.2v-9.9c0-1.4,0.9-2.4,2-2.4c0,0,6,0.4,10.3,0.4s10.1-0.4,10.1-0.4c1.1,0,1.8,1.1,1.8,2.4L153,585.3L153,585.3z M127.4,585.3
	H23.9v-9.9c0-1.4,0.4-2.4,5-2.4c0,0,28.5,1.3,46.6,1.3s46.8-1.3,46.8-1.3c4.5,0,5.1,1.1,5.1,2.4L127.4,585.3L127.4,585.3z
	 M21.8,585.3H-1.7v-9.9c0-1.4,0.5-2.4,1.6-2.4c0,0,5.8,0.4,10.1,0.4c4.3,0,10-0.4,10-0.4c1.1,0,1.7,1.1,1.7,2.4L21.8,585.3
	L21.8,585.3z M-3.7,567c0-1.4,0.4-2.4,1.1-2.4c0,0,3.6,0.4,6.3,0.4c2.6,0,6.1-0.4,6.1-0.4c0.7,0,1.1,1.1,1.1,2.4v3.8H-3.6V567H-3.7z
	 M-6.5,570.8h-20.7V567c0-1.4,0.7-2.4,1.6-2.4c0,0,5.2,0.4,8.9,0.4s8.7-0.4,8.7-0.4c0.9,0,1.5,1.1,1.5,2.4V570.8z M-25.1,558
	c0-1.4,1-2.4,2-2.4c0,0,5.3,0.4,9.1,0.4s9.1-0.4,9.1-0.4c0.9,0,1.9,1.1,1.9,2.4v4.5h-22.1V558z M-22.3,549.8c0-1.4,0.7-2.4,1.6-2.4
	c0,0,5.1,0.4,8.9,0.4c3.7,0,8.7-0.4,8.7-0.4c0.9,0,1.5,1.1,1.5,2.4v3.7h-20.7V549.8z M-19.6,541.3c0-1.4,0.4-2.4,1.1-2.4
	c0,0,3.6,0.4,6.3,0.4c2.6,0,6.1-0.4,6.1-0.4c0.7,0,1.1,1.1,1.1,2.4v3.9h-14.5v-3.9H-19.6z M-2.3,541.3c0-1.4,0.4-2.4,1.1-2.4
	c0,0,3.6,0.4,6.2,0.4s6.5-0.4,6.5-0.4c0.7,0,1.4,1.1,1.4,2.4v3.9H-2.3V541.3z M14.2,541.3c0-1.4,0.5-2.4,1.2-2.4
	c0,0,3.6,0.4,6.2,0.4s6.1-0.4,6.1-0.4c0.7,0,1,1.1,1,2.4v3.9H14.2L14.2,541.3L14.2,541.3z M31.5,541.3c0-1.4,0.5-2.4,1.1-2.4
	c0,0,3.7,0.4,6.3,0.4c2.6,0,6.1-0.4,6.1-0.4c0.7,0,1,1.1,1,2.4v3.9H31.5V541.3z M48.1,542c0-1.4,0.8-2.4,1.4-2.4
	c0,0,3.8,0.4,6.5,0.4c2.6,0,6.2-0.4,6.2-0.4c0.7,0,1.1,1.1,1.1,2.4v3.2H48.1V542z M65.3,542c0-1.4,0.7-2.4,1.4-2.4
	c0,0,3.8,0.4,6.4,0.4s6.6-0.4,6.6-0.4c0.7,0,1.5,1.1,1.5,2.4v3.2H65.3V542z M83.3,542c0-1.4,0.3-2.4,1-2.4c0,0,3.6,0.4,6.2,0.4
	s6.2-0.4,6.2-0.4c0.7,0,1.1,1.1,1.1,2.4v3.2H83.3L83.3,542L83.3,542z M99.8,542c0-1.4,0.6-2.4,1.3-2.4c0,0,3.7,0.4,6.4,0.4
	s6.6-0.4,6.6-0.4c0.7,0,1.6,1.1,1.6,2.4v3.2H99.8V542z M117.1,541.3c0-1.4,0.5-2.4,1.1-2.4c0,0,3.6,0.4,6.2,0.4s6.2-0.4,6.2-0.4
	c0.7,0,1,1.1,1,2.4v3.9h-14.5V541.3z M133.7,541.3c0-1.4,0.7-2.4,1.3-2.4c0,0,3.8,0.4,6.4,0.4c2.6,0,6.3-0.4,6.3-0.4
	c0.7,0,1.2,1.1,1.2,2.4v3.9h-15.2V541.3z M137.1,553.5v-3.7c0-1.4,0.6-2.4,1.3-2.4c0,0,3.7,0.4,6.4,0.4c2.6,0,6.3-0.4,6.3-0.4
	c0.7,0,1.2,1.1,1.2,2.4v3.7H137.1z M135,562.5V558c0-1.4,0.6-2.4,1.3-2.4c0,0,3.8,0.4,6.4,0.4c2.6,0,6.6-0.4,6.6-0.4
	c0.7,0,1.6,1.1,1.6,2.4v4.5H135z M133,567c0-1.4,0.6-2.4,1.2-2.4c0,0,3.7,0.4,6.3,0.4s6.3-0.4,6.3-0.4c0.7,0,1.3,1.1,1.3,2.4v3.8
	H133V567z M120.5,553.5v-3.7c0-1.4,0.4-2.4,1.1-2.4c0,0,3.6,0.4,6.2,0.4s6.2-0.4,6.2-0.4c0.7,0,1,1.1,1,2.4v3.7H120.5z M117.8,562.5
	V558c0-1.4,0.8-2.4,1.5-2.4c0,0,3.7,0.4,6.4,0.4c2.6,0,6.3-0.4,6.3-0.4c0.7,0,1.1,1.1,1.1,2.4v4.5H117.8z M116.4,567
	c0-1.4,0.4-2.4,1-2.4c0,0,3.5,0.4,6.1,0.4s6.6-0.4,6.6-0.4c0.7,0,1.5,1.1,1.5,2.4v3.8h-15.2L116.4,567L116.4,567z M104,553.5v-3
	c0-1.4,0.2-2.4,0.9-2.4c0,0,3.5,0.4,6.2,0.4c2.6,0,5.9-0.4,5.9-0.4c0.7,0,0.8,1.1,0.8,2.4v3H104z M101.2,562.5v-3.8
	c0-1.4,0.6-2.4,1.3-2.4c0,0,3.7,0.4,6.4,0.4c2.6,0,6.3-0.4,6.3-0.4c0.7,0,1.2,1.1,1.2,2.4v3.8H101.2z M99.1,566.8
	c0-1.4,0.7-2.4,1.4-2.4c0,0,3.8,0.4,6.4,0.4s6.6-0.4,6.6-0.4c0.7,0,1.5,1.1,1.5,2.4v3.9H99.1V566.8z M86,553.5v-3
	c0-1.4,0.6-2.4,1.3-2.4c0,0,3.7,0.4,6.4,0.4c2.6,0,6.3-0.4,6.3-0.4c0.7,0,1.2,1.1,1.2,2.4v3H86z M84,562.5v-3.8
	c0-1.4,0.7-2.4,1.3-2.4c0,0,3.8,0.4,6.4,0.4s6.3-0.4,6.3-0.4c0.7,0,1.2,1.1,1.2,2.4v3.8H84z M81.9,566.8c0-1.4,0.6-2.4,1.2-2.4
	c0,0,3.7,0.4,6.3,0.4c2.6,0,6.3-0.4,6.3-0.4c0.7,0,1.3,1.1,1.3,2.4v3.9H81.8v-3.9H81.9z M68.8,553.5v-3c0-1.4,0.7-2.4,1.3-2.4
	c0,0,3.8,0.4,6.4,0.4s6.3-0.4,6.3-0.4c0.7,0,1.2,1.1,1.2,2.4v3H68.8z M67.4,562.5v-3.8c0-1.4,0.4-2.4,1-2.4c0,0,3.6,0.4,6.2,0.4
	s6.2-0.4,6.2-0.4c0.7,0,1.1,1.1,1.1,2.4v3.8H67.4z M64.6,566.8c0-1.4,0.7-2.4,1.4-2.4c0,0,3.8,0.4,6.4,0.4s6.6-0.4,6.6-0.4
	c0.7,0,1.5,1.1,1.5,2.4v3.9H64.6V566.8z M51.5,553.5v-3c0-1.4,0.7-2.4,1.3-2.4c0,0,3.8,0.4,6.4,0.4s6.6-0.4,6.6-0.4
	c0.7,0,1.5,1.1,1.5,2.4v3H51.5z M49.4,562.5v-3.8c0-1.4,0.7-2.4,1.4-2.4c0,0,3.8,0.4,6.5,0.4c2.6,0,6.2-0.4,6.2-0.4
	c0.7,0,1.1,1.1,1.1,2.4v3.8H49.4z M48.1,566.8c0-1.4,0.5-2.4,1.1-2.4c0,0,3.7,0.4,6.3,0.4c2.6,0,6.4-0.4,6.4-0.4
	c0.7,0,1.3,1.1,1.3,2.4v3.9H48v-3.9H48.1z M34.3,553.5v-3.7c0-1.4,0.7-2.4,1.4-2.4c0,0,3.8,0.4,6.5,0.4c2.6,0,6.2-0.4,6.2-0.4
	c0.7,0,1.1,1.1,1.1,2.4v3.7H34.3z M32.9,562.5V558c0-1.4,0.4-2.4,1.1-2.4c0,0,3.7,0.4,6.3,0.4c2.6,0,6.4-0.4,6.4-0.4
	c0.7,0,1.3,1.1,1.3,2.4v4.5H32.9z M30.1,567c0-1.4,0.7-2.4,1.3-2.4c0,0,3.7,0.4,6.4,0.4s6.3-0.4,6.3-0.4c0.7,0,1.2,1.1,1.2,2.4v3.8
	H30.1L30.1,567L30.1,567z M17.7,553.5v-3.7c0-1.4,0.4-2.4,1.1-2.4c0,0,3.5,0.4,6.1,0.4s6.5-0.4,6.5-0.4c0.7,0,1.4,1.1,1.4,2.4v3.7
	H17.7z M16.3,562.5V558c0-1.4,0.1-2.4,0.8-2.4c0,0,3.4,0.4,6,0.4s6.1-0.4,6.1-0.4c0.7,0,1,1.1,1,2.4v4.5H16.3z M13.5,567
	c0-1.4,0.4-2.4,1.1-2.4c0,0,3.7,0.4,6.3,0.4c2.6,0,6.1-0.4,6.1-0.4c0.7,0,1,1.1,1,2.4v3.8H13.5V567z M0.4,553.5v-3.7
	c0-1.4,0.7-2.4,1.3-2.4c0,0,3.7,0.4,6.4,0.4c2.6,0,6.6-0.4,6.6-0.4c0.7,0,1.6,1.1,1.6,2.4v3.7H0.4z M6.2,556c2.6,0,6.2-0.4,6.2-0.4
	c0.7,0,1.2,1.1,1.2,2.4v4.5H-1.6V558c0-1.4,0.7-2.4,1.4-2.4C-0.3,555.6,3.6,556,6.2,556 M151.6,541.3c0-1.4,0.3-2.4,1-2.4
	c0,0,3.6,0.4,6.3,0.4c2.6,0,6.5-0.4,6.5-0.4c0.7,0,1.4,1.1,1.4,2.4v3.9h-15.2V541.3z M168.2,541.3c0-1.4,0.7-2.4,1.3-2.4
	c0,0,3.8,0.4,6.4,0.4c2.6,0,6.3-0.4,6.3-0.4c0.7,0,1.2,1.1,1.2,2.4v3.9h-15.2V541.3z M186.1,549.8v3.7h-31.8v-3.7
	c0-1.4,1-2.4,2.4-2.4c0,0,7.6,0.4,13.1,0.4s13.5-0.4,13.5-0.4C184.8,547.3,186.1,548.4,186.1,549.8 M235.8,550.6
	c0-1.4,0.9-2.4,1.5-2.4c0,0,3.8,0.4,6.5,0.4c2.6,0,6.5-0.4,6.5-0.4c0.7,0,1.4,1.1,1.4,2.4v3.6h-15.9V550.6z M235.8,542.1
	c0-1.4,0.8-2.4,1.4-2.4c0,0,3.7,0.4,6.2,0.4s6.2-0.4,6.2-0.4c0.6,0,1.4,1.1,1.4,2.4v3.8h-15.2L235.8,542.1L235.8,542.1z
	 M282.8,522.4H-13.8c-1.8,0-3.4,1.2-4.1,3.3l-27,64.6c-0.5,2.9-0.6,6.3-0.6,8.5c0,0.1,0,0.2,0,0.2h6.7h412.2h5.1c0,0,0-0.1,0-0.2
	c0-1.6-0.2-3.9-0.8-6.1c-0.1-0.5-0.2-1-0.4-1.5l-20-51.4l-3.1-9.2l-1.8-5.3c-0.7-1.9-2.3-2.9-3.9-2.9h-34.6h-27"/>
<path fill="#ED2E7A" d="M452.4,546.9c-4.9-7.7-23.9-14.7-33-15.8c-9.4-1.1-34.1,6.5-39.8,8.4c-0.7,0.2-1.2,0.9-1.2,1.7l0.2,6.2
	c-3.2,0-5.2,0.6-4.8-4.1c0.4-4.3,3.1-9.1-0.4-11.5c-5.2-3.6-19.5,0.2-21.1,0.7l0.7,2.4c4.1-1.1,15.5-3.5,19.1-1
	c2.3,1.6-0.5,5.5-0.8,9.3c-0.5,5.6,2.5,7.2,7.4,7.2c0.1,1.2,0.9,2.3,2.1,2.7c4.3,1.6,14.4,5.8,17.4,9.5c9.4,11.8,38,8.9,38,8.9
	c8.9,0,16.7-5.9,16.7-14.7L452.4,546.9z"/>
</svg>
