<?xml version="1.0" encoding="utf-8"?>
<!-- Generator: Adobe Illustrator 18.1.0, SVG Export Plug-In . SVG Version: 6.00 Build 0)  -->
<!DOCTYPE svg PUBLIC "-//W3C//DTD SVG 1.1//EN" "http://www.w3.org/Graphics/SVG/1.1/DTD/svg11.dtd">
<svg version="1.1" id="Warstwa_1" xmlns="http://www.w3.org/2000/svg" xmlns:xlink="http://www.w3.org/1999/xlink" x="0px" y="0px"
	 width="576px" height="576px" viewBox="-95 97 576 576" enable-background="new -95 97 576 576" xml:space="preserve">
<rect x="-95" y="97" fill="#163A33" width="576" height="575.8"/>
<rect x="-95" y="241" fill="#FFFFFF" width="576" height="144"/>
<path fill="#33B573" d="M29.5,326.4l-9.3-23.1h-0.1c0.1,1.4,0.1,2.9,0.1,4.3v18.7h-1.7v-25h2.7l8.9,22h0.1l8.9-22h2.6v25h-1.8v-18.9
	c0-1.3,0.1-2.7,0.2-4.1H40l-9.3,23h-1.2V326.4z"/>
<path fill="#33B573" d="M60.8,317.6H50.6l-3.5,8.8h-1.9l10-25.1h1.1l9.8,25.1h-2L60.8,317.6z M51.2,316h8.9l-3.4-9
	c-0.3-0.7-0.6-1.7-1-2.9c-0.3,1.1-0.6,2.1-1,3L51.2,316z"/>
<path fill="#33B573" d="M80.4,302.6c-3.1,0-5.6,1-7.4,3s-2.7,4.8-2.7,8.2c0,3.6,0.8,6.3,2.5,8.3s4.1,3,7.3,3c2.1,0,4-0.3,5.8-0.8
	v1.5c-1.7,0.6-3.7,0.9-6.2,0.9c-3.5,0-6.3-1.1-8.3-3.4s-3-5.4-3-9.5c0-2.5,0.5-4.8,1.4-6.7c1-1.9,2.3-3.4,4.2-4.5
	c1.8-1.1,3.9-1.6,6.3-1.6s4.6,0.5,6.5,1.4l-0.7,1.6C84.3,303.1,82.4,302.6,80.4,302.6z"/>
<path fill="#33B573" d="M121.6,313.8c0,4-1,7.1-3,9.4s-4.7,3.5-8.2,3.5s-6.2-1.2-8.2-3.5s-3-5.5-3-9.4c0-4,1-7.1,3-9.4
	s4.7-3.4,8.2-3.4s6.2,1.1,8.2,3.4C120.6,306.7,121.6,309.9,121.6,313.8z M101.1,313.8c0,3.6,0.8,6.3,2.4,8.3s3.9,2.9,6.9,2.9
	s5.3-1,6.9-2.9c1.6-1.9,2.4-4.7,2.4-8.3c0-3.6-0.8-6.4-2.4-8.3c-1.6-1.9-3.9-2.9-6.9-2.9s-5.3,1-6.9,2.9
	C101.9,307.5,101.1,310.3,101.1,313.8z"/>
<path fill="#33B573" d="M141.1,319.9c0,2.1-0.8,3.7-2.3,5c-1.5,1.2-3.6,1.8-6.1,1.8c-3.1,0-5.4-0.3-7-1V324c1.8,0.8,4.1,1.1,6.9,1.1
	c2.1,0,3.7-0.5,4.9-1.4s1.8-2.2,1.8-3.7c0-0.9-0.2-1.7-0.6-2.3c-0.4-0.6-1-1.2-1.9-1.7s-2.2-1.1-4-1.7c-2.6-0.9-4.3-1.8-5.3-2.8
	s-1.5-2.4-1.5-4.1c0-1.9,0.7-3.4,2.2-4.6s3.3-1.8,5.6-1.8s4.6,0.4,6.6,1.3l-0.6,1.5c-2.1-0.9-4.1-1.3-5.9-1.3
	c-1.8,0-3.3,0.4-4.4,1.3s-1.6,2-1.6,3.5c0,0.9,0.2,1.7,0.5,2.3c0.3,0.6,0.9,1.1,1.6,1.6c0.8,0.5,2.1,1,3.9,1.7
	c1.9,0.7,3.4,1.3,4.4,2c1,0.6,1.7,1.3,2.1,2.2C140.9,317.8,141.1,318.8,141.1,319.9z"/>
<path fill="#33B573" d="M170.8,326.4h-2l-7.4-11.7l-7.5,11.7H152l8.4-13l-7.6-12h2l6.8,10.7l6.9-10.7h1.9l-7.7,11.9L170.8,326.4z"/>
<path fill="#33B573" d="M389.4,436c0,1-0.8,1.8-1.8,1.8h-388c-1,0-1.8-0.8-1.8-1.8V195.7c0-1,0.8-1.8,1.8-1.8h388
	c1,0,1.8,0.8,1.8,1.8C389.4,195.7,389.4,436,389.4,436z M195.3,471.1c0-1.9,0.8-3.4,2-4.7c1.1-1.1,2.5-1.8,4.1-2
	c0.6,3.3-2.3,7-5.5,7.3C195.5,471.8,195.3,471.6,195.3,471.1 M199.3,472.1c3.3-1.3,6.4-0.3,8.6,2.5c-5.1,3-4.2,10.1,0.9,12.3
	c-1.3,2.8-2.7,5.4-5.1,7.3c-1.2,0.9-2.5,1.1-3.9,0.4c-2.3-1.2-4.6-1.1-7,0c-1.7,0.8-3.3,0.4-4.7-0.9c-2.4-2.3-3.9-5.1-4.8-8.3
	c-0.7-2.4-0.9-4.9-0.3-7.4c0.8-3.4,3.5-6,6.9-6.3c1.1-0.1,2.2,0.1,3.2,0.5C195.3,472.9,197.2,472.9,199.3,472.1 M190.8,176.2
	c0-0.2,0.2-0.4,0.4-0.4h6c0.2,0,0.4,0.2,0.4,0.4v6c0,0.2-0.2,0.4-0.4,0.4h-6c-0.2,0-0.4-0.2-0.4-0.4V176.2z M392.7,169H-6
	c-11.2,0-20,9.3-20,20.5V513c0,11.2,8.8,19.9,20,19.9h148.3c-0.2,7.9-0.4,16.3-2,22.5c-6.2,23.8-10.9,25.9-19.5,30.1
	c-3.5,1.7-7.5,4-11.7,5c-0.9,0.2-1.6,1.1-1,1.8v3.1c0,1.9,1.4,3.5,3.4,3.5c55.6,2.9,110.1,2.9,163.5,0c1.9,0,3.5-1.6,3.5-3.5v-3.2
	v-0.3v-0.2h-0.1c-0.1-0.6-0.5-1-1.1-1.2c-4.2-1-8.3-3.2-11.8-5c-8.6-4.2-13.3-6.4-19.5-30.2c-1.6-6.2-1.8-14.6-2-22.5h148.7
	c11.2,0,20.4-8.8,20.4-19.9V189.5C413.2,178.3,403.9,169,392.7,169"/>
</svg>
