<?xml version="1.0" encoding="utf-8"?>
<!-- Generator: Adobe Illustrator 18.0.0, SVG Export Plug-In . SVG Version: 6.00 Build 0)  -->
<!DOCTYPE svg PUBLIC "-//W3C//DTD SVG 1.1//EN" "http://www.w3.org/Graphics/SVG/1.1/DTD/svg11.dtd">
<svg version="1.1" id="Warstwa_1" xmlns="http://www.w3.org/2000/svg" xmlns:xlink="http://www.w3.org/1999/xlink" x="0px" y="0px"
	 width="576px" height="576px" viewBox="0 0 576 576" enable-background="new 0 0 576 576" xml:space="preserve">
<rect fill="#113036" width="576" height="576"/>
<rect y="144" fill="#FFFFFF" width="576" height="144"/>
<path fill="#19837E" d="M192.5,228.5l-8-19.8h-0.1c0.1,1.2,0.1,2.5,0.1,3.7v16.1H183v-21.4h2.3l7.6,18.8h0.1l7.6-18.8h2.3v21.4h-1.5
	v-16.2c0-1.1,0.1-2.3,0.2-3.5h-0.1l-8,19.7H192.5z"/>
<path fill="#19837E" d="M219.2,220.9h-8.7l-3,7.6h-1.7l8.6-21.5h1l8.4,21.5h-1.7L219.2,220.9z M211.1,219.6h7.7l-2.9-7.7
	c-0.2-0.6-0.5-1.4-0.9-2.5c-0.3,0.9-0.6,1.8-0.9,2.5L211.1,219.6z"/>
<path fill="#19837E" d="M236.1,208.1c-2.7,0-4.8,0.9-6.3,2.6s-2.3,4.1-2.3,7.1c0,3.1,0.7,5.4,2.2,7.1s3.5,2.5,6.2,2.5
	c1.8,0,3.4-0.2,5-0.7v1.3c-1.4,0.5-3.2,0.7-5.3,0.7c-3,0-5.4-1-7.1-2.9c-1.7-1.9-2.6-4.7-2.6-8.1c0-2.2,0.4-4.1,1.2-5.8
	c0.8-1.7,2-2.9,3.6-3.8s3.3-1.4,5.4-1.4s4,0.4,5.6,1.2l-0.6,1.3C239.4,208.5,237.8,208.1,236.1,208.1z"/>
<path fill="#19837E" d="M245.6,228.5v-21.4h1.5v21.4H245.6z"/>
<path fill="#19837E" d="M268.7,228.5h-1.5l-12.7-19h-0.1c0.1,2.3,0.2,4,0.2,5.1v13.9h-1.4v-21.4h1.5l12.7,19h0.1
	c-0.1-1.8-0.1-3.4-0.1-5v-14h1.5v21.4H268.7z"/>
<path fill="#19837E" d="M280.3,228.5h-1.5v-20h-7v-1.4h15.4v1.4h-7L280.3,228.5L280.3,228.5z"/>
<path fill="#19837E" d="M308.5,217.7c0,3.4-0.8,6.1-2.5,8.1s-4,3-7,3s-5.3-1-7-3s-2.5-4.7-2.5-8.1c0-3.4,0.9-6.1,2.6-8
	c1.7-2,4.1-2.9,7-2.9c3,0,5.3,1,7,3S308.5,214.3,308.5,217.7z M290.9,217.7c0,3.1,0.7,5.4,2.1,7.1s3.3,2.5,5.9,2.5
	c2.6,0,4.5-0.8,5.9-2.5s2-4,2-7.1c0-3.1-0.7-5.5-2-7.1c-1.4-1.6-3.3-2.5-5.9-2.5c-2.5,0-4.5,0.8-5.9,2.5
	C291.6,212.3,290.9,214.7,290.9,217.7z"/>
<path fill="#19837E" d="M325.2,223c0,1.8-0.7,3.2-2,4.2s-3.1,1.6-5.2,1.6c-2.6,0-4.6-0.3-6-0.9v-1.5c1.5,0.7,3.5,1,5.9,1
	c1.8,0,3.2-0.4,4.2-1.2s1.5-1.9,1.5-3.2c0-0.8-0.2-1.5-0.5-2s-0.9-1-1.7-1.5s-1.9-0.9-3.4-1.4c-2.2-0.8-3.7-1.6-4.5-2.4
	c-0.8-0.9-1.3-2-1.3-3.5c0-1.6,0.6-2.9,1.9-3.9c1.3-1,2.9-1.5,4.8-1.5c2,0,3.9,0.4,5.7,1.1l-0.5,1.3c-1.8-0.7-3.5-1.1-5.1-1.1
	s-2.8,0.4-3.8,1.1c-1,0.7-1.4,1.7-1.4,3c0,0.8,0.1,1.4,0.4,1.9s0.8,1,1.4,1.4c0.6,0.4,1.8,0.9,3.4,1.5c1.7,0.6,2.9,1.1,3.8,1.7
	c0.9,0.6,1.5,1.2,1.8,1.8C325,221.1,325.2,222,325.2,223z"/>
<path fill="#19837E" d="M345.2,228.5h-1.5V218h-12.5v10.5h-1.5v-21.4h1.5v9.5h12.5v-9.5h1.5V228.5z"/>
<path fill="#19837E" d="M366.1,228.5h-1.4v-15.6c0-1.4,0.1-2.9,0.2-4.4c-0.1,0.1-0.3,0.3-0.5,0.4c-0.2,0.1-1.7,1.3-4.5,3.6l-0.8-1
	l5.8-4.4h1.3L366.1,228.5L366.1,228.5z"/>
<path fill="#219E97" d="M349.5,508.7l-8.6-74.2c-0.4-3.1-3.4-5.5-7.1-5.5H0v8.3h4.7v10.8H0v3.3h8v6.6H0v4.2h14.6v6.6H0v4.1h13v6.6H0
	v5.8h15.5v10.8H0v27.4h348.4l1.1-11.5c0-0.5-0.1-1-0.2-1.5C349.5,510.1,349.6,509.4,349.5,508.7z M320.1,462.2v6.6h-37.4v-6.6H320.1
	z M319.3,458.1h-21.6v-6.6h21.6V458.1z M296,437.3h17.4v10.8H296V437.3z M291.9,458.1h-18.3v-6.6h18.3V458.1z M270.3,437.3h17.4
	v10.8h-17.4V437.3z M254.5,468.9v-6.6H272v6.6H254.5z M268.6,473v6.6h-17.4V473H268.6z M267.8,458.1h-18.3v-6.6h18.3V458.1z
	 M244.6,437.3H262v10.8h-17.4V437.3z M247.9,462.2v6.6h-17.4v-6.6H247.9z M241.3,458.1H223v-6.6h18.3V458.1z M218.8,437.3h17.4v10.8
	h-17.4V437.3z M204.7,468.9v-6.6h17.4v6.6H204.7z M218,473v6.6h-18.3V473H218z M215.5,458.1h-18.3v-6.6h18.3V458.1z M193.1,437.3
	h17.4v10.8h-17.4V437.3z M179,468.9v-6.6h17.4v6.6H179z M192.3,473v6.6h-17.4V473H192.3z M189,458.1h-17.4v-6.6H189V458.1z
	 M167.4,437.3h17.4v10.8h-17.4V437.3z M153.3,468.9v-6.6h18.3v6.6H153.3z M166.5,473v6.6h-17.4V473H166.5z M163.2,458.1h-17.4v-6.6
	h17.4V458.1z M141.6,437.3H159v10.8h-17.4V437.3z M127.5,468.9v-6.6h18.3v6.6H127.5z M140.8,473v6.6h-17.4V473H140.8z M137.5,458.1
	h-18.3v-6.6h18.3V458.1z M102.6,468.9v-6.6H120v6.6H102.6z M115.1,473v6.6H97.6V473H115.1z M115.9,437.3h17.4v10.8h-17.4V437.3z
	 M111.8,458.1H93.5v-6.6h18.3V458.1z M76.9,468.9v-6.6h17.4v6.6H76.9z M89.3,473v6.6H71.9V473H89.3z M90.2,437.3h17.4v10.8H90.2
	V437.3z M86,458.1H67.8v-6.6H86V458.1z M51.2,468.9v-6.6h17.4v6.6H51.2z M64.4,473v6.6H46.2V473H64.4z M64.4,437.3h17.4v10.8H64.4
	V437.3z M59.5,458.1H42v-6.6h17.4v6.6H59.5z M42.9,462.2v6.6H25.4v-6.6H42.9z M38.7,437.3h17.4v10.8H38.7V437.3z M13,448.1v-10.8
	h17.4v10.8H13z M16.3,451.4h17.4v6.6H16.3V451.4z M20.5,473h18.3v6.6H20.5V473z M52.8,496.3h-29v-10.8h29.1v10.8H52.8z M236.3,496.3
	H61.1v-10.8h175.1L236.3,496.3L236.3,496.3z M243.7,479.7h-18.3V473h18.3V479.7z M276.1,496.3h-31.5v-10.8h31.5V496.3z M301.9,496.3
	h-18.3v-10.8h18.3V496.3z M324.3,479.7H277V473h47.3V479.7z"/>
<path fill="#219E97" d="M0,524.5v11.6h341.1c3.7,0,6.8-3.2,6.8-7l0.4-4.6H0z"/>
<path fill="#219E97" d="M575.9,429h-69.1v-4.2h69.1v-23.2h-71.8c-4.5,0-8.1,3.6-8.1,8.1v18.5c-15.2-2-22.9-8.6-31-15.6
	c-11.2-9.6-22.8-19.5-52.8-16.2v-293c0-3.5-2.7-6.4-6.3-6.4H150.5c-3.5,0-6.5,2.9-6.5,6.4v324.8h190.6c3.7,0,6.8,2.4,7.1,5.5
	l5.6,48.5h58.5c3.5,0,6.3-2.8,6.3-6.4v-66.7c14.6,1.6,29.9,6.6,41.7,14.1c12.4,7.9,27.2,22.2,27.2,45.7c0,8.8-3.8,15.7-7.9,20.4
	l-6-2.1h-48.7L375.5,521v10.2c0,5.3,3.8,9.8,9,10.7l52.9,8.9c2.7,0.4,5.4-0.1,7.7-1.6l32.2-21.1c3.2-2.1,5.2-5.7,5.2-9.6v-25.6
	l-6.1-2.2c4.1-5.1,7.8-12.3,7.8-21.6c0-25.1-15.7-40.2-28.8-48.5c-12.4-7.9-28.1-13.1-43.4-14.6v-2c27.4-3.2,37.4,5.3,48,14.4
	c8.4,7.2,17.8,15.2,35.9,17.4v32.5c0,4.5,3.6,8.1,8.1,8.1h71.8L575.9,429L575.9,429z M176.3,390.6c-0.8,0.6-1.8,0.7-2.7,0.3
	c-1.6-0.8-3.2-0.8-4.8,0c-1.2,0.6-2.3,0.3-3.2-0.6c-1.6-1.6-2.7-3.5-3.3-5.7c-0.5-1.7-0.6-3.4-0.2-5.1c0.5-2.3,2.4-4.1,4.8-4.3
	c0.7-0.1,1.6,0.1,2.2,0.3c1.4,0.6,2.7,0.6,4.2,0c2.3-0.9,4.4-0.2,6,1.7c-3.5,2.1-2.9,6.9,0.6,8.4C179,387.5,178,389.3,176.3,390.6z
	 M170.5,374.8c0-1.3,0.5-2.4,1.4-3.2c0.8-0.8,1.7-1.3,2.9-1.4c0.4,2.3-1.6,4.8-3.8,5C170.6,375.3,170.5,375.1,170.5,374.8z
	 M380.6,360.1h-103v-5.8h102.9L380.6,360.1L380.6,360.1z M389.7,295.7c0,4.4-3.6,8-8,8H173.6c-4.4,0-8-3.6-8-8V138.2
	c0-4.4,3.6-8,8-8h208.2c4.4,0,8,3.6,8,8L389.7,295.7L389.7,295.7z"/>
</svg>
