<?xml version="1.0" encoding="utf-8"?>
<!-- Generator: Adobe Illustrator 18.1.0, SVG Export Plug-In . SVG Version: 6.00 Build 0)  -->
<!DOCTYPE svg PUBLIC "-//W3C//DTD SVG 1.1//EN" "http://www.w3.org/Graphics/SVG/1.1/DTD/svg11.dtd">
<svg version="1.1" id="Warstwa_1" xmlns="http://www.w3.org/2000/svg" xmlns:xlink="http://www.w3.org/1999/xlink" x="0px" y="0px"
	 width="576px" height="576px" viewBox="-95 97 576 576" enable-background="new -95 97 576 576" xml:space="preserve">
<rect x="-95" y="97" fill="#3E1D34" width="576" height="576"/>
<rect x="-95" y="241" fill="#FFFFFF" width="576" height="143.7"/>
<path fill="#ED2E7A" d="M69.5,303.8l-9.3-23.1h-0.1c0.1,1.4,0.1,2.9,0.1,4.3v18.7h-1.7v-25h2.7l8.9,22h0.1l8.9-22h2.6v25h-1.8v-18.9
	c0-1.3,0.1-2.7,0.2-4.1H80l-9.3,23h-1.2V303.8z"/>
<path fill="#ED2E7A" d="M100.8,294.9H90.6l-3.5,8.8h-1.9l10-25.1h1.1l9.8,25.1h-2L100.8,294.9z M91.2,293.4h8.9l-3.4-9
	c-0.3-0.7-0.6-1.7-1-2.9c-0.3,1.1-0.6,2.1-1,3L91.2,293.4z"/>
<path fill="#ED2E7A" d="M120.4,280c-3.1,0-5.6,1-7.4,3s-2.7,4.8-2.7,8.2c0,3.6,0.8,6.3,2.5,8.3c1.7,2,4.1,3,7.3,3
	c2.1,0,4-0.3,5.8-0.8v1.5c-1.7,0.6-3.7,0.9-6.2,0.9c-3.5,0-6.3-1.1-8.3-3.4s-3-5.4-3-9.5c0-2.5,0.5-4.8,1.4-6.7
	c1-1.9,2.3-3.4,4.2-4.5c1.8-1.1,3.9-1.6,6.3-1.6c2.4,0,4.6,0.5,6.5,1.4l-0.7,1.6C124.3,280.4,122.4,280,120.4,280z"/>
<path fill="#ED2E7A" d="M131.5,303.8v-25h1.7v25H131.5z"/>
<path fill="#ED2E7A" d="M158.5,303.8h-1.8l-14.8-22.2h-0.1c0.1,2.6,0.2,4.6,0.2,6v16.2h-1.7v-25h1.7l14.8,22.1h0.1
	c-0.1-2.1-0.2-4-0.2-5.8v-16.3h1.7v25H158.5z"/>
<path fill="#ED2E7A" d="M172,303.8h-1.8v-23.3h-8.1v-1.6h18v1.6H172L172,303.8L172,303.8z"/>
<path fill="#ED2E7A" d="M204.9,291.2c0,4-1,7.1-3,9.4s-4.7,3.5-8.2,3.5s-6.2-1.2-8.2-3.5s-3-5.5-3-9.4c0-4,1-7.1,3-9.4
	s4.7-3.4,8.2-3.4s6.2,1.1,8.2,3.4S204.9,287.2,204.9,291.2z M184.4,291.2c0,3.6,0.8,6.3,2.4,8.3c1.6,2,3.9,2.9,6.9,2.9
	s5.3-1,6.9-2.9c1.6-1.9,2.4-4.7,2.4-8.3c0-3.6-0.8-6.4-2.4-8.3c-1.6-1.9-3.9-2.9-6.9-2.9s-5.3,1-6.9,2.9
	C185.2,284.9,184.4,287.7,184.4,291.2z"/>
<path fill="#ED2E7A" d="M224.4,297.3c0,2.1-0.8,3.7-2.3,5c-1.5,1.2-3.6,1.8-6.1,1.8c-3.1,0-5.4-0.3-7-1v-1.7
	c1.8,0.8,4.1,1.1,6.9,1.1c2.1,0,3.7-0.5,4.9-1.4s1.8-2.2,1.8-3.7c0-0.9-0.2-1.7-0.6-2.3c-0.4-0.6-1-1.2-1.9-1.7s-2.2-1.1-4-1.7
	c-2.6-0.9-4.3-1.8-5.3-2.8s-1.5-2.4-1.5-4.1c0-1.9,0.7-3.4,2.2-4.6s3.3-1.8,5.6-1.8s4.6,0.4,6.6,1.3l-0.6,1.5
	c-2.1-0.9-4.1-1.3-5.9-1.3c-1.8,0-3.3,0.4-4.4,1.3s-1.6,2-1.6,3.5c0,0.9,0.2,1.7,0.5,2.3c0.3,0.6,0.9,1.1,1.7,1.6s2.1,1,3.9,1.7
	c1.9,0.7,3.4,1.3,4.4,2c1,0.6,1.7,1.3,2.1,2.2C224.2,295.2,224.4,296.2,224.4,297.3z"/>
<path fill="#ED2E7A" d="M247.8,303.8H246v-12.3h-14.6v12.3h-1.7v-25h1.7v11.1H246v-11.1h1.8C247.8,278.8,247.8,303.8,247.8,303.8z"
	/>
<path fill="#ED2E7A" d="M72.3,342.3c0,2.1-0.8,3.7-2.3,5c-1.5,1.2-3.6,1.8-6.1,1.8c-3.1,0-5.4-0.3-7-1v-1.7c1.8,0.8,4.1,1.1,6.9,1.1
	c2.1,0,3.7-0.5,4.9-1.4c1.2-0.9,1.8-2.2,1.8-3.7c0-0.9-0.2-1.7-0.6-2.3c-0.4-0.6-1-1.2-1.9-1.7s-2.2-1.1-4-1.7
	c-2.6-0.9-4.3-1.8-5.3-2.8s-1.5-2.4-1.5-4.1c0-1.9,0.7-3.4,2.2-4.6s3.3-1.8,5.6-1.8c2.3,0,4.6,0.4,6.6,1.3l-0.6,1.5
	c-2.1-0.9-4.1-1.3-5.9-1.3s-3.3,0.4-4.4,1.3s-1.6,2-1.6,3.5c0,0.9,0.2,1.7,0.5,2.3c0.3,0.6,0.9,1.1,1.6,1.6c0.8,0.5,2.1,1,3.9,1.7
	c1.9,0.7,3.4,1.3,4.4,2c1,0.6,1.7,1.3,2.1,2.2C72.1,340.2,72.3,341.2,72.3,342.3z"/>
<path fill="#ED2E7A" d="M83.4,337.4l7.3-13.7h1.9L84.3,339v9.7h-1.8v-9.5l-8.4-15.5h2L83.4,337.4z"/>
<path fill="#ED2E7A" d="M109.9,342.3c0,2.1-0.8,3.7-2.3,5c-1.5,1.2-3.6,1.8-6.1,1.8c-3.1,0-5.4-0.3-7-1v-1.7
	c1.8,0.8,4.1,1.1,6.9,1.1c2.1,0,3.7-0.5,4.9-1.4c1.2-0.9,1.8-2.2,1.8-3.7c0-0.9-0.2-1.7-0.6-2.3c-0.4-0.6-1-1.2-1.9-1.7
	s-2.2-1.1-4-1.7c-2.6-0.9-4.3-1.8-5.3-2.8s-1.5-2.4-1.5-4.1c0-1.9,0.7-3.4,2.2-4.6s3.3-1.8,5.6-1.8c2.3,0,4.6,0.4,6.6,1.3l-0.6,1.5
	c-2.1-0.9-4.1-1.3-5.9-1.3s-3.3,0.4-4.4,1.3s-1.6,2-1.6,3.5c0,0.9,0.2,1.7,0.5,2.3c0.3,0.6,0.9,1.1,1.6,1.6c0.8,0.5,2.1,1,3.9,1.7
	c1.9,0.7,3.4,1.3,4.4,2c1,0.6,1.7,1.3,2.1,2.2C109.7,340.2,109.9,341.2,109.9,342.3z"/>
<path fill="#ED2E7A" d="M121.7,348.8h-1.8v-23.3h-8.1v-1.6h18v1.6h-8.1L121.7,348.8L121.7,348.8z"/>
<path fill="#ED2E7A" d="M147.1,348.8h-13.7v-25h13.7v1.6h-11.9v9.5h11.2v1.6h-11.2v10.7h11.9V348.8z"/>
<path fill="#ED2E7A" d="M163.8,348.8l-9.3-23.1h-0.1c0.1,1.4,0.1,2.9,0.1,4.3v18.7h-1.7v-25h2.7l8.9,22h0.1l8.9-22h2.6v25h-1.8
	v-18.9c0-1.3,0.1-2.7,0.2-4.1h-0.1l-9.3,23h-1.2V348.8z"/>
<path fill="#ED2E7A" d="M194.3,348.8l10.3-23.3h-14.1v-1.6h16.2v1.2l-10.3,23.7L194.3,348.8L194.3,348.8z"/>
<path fill="#ED2E7A" d="M-11.5,465.7c0.8,0,1.4,0.6,1.4,1.4s-0.6,1.4-1.4,1.4s-1.4-0.6-1.4-1.4C-12.9,466.3-12.3,465.7-11.5,465.7
	 M-11.5,459.4c0.8,0,1.4,0.6,1.4,1.4s-0.6,1.4-1.4,1.4s-1.4-0.6-1.4-1.4S-12.3,459.4-11.5,459.4 M-11.5,453.1c0.8,0,1.4,0.6,1.4,1.4
	s-0.6,1.4-1.4,1.4s-1.4-0.6-1.4-1.4S-12.3,453.1-11.5,453.1 M-11.5,446.1c0.8,0,1.4,0.6,1.4,1.4s-0.6,1.4-1.4,1.4s-1.4-0.6-1.4-1.4
	S-12.3,446.1-11.5,446.1 M-11.5,439.8c0.8,0,1.4,0.6,1.4,1.4s-0.6,1.4-1.4,1.4s-1.4-0.6-1.4-1.4S-12.3,439.8-11.5,439.8
	 M-11.5,432.8c0.8,0,1.4,0.6,1.4,1.4s-0.6,1.4-1.4,1.4s-1.4-0.6-1.4-1.4S-12.3,432.8-11.5,432.8 M-11.5,426.5c0.8,0,1.4,0.6,1.4,1.4
	s-0.6,1.4-1.4,1.4s-1.4-0.6-1.4-1.4S-12.3,426.5-11.5,426.5 M-11.5,418.8c0.8,0,1.4,0.6,1.4,1.4s-0.6,1.4-1.4,1.4s-1.4-0.6-1.4-1.4
	S-12.3,418.8-11.5,418.8 M-11.5,411.8c0.8,0,1.4,0.6,1.4,1.4s-0.6,1.4-1.4,1.4s-1.4-0.6-1.4-1.4S-12.3,411.8-11.5,411.8 M-6.3,465.7
	c0.8,0,1.4,0.6,1.4,1.4s-0.6,1.4-1.4,1.4s-1.4-0.6-1.4-1.4C-7.7,466.3-7.1,465.7-6.3,465.7 M-6.3,459.4c0.8,0,1.4,0.6,1.4,1.4
	s-0.6,1.4-1.4,1.4s-1.4-0.6-1.4-1.4C-7.7,460-7.1,459.4-6.3,459.4 M-6.3,453.1c0.8,0,1.4,0.6,1.4,1.4s-0.6,1.4-1.4,1.4
	s-1.4-0.6-1.4-1.4S-7.1,453.1-6.3,453.1 M-6.3,446.1c0.8,0,1.4,0.6,1.4,1.4s-0.6,1.4-1.4,1.4s-1.4-0.6-1.4-1.4
	C-7.7,446.7-7.1,446.1-6.3,446.1 M-6.3,439.8c0.8,0,1.4,0.6,1.4,1.4s-0.6,1.4-1.4,1.4s-1.4-0.6-1.4-1.4
	C-7.7,440.4-7.1,439.8-6.3,439.8 M-6.3,432.8c0.8,0,1.4,0.6,1.4,1.4s-0.6,1.4-1.4,1.4s-1.4-0.6-1.4-1.4
	C-7.7,433.4-7.1,432.8-6.3,432.8 M-6.3,426.5c0.8,0,1.4,0.6,1.4,1.4s-0.6,1.4-1.4,1.4s-1.4-0.6-1.4-1.4
	C-7.7,427.1-7.1,426.5-6.3,426.5 M-6.3,418.8c0.8,0,1.4,0.6,1.4,1.4s-0.6,1.4-1.4,1.4s-1.4-0.6-1.4-1.4
	C-7.7,419.4-7.1,418.8-6.3,418.8 M-6.3,411.8c0.8,0,1.4,0.6,1.4,1.4s-0.6,1.4-1.4,1.4s-1.4-0.6-1.4-1.4
	C-7.7,412.4-7.1,411.8-6.3,411.8 M-1,465.7c0.8,0,1.4,0.6,1.4,1.4s-0.6,1.4-1.4,1.4s-1.4-0.6-1.4-1.4C-2.4,466.3-1.8,465.7-1,465.7
	 M-1,459.4c0.8,0,1.4,0.6,1.4,1.4s-0.6,1.4-1.4,1.4s-1.4-0.6-1.4-1.4S-1.8,459.4-1,459.4 M-1,453.1c0.8,0,1.4,0.6,1.4,1.4
	s-0.6,1.4-1.4,1.4s-1.4-0.6-1.4-1.4S-1.8,453.1-1,453.1 M-1,446.1c0.8,0,1.4,0.6,1.4,1.4s-0.6,1.4-1.4,1.4s-1.4-0.6-1.4-1.4
	S-1.8,446.1-1,446.1 M-1,439.8c0.8,0,1.4,0.6,1.4,1.4s-0.6,1.4-1.4,1.4s-1.4-0.6-1.4-1.4S-1.8,439.8-1,439.8 M-1,432.8
	c0.8,0,1.4,0.6,1.4,1.4s-0.6,1.4-1.4,1.4s-1.4-0.6-1.4-1.4S-1.8,432.8-1,432.8 M-1,426.5c0.8,0,1.4,0.6,1.4,1.4s-0.6,1.4-1.4,1.4
	s-1.4-0.6-1.4-1.4S-1.8,426.5-1,426.5 M-1,418.8c0.8,0,1.4,0.6,1.4,1.4s-0.6,1.4-1.4,1.4s-1.4-0.6-1.4-1.4S-1.8,418.8-1,418.8
	 M-1,411.8c0.8,0,1.4,0.6,1.4,1.4s-0.6,1.4-1.4,1.4s-1.4-0.6-1.4-1.4S-1.8,411.8-1,411.8 M4,465.7c0.8,0,1.4,0.6,1.4,1.4
	s-0.6,1.4-1.4,1.4s-1.4-0.6-1.4-1.4C2.6,466.3,3.2,465.7,4,465.7 M4,459.4c0.8,0,1.4,0.6,1.4,1.4s-0.6,1.4-1.4,1.4s-1.4-0.6-1.4-1.4
	S3.2,459.4,4,459.4 M4,453.1c0.8,0,1.4,0.6,1.4,1.4s-0.6,1.4-1.4,1.4s-1.4-0.6-1.4-1.4S3.2,453.1,4,453.1 M4,446.1
	c0.8,0,1.4,0.6,1.4,1.4s-0.6,1.4-1.4,1.4s-1.4-0.6-1.4-1.4S3.2,446.1,4,446.1 M4,439.8c0.8,0,1.4,0.6,1.4,1.4s-0.6,1.4-1.4,1.4
	s-1.4-0.6-1.4-1.4S3.2,439.8,4,439.8 M4,432.8c0.8,0,1.4,0.6,1.4,1.4s-0.6,1.4-1.4,1.4s-1.4-0.6-1.4-1.4S3.2,432.8,4,432.8 M4,426.5
	c0.8,0,1.4,0.6,1.4,1.4s-0.6,1.4-1.4,1.4s-1.4-0.6-1.4-1.4S3.2,426.5,4,426.5 M4,418.8c0.8,0,1.4,0.6,1.4,1.4s-0.6,1.4-1.4,1.4
	s-1.4-0.6-1.4-1.4S3.2,418.8,4,418.8 M4,411.8c0.8,0,1.4,0.6,1.4,1.4s-0.6,1.4-1.4,1.4s-1.4-0.6-1.4-1.4S3.2,411.8,4,411.8
	 M9.5,465.7c0.8,0,1.4,0.6,1.4,1.4s-0.6,1.4-1.4,1.4s-1.4-0.6-1.4-1.4C8.1,466.3,8.7,465.7,9.5,465.7 M9.5,459.4
	c0.8,0,1.4,0.6,1.4,1.4s-0.6,1.4-1.4,1.4s-1.4-0.6-1.4-1.4S8.7,459.4,9.5,459.4 M9.5,453.1c0.8,0,1.4,0.6,1.4,1.4s-0.6,1.4-1.4,1.4
	s-1.4-0.6-1.4-1.4S8.7,453.1,9.5,453.1 M9.5,446.1c0.8,0,1.4,0.6,1.4,1.4s-0.6,1.4-1.4,1.4s-1.4-0.6-1.4-1.4S8.7,446.1,9.5,446.1
	 M9.5,439.8c0.8,0,1.4,0.6,1.4,1.4s-0.6,1.4-1.4,1.4s-1.4-0.6-1.4-1.4S8.7,439.8,9.5,439.8 M9.5,432.8c0.8,0,1.4,0.6,1.4,1.4
	s-0.6,1.4-1.4,1.4s-1.4-0.6-1.4-1.4S8.7,432.8,9.5,432.8 M9.5,426.5c0.8,0,1.4,0.6,1.4,1.4s-0.6,1.4-1.4,1.4s-1.4-0.6-1.4-1.4
	S8.7,426.5,9.5,426.5 M9.5,418.8c0.8,0,1.4,0.6,1.4,1.4s-0.6,1.4-1.4,1.4s-1.4-0.6-1.4-1.4S8.7,418.8,9.5,418.8 M9.5,411.8
	c0.8,0,1.4,0.6,1.4,1.4s-0.6,1.4-1.4,1.4s-1.4-0.6-1.4-1.4S8.7,411.8,9.5,411.8 M14.3,465.7c0.8,0,1.4,0.6,1.4,1.4s-0.6,1.4-1.4,1.4
	s-1.4-0.6-1.4-1.4C12.9,466.3,13.5,465.7,14.3,465.7 M14.3,459.4c0.8,0,1.4,0.6,1.4,1.4s-0.6,1.4-1.4,1.4s-1.4-0.6-1.4-1.4
	S13.5,459.4,14.3,459.4 M14.3,453.1c0.8,0,1.4,0.6,1.4,1.4s-0.6,1.4-1.4,1.4s-1.4-0.6-1.4-1.4S13.5,453.1,14.3,453.1 M14.3,446.1
	c0.8,0,1.4,0.6,1.4,1.4s-0.6,1.4-1.4,1.4s-1.4-0.6-1.4-1.4S13.5,446.1,14.3,446.1 M14.3,439.8c0.8,0,1.4,0.6,1.4,1.4
	s-0.6,1.4-1.4,1.4s-1.4-0.6-1.4-1.4S13.5,439.8,14.3,439.8 M14.3,432.8c0.8,0,1.4,0.6,1.4,1.4s-0.6,1.4-1.4,1.4s-1.4-0.6-1.4-1.4
	S13.5,432.8,14.3,432.8 M14.3,426.5c0.8,0,1.4,0.6,1.4,1.4s-0.6,1.4-1.4,1.4s-1.4-0.6-1.4-1.4S13.5,426.5,14.3,426.5 M14.3,418.8
	c0.8,0,1.4,0.6,1.4,1.4s-0.6,1.4-1.4,1.4s-1.4-0.6-1.4-1.4S13.5,418.8,14.3,418.8 M14.3,411.8c0.8,0,1.4,0.6,1.4,1.4
	s-0.6,1.4-1.4,1.4s-1.4-0.6-1.4-1.4S13.5,411.8,14.3,411.8 M19.5,465.7c0.8,0,1.4,0.6,1.4,1.4s-0.6,1.4-1.4,1.4s-1.4-0.6-1.4-1.4
	C18.1,466.3,18.7,465.7,19.5,465.7 M19.5,459.4c0.8,0,1.4,0.6,1.4,1.4s-0.6,1.4-1.4,1.4s-1.4-0.6-1.4-1.4S18.7,459.4,19.5,459.4
	 M19.5,453.1c0.8,0,1.4,0.6,1.4,1.4s-0.6,1.4-1.4,1.4s-1.4-0.6-1.4-1.4S18.7,453.1,19.5,453.1 M19.5,446.1c0.8,0,1.4,0.6,1.4,1.4
	s-0.6,1.4-1.4,1.4s-1.4-0.6-1.4-1.4S18.7,446.1,19.5,446.1 M19.5,439.8c0.8,0,1.4,0.6,1.4,1.4s-0.6,1.4-1.4,1.4s-1.4-0.6-1.4-1.4
	S18.7,439.8,19.5,439.8 M19.5,432.8c0.8,0,1.4,0.6,1.4,1.4s-0.6,1.4-1.4,1.4s-1.4-0.6-1.4-1.4S18.7,432.8,19.5,432.8 M19.5,426.5
	c0.8,0,1.4,0.6,1.4,1.4s-0.6,1.4-1.4,1.4s-1.4-0.6-1.4-1.4S18.7,426.5,19.5,426.5 M19.5,418.8c0.8,0,1.4,0.6,1.4,1.4
	s-0.6,1.4-1.4,1.4s-1.4-0.6-1.4-1.4S18.7,418.8,19.5,418.8 M19.5,411.8c0.8,0,1.4,0.6,1.4,1.4s-0.6,1.4-1.4,1.4s-1.4-0.6-1.4-1.4
	S18.7,411.8,19.5,411.8 M24.9,465.7c0.8,0,1.4,0.6,1.4,1.4s-0.6,1.4-1.4,1.4s-1.4-0.6-1.4-1.4C23.5,466.3,24.1,465.7,24.9,465.7
	 M24.9,459.4c0.8,0,1.4,0.6,1.4,1.4s-0.6,1.4-1.4,1.4s-1.4-0.6-1.4-1.4S24.1,459.4,24.9,459.4 M24.9,453.1c0.8,0,1.4,0.6,1.4,1.4
	s-0.6,1.4-1.4,1.4s-1.4-0.6-1.4-1.4S24.1,453.1,24.9,453.1 M24.9,446.1c0.8,0,1.4,0.6,1.4,1.4s-0.6,1.4-1.4,1.4s-1.4-0.6-1.4-1.4
	S24.1,446.1,24.9,446.1 M24.9,439.8c0.8,0,1.4,0.6,1.4,1.4s-0.6,1.4-1.4,1.4s-1.4-0.6-1.4-1.4S24.1,439.8,24.9,439.8 M24.9,432.8
	c0.8,0,1.4,0.6,1.4,1.4s-0.6,1.4-1.4,1.4s-1.4-0.6-1.4-1.4S24.1,432.8,24.9,432.8 M24.9,426.5c0.8,0,1.4,0.6,1.4,1.4
	s-0.6,1.4-1.4,1.4s-1.4-0.6-1.4-1.4S24.1,426.5,24.9,426.5 M24.9,418.8c0.8,0,1.4,0.6,1.4,1.4s-0.6,1.4-1.4,1.4s-1.4-0.6-1.4-1.4
	S24.1,418.8,24.9,418.8 M24.9,411.8c0.8,0,1.4,0.6,1.4,1.4s-0.6,1.4-1.4,1.4s-1.4-0.6-1.4-1.4S24.1,411.8,24.9,411.8 M29.8,465.7
	c0.8,0,1.4,0.6,1.4,1.4s-0.6,1.4-1.4,1.4s-1.4-0.6-1.4-1.4C28.4,466.3,29,465.7,29.8,465.7 M29.8,459.4c0.8,0,1.4,0.6,1.4,1.4
	s-0.6,1.4-1.4,1.4s-1.4-0.6-1.4-1.4S29,459.4,29.8,459.4 M29.8,453.1c0.8,0,1.4,0.6,1.4,1.4s-0.6,1.4-1.4,1.4s-1.4-0.6-1.4-1.4
	S29,453.1,29.8,453.1 M29.8,446.1c0.8,0,1.4,0.6,1.4,1.4s-0.6,1.4-1.4,1.4s-1.4-0.6-1.4-1.4S29,446.1,29.8,446.1 M29.8,439.8
	c0.8,0,1.4,0.6,1.4,1.4s-0.6,1.4-1.4,1.4s-1.4-0.6-1.4-1.4S29,439.8,29.8,439.8 M29.8,432.8c0.8,0,1.4,0.6,1.4,1.4s-0.6,1.4-1.4,1.4
	s-1.4-0.6-1.4-1.4S29,432.8,29.8,432.8 M29.8,426.5c0.8,0,1.4,0.6,1.4,1.4s-0.6,1.4-1.4,1.4s-1.4-0.6-1.4-1.4S29,426.5,29.8,426.5
	 M29.8,418.8c0.8,0,1.4,0.6,1.4,1.4s-0.6,1.4-1.4,1.4s-1.4-0.6-1.4-1.4S29,418.8,29.8,418.8 M29.8,411.8c0.8,0,1.4,0.6,1.4,1.4
	s-0.6,1.4-1.4,1.4s-1.4-0.6-1.4-1.4S29,411.8,29.8,411.8 M42.3,192.3h17c1.8,0,3.3,1.7,3.3,3.5s-1.5,3.5-3.3,3.5h-17
	c-1.8,0-3.3-1.7-3.3-3.5S40.5,192.3,42.3,192.3 M327.1,192.3h17c1.8,0,3.3,1.7,3.3,3.5s-1.5,3.5-3.3,3.5h-17c-1.8,0-3.3-1.7-3.3-3.5
	S325.3,192.3,327.1,192.3 M369.3,453.6c3.1,0,5.6,2.5,5.6,5.6s-2.5,5.6-5.6,5.6c-3.1,0-5.6-2.5-5.6-5.6S366.2,453.6,369.3,453.6
	 M369.3,433.3c3.1,0,5.6,2.5,5.6,5.6s-2.5,5.6-5.6,5.6c-3.1,0-5.6-2.5-5.6-5.6S366.2,433.3,369.3,433.3 M391,453.6
	c3.1,0,5.6,2.5,5.6,5.6s-2.5,5.6-5.6,5.6s-5.6-2.5-5.6-5.6S387.9,453.6,391,453.6 M391,433.3c3.1,0,5.6,2.5,5.6,5.6
	s-2.5,5.6-5.6,5.6s-5.6-2.5-5.6-5.6S387.9,433.3,391,433.3 M197.7,442.2c-0.6,0.5-1.4,0.6-2.1,0.2c-1.3-0.6-2.5-0.6-3.7,0
	c-0.9,0.4-1.8,0.2-2.5-0.5c-1.3-1.2-2.1-2.7-2.6-4.4c-0.4-1.3-0.5-2.6-0.2-3.9c0.4-1.8,1.9-3.2,3.7-3.4c0.6-0.1,1.2,0.1,1.7,0.3
	c1.1,0.4,2.1,0.4,3.2,0c1.8-0.7,3.4-0.2,4.6,1.3c-2.7,1.6-2.2,5.4,0.5,6.5C199.8,439.8,199.1,441.2,197.7,442.2 M194.3,427.5
	c0.6-0.6,1.3-1,2.2-1.1c0.3,1.8-1.2,3.8-3,3.9c-0.3,0-0.3-0.1-0.3-0.3C193.2,429,193.6,428.1,194.3,427.5 M-16.4,474.2h53.7V407h0.3
	c-0.2-0.2-0.3-0.5-0.3-0.8V220.4c0-0.8,0.7-1.5,1.6-1.5h308.3c0.8,0,1.5,0.7,1.5,1.5v185.8c0,0.8-0.6,1.5-1.5,1.5H38.9h-0.2v66.5
	h308.5v-66.5h1.4v66.5h54c1.5,0,3.2-0.9,3.2-2.4L403,197.6c0-7.3-6.1-13.2-13.4-13.2c0,0-149-8.4-199.6-8.4
	c-49,0-193.8,8.4-193.8,8.4c-7.3,0-13,5.9-13,13.2l-2.1,274.3C-18.8,473.4-18,474.2-16.4,474.2"/>
<path fill="#ED2E7A" d="M136.6,506.4v14H250v-14c0,0-41.5,0.7-55.3,0.7C180.2,507.1,136.6,506.4,136.6,506.4"/>
<rect x="136.6" y="521.1" fill="#ED2E7A" width="113.3" height="23.8"/>
<path fill="#ED2E7A" d="M112.5,521.1c-0.1,1.9-1.6,3.5-3.5,3.5H81c-1.9,0-3.4-1.6-3.5-3.5H-95v23.8h3c0.9,1.1,2.2,2,3.7,2
	s2.8-0.9,3.7-2h219.8v-23.8H112.5z"/>
<path fill="#ED2E7A" d="M481,521.1H251.4v23.8h221.2c0.9,1.1,2.2,2,3.7,2s2.8-0.9,3.7-2h1V521.1L481,521.1z"/>
<path fill="#ED2E7A" d="M481,520.4v-21.7c-6.7-0.2-39.6-1.1-83.7-2.1c5.3-0.5,9.5-5,9.5-10.4c0-5.8-4.7-10.5-10.5-10.5h-44.8
	c0,0,0.7,7.5,0.7,10c0,2.1-0.4,7.6-0.6,9.9c-0.5,0-0.9,0-1.4,0c0.2-2.3,0.6-7.5,0.6-9.6c0-2.6-0.7-10.3-0.7-10.3H36
	c0,0-0.7,8.5-0.7,11.3c0,1.9,0.4,6.6,0.6,8.7c-0.5,0-0.9,0-1.4,0c-0.2-2.1-0.6-7-0.6-8.9c0-2.8,0.7-11.1,0.7-11.1H-9.5
	c-5.8,0-10.5,4.7-10.5,10.5s4.7,10.5,10.4,10.5c-43.9,1-77.4,1.8-85.4,2.1v21.7H77.6c0.3-1.7,1.7-2.8,3.4-2.8h28
	c1.7,0,3.2,1.1,3.4,2.8h22.8V505c0,0,44.6,0.7,59.5,0.7c14.2,0,56.7-0.7,56.7-0.7v15.4H481z"/>
</svg>
