<?xml version="1.0" encoding="utf-8"?>
<!-- Generator: Adobe Illustrator 18.1.0, SVG Export Plug-In . SVG Version: 6.00 Build 0)  -->
<!DOCTYPE svg PUBLIC "-//W3C//DTD SVG 1.1//EN" "http://www.w3.org/Graphics/SVG/1.1/DTD/svg11.dtd">
<svg version="1.1" id="Warstwa_1" xmlns="http://www.w3.org/2000/svg" xmlns:xlink="http://www.w3.org/1999/xlink" x="0px" y="0px"
	 width="576px" height="576px" viewBox="-95 97 576 576" enable-background="new -95 97 576 576" xml:space="preserve">
<rect x="-95" y="97" fill="#3E1D34" width="576" height="576"/>
<rect x="-95" y="241" fill="#FFFFFF" width="576" height="144"/>
<path fill="#ED2E7A" d="M20.3,315.5v10.9h-1.7v-25h5.9c3.1,0,5.4,0.6,6.9,1.7s2.2,2.9,2.2,5.2c0,1.7-0.4,3.1-1.3,4.2
	c-0.9,1.2-2.2,2-4,2.5l6.8,11.4H33l-6.4-10.9L20.3,315.5L20.3,315.5z M20.3,314h4.8c2.1,0,3.7-0.5,4.9-1.4c1.2-0.9,1.7-2.3,1.7-4.2
	c0-1.9-0.6-3.3-1.7-4.2c-1.1-0.9-3-1.3-5.6-1.3h-4.1L20.3,314L20.3,314z"/>
<path fill="#ED2E7A" d="M57.4,326.4h-1.8v-12.3H41v12.3h-1.7v-25H41v11.1h14.6v-11.1h1.8V326.4z"/>
<path fill="#ED2E7A" d="M76.5,317.6H66.3l-3.5,8.8h-1.9l10-25.1H72l9.8,25.1h-2L76.5,317.6z M67,316h8.9l-3.4-9
	c-0.3-0.7-0.6-1.7-1-2.9c-0.3,1.1-0.6,2.1-1,3L67,316z"/>
<path fill="#ED2E7A" d="M100.6,308.6c0,2.4-0.8,4.3-2.5,5.6c-1.6,1.3-4,1.9-7,1.9h-3.9v10.3h-1.7v-25h6.1
	C97.6,301.4,100.6,303.8,100.6,308.6z M87.3,314.6h3.4c2.8,0,4.8-0.5,6.1-1.4c1.3-0.9,1.9-2.4,1.9-4.5c0-1.9-0.6-3.4-1.8-4.3
	c-1.2-0.9-3-1.4-5.5-1.4h-4.1V314.6z"/>
<path fill="#ED2E7A" d="M119.8,319.9c0,2.1-0.8,3.7-2.3,5c-1.5,1.2-3.6,1.8-6.1,1.8c-3.1,0-5.4-0.3-7-1V324c1.8,0.8,4.1,1.1,6.9,1.1
	c2.1,0,3.7-0.5,4.9-1.4s1.8-2.2,1.8-3.7c0-0.9-0.2-1.7-0.6-2.3c-0.4-0.6-1-1.2-1.9-1.7s-2.2-1.1-4-1.7c-2.6-0.9-4.3-1.8-5.3-2.8
	s-1.5-2.4-1.5-4.1c0-1.9,0.7-3.4,2.2-4.6s3.3-1.8,5.6-1.8c2.3,0,4.6,0.4,6.6,1.3l-0.6,1.5c-2.1-0.9-4.1-1.3-5.9-1.3
	s-3.3,0.4-4.4,1.3s-1.6,2-1.6,3.5c0,0.9,0.2,1.7,0.5,2.3c0.3,0.6,0.9,1.1,1.6,1.6c0.8,0.5,2.1,1,3.9,1.7c1.9,0.7,3.4,1.3,4.4,2
	c1,0.6,1.7,1.3,2.1,2.2C119.6,317.8,119.8,318.8,119.8,319.9z"/>
<path fill="#ED2E7A" d="M146.1,313.9c0,4-1,7.1-3,9.4s-4.7,3.5-8.2,3.5s-6.2-1.2-8.2-3.5s-3-5.5-3-9.4c0-4,1-7.1,3-9.4
	s4.7-3.4,8.2-3.4s6.2,1.1,8.2,3.4S146.1,309.9,146.1,313.9z M125.6,313.9c0,3.6,0.8,6.3,2.4,8.3c1.6,2,3.9,2.9,6.9,2.9
	s5.3-1,6.9-2.9c1.6-1.9,2.4-4.7,2.4-8.3c0-3.6-0.8-6.4-2.4-8.3c-1.6-1.9-3.9-2.9-6.9-2.9s-5.3,1-6.9,2.9
	C126.4,307.5,125.6,310.3,125.6,313.9z"/>
<path fill="#ED2E7A" d="M170.8,313.7c0,4.2-1.1,7.4-3.3,9.5s-5.4,3.2-9.7,3.2h-6v-25h6.8c4,0,7,1,9.1,3.1
	C169.7,306.6,170.8,309.7,170.8,313.7z M168.9,313.7c0-3.6-0.9-6.3-2.7-8.1c-1.8-1.8-4.5-2.7-8-2.7h-4.6v21.9h4.1
	C165.1,324.9,168.9,321.1,168.9,313.7z"/>
<path fill="#ED2E7A" d="M182.3,315.1l7.3-13.7h1.9l-8.3,15.3v9.7h-1.8v-9.5l-8.4-15.5h2L182.3,315.1z"/>
<path fill="#ED2E7A" d="M481,530.1H327.5c21.9-1.4,78.3-8.5,78.3-8.5c1.8,0,3.3-1.4,3.4-3.1c1-14.1,5.1-27.6,5.1-49.2
	c0-20.4-4.9-126.3-5.2-130.1c0-0.1,0-0.3,0-0.4c0.2-4.3,3.6-31.9,4.5-57.1c0.6-16.8-2.8-87.7-4.1-95.8c-0.2-1.6-1.6-2.6-3.3-2.6
	c0,0-137.4-2-188.9-2.2l0,0c0-2.7-2.3-5.1-5.1-5.1h-39.6c-2.8,0-5.4,2.5-5.4,5.1v0.1c-67.5,0.4-188.1,2-188.1,2
	c-1.8,0-3.2,1.2-3.3,2.9c-1,14.1-5,74-5,95.5c0,20.4,5,79.7,5.3,83.5c0,0.1,0,0.2,0,0.4c-0.2,4.3-3.6,78.5-4.5,103.7
	c-0.6,16.8,2.8,41.3,4.1,49.4c0.2,1.6,1.7,2.9,3.3,2.9c0,0,56.5,7.1,78.5,8.5H-95v8.8l576,1V530.1z M193.5,187.2
	c0.7-0.7,1.6-1.2,2.6-1.3c0.4,2.1-1.4,4.4-3.5,4.6c-0.3,0-0.4-0.1-0.4-0.4C192.2,189,192.7,188,193.5,187.2z M184.6,194.4
	c0.5-2.1,2.2-3.7,4.3-4c0.7-0.1,1.4,0.1,2.1,0.3c1.3,0.5,2.5,0.5,3.8,0c2.1-0.8,4-0.2,5.4,1.6c-3.2,1.9-2.6,6.3,0.6,7.7
	c-0.8,1.7-1.7,3.4-3.2,4.6c-0.7,0.6-1.6,0.7-2.4,0.3c-1.5-0.7-2.9-0.7-4.4,0c-1.1,0.5-2.1,0.2-3-0.6c-1.5-1.4-2.5-3.2-3-5.2
	C184.3,197.5,184.2,196,184.6,194.4z M-3.5,494.5c-1.1,0-2.1-0.6-2.1-1.7v-279c0-1.1,1-2.2,2.1-2.2h391.6c1.1,0,2,1.1,2,2.2v278.9
	c0,1.1-0.9,1.7-2,1.7L-3.5,494.5L-3.5,494.5z M324.9,530.1h-1.5v-10.4c0-2.2-0.9-4-3.1-4H65.9c-2.2,0-4.1,1.8-4.1,4v10.4H61v-14.2
	c0-2.2,1.9-4,4.1-4h256.3c2.2,0,3.5,1.8,3.5,4L324.9,530.1L324.9,530.1z"/>
<path fill="#ED2E7A" d="M481,541.4L227.1,541v1.3c0,4.2-6.1,7.6-10.2,7.6h-48.3c-4.2,0-9.7-3.4-9.7-7.6v-1.4L-95,540.5v34.4
	c5.8,2.5,11.9,3.9,17.3,3.9h544.2c4.7,0,9.7-1.1,14.5-2.9V541.4z"/>
</svg>
