<?xml version="1.0" encoding="utf-8"?>
<!-- Generator: Adobe Illustrator 18.1.0, SVG Export Plug-In . SVG Version: 6.00 Build 0)  -->
<!DOCTYPE svg PUBLIC "-//W3C//DTD SVG 1.1//EN" "http://www.w3.org/Graphics/SVG/1.1/DTD/svg11.dtd">
<svg version="1.1" id="Warstwa_1" xmlns="http://www.w3.org/2000/svg" xmlns:xlink="http://www.w3.org/1999/xlink" x="0px" y="0px"
	 width="576px" height="576px" viewBox="-95 97 576 576" enable-background="new -95 97 576 576" xml:space="preserve">
<rect x="-95" y="97" fill="#0D2D3A" width="576" height="576"/>
<rect x="-95" y="241" fill="#FFFFFF" width="576" height="143.7"/>
<path fill="#0F7A94" d="M18.4,303.8H17l-5.5-19.3c-0.5-1.6-0.8-2.9-1-3.9c-0.2,1-0.4,2.1-0.8,3.4c-0.3,1.3-2.2,7.9-5.5,19.8H2.7
	l-6.9-25h1.8L2,294.9c0.2,0.6,0.3,1.3,0.5,1.8c0.1,0.6,0.3,1.1,0.4,1.6s0.2,1,0.3,1.4c0.1,0.5,0.2,0.9,0.3,1.4
	c0.3-1.5,0.9-3.9,1.7-7.1l4.3-15.2h1.9l5,17.4c0.6,2,1,3.6,1.2,4.9c0.1-0.8,0.3-1.7,0.6-2.6c0.2-0.9,2-7.5,5.3-19.6h1.8L18.4,303.8z
	"/>
<path fill="#0F7A94" d="M29.8,303.8v-25h1.7v25H29.8z"/>
<path fill="#0F7A94" d="M56.7,303.8h-1.8l-14.8-22.2H40c0.1,2.6,0.2,4.6,0.2,6v16.2h-1.7v-25h1.7L55,300.9h0.1
	c-0.1-2.1-0.2-4-0.2-5.8v-16.3h1.7L56.7,303.8L56.7,303.8z"/>
<path fill="#0F7A94" d="M82.8,291c0,4.2-1.1,7.4-3.3,9.5c-2.2,2.1-5.4,3.2-9.7,3.2h-6v-25h6.8c4,0,7,1,9.1,3.1
	C81.8,284,82.8,287,82.8,291z M80.9,291.1c0-3.6-0.9-6.3-2.7-8.1c-1.8-1.8-4.5-2.7-8-2.7h-4.6v21.9h4.1
	C77.2,302.2,80.9,298.5,80.9,291.1z"/>
<path fill="#0F7A94" d="M109.5,291.2c0,4-1,7.1-3,9.4s-4.7,3.5-8.2,3.5s-6.2-1.2-8.2-3.5s-3-5.5-3-9.4c0-4,1-7.1,3-9.4
	s4.7-3.4,8.2-3.4s6.2,1.1,8.2,3.4C108.6,284.1,109.5,287.2,109.5,291.2z M89.1,291.2c0,3.6,0.8,6.3,2.4,8.3s3.9,2.9,6.9,2.9
	s5.3-1,6.9-2.9s2.4-4.7,2.4-8.3c0-3.6-0.8-6.4-2.4-8.3s-3.9-2.9-6.9-2.9s-5.3,1-6.9,2.9C89.9,284.9,89.1,287.7,89.1,291.2z"/>
<path fill="#0F7A94" d="M135.2,303.8h-1.4l-5.5-19.3c-0.5-1.6-0.8-2.9-1-3.9c-0.2,1-0.4,2.1-0.8,3.4c-0.3,1.3-2.2,7.9-5.5,19.8h-1.5
	l-6.9-25h1.8l4.4,16.1c0.2,0.6,0.3,1.3,0.5,1.8c0.1,0.6,0.3,1.1,0.4,1.6c0.1,0.5,0.2,1,0.3,1.4c0.1,0.5,0.2,0.9,0.3,1.4
	c0.3-1.5,0.9-3.9,1.7-7.1l4.3-15.2h1.9l5,17.4c0.6,2,1,3.6,1.2,4.9c0.1-0.8,0.3-1.7,0.6-2.6c0.2-0.9,2-7.5,5.3-19.6h1.8L135.2,303.8
	z"/>
<path fill="#0F7A94" d="M160.3,297.3c0,2.1-0.8,3.7-2.3,5c-1.5,1.2-3.6,1.8-6.1,1.8c-3.1,0-5.4-0.3-7-1v-1.7
	c1.8,0.8,4.1,1.1,6.9,1.1c2.1,0,3.7-0.5,4.9-1.4s1.8-2.2,1.8-3.7c0-0.9-0.2-1.7-0.6-2.3c-0.4-0.6-1-1.2-1.9-1.7s-2.2-1.1-4-1.7
	c-2.6-0.9-4.3-1.8-5.3-2.8s-1.5-2.4-1.5-4.1c0-1.9,0.7-3.4,2.2-4.6s3.3-1.8,5.6-1.8s4.6,0.4,6.6,1.3l-0.6,1.5
	c-2.1-0.9-4.1-1.3-5.9-1.3c-1.8,0-3.3,0.4-4.4,1.3s-1.6,2-1.6,3.5c0,0.9,0.2,1.7,0.5,2.3c0.3,0.6,0.9,1.1,1.6,1.6
	c0.8,0.5,2.1,1,3.9,1.7c1.9,0.7,3.4,1.3,4.4,2c1,0.6,1.7,1.3,2.1,2.2C160.1,295.2,160.3,296.2,160.3,297.3z"/>
<path fill="#0F7A94" d="M13.6,331c0,2.4-0.8,4.3-2.5,5.6c-1.6,1.3-4,1.9-7,1.9H0.2v10.3h-1.7v-25h6.1
	C10.6,323.8,13.6,326.2,13.6,331z M0.3,336.9h3.4c2.8,0,4.8-0.5,6.1-1.4c1.3-0.9,1.9-2.4,1.9-4.5c0-1.9-0.6-3.4-1.8-4.3
	c-1.2-0.9-3-1.4-5.5-1.4H0.3V336.9z"/>
<path fill="#0F7A94" d="M37.1,348.8h-1.8v-12.3H20.7v12.3H19v-25h1.7v11.1h14.6v-11.1h1.8V348.8z"/>
<path fill="#0F7A94" d="M65.2,336.2c0,4-1,7.1-3,9.4s-4.7,3.5-8.2,3.5s-6.2-1.2-8.2-3.5s-3-5.5-3-9.4c0-4,1-7.1,3-9.4
	s4.7-3.4,8.2-3.4s6.2,1.1,8.2,3.4S65.2,332.3,65.2,336.2z M44.7,336.2c0,3.6,0.8,6.3,2.4,8.3s3.9,2.9,6.9,2.9s5.3-1,6.9-2.9
	s2.4-4.7,2.4-8.3c0-3.6-0.8-6.4-2.4-8.3S57,325,54,325s-5.3,1-6.9,2.9C45.6,329.9,44.7,332.7,44.7,336.2z"/>
<path fill="#0F7A94" d="M89.1,348.8h-1.8l-14.8-22.2h-0.1c0.1,2.6,0.2,4.6,0.2,6v16.2h-1.7v-25h1.7l14.8,22.1h0.1
	c-0.1-2.1-0.2-4-0.2-5.8v-16.3H89L89.1,348.8L89.1,348.8z"/>
<path fill="#0F7A94" d="M109.8,348.8H96.1v-25h13.7v1.6H97.9v9.5h11.2v1.6H97.9v10.7h11.9V348.8z"/>
<path fill="#0F7A94" d="M126.7,348.8l10.3-23.3h-14.1v-1.6h16.2v1.2l-10.3,23.7L126.7,348.8L126.7,348.8z"/>
<path fill="none" stroke="#0F7A94" stroke-width="10" stroke-linecap="round" stroke-linejoin="round" stroke-miterlimit="10" d="
	M-21,121.5c0,0-11,0-11,11v459c0,0,0,11,11,11h217.7c0,0,11,0,11-11v-459c0,0,0-11-11-11H-21z"/>
<path fill="#0F7A94" d="M195.3,517.8h-215V151.2h215L195.3,517.8L195.3,517.8z M206.9,123.9H-31.2v476.2h238.1V123.9z"/>
</svg>
