<?xml version="1.0" encoding="utf-8"?>
<!-- Generator: Adobe Illustrator 18.1.0, SVG Export Plug-In . SVG Version: 6.00 Build 0)  -->
<!DOCTYPE svg PUBLIC "-//W3C//DTD SVG 1.1//EN" "http://www.w3.org/Graphics/SVG/1.1/DTD/svg11.dtd">
<svg version="1.1" id="Warstwa_1" xmlns="http://www.w3.org/2000/svg" xmlns:xlink="http://www.w3.org/1999/xlink" x="0px" y="0px"
	 width="576px" height="576px" viewBox="-95 97 576 576" enable-background="new -95 97 576 576" xml:space="preserve">
<rect x="-95" y="97" fill="#3E1D34" width="576" height="575.8"/>
<rect x="-95" y="240.9" fill="#FFFFFF" width="576" height="144"/>
<path fill="#ED2E7A" d="M78.4,303.9H77l-5.5-19.3c-0.5-1.6-0.8-2.9-1-3.9c-0.2,1-0.4,2.1-0.8,3.4c-0.3,1.3-2.2,7.9-5.5,19.8h-1.5
	l-6.9-25h1.8L62,295c0.2,0.6,0.3,1.3,0.5,1.8c0.1,0.6,0.3,1.1,0.4,1.6s0.2,1,0.3,1.4c0.1,0.5,0.2,0.9,0.3,1.4
	c0.3-1.5,0.9-3.9,1.7-7.1l4.3-15.2h1.9l5,17.4c0.6,2,1,3.6,1.2,4.9c0.1-0.8,0.3-1.7,0.6-2.6c0.2-0.9,2-7.5,5.3-19.6h1.8L78.4,303.9z
	"/>
<path fill="#ED2E7A" d="M89.8,303.9v-25h1.7v25H89.8z"/>
<path fill="#ED2E7A" d="M116.7,303.9h-1.8l-14.8-22.2H100c0.1,2.6,0.2,4.6,0.2,6v16.2h-1.7v-25h1.7L115,301h0.1
	c-0.1-2.1-0.2-4-0.2-5.8v-16.3h1.7L116.7,303.9L116.7,303.9z"/>
<path fill="#ED2E7A" d="M142.8,291.1c0,4.2-1.1,7.4-3.3,9.5s-5.4,3.2-9.7,3.2h-6v-25h6.8c4,0,7,1,9.1,3.1
	C141.8,284.1,142.8,287.1,142.8,291.1z M140.9,291.2c0-3.6-0.9-6.3-2.7-8.1c-1.8-1.8-4.5-2.7-8-2.7h-4.6v21.9h4.1
	C137.2,302.3,140.9,298.6,140.9,291.2z"/>
<path fill="#ED2E7A" d="M169.5,291.3c0,4-1,7.1-3,9.4s-4.7,3.5-8.2,3.5s-6.2-1.2-8.2-3.5s-3-5.5-3-9.4c0-4,1-7.1,3-9.4
	s4.7-3.4,8.2-3.4s6.2,1.1,8.2,3.4C168.6,284.2,169.5,287.4,169.5,291.3z M149.1,291.3c0,3.6,0.8,6.3,2.4,8.3c1.6,2,3.9,2.9,6.9,2.9
	s5.3-1,6.9-2.9c1.6-1.9,2.4-4.7,2.4-8.3c0-3.6-0.8-6.4-2.4-8.3c-1.6-1.9-3.9-2.9-6.9-2.9s-5.3,1-6.9,2.9
	C149.9,285,149.1,287.8,149.1,291.3z"/>
<path fill="#ED2E7A" d="M195.2,303.9h-1.4l-5.5-19.3c-0.5-1.6-0.8-2.9-1-3.9c-0.2,1-0.4,2.1-0.8,3.4c-0.3,1.3-2.2,7.9-5.5,19.8h-1.5
	l-6.9-25h1.8l4.4,16.1c0.2,0.6,0.3,1.3,0.5,1.8c0.1,0.6,0.3,1.1,0.4,1.6c0.1,0.5,0.2,1,0.3,1.4c0.1,0.5,0.2,0.9,0.3,1.4
	c0.3-1.5,0.9-3.9,1.7-7.1l4.3-15.2h1.9l5,17.4c0.6,2,1,3.6,1.2,4.9c0.1-0.8,0.3-1.7,0.6-2.6c0.2-0.9,2-7.5,5.3-19.6h1.8L195.2,303.9
	z"/>
<path fill="#ED2E7A" d="M220.3,297.4c0,2.1-0.8,3.7-2.3,5c-1.5,1.2-3.6,1.8-6.1,1.8c-3.1,0-5.4-0.3-7-1v-1.7
	c1.8,0.8,4.1,1.1,6.9,1.1c2.1,0,3.7-0.5,4.9-1.4s1.8-2.2,1.8-3.7c0-0.9-0.2-1.7-0.6-2.3c-0.4-0.6-1-1.2-1.9-1.7s-2.2-1.1-4-1.7
	c-2.6-0.9-4.3-1.8-5.3-2.8s-1.5-2.4-1.5-4.1c0-1.9,0.7-3.4,2.2-4.6s3.3-1.8,5.6-1.8s4.6,0.4,6.6,1.3l-0.6,1.5
	c-2.1-0.9-4.1-1.3-5.9-1.3c-1.8,0-3.3,0.4-4.4,1.3s-1.6,2-1.6,3.5c0,0.9,0.2,1.7,0.5,2.3c0.3,0.6,0.9,1.1,1.6,1.6s2.1,1,3.9,1.7
	c1.9,0.7,3.4,1.3,4.4,2c1,0.6,1.7,1.3,2.1,2.2C220.1,295.3,220.3,296.3,220.3,297.4z"/>
<path fill="#ED2E7A" d="M247.9,284.8c0,1.5-0.5,2.9-1.5,3.9c-1,1.1-2.3,1.7-3.9,2v0.1c2,0.3,3.5,0.9,4.6,1.9c1.1,1,1.6,2.4,1.6,4.1
	c0,2.3-0.8,4.1-2.4,5.4c-1.6,1.3-3.9,1.9-6.9,1.9c-2.5,0-4.8-0.5-6.6-1.4V301c1,0.5,2,0.9,3.2,1.2c1.2,0.3,2.3,0.4,3.4,0.4
	c2.5,0,4.4-0.5,5.7-1.5c1.3-1,1.9-2.5,1.9-4.3c0-1.7-0.6-2.9-1.9-3.8s-3.2-1.3-5.7-1.3h-2.7v-1.6h2.7c2.1,0,3.7-0.5,4.9-1.5
	c1.2-1,1.8-2.3,1.8-4c0-1.4-0.5-2.5-1.5-3.3s-2.3-1.3-3.9-1.3c-1.2,0-2.4,0.2-3.4,0.5s-2.2,0.9-3.5,1.8l-0.8-1.1
	c1-0.8,2.1-1.4,3.5-1.9s2.8-0.7,4.2-0.7c2.3,0,4.1,0.5,5.3,1.6C247.2,281.3,247.9,282.8,247.9,284.8z"/>
<path fill="#ED2E7A" d="M70.6,340.1H60.4l-3.5,8.8H55l10-25.1h1.1l9.8,25.1h-2L70.6,340.1z M61,338.5h8.9l-3.4-9
	c-0.3-0.7-0.6-1.7-1-2.9c-0.3,1.1-0.6,2.1-1,3L61,338.5z"/>
<path fill="#ED2E7A" d="M97.7,348.9h-1.8l-14.8-22.2H81c0.1,2.6,0.2,4.6,0.2,6v16.2h-1.7v-25h1.7L96,346h0.1c-0.1-2.1-0.2-4-0.2-5.8
	v-16.3h1.7L97.7,348.9L97.7,348.9z"/>
<path fill="#ED2E7A" d="M123.8,336.2c0,4.2-1.1,7.4-3.3,9.5s-5.4,3.2-9.7,3.2h-6v-25h6.8c4,0,7,1,9.1,3.1
	C122.7,329.1,123.8,332.2,123.8,336.2z M121.9,336.2c0-3.6-0.9-6.3-2.7-8.1c-1.8-1.8-4.5-2.7-8-2.7h-4.6v21.9h4.1
	C118.1,347.3,121.9,343.6,121.9,336.2z"/>
<path fill="#ED2E7A" d="M159.6,336.4c0,4-1,7.1-3,9.4s-4.7,3.5-8.2,3.5s-6.2-1.2-8.2-3.5s-3-5.5-3-9.4c0-4,1-7.1,3-9.4
	s4.7-3.4,8.2-3.4s6.2,1.1,8.2,3.4C158.6,329.2,159.6,332.4,159.6,336.4z M139.2,336.4c0,3.6,0.8,6.3,2.4,8.3c1.6,2,3.9,2.9,6.9,2.9
	s5.3-1,6.9-2.9c1.6-1.9,2.4-4.7,2.4-8.3c0-3.6-0.8-6.4-2.4-8.3c-1.6-1.9-3.9-2.9-6.9-2.9s-5.3,1-6.9,2.9S139.2,332.8,139.2,336.4z"
	/>
<path fill="#ED2E7A" d="M179.1,342.4c0,2.1-0.8,3.7-2.3,5c-1.5,1.2-3.6,1.8-6.1,1.8c-3.1,0-5.4-0.3-7-1v-1.7
	c1.8,0.8,4.1,1.1,6.9,1.1c2.1,0,3.7-0.5,4.9-1.4s1.8-2.2,1.8-3.7c0-0.9-0.2-1.7-0.6-2.3c-0.4-0.6-1-1.2-1.9-1.7s-2.2-1.1-4-1.7
	c-2.6-0.9-4.3-1.8-5.3-2.8s-1.5-2.4-1.5-4.1c0-1.9,0.7-3.4,2.2-4.6s3.3-1.8,5.6-1.8s4.6,0.4,6.6,1.3l-0.6,1.5
	c-2.1-0.9-4.1-1.3-5.9-1.3c-1.8,0-3.3,0.4-4.4,1.3s-1.6,2-1.6,3.5c0,0.9,0.2,1.7,0.5,2.3c0.3,0.6,0.9,1.1,1.6,1.6
	c0.8,0.5,2.1,1,3.9,1.7c1.9,0.7,3.4,1.3,4.4,2c1,0.6,1.7,1.3,2.1,2.2C178.9,340.3,179.1,341.3,179.1,342.4z"/>
<path fill="#ED2E7A" d="M192.4,323.9l-9.3,25h-1.8l9.3-25H192.4z"/>
<path fill="#ED2E7A" d="M210.4,348.9h-15.6v-1.5l6.6-6.9c1.9-1.9,3.2-3.4,3.9-4.4s1.3-2,1.7-2.9s0.5-1.9,0.5-2.9
	c0-1.5-0.5-2.7-1.5-3.6s-2.3-1.4-3.8-1.4c-2.1,0-4.1,0.8-6,2.3l-0.9-1.2c2.1-1.8,4.4-2.6,6.9-2.6c2.2,0,3.9,0.6,5.1,1.7
	c1.2,1.2,1.9,2.8,1.9,4.8c0,1.7-0.4,3.3-1.3,4.8c-0.8,1.5-2.4,3.4-4.6,5.7l-6.4,6.6v0.1h13.4v1.4H210.4z"/>
<rect x="309" y="240.9" fill="#480041" width="140" height="144"/>
<path fill="#ED2E7A" d="M268.3,394.6c0,1.9-1.6,3.5-3.5,3.5H47.3c-1.9,0-3.5-1.6-3.5-3.5V224.4c0-1.9,1.6-3.5,3.5-3.5h217.5
	c1.9,0,3.5,1.6,3.5,3.5V394.6L268.3,394.6z M288.7,195.8H25.5c-3,0-5.4,2.4-5.4,5.4v213.7c0,3,2.4,5.4,5.4,5.4h11.8v-0.2
	c0-1.5,1.2-2.7,2.7-2.7h232.7c1.5,0,2.7,1.2,2.7,2.7v0.2h13.3c3,0,5.4-2.4,5.4-5.4V201.2C294.1,198.2,291.7,195.8,288.7,195.8"/>
<rect x="233.9" y="418.8" fill="#ED2E7A" width="19.4" height="10.8"/>
<path fill="#ED2E7A" d="M320.6,211.1c0-1.1,0.9-1.7,2.1-1.7h113.5c1.2,0,2.1,0.6,2.1,1.7v11c0,1.1-0.9,2.4-2.1,2.4H322.7
	c-1.2,0-2.1-1.3-2.1-2.4C320.6,222.1,320.6,211.1,320.6,211.1z M435.4,232.7c0,2.3-1.7,3.9-3.9,3.9h-1.8c-2.3,0-4.3-1.7-4.3-3.9
	v-0.4h10V232.7z M406.7,237.9c-0.6,0-1.1-0.5-1.1-1.1s0.5-1.1,1.1-1.1c0.6,0,1.1,0.5,1.1,1.1S407.3,237.9,406.7,237.9 M312,241.7
	h134.9v-35.9H312V241.7z"/>
<path fill="#ED2E7A" d="M322.7,223.8h113.5c0.9,0,1.4-0.8,1.4-1.6v-10.7c0-0.8-0.5-1.3-1.4-1.3H322.7c-0.9,0-1.4,0.4-1.4,1.3v10.7
	C321.4,222.9,321.9,223.8,322.7,223.8"/>
<rect x="312" y="242.4" fill="#ED2E7A" width="134.8" height="38"/>
<rect x="312" y="129.8" fill="#ED2E7A" width="134.8" height="36.6"/>
<path fill="#ED2E7A" d="M323.8,186.5h112.9c0.9,0,1.6-0.8,1.6-1.6v-10.4c0-0.8-0.7-1.6-1.6-1.6H323.8c-0.9,0-1.7,0.8-1.7,1.6v10.4
	C322.1,185.7,323,186.5,323.8,186.5"/>
<path fill="#ED2E7A" d="M321.4,173.8c0-1.1,0.8-1.7,1.9-1.7h113.4c1.2,0,2.3,0.6,2.3,1.7v11c0,1.1-1.1,2.4-2.3,2.4H323.3
	c-1.2,0-1.9-1.3-1.9-2.4C321.4,184.8,321.4,173.8,321.4,173.8z M431.8,197.2h-10.6c-1.1,0-2-1.1-2-2.2s0.9-2.2,2-2.2h10.6
	c1.1,0,2,1.1,2,2.2C433.8,196.2,432.9,197.2,431.8,197.2 M366.5,196.5h-2.9v-1.4h2.9V196.5z M352.2,197.9h-11.5V195h11.5V197.9z
	 M328.1,198.6c-1.5,0-2.8-1.2-2.8-2.8s1.2-2.8,2.8-2.8s2.8,1.2,2.8,2.8S329.6,198.6,328.1,198.6 M312,205.1h134.9v-38H312V205.1z"/>
<rect x="334.3" y="317.7" fill="#ED2E7A" width="91.8" height="21.5"/>
<path fill="#ED2E7A" d="M339.3,299.8h81.8v2.9h-81.8V299.8z M334.3,317h91.8v-23h-91.8V317z"/>
<path fill="#ED2E7A" d="M380.9,428.2c-1.7,0-5.4-8.5-5.4-20.8s3.7-21.5,5.4-21.5c1.7,0,4.8,9.2,4.8,21.5S382.6,428.2,380.9,428.2
	 M380.7,445.2c-1.3,0-2.3-2.4-2.3-5.4s1-5.4,2.3-5.4c1.3,0,2.3,2.4,2.3,5.4S382,445.2,380.7,445.2 M379.2,366.1
	c0-0.8,0.6-1.4,1.4-1.4c0.8,0,1.4,0.6,1.4,1.4s-0.6,1.4-1.4,1.4C379.9,367.6,379.2,366.9,379.2,366.1 M380.9,376.2
	c0.8,0,1.4,0.6,1.4,1.4s-0.6,1.4-1.4,1.4c-0.8,0-1.4-0.6-1.4-1.4S380.1,376.2,380.9,376.2 M333.6,293.3h93.2v46.6h-93.2V293.3z
	 M311.3,242.4v-0.7v-35.9v-0.7v-38v-0.7v-37.3h136.3v37.3v0.2v0.2v0.4v38v0.7v35.9v0.7v38.7H311.3V242.4z M418.4,465.8l5.5,11.1h25
	c2.5,0,4.4-2,4.4-4.4V127.1c0-2.5-2-4.4-4.4-4.4H310.7c-2.5,0-4.4,2-4.4,4.4v336.2h108C416.1,463.3,417.7,464.3,418.4,465.8"/>
<path fill="#ED2E7A" d="M-70.9,558.5c0,2.3,2,4.5,4.3,5.9h519.7c2.3-1.4,3.8-3.6,3.8-5.9v-2.7H-71v2.7H-70.9z"/>
<path fill="#ED2E7A" d="M236,448.2c0,8.4-35.8,15.2-80,15.2s-80-6.8-80-15.2c0-8.4,35.8-15.2,80-15.2C200.2,433,236,439.8,236,448.2
	"/>
<path fill="#ED2E7A" d="M409.2,535.7l1.3-9.6c0-0.8,0.4-1.5,0.9-1.5c4,0.4,8.3,0.4,12.9,0c0.5,0,0.9,0.8,0.9,1.5l0.9,9.5
	L409.2,535.7L409.2,535.7z M389.5,535.7l1.3-9.6c0-0.8,0.4-1.5,0.9-1.5c4,0.4,8.3,0.4,12.9,0c0.5,0,0.9,0.8,0.9,1.5l0.9,9.5
	L389.5,535.7L389.5,535.7z M388.3,516.8c0-0.6,0.5-1.1,1-1.1h11.8c0.6,0,1,0.5,1,1.1l0.7,5.3h-15.2L388.3,516.8z M353.4,535.7
	l2.6-9.6c0-0.8,0.8-1.5,1.7-1.5c7.9,0.4,16.4,0.4,25.5,0c1,0,1.7,0.8,1.7,1.5l1.7,9.5L353.4,535.7L353.4,535.7z M352,516.8
	c0-0.6,0.5-1.1,1-1.1h11.8c0.6,0,1,0.5,1,1.1l0.7,5.3h-15.3L352,516.8z M348.7,507.5c0-0.6,0.5-1.1,1-1.1h11.8c0.6,0,1,0.5,1,1.1
	l0.7,5.3H348L348.7,507.5z M344.9,498.1c0-0.6,0.5-1.1,1-1.1h11.8c0.6,0,1,0.5,1,1.1l0.7,5.3h-15.3L344.9,498.1z M341.4,488.8
	c0-0.6,0.5-1.1,1-1.1h11.8c0.6,0,1,0.5,1,1.1l0.7,5.3h-15.3L341.4,488.8z M317.4,535.7l1.3-8.6c0-0.7,0.4-1.3,0.9-1.3
	c4,0.4,8.3,0.4,12.9,0c0.5,0,0.9,0.7,0.9,1.4l0.9,8.6h-16.9V535.7z M298.4,535.7l1.3-8.6c0-0.7,0.4-1.3,0.9-1.3
	c4,0.4,8.3,0.4,12.9,0c0.5,0,0.9,0.7,0.9,1.4l0.9,8.6h-16.9V535.7z M279.5,535.7l1.3-8.6c0-0.7,0.4-1.3,0.9-1.3
	c4,0.4,8.3,0.4,12.9,0c0.5,0,0.9,0.7,0.9,1.4l0.9,8.6h-16.9V535.7z M276.6,502.3c0-0.7,0.4-1.2,0.9-1.2c4,0.4,8.3,0.4,12.9,0
	c0.5,0,0.9,0.5,0.9,1.2l0.9,8.4h-16.8L276.6,502.3z M271.5,474.2c0-0.7,0.4-1.2,0.9-1.2c4,0.4,8.3,0.4,12.9,0c0.5,0,0.9,0.5,0.9,1.2
	l0.9,8.5h-16.8L271.5,474.2z M238,535.7l2.1-9.6c0-0.8,0.6-1.5,1.4-1.5c6.3,0.4,13,0.4,20.1,0c0.8,0,1.4,0.8,1.4,1.5l1.4,9.5
	L238,535.7L238,535.7z M185.1,535.7l2.1-9.6c0-0.8,0.6-1.5,1.4-1.5c6.3,0.4,13,0.4,20.1,0c0.8,0,1.4,0.8,1.4,1.5l1.4,9.5
	L185.1,535.7L185.1,535.7z M46.2,535.7l2.7-9.5c0-0.8,0.7-1.6,1.6-1.6c42.5,1,84.9,1,127.4,0c0.9,0,1.6,0.8,1.6,1.6l2.7,9.5H46.2z
	 M46.8,516.8c0-0.6,0.5-1.1,1-1.1h11.8c0.6,0,1,0.5,1,1.1l0.7,5.3H46L46.8,516.8z M17,535.7l2.1-9.6c0-0.8,0.6-1.5,1.4-1.5
	c6.3,0.4,13,0.4,20.1,0c0.8,0,1.4,0.8,1.4,1.5l1.4,9.5L17,535.7L17,535.7z M10.5,516.8c0-0.6,0.5-1.1,1-1.1h11.8c0.6,0,1,0.5,1,1.1
	l0.7,5.3H9.7L10.5,516.8z M-33,522.1l0.7-5.7c0-0.4,0.3-0.7,0.7-0.7h37c0.4,0,0.7,0.3,0.7,0.7l0.7,5.7H-33z M-38.6,535.7l2.1-9.6
	c0-0.8,0.6-1.5,1.4-1.5c6.3,0.4,13,0.4,20.1,0c0.8,0,1.4,0.8,1.4,1.5l1.4,9.5L-38.6,535.7L-38.6,535.7z M-27.9,507
	c0-0.4,0.4-0.9,0.8-0.9c8.7,0.4,17.1,0.4,25.2,0c0.4,0,0.8,0.5,0.8,0.9l0.7,5.8h-28.2L-27.9,507z M-24.4,497.6
	c0-0.4,0.4-0.9,0.8-0.9c8.7,0.4,17.1,0.4,25.2,0c0.4,0,0.8,0.5,0.8,0.9l0.7,5.8h-28.2L-24.4,497.6z M1.9,494.2h-15.3l0.7-5.3
	c0-0.6,0.5-1.1,1-1.1H0.1c0.6,0,1,0.5,1,1.1L1.9,494.2z M-13.2,474.2c0-0.7,0.4-1.2,0.9-1.2c4,0.4,8.3,0.4,12.9,0
	c0.5,0,0.9,0.5,0.9,1.2l0.9,8.5h-16.8L-13.2,474.2z M4.2,506.3H16c0.6,0,1,0.5,1,1.1l0.7,5.3H2.4l0.7-5.3
	C3.2,506.8,3.6,506.3,4.2,506.3 M5.5,488.8c0-0.6,0.5-1.1,1-1.1h11.8c0.6,0,1,0.5,1,1.1l0.7,5.3H4.7L5.5,488.8z M20.6,498.1l0.7,5.3
	H6l0.7-5.3c0-0.6,0.5-1.1,1-1.1h11.8C20.1,497,20.6,497.5,20.6,498.1 M22.3,506.3h11.8c0.6,0,1,0.5,1,1.1l0.7,5.3H20.5l0.7-5.3
	C21.3,506.8,21.8,506.3,22.3,506.3 M23,474.2c0-0.7,0.4-1.2,0.9-1.2c4,0.4,8.3,0.4,12.9,0c0.5,0,0.9,0.5,0.9,1.2l0.9,8.5H21.8
	L23,474.2z M23,494.2l0.7-5.3c0-0.6,0.5-1.1,1-1.1h11.8c0.6,0,1,0.5,1,1.1l0.7,5.3H23z M39.5,503.5H24.2l0.7-5.3
	c0-0.6,0.5-1.1,1-1.1h11.8c0.6,0,1,0.5,1,1.1L39.5,503.5z M43.2,522.1H27.9l0.7-5.3c0-0.6,0.5-1.1,1-1.1h11.8c0.6,0,1,0.5,1,1.1
	L43.2,522.1z M40.5,506.3h11.8c0.6,0,1,0.5,1,1.1l0.7,5.3H38.7l0.7-5.3C39.5,506.8,40,506.3,40.5,506.3 M42,474.2
	c0-0.7,0.4-1.2,0.9-1.2c4,0.4,8.3,0.4,12.9,0c0.5,0,0.9,0.5,0.9,1.2l0.9,8.5H40.8L42,474.2z M41.1,494.2l0.7-5.3
	c0-0.6,0.5-1.1,1-1.1h11.8c0.6,0,1,0.5,1,1.1l0.7,5.3H41.1z M42.3,503.5l0.7-5.3c0-0.6,0.5-1.1,1-1.1h11.8c0.6,0,1,0.5,1,1.1
	l0.7,5.3H42.3z M58.7,506.3h11.8c0.6,0,1,0.5,1,1.1l0.7,5.3H56.9l0.7-5.3C57.7,506.8,58.1,506.3,58.7,506.3 M60,488.8
	c0-0.6,0.5-1.1,1-1.1h11.8c0.6,0,1,0.5,1,1.1l0.7,5.3H59.2L60,488.8z M61,474.2c0-0.7,0.4-1.2,0.9-1.2c4,0.4,8.3,0.4,12.9,0
	c0.5,0,0.9,0.5,0.9,1.2l0.9,8.5H59.8L61,474.2z M60.5,503.5l0.7-5.3c0-0.6,0.5-1.1,1-1.1H74c0.6,0,1,0.5,1,1.1l0.7,5.3H60.5z
	 M79.5,522.1H64.2l0.7-5.3c0-0.6,0.5-1.1,1-1.1h11.8c0.6,0,1,0.5,1,1.1L79.5,522.1z M88.7,506.3c0.6,0,1,0.5,1,1.1l0.7,5.3H75.1
	l0.7-5.3c0-0.6,0.5-1.1,1-1.1H88.7z M78.2,488.8c0-0.6,0.5-1.1,1-1.1H91c0.6,0,1,0.5,1,1.1l0.7,5.3H77.4L78.2,488.8z M80,474.2
	c0-0.7,0.4-1.2,0.9-1.2c4,0.4,8.3,0.4,12.9,0c0.5,0,0.9,0.5,0.9,1.2l0.9,8.5H78.8L80,474.2z M96.4,488.8c0-0.6,0.5-1.1,1-1.1h11.8
	c0.6,0,1,0.5,1,1.1l0.7,5.3H95.6L96.4,488.8z M106.7,474.2c0-0.7,0.4-1.2,0.9-1.2c4,0.4,8.3,0.4,12.9,0c0.5,0,0.9,0.5,0.9,1.2
	l0.9,8.5h-16.8L106.7,474.2z M125.7,474.2c0-0.7,0.4-1.2,0.9-1.2c4,0.4,8.3,0.4,12.9,0c0.5,0,0.9,0.5,0.9,1.2l0.9,8.5h-16.8
	L125.7,474.2z M144.7,474.2c0-0.7,0.4-1.2,0.9-1.2c4,0.4,8.3,0.4,12.9,0c0.5,0,0.9,0.5,0.9,1.2l0.9,8.5h-16.8L144.7,474.2z
	 M163.7,474.2c0-0.7,0.4-1.2,0.9-1.2c4,0.4,8.3,0.4,12.9,0c0.5,0,0.9,0.5,0.9,1.2l0.9,8.5h-16.8L163.7,474.2z M182.9,488.8l0.7,5.3
	h-15.3l0.7-5.3c0-0.6,0.5-1.1,1-1.1h11.8C182.4,487.7,182.9,488.2,182.9,488.8 M184.1,498.1l0.7,5.3h-15.3l0.7-5.3
	c0-0.6,0.5-1.1,1-1.1H183C183.6,497,184.1,497.5,184.1,498.1 M174,516.8c0-0.6,0.5-1.1,1-1.1h11.8c0.6,0,1,0.5,1,1.1l0.7,5.3h-15.3
	L174,516.8z M166,512.8l0.7-5.3c0-0.6,0.5-1.1,1-1.1h11.8c0.6,0,1,0.5,1,1.1l0.7,5.3H166z M155.8,516.8c0-0.6,0.5-1.1,1-1.1h11.8
	c0.6,0,1,0.5,1,1.1l0.7,5.3H155L155.8,516.8z M165.9,498.1l0.7,5.3h-15.3l0.7-5.3c0-0.6,0.5-1.1,1-1.1h11.8
	C165.5,497,165.9,497.5,165.9,498.1 M150.1,494.2l0.7-5.3c0-0.6,0.5-1.1,1-1.1h11.8c0.6,0,1,0.5,1,1.1l0.7,5.3H150.1z M147.8,512.8
	l0.7-5.3c0-0.6,0.5-1.1,1-1.1h11.8c0.6,0,1,0.5,1,1.1l0.7,5.3H147.8z M137.6,516.8c0-0.6,0.5-1.1,1-1.1h11.8c0.6,0,1,0.5,1,1.1
	l0.7,5.3h-15.3L137.6,516.8z M147.8,498.1l0.7,5.3h-15.3l0.7-5.3c0-0.6,0.5-1.1,1-1.1h11.8C147.3,497,147.8,497.5,147.8,498.1
	 M132,494.2l0.7-5.3c0-0.6,0.5-1.1,1-1.1h11.8c0.6,0,1,0.5,1,1.1l0.7,5.3H132z M129.6,512.8l0.7-5.3c0-0.6,0.5-1.1,1-1.1h11.8
	c0.6,0,1,0.5,1,1.1l0.7,5.3H129.6z M119.5,516.8c0-0.6,0.5-1.1,1-1.1h11.8c0.6,0,1,0.5,1,1.1l0.7,5.3h-15.3L119.5,516.8z
	 M129.6,498.1l0.7,5.3H115l0.7-5.3c0-0.6,0.5-1.1,1-1.1h11.8C129.1,497,129.6,497.5,129.6,498.1 M113.8,494.2l0.7-5.3
	c0-0.6,0.5-1.1,1-1.1h11.8c0.6,0,1,0.5,1,1.1l0.7,5.3H113.8z M111.5,512.8l0.7-5.3c0-0.6,0.5-1.1,1-1.1H125c0.6,0,1,0.5,1,1.1
	l0.7,5.3H111.5z M101.3,516.8c0-0.6,0.5-1.1,1-1.1h11.8c0.6,0,1,0.5,1,1.1l0.7,5.3h-15.3L101.3,516.8z M96.8,503.5l0.7-5.3
	c0-0.6,0.5-1.1,1-1.1h11.8c0.6,0,1,0.5,1,1.1l0.7,5.3H96.8z M78.7,503.5l0.7-5.3c0-0.6,0.5-1.1,1-1.1h11.8c0.6,0,1,0.5,1,1.1
	l0.7,5.3H78.7z M97.7,522.1H82.4l0.7-5.3c0-0.6,0.5-1.1,1-1.1h11.8c0.6,0,1,0.5,1,1.1L97.7,522.1z M93.3,512.8l0.7-5.3
	c0-0.6,0.5-1.1,1-1.1h11.8c0.6,0,1,0.5,1,1.1l0.7,5.3H93.3z M185.9,506.3h11.8c0.6,0,1,0.5,1,1.1l0.7,5.3h-15.3l0.7-5.3
	C184.8,506.8,185.3,506.3,185.9,506.3 M187.2,488.8c0-0.6,0.5-1.1,1-1.1H200c0.6,0,1,0.5,1,1.1l0.7,5.3h-15.3L187.2,488.8z
	 M189.4,474.2c0-0.7,0.4-1.2,0.9-1.2c4,0.4,8.3,0.4,12.9,0c0.5,0,0.9,0.5,0.9,1.2l0.9,8.5h-16.8L189.4,474.2z M206.4,487.7h11.8
	c0.6,0,1,0.5,1,1.1l0.7,5.3h-15.3l0.7-5.3C205.4,488.2,205.8,487.7,206.4,487.7 M208.4,474.2c0-0.7,0.4-1.2,0.9-1.2
	c4,0.4,8.3,0.4,12.9,0c0.5,0,0.9,0.5,0.9,1.2l0.9,8.5h-16.8L208.4,474.2z M257.1,487.7c0.4,0,0.7,0.3,0.7,0.7l0.7,5.7h-35.7l0.7-5.7
	c0-0.4,0.3-0.7,0.7-0.7H257.1z M227.4,474.2c0-0.7,0.4-1.2,0.9-1.2c4,0.4,8.3,0.4,12.9,0c0.5,0,0.9,0.5,0.9,1.2l0.9,8.5h-16.8
	L227.4,474.2z M246.4,474.2c0-0.7,0.4-1.2,0.9-1.2c4,0.4,8.3,0.4,12.9,0c0.5,0,0.9,0.5,0.9,1.2l0.9,8.5h-16.8L246.4,474.2z
	 M205.8,503.5l0.7-5.3c0-0.6,0.5-1.1,1-1.1h11.8c0.6,0,1,0.5,1,1.1l0.7,5.3H205.8z M224,503.5l0.7-5.7c0-0.4,0.3-0.7,0.7-0.7h32.9
	c0.4,0,0.7,0.3,0.7,0.7l0.7,5.7H224z M259.1,506.3c0.4,0,1.4,0.3,1.4,0.7l0.7,5.7h-40.7l0.7-5.7c0-0.4,0.3-0.7,0.7-0.7L259.1,506.3
	L259.1,506.3z M187.7,503.5l0.7-5.3c0-0.6,0.5-1.1,1-1.1h11.8c0.6,0,1,0.5,1,1.1l0.7,5.3H187.7z M206.7,522.1h-15.3l0.7-5.3
	c0-0.6,0.5-1.1,1-1.1h11.8c0.6,0,1,0.5,1,1.1L206.7,522.1z M202.3,512.8l0.7-5.3c0-0.6,0.5-1.1,1-1.1h11.8c0.6,0,1,0.5,1,1.1
	l0.7,5.3H202.3z M262.8,522.1h-53.3l0.7-5.5c0-0.6,0.5-1.2,1.1-1.2c16.3,0.6,33.5,0.5,49.5,0c0.6,0,1.1,0.7,1.1,1.3L262.8,522.1z
	 M290.5,474.2c0-0.7,0.4-1.2,0.9-1.2c4,0.4,8.3,0.4,12.9,0c0.5,0,0.9,0.5,0.9,1.2l0.9,8.5h-16.8L290.5,474.2z M311.1,510.6h-16.8
	l1.3-8.4c0-0.7,0.4-1.2,0.9-1.2c4,0.4,8.3,0.4,12.9,0c0.5,0,0.9,0.5,0.9,1.2L311.1,510.6z M309.4,474.2c0-0.7,0.4-1.2,0.9-1.2
	c4,0.4,8.3,0.4,12.9,0c0.5,0,0.9,0.5,0.9,1.2l0.9,8.5h-16.8L309.4,474.2z M329.2,502.3l0.9,8.4h-16.8l1.3-8.4c0-0.7,0.4-1.2,0.9-1.2
	c4,0.4,8.3,0.4,12.9,0C328.9,501.1,329.2,501.6,329.2,502.3 M359.6,488.8c0-0.6,0.5-1.1,1-1.1h11.9c0.6,0,1,0.5,1,1.1l0.7,5.3h-15.3
	L359.6,488.8z M377,498.1l0.7,5.3h-15.3l0.7-5.3c0-0.6,0.5-1.1,1-1.1h11.8C376.5,497,377,497.5,377,498.1 M377.8,488.8
	c0-0.6,0.5-1.1,1-1.1h11.8c0.6,0,1,0.5,1,1.1l0.7,5.3h-15.2L377.8,488.8z M395.1,498.1l0.7,5.3h-15.2l0.7-5.3c0-0.6,0.5-1.1,1-1.1
	h11.8C394.7,497,395.1,497.5,395.1,498.1 M366.2,512.8l0.7-5.3c0-0.6,0.5-1.1,1-1.1h11.8c0.6,0,1,0.5,1,1.1l0.7,5.3H366.2z
	 M370.1,516.8c0-0.6,0.5-1.1,1-1.1H383c0.6,0,1,0.5,1,1.1l0.7,5.3h-15.3L370.1,516.8z M398.9,507.5l0.7,5.3h-15.3l0.7-5.3
	c0-0.6,0.5-1.1,1-1.1h11.8C398.4,506.3,398.9,506.8,398.9,507.5 M404.2,503.2c0-0.8,0.4-1.5,0.9-1.5c4,0.4,8.3,0.4,12.9,0
	c0.5,0,0.9,0.8,0.9,1.5l0.9,9.5h-16.9L404.2,503.2z M260.6,423.3c0.8,0,1.4,0.6,1.4,1.4s-0.6,1.4-1.4,1.4c-0.8,0-1.4-0.6-1.4-1.4
	C259.1,424,259.8,423.3,260.6,423.3 M456.8,548.7L456.8,548.7l0.1-0.1c-0.1-0.2-0.2-0.5-0.3-0.7l-34.2-69.5l-5.4-11.1
	c-0.8-1.5-2.3-2.5-4.1-2.5h-108H26.4c0.8-1.4,1.2-3.1,0.9-4.9c-1.1-5.9-9.1-8.5-18.5-11.6C1,445.7-9.8,442.1-8.8,438
	c0-0.1,0.5-1.6,7.6-2.7c5.9-0.9,14.6-1.1,24.7-1.4c4.5-0.1,9.4-0.3,14.6-0.5v3c0,4.2,3.4,7.6,7.6,7.6h221.5c4.2,0,7.6-3.4,7.6-7.6
	v-15.3v-0.2c0-1.5-1.2-2.7-2.7-2.7H254v12.2h-20.8v-12.2H41c-1.6,0-2.9,1.3-2.9,2.9v5.1c-5.3,0.2-10.3,0.4-14.8,0.5
	c-23.8,0.7-37,1.1-39,9.6c-0.8,3.4-0.3,8.4,7.1,12.7c4.2,2.5,9.8,4.3,15.2,6.1c4.8,1.6,12.7,4.2,13.6,6c0,0.1-0.8,1.9-1.8,3.7h-43.1
	c-1.7,0-3.3,1-4,2.5l-41.8,81.4l0,0c-0.2,0-0.5,0.8-0.5,1.4v5.1h527.9v-5.1C456.9,549.5,457,548.7,456.8,548.7"/>
</svg>
