<?xml version="1.0" encoding="utf-8"?>
<!-- Generator: Adobe Illustrator 18.1.0, SVG Export Plug-In . SVG Version: 6.00 Build 0)  -->
<!DOCTYPE svg PUBLIC "-//W3C//DTD SVG 1.1//EN" "http://www.w3.org/Graphics/SVG/1.1/DTD/svg11.dtd">
<svg version="1.1" id="Warstwa_1" xmlns="http://www.w3.org/2000/svg" xmlns:xlink="http://www.w3.org/1999/xlink" x="0px" y="0px"
	 width="576px" height="576px" viewBox="-95 97 576 576" enable-background="new -95 97 576 576" xml:space="preserve">
<rect x="-95" y="97.1" fill="#113036" width="576" height="575.8"/>
<rect x="-94.9" y="240.9" fill="#FFFFFF" width="575.9" height="144"/>
<path fill="#19837E" d="M73.5,326.3h-1.4L66.6,307c-0.5-1.6-0.8-2.9-1-3.9c-0.2,1-0.4,2.1-0.8,3.4c-0.3,1.3-2.2,7.9-5.5,19.8h-1.5
	l-6.9-25h1.8l4.4,16.1c0.2,0.6,0.3,1.3,0.5,1.8c0.1,0.6,0.3,1.1,0.4,1.6c0.1,0.5,0.2,1,0.3,1.4c0.1,0.5,0.2,0.9,0.3,1.4
	c0.3-1.5,0.9-3.9,1.7-7.1l4.3-15.2h1.9l5,17.4c0.6,2,1,3.6,1.2,4.9c0.1-0.8,0.3-1.7,0.6-2.6c0.2-0.9,2-7.5,5.3-19.6h1.8L73.5,326.3z
	"/>
<path fill="#19837E" d="M84.1,326.3v-25h1.7v25H84.1z"/>
<path fill="#19837E" d="M110.5,326.3h-1.8l-14.8-22.2h-0.1c0.1,2.6,0.2,4.6,0.2,6v16.2h-1.7v-25H94l14.8,22.1h0.1
	c-0.1-2.1-0.2-4-0.2-5.8v-16.3h1.7v25H110.5z"/>
<path fill="#19837E" d="M135.8,313.6c0,4.2-1.1,7.4-3.3,9.5s-5.4,3.2-9.7,3.2h-6v-25h6.8c4,0,7,1,9.1,3.1
	C134.8,306.5,135.8,309.6,135.8,313.6z M133.9,313.6c0-3.6-0.9-6.3-2.7-8.1s-4.5-2.7-8-2.7h-4.6v21.9h4.1
	C130.2,324.8,133.9,321.1,133.9,313.6z"/>
<path fill="#19837E" d="M161.9,313.8c0,4-1,7.1-3,9.4s-4.7,3.5-8.2,3.5s-6.2-1.2-8.2-3.5c-2-2.3-3-5.5-3-9.4c0-4,1-7.1,3-9.4
	c2-2.3,4.7-3.4,8.2-3.4s6.2,1.1,8.2,3.4S161.9,309.8,161.9,313.8z M141.4,313.8c0,3.6,0.8,6.3,2.4,8.3c1.6,2,3.9,2.9,6.9,2.9
	s5.3-1,6.9-2.9c1.6-1.9,2.4-4.7,2.4-8.3c0-3.6-0.8-6.4-2.4-8.3c-1.6-1.9-3.9-2.9-6.9-2.9s-5.3,1-6.9,2.9
	C142.2,307.5,141.4,310.2,141.4,313.8z"/>
<path fill="#19837E" d="M186.8,326.3h-1.4l-5.5-19.3c-0.5-1.6-0.8-2.9-1-3.9c-0.2,1-0.4,2.1-0.8,3.4c-0.3,1.3-2.2,7.9-5.5,19.8h-1.5
	l-6.9-25h1.8l4.4,16.1c0.2,0.6,0.3,1.3,0.5,1.8c0.1,0.6,0.3,1.1,0.4,1.6s0.2,1,0.3,1.4c0.1,0.5,0.2,0.9,0.3,1.4
	c0.3-1.5,0.9-3.9,1.7-7.1l4.3-15.2h1.9l5,17.4c0.6,2,1,3.6,1.2,4.9c0.1-0.8,0.3-1.7,0.6-2.6c0.2-0.9,2-7.5,5.3-19.6h1.8L186.8,326.3
	z"/>
<path fill="#19837E" d="M211.2,319.9c0,2.1-0.8,3.7-2.3,5c-1.5,1.2-3.6,1.8-6.1,1.8c-3.1,0-5.4-0.3-7-1V324c1.8,0.8,4.1,1.1,6.9,1.1
	c2.1,0,3.7-0.5,4.9-1.4c1.2-0.9,1.8-2.2,1.8-3.7c0-0.9-0.2-1.7-0.6-2.3s-1-1.2-1.9-1.7s-2.2-1.1-4-1.7c-2.6-0.9-4.3-1.8-5.3-2.8
	s-1.5-2.4-1.5-4.1c0-1.9,0.7-3.4,2.2-4.6c1.5-1.2,3.3-1.8,5.6-1.8c2.3,0,4.6,0.4,6.6,1.3l-0.6,1.5c-2.1-0.9-4.1-1.3-5.9-1.3
	s-3.3,0.4-4.4,1.3c-1.1,0.9-1.6,2-1.6,3.5c0,0.9,0.2,1.7,0.5,2.3s0.9,1.1,1.7,1.6c0.8,0.5,2.1,1,3.9,1.7c1.9,0.7,3.4,1.3,4.4,2
	c1,0.6,1.7,1.3,2.1,2.2C211,317.8,211.2,318.7,211.2,319.9z"/>
<path fill="#19837E" d="M232.4,326.3h-1.7v-18.2c0-1.7,0.1-3.4,0.2-5.1c-0.2,0.2-0.3,0.3-0.5,0.5s-1.9,1.5-5.3,4.2l-1-1.2l6.8-5.1
	h1.5V326.3z"/>
<path fill="#19837E" d="M242.8,325c0-1.1,0.5-1.7,1.4-1.7s1.4,0.6,1.4,1.7c0,1.1-0.5,1.7-1.4,1.7C243.3,326.6,242.8,326.1,242.8,325
	z"/>
<path fill="#19837E" d="M265.7,313.7c0,4.4-0.7,7.6-2,9.7s-3.4,3.2-6.1,3.2c-2.6,0-4.6-1.1-5.9-3.3c-1.4-2.2-2-5.4-2-9.6
	c0-4.4,0.7-7.6,2-9.7c1.3-2.1,3.3-3.1,6-3.1c2.6,0,4.6,1.1,6,3.3C265,306.4,265.7,309.5,265.7,313.7z M251.5,313.7
	c0,3.9,0.5,6.7,1.5,8.6c1,1.9,2.6,2.8,4.6,2.8c2.2,0,3.7-1,4.7-2.9s1.5-4.7,1.5-8.5c0-3.7-0.5-6.5-1.5-8.4s-2.6-2.9-4.7-2.9
	c-2.2,0-3.7,1-4.7,2.9S251.5,310.1,251.5,313.7z"/>
<rect x="19.1" y="233.1" fill="#213D4E" width="18" height="158"/>
<rect x="285.1" y="234.7" fill="#00303F" width="52" height="153.6"/>
<path fill="#1D716F" d="M314.8,337.1c-3.7,0-6.7-3-6.7-6.7c0-3.7,3-6.7,6.7-6.7s6.7,3,6.7,6.7C321.5,334.1,318.5,337.1,314.8,337.1
	 M314.8,362.7c-3.7,0-6.7-3-6.7-6.7s3-6.7,6.7-6.7s6.7,3,6.7,6.7S318.5,362.7,314.8,362.7 M314.3,388.3c-3.7,0-6.7-3-6.7-6.7
	s3-6.7,6.7-6.7s6.7,3,6.7,6.7S318,388.3,314.3,388.3 M317.7,311.9c0,1.1-0.9,2-2,2s-2-0.9-2-2s0.9-2,2-2S317.7,310.8,317.7,311.9
	 M302.8,234.7h18.9v22.9h-18.9V234.7z M294,411.2V219.9h0.7v191.3H294z M279.9,393.5c0,2.2-2.3,4-4.6,4c-76.5,4.8-153.2,4.8-229.7,0
	c-2.2,0-4.1-1.8-4.1-4v-160c0-2.2,1.7-4,3.9-4c77.7-3,154.7-3,230.1,0c2.2,0,4.5,1.8,4.5,4v160H279.9z M318.3,217.5
	c-47.6-1.5-94.9-2.2-140.7-2.2s-91.3,0.8-135.4,2.2c-5.6,0-10.1,4.5-10.1,10.1c-2.4,62.8-2.4,122.2,0,175.8
	c0,5.6,4.5,10.4,10.1,10.4h276.2c5.6,0,10.1-4.8,10.1-10.4c3.6-48.2,3.6-105.7,0-175.7C328.4,222.2,323.9,217.5,318.3,217.5"/>
<path fill="#1D716F" d="M329.8,403.5c0,6.3-5.1,11.7-11.4,11.7H42.2c-6.3,0-11.5-5.4-11.5-11.7c-2.4-53.7-2.4-112.9,0-175.7
	c0-6.3,5.1-11.5,11.4-11.5c44.1-1.5,89.7-2.3,135.5-2.3s93.1,0.7,140.7,2.2c6.3,0,11.4,5.3,11.4,11.6
	C333.4,297.8,333.4,355.4,329.8,403.5 M350.2,194.6c0-3-2.4-5.4-5.4-5.4c-110.8-4.2-220.5-4.2-329.1,0c-3,0-5.4,2.4-5.4,5.4
	c-3.5,85.7-3.7,165.8,0,239.3c0,3,2.4,5.4,5.4,5.4c110,4.1,219.7,4.3,329.1,0c3,0,5.4-2.4,5.4-5.4
	C355,355.1,354.9,275.3,350.2,194.6"/>
<path fill="#1D716F" d="M317.1,238.2v0.1c-0.4,1.3-0.7,2.6-1,3.9c0,0.1-0.1,0.2-0.2,0.2c-0.2,0-0.4,0-0.6,0c-0.1,0-0.1,0-0.2-0.1
	c-0.3-1.2-0.6-2.3-0.9-3.5c0-0.2-0.1-0.4-0.1-0.5l0,0v0.1c0,1,0,2,0,3c0,0.1,0,0.2,0.2,0.2s0.2,0,0.2,0.2s0,0.4,0,0.6h-0.1
	c-0.4,0-0.9,0-1.3,0c-0.1,0-0.1,0-0.1-0.1c0-0.2,0-0.4,0-0.6c0-0.1,0-0.1,0.1-0.1c0.3,0,0.3,0,0.3-0.3c0-1.1,0-2.3,0-3.4l0,0
	c0-0.2,0-0.3-0.2-0.2c-0.1,0-0.1,0-0.1-0.1c0-0.2,0-0.4,0-0.6c0-0.1,0-0.1,0.1-0.1c0.7,0,1.3,0,2,0c0.1,0,0.1,0.1,0.1,0.2
	c0.2,0.9,0.5,1.9,0.7,2.8c0,0.1,0,0.1,0.1,0.2l0,0V240c0.3-0.9,0.5-1.9,0.7-2.8c0-0.1,0.1-0.1,0.2-0.1c0.6,0,1.3,0,1.9,0
	c0.1,0,0.2,0,0.2,0.2s0,0.4,0,0.6c0,0.1,0,0.1-0.1,0.1h-0.1l-0.1,0.1v0.1c0,1.2,0,2.4,0,3.6c0,0.2,0,0.2,0.2,0.2
	c0.1,0,0.2,0,0.2,0.2s0,0.4,0,0.6c0,0.1,0,0.1-0.1,0.1c-0.6,0-1.3,0-1.9,0c-0.1,0-0.1,0-0.1-0.1c0-0.2,0-0.4,0-0.6
	c0-0.1,0-0.1,0.1-0.1c0.3,0,0.3,0,0.3-0.3c0-0.9,0-1.9,0-2.8L317.1,238.2L317.1,238.2"/>
<path fill="#1D716F" d="M309.9,238.3c0,0.2,0,0.4,0,0.6l0,0c0,0,0,0.1,0.1,0.1c0.3,0.1,0.6-0.1,0.7-0.4c0-0.2,0-0.3,0-0.5
	c0-0.4-0.2-0.6-0.6-0.6c-0.1,0-0.2,0-0.2,0.1C309.9,237.9,309.9,238.1,309.9,238.3 M309.9,240.7c0,0.2,0,0.3,0,0.5
	c0,0.4,0,0.3,0.3,0.3s0.5-0.1,0.5-0.4c0-0.2,0-0.4,0-0.6c0-0.5-0.2-0.7-0.7-0.7c-0.1,0-0.1,0-0.1,0.1
	C309.9,240.2,309.9,240.4,309.9,240.7 M311.2,239.4c0,0,0.1,0,0.1,0.1c0.5,0.2,0.7,0.5,0.8,1c0,0.3,0,0.7-0.1,1
	c-0.1,0.5-0.4,0.7-0.9,0.8c-0.1,0-0.3,0-0.4,0c-0.8,0-1.6,0-2.5,0c-0.1,0-0.2,0-0.2-0.2s0-0.4,0-0.6c0-0.1,0-0.2,0.1-0.1
	c0.2,0,0.2,0,0.2-0.2v-3.5c0-0.2,0-0.2-0.2-0.2c-0.1,0-0.2,0-0.2-0.2s0-0.4,0-0.6c0-0.1,0-0.1,0.1-0.1c0.8,0,1.6,0,2.5,0
	c0.2,0,0.3,0,0.5,0.1c0.4,0.1,0.7,0.4,0.8,0.9c0,0.3,0.1,0.6,0,0.9C311.8,238.9,311.5,239.2,311.2,239.4
	C311.4,239.3,311.3,239.4,311.2,239.4C311.3,239.4,311.3,239.4,311.2,239.4"/>
<path fill="#1D716F" d="M306.3,242.4c-0.3,0-0.6,0-1,0c-0.1,0-0.1,0-0.1-0.1c0-0.2,0-0.4,0-0.6c0-0.1,0-0.1,0.1-0.1
	c0.2,0,0.2,0,0.2-0.2c0-1.2,0-2.3,0-3.5c0-0.2,0-0.2-0.2-0.2c-0.1,0-0.2,0-0.2-0.2s0-0.4,0-0.6c0-0.1,0-0.1,0.1-0.1
	c0.6,0,1.3,0,1.9,0c0.1,0,0.1,0,0.1,0.1c0,0.2,0,0.4,0,0.6c0,0.1,0,0.1-0.1,0.1c-0.3,0-0.3,0-0.3,0.3c0,1.2,0,2.3,0,3.5
	c0,0.2,0,0.2,0.2,0.2s0.2,0,0.2,0.2s0,0.4,0,0.6c0,0.1,0,0.1-0.1,0.1C306.9,242.4,306.6,242.4,306.3,242.4"/>
<rect x="303.4" y="253.9" fill="#1D716F" width="5.4" height="2.7"/>
<rect x="309.2" y="253.9" fill="#1D716F" width="5.4" height="2.7"/>
<rect x="315" y="253.9" fill="#1D716F" width="5.4" height="2.7"/>
<path fill="#1D716F" d="M-12.1,471.4c-0.2,0-0.3,0-0.3-0.2v-3.6l0.1-0.1c0,0,0.1-0.1,0.2-0.1c0,0,0.1,0,0.2,0s0.2,0,0.1-0.1
	c0-0.2,0-0.4,0-0.6c0-0.1,0-0.2-0.2-0.2c-0.6,0-1.3,0-1.9,0c-0.1,0-0.2,0-0.2,0.1c-0.2,0.9-0.5,1.9-0.7,2.8v0.1l0,0
	c0-0.1,0-0.1-0.1-0.2c-0.2-0.9-0.5-1.9-0.7-2.8c0-0.1,0-0.2-0.1-0.2c-0.7,0-1.3,0-2,0c-0.1,0-0.1,0-0.1,0.1c0,0.2,0,0.4,0,0.6
	c0,0.1-0.1,0.1,0,0.1c0.2,0,0.1,0,0.1,0.2l0,0v3.4c0,0.3,0.1,0.3-0.2,0.3c-0.1,0-0.1,0-0.1,0.1c0,0.2,0,0.4,0,0.6
	c0,0.1,0,0.1,0.1,0.1c0.4,0,0.9,0,1.3,0h0.1v-0.7c0-0.3,0-0.2-0.2-0.2c-0.1,0-0.2,0-0.2-0.2c0-1,0-2.2,0-3.2v-0.3l0,0
	c0,0,0.1,0.6,0.1,0.8c0.3,1.2,0.6,2.4,0.9,3.6c0,0.1,0.1,0.2,0.2,0.2c0.2,0,0.4,0,0.6,0c0.1,0,0.2,0,0.2-0.1
	c0.3-1.3,0.7-2.6,1.1-3.9c0,0-0.1-0.1,0-0.1l0,0v0.1v2.8c0,0.3,0.1,0.3-0.2,0.3c-0.1,0-0.1,0-0.1,0.1c0,0.2,0,0.4,0,0.6
	c0,0.1,0,0.1,0.1,0.1c0.6,0,1.3,0,1.9,0c0.1,0,0.1,0,0.1-0.1c0-0.2-0.1-0.4-0.1-0.6C-11.8,471.5-12,471.4-12.1,471.4"/>
<path fill="#1D716F" d="M-20,471.1c-0.1,0.3-0.2,0.4-0.5,0.4s-0.3,0-0.3-0.3c0-0.2,0-0.3,0-0.5s0-0.4,0-0.7c0-0.1,0-0.1,0.1-0.1
	c0.5,0,0.7,0.1,0.7,0.6C-20,470.7-20,470.9-20,471.1 M-20.7,467.5c0.4,0,0.6,0.2,0.6,0.6c0,0.2,0,0.4,0,0.5
	c-0.1,0.3-0.4,0.5-0.7,0.4l-0.1-0.1l0,0v-0.6c0-0.2,0-0.4,0-0.6C-20.9,467.5-20.8,467.5-20.7,467.5 M-19.4,469.5c0,0-0.1,0-0.1-0.1
	l0,0c0,0,0.1,0,0.1-0.1c0.4-0.2,0.6-0.5,0.6-0.9c0-0.3,0-0.6,0-0.9c-0.1-0.4-0.3-0.7-0.8-0.9c-0.2,0-0.3-0.1-0.5-0.1
	c-0.8,0-1.6,0-2.5,0c-0.1,0-0.1,0-0.1,0.1c0,0.2,0,0.4,0,0.6c0,0.1-0.4,0.2-0.3,0.2c0.2,0-0.3,0-0.3,0.2v3.5c0,0.2,0.4,0.2,0.2,0.2
	c-0.1,0,0.1,0,0.1,0.1c0,0.2,0.1,0.4,0.1,0.6c0,0.1,0.1,0.2,0.2,0.2c0.8,0,1.7,0,2.5,0c0.1,0,0.3,0,0.4,0c0.5-0.1,0.8-0.3,0.9-0.8
	c0.1-0.3,0.1-0.7,0.1-1C-18.7,470-18.9,469.7-19.4,469.5"/>
<path fill="#1D716F" d="M-23.9,471.4c-0.2,0-0.6,0-0.6-0.2v-3.5c0-0.3,0.3-0.3,0.6-0.3c0.1,0,0.3,0,0.3-0.1c0-0.2,0.1-0.4,0.1-0.6
	c0-0.1,0-0.1-0.1-0.1c-0.6,0-1.3,0-1.9,0c-0.1,0-0.1,0-0.1,0.1c0,0.2,0,0.4,0,0.6c0,0.1-0.3,0.2-0.2,0.2c0.2,0-0.1,0-0.1,0.2v3.5
	c0,0.3,0.3,0.2,0.1,0.2c-0.1,0,0,0,0,0.1c0,0.2,0.1,0.4,0.1,0.6c0,0.1,0.1,0.1,0.2,0.1c0.3,0,0.7,0,1,0s0.6,0,1,0
	c0.1,0,0.1,0,0.1-0.1c0-0.2-0.1-0.4-0.1-0.6C-23.5,471.4-23.8,471.4-23.9,471.4"/>
<rect x="71.1" y="477.2" fill="#1D716F" width="6.7" height="2.7"/>
<rect x="90" y="477.2" fill="#1D716F" width="6.7" height="2.7"/>
<path fill="#1D716F" d="M273.2,470.4h119.9v4H273.2V470.4z M389.5,462.1c0.7,0,1.3,0.6,1.3,1.3c0,0.7-0.6,1.3-1.3,1.3
	c-0.7,0-1.3-0.6-1.3-1.3C388.1,462.7,388.7,462.1,389.5,462.1 M270.7,492h125.4c1.4,0,2.4-1.4,2.4-2.7v-34c0-1.3-1-2.3-2.4-2.3
	H270.7c-1.4,0-2.9,1.1-2.9,2.3v34C267.8,490.6,269.4,492,270.7,492"/>
<path fill="#1D716F" d="M393.1,513.5v4H273.2v-4 M389.5,506.6c0.7,0,1.3,0.6,1.3,1.3c0,0.7-0.6,1.3-1.3,1.3c-0.7,0-1.3-0.6-1.3-1.3
	C388.1,507.2,388.7,506.6,389.5,506.6 M270.7,535.1h125.4c1.4,0,2.4-1.6,2.4-2.9v-34c0-1.3-1-2.2-2.4-2.2H270.7
	c-1.4,0-2.9,0.9-2.9,2.2v34C267.8,533.5,269.4,535.1,270.7,535.1"/>
<path fill="#1D716F" d="M457.7,634.8L457.7,634.8l-46-59.3l-3.8-5.4H-51.9l-4.5,4.7L-95,615.5v36.8h547.4c4.4,0,6.7-3.5,6.7-8v-3.4
	C459.1,638.4,459.4,636.3,457.7,634.8z M405.2,598.4v5.4H389v-5.4c0-0.8,0.8-1.3,1.6-1.3h13.6C405,597.1,405.2,597.6,405.2,598.4z
	 M391.7,610.5v1.3H350v-1.3h13.5v-3.4c0-1.1,0.6-2,1.7-2h12.5c1.1,0,2,0.9,2,2v3.4H391.7z M360.8,593h13.5v-3.7
	c0-0.8,0.9-1.7,1.7-1.7h12.9c1.1,0,1.6,1,1.6,2.1v3.3h12.1v1.3h-41.8L360.8,593L360.8,593z M360.3,597.1h12.5c1.1,0,1.5,0.8,1.5,1.9
	v3.5h12.1v1.3h-41.8v-1.3h13.5V599C358.1,597.9,359.2,597.1,360.3,597.1z M317.6,593h12.1v-3.9c0-0.7,1.2-1.4,1.9-1.4h13.6
	c0.8,0,2,0.9,2,1.7v3.7H358v1.3h-40.4V593z M340.5,602.5v1.3h-41.8v-1.3h13.5v-3.6c0-1,1-1.8,2-1.8h12.6c1.1,0,1.6,0.8,1.6,1.9v3.5
	H340.5z M304.2,610.5h13.5v-3.3c0-1.1,0.6-2.1,1.7-2.1h12.4c1.1,0,2.1,0.9,2.1,2v3.4h10.8v1.3h-40.4v-1.3H304.2z M274.5,593H288
	v-3.9c0-1.1,1.2-2.8,2.2-2.8h12.1c1.1,0,1.8,1.8,1.8,2.8v3.9H315v1.3h-40.4V593H274.5z M280.1,606.5h15c0.7,0,0.9,0.7,0.9,1.4v4
	h-16.2v-4C279.9,607.2,279.4,606.5,280.1,606.5z M275.9,603.8v-5.4c0-0.7,0-1.3,0.7-1.3h15c0.7,0,0.5,0.6,0.5,1.3v5.4H275.9z
	 M274.5,607.9v4H257v-4c0-0.7,1.1-1.4,1.8-1.4h15C274.5,606.5,274.5,607.2,274.5,607.9z M270.5,598.4v5.4h-16.2v-5.4
	c0-0.7,0.2-1.3,0.9-1.3h15C270.9,597.1,270.5,597.7,270.5,598.4z M253.6,586.3h15c0.7,0,0.5,1.6,0.5,2.2v5.8H253v-5.8
	C253,587.9,252.9,586.3,253.6,586.3z M253,607.9v4h-16.2v-4c0-0.7,0-1.4,0.7-1.4h15C253.2,606.5,253,607.2,253,607.9z M250.3,598.4
	v5.4h-17.5v-5.4c0-0.7,0.5-1.3,1.1-1.3h15C249.6,597.1,250.3,597.7,250.3,598.4z M231.4,588.5c0-0.7,0.2-2.2,0.8-2.2h15
	c0.7,0,0.3,1.6,0.3,2.2v5.8h-16.2v-5.8H231.4z M231.4,607.9v4h-16.2v-4c0-0.7,0.2-1.4,0.9-1.4h15
	C231.9,606.5,231.4,607.2,231.4,607.9z M228.7,598.4v5.4h-16.2v-5.4c0-0.7-0.7-1.3,0-1.3h15C228.3,597.1,228.7,597.7,228.7,598.4z
	 M209.9,588.5c0-0.7,0.4-2.2,1.1-2.2h15c0.7,0,1.4,1.6,1.4,2.2v5.8h-17.5V588.5z M211.2,607.9v4h-17.5v-4c0-0.7,0.4-1.4,1.1-1.4h15
	C210.5,606.5,211.2,607.2,211.2,607.9z M207.2,598.4v5.4H191v-5.4c0-0.7-0.4-1.3,0.2-1.3h15C207,597.1,207.2,597.7,207.2,598.4z
	 M189.6,586.3h15c0.7,0,1.2,1.6,1.2,2.2v5.8h-16.2v-5.8C189.7,587.9,189,586.3,189.6,586.3z M189.7,607.9v4h-17.5v-4
	c0-0.7,0.7-1.4,1.3-1.4h15C189.2,606.5,189.7,607.2,189.7,607.9z M185.6,598.4v5.4h-16.2v-5.4c0-0.7-0.2-1.3,0.5-1.3h15
	C185.6,597.1,185.6,597.7,185.6,598.4z M168.3,586.3h15c0.7,0,0.9,1.6,0.9,2.2v5.8H168v-5.8C168.1,587.9,167.6,586.3,168.3,586.3z
	 M168.1,607.9v4H152v-4c0-0.7-0.4-1.4,0.2-1.4h15C167.9,606.5,168.1,607.2,168.1,607.9z M165.4,598.4v5.4h-17.5v-5.4
	c0-0.7,0-1.3,0.7-1.3h15C164.3,597.1,165.4,597.7,165.4,598.4z M147,586.3h15c0.7,0,2.1,1.6,2.1,2.2v5.8h-17.5v-5.8
	C146.6,587.9,146.3,586.3,147,586.3z M146.6,607.9v4h-16.2v-4c0-0.7-0.2-1.4,0.5-1.4h15C146.6,606.5,146.6,607.2,146.6,607.9z
	 M143.9,598.4v5.4h-16.2v-5.4c0-0.7-1.1-1.3-0.4-1.3h15C143,597.1,143.9,597.7,143.9,598.4z M125.7,586.3h15c0.7,0,0.5,1.6,0.5,2.2
	v5.8H125v-5.8C125,587.9,125,586.3,125.7,586.3z M126.4,607.9v4h-17.5v-4c0-0.7,0-1.4,0.7-1.4h15
	C125.3,606.5,126.4,607.2,126.4,607.9z M121,598.4v5.4h-14.8v-5.4c0-0.7-0.9-1.3-0.2-1.3h15C121.7,597.1,121,597.7,121,598.4z
	 M104.3,586.3h15c0.7,0,0.3,1.6,0.3,2.2v5.8h-14.8v-5.8C104.8,587.9,103.7,586.3,104.3,586.3z M104.8,607.9v4H88.6v-4
	c0-0.7-1.1-1.4-0.4-1.4h15C103.9,606.5,104.8,607.2,104.8,607.9z M99.4,598.4v5.4H84.6v-5.4c0-0.7-0.6-1.3,0-1.3h15
	C100.4,597.1,99.4,597.7,99.4,598.4z M81.9,588.5c0-0.7,0.4-2.2,1.1-2.2h15c0.7,0,0,1.6,0,2.2v5.8H81.8L81.9,588.5L81.9,588.5z
	 M66.9,606.5h15c0.7,0,1.3,0.7,1.3,1.4v4H67v-4C67.1,607.2,66.2,606.5,66.9,606.5z M79.2,598.4v5.4H61.7v-5.4c0-0.7,0.9-1.3,1.6-1.3
	h15C79,597.1,79.2,597.7,79.2,598.4z M60.3,588.5c0-0.7,0.7-2.2,1.3-2.2h15c0.7,0,1.1,1.6,1.1,2.2v5.8H60.2L60.3,588.5L60.3,588.5z
	 M45.6,606.5h15c0.7,0-0.3,0.7-0.3,1.4v4H45.5v-4C45.5,607.2,44.9,606.5,45.6,606.5z M57.7,598.4v5.4H41.5v-5.4
	c0-0.7-0.2-1.3,0.5-1.3h15C57.7,597.1,57.7,597.7,57.7,598.4z M19,586.3h15c0.7,0,0.7,1.6,0.7,2.2v5.8H18.5v-5.8
	C18.6,587.9,18.4,586.3,19,586.3z M13.2,598.4c0-0.7,0.7-1.3,1.7-1.3h20.5c1,0,0.8,0.6,0.8,1.3v5.4H13.3L13.2,598.4L13.2,598.4z
	 M-10.1,582.3h15c0.7,0,1.6,0.7,1.6,1.4v5.4H-9.7v-5.4C-9.7,582.9-10.8,582.3-10.1,582.3z M-3,591.8v5.3h-16.1v-5.3
	c0-0.7,0.1-1.5,0.8-1.5h15C-2.6,590.3-3,591.1-3,591.8z M-31.5,582.3h15c0.7,0,1.3,0.7,1.3,1.4v5.4h-16.1v-5.4
	C-31.3,582.9-32.1,582.3-31.5,582.3z M-40.7,591.8c0-0.7,0.4-1.5,1-1.5h15c0.7,0,0.1,0.8,0.1,1.5v5.3h-16.1V591.8z M-48.8,600
	c0-0.7,0.2-1.6,0.9-1.6h15c0.7,0,1.6,0.9,1.6,1.6v5.1h-17.5V600z M-57.7,606.5h15c0.7,0,0.6,1,0.6,1.7v6.4h-16.1v-6.4
	C-58.2,607.5-58.4,606.5-57.7,606.5z M-47.4,625.4h-17.5V617c0-0.6,0.5-1,1-1h15.5c0.6,0,1,0.5,1,1V625.4z M-24.5,625.4H-42V617
	c0-0.6,0-1,0.5-1H-26c0.6,0,1.5,0.5,1.5,1V625.4z M-20.5,614.6H-38v-6.4c0-0.7,0.9-1.7,1.6-1.7h15c0.7,0,0.9,1,0.9,1.7V614.6z
	 M-9.7,605.2h-17.5V600c0-0.7,0-1.6,0.7-1.6h15c0.7,0,1.8,0.9,1.8,1.6V605.2z M34.8,625.4H-5.7v-2.7H7.8v-6.6c0-1.1,0.9-0.2,2-0.2
	h12.1c0.5,0,0.7-0.2,0.7-0.3c0,0.1,0,0.2,0,0.5v6.6h12.1v2.7H34.8z M38.8,613.2H-3v-1.3h13.5v-3.6c0-0.8,0.8-1.8,1.5-1.8h13.6
	c0.8,0,1,1,1,1.7v3.7h12.1v1.3H38.8z M40.4,586.3h15c0.7,0,0.9,1.6,0.9,2.2v5.8H40.1v-5.8C40.1,587.9,39.7,586.3,40.4,586.3z
	 M259.7,625.4H40.1v-8.7c0-0.9,1.3-2.1,2.2-2.1h215.5c0.9,0,1.8,1.1,1.8,2.1v8.7H259.7z M305.5,625.4h-40.4v-2.7h12.1v-6.6
	c0-1.1,1.3-0.2,2.3-0.2h12.1c1.1,0,1.7-0.9,1.7,0.2v6.6h12.1L305.5,625.4L305.5,625.4z M351.3,625.4h-40.4v-2.7h13.5v-6.6
	c0-1.1,0-0.2,1.1-0.2h12.1c1.1,0,3-0.9,3,0.2v6.6h10.8v2.7H351.3z M398.5,625.4h-43.1v-2.7h13.5v-6.6c0-1.1,1.5-0.2,2.6-0.2h12.1
	c1.1,0,2.8-0.9,2.8,0.2v6.6h12.1V625.4z M411.9,613.2h-16.2v-5c0-0.8,0.8-1.8,1.6-1.8H411c0.8,0,0.9,1,0.9,1.7V613.2z"/>
<path fill="#1D716F" d="M464.5,586.3H481v-26.4c-5.1,1.1-9.4,4-12.4,8.1c-14.6-1.6-32.2-5.1-45.9-12.2V450.2c0-4.4-3.1-8-7.5-8h-469
	c-4.4,0-8.4,3.6-8.4,8v116c0,3.3,2.2,6.1,5,7.3l4.7-4.7h461.9l3.8,5.4h1.9c4.4,0,7.5-3.6,7.5-8v-3c13.3,6.2,29.1,9.4,42.6,11.1
	c-0.6,1.9-0.9,3.9-0.9,6v6H464.5z M-35.3,562h-1.3v-64.7h1.3V562z M-28.6,562h-1.3v-64.7h1.3V562z M-20.5,562h-1.3v-64.7h1.3V562z
	 M-13.7,562H-15v-64.7h1.3V562z M-8.4,483.9h-22.9V461h22.9V483.9z M-7,562h-1.3v-64.7H-7V562z M1.1,562h-1.3v-64.7h1.3V562z
	 M7.8,562H6.5v-64.7h1.3V562z M15.9,562h-1.3v-64.7h1.3V562z M22.6,562h-1.3v-64.7h1.3V562z M29.4,562H28v-64.7h1.3L29.4,562
	L29.4,562z M37.4,562h-1.3v-64.7h1.3V562z M44.2,562h-1.3v-64.7h1.3V562z M50.9,562h-1.3v-64.7h1.3V562z M59,562h-1.3v-64.7H59V562z
	 M65.7,562h-1.3v-64.7h1.3V562z M72.5,562h-1.3v-64.7h1.3V562z M80.6,562h-1.3v-64.7h1.3V562z M87.3,562H86v-64.7h1.3V562z M94,562
	h-1.3v-64.7H94V562z M102.1,562h-1.3v-64.7h1.3V562z M107.5,483.9H21.3V461h86.2V483.9z M108.8,562h-1.3v-64.7h1.3V562z M116.9,562
	h-1.3v-64.7h1.3V562z M123.7,562h-1.3v-64.7h1.3V562z M130.4,562h-1.3v-64.7h1.3V562z M138.5,562h-1.3v-64.7h1.3V562z M145.2,562
	h-1.3v-64.7h1.3V562z M152,562h-1.3v-64.7h1.3V562z M160,562h-1.3v-64.7h1.3V562z M166.8,562h-1.3v-64.7h1.3V562z M173.5,562h-1.3
	v-64.7h1.3V562z M181.6,562h-1.3v-64.7h1.3V562z M188.3,562H187v-64.7h1.3V562z M195.1,562h-1.3v-64.7h1.3V562z M203.1,562h-1.3
	v-64.7h1.3V562z M209.9,562h-1.3v-64.7h1.3V562z M218,562h-1.3v-64.7h1.3V562z M224.7,562h-1.3v-64.7h1.3V562z M231.4,562h-1.3
	v-64.7h1.3V562z M239.5,562h-1.3v-64.7h1.3V562z M246.3,562H245v-64.7h1.3V562z M399.8,533.9c0,1.4-1.1,2.5-2.5,2.5H269
	c-1.4,0-2.5-1.1-2.5-2.5v-36.7c0-1.4,1.1-2.5,2.5-2.5h128.3c1.4,0,2.5,1.1,2.5,2.5V533.9z M399.8,490.8c0,1.4-1.1,2.5-2.5,2.5H269
	c-1.4,0-2.5-1.1-2.5-2.5v-36.7c0-1.4,1.1-2.5,2.5-2.5h128.3c1.4,0,2.5,1.1,2.5,2.5V490.8z"/>
</svg>
