<?xml version="1.0" encoding="utf-8"?>
<!-- Generator: Adobe Illustrator 18.1.0, SVG Export Plug-In . SVG Version: 6.00 Build 0)  -->
<!DOCTYPE svg PUBLIC "-//W3C//DTD SVG 1.1//EN" "http://www.w3.org/Graphics/SVG/1.1/DTD/svg11.dtd">
<svg version="1.1" id="Warstwa_1" xmlns="http://www.w3.org/2000/svg" xmlns:xlink="http://www.w3.org/1999/xlink" x="0px" y="0px"
	 width="576px" height="576px" viewBox="-95 97 576 576" enable-background="new -95 97 576 576" xml:space="preserve">
<rect x="-95" y="97" fill="#163A33" width="576" height="575.8"/>
<rect x="-95" y="241" fill="#FFFFFF" width="576" height="144"/>
<path fill="#33B573" d="M148.4,303.9H147l-5.5-19.3c-0.5-1.6-0.8-2.9-1-3.9c-0.2,1-0.4,2.1-0.8,3.4c-0.3,1.3-2.2,7.9-5.5,19.8h-1.5
	l-6.9-25h1.8L132,295c0.2,0.6,0.3,1.3,0.5,1.8c0.1,0.6,0.3,1.1,0.4,1.6c0.1,0.5,0.2,1,0.3,1.4c0.1,0.5,0.2,0.9,0.3,1.4
	c0.3-1.5,0.9-3.9,1.7-7.1l4.3-15.2h1.9l5,17.4c0.6,2,1,3.6,1.2,4.9c0.1-0.8,0.3-1.7,0.6-2.6c0.2-0.9,2-7.5,5.3-19.6h1.8L148.4,303.9
	z"/>
<path fill="#33B573" d="M159.8,303.9v-25h1.7v25H159.8z"/>
<path fill="#33B573" d="M186.7,303.9h-1.8l-14.8-22.2H170c0.1,2.6,0.2,4.6,0.2,6v16.2h-1.7v-25h1.7L185,301h0.1
	c-0.1-2.1-0.2-4-0.2-5.8v-16.3h1.7v25H186.7z"/>
<path fill="#33B573" d="M212.8,291.1c0,4.2-1.1,7.4-3.3,9.5s-5.4,3.2-9.7,3.2h-6v-25h6.8c4,0,7,1,9.1,3.1
	C211.7,284.1,212.8,287.1,212.8,291.1z M210.9,291.2c0-3.6-0.9-6.3-2.7-8.1c-1.8-1.8-4.5-2.7-8-2.7h-4.6v21.9h4.1
	C207.2,302.3,210.9,298.6,210.9,291.2z"/>
<path fill="#33B573" d="M239.5,291.3c0,4-1,7.1-3,9.4s-4.7,3.5-8.2,3.5s-6.2-1.2-8.2-3.5s-3-5.5-3-9.4c0-4,1-7.1,3-9.4
	s4.7-3.4,8.2-3.4s6.2,1.1,8.2,3.4C238.6,284.2,239.5,287.4,239.5,291.3z M219.1,291.3c0,3.6,0.8,6.3,2.4,8.3s3.9,2.9,6.9,2.9
	s5.3-1,6.9-2.9c1.6-1.9,2.4-4.7,2.4-8.3c0-3.6-0.8-6.4-2.4-8.3c-1.6-1.9-3.9-2.9-6.9-2.9s-5.3,1-6.9,2.9
	C219.9,285,219.1,287.8,219.1,291.3z"/>
<path fill="#33B573" d="M265.2,303.9h-1.4l-5.5-19.3c-0.5-1.6-0.8-2.9-1-3.9c-0.2,1-0.4,2.1-0.8,3.4c-0.3,1.3-2.2,7.9-5.5,19.8h-1.5
	l-6.9-25h1.8l4.4,16.1c0.2,0.6,0.3,1.3,0.5,1.8c0.1,0.6,0.3,1.1,0.4,1.6s0.2,1,0.3,1.4c0.1,0.5,0.2,0.9,0.3,1.4
	c0.3-1.5,0.9-3.9,1.7-7.1l4.3-15.2h1.9l5,17.4c0.6,2,1,3.6,1.2,4.9c0.1-0.8,0.3-1.7,0.6-2.6c0.2-0.9,2-7.5,5.3-19.6h1.8L265.2,303.9
	z"/>
<path fill="#33B573" d="M290.3,297.4c0,2.1-0.8,3.7-2.3,5c-1.5,1.2-3.6,1.8-6.1,1.8c-3.1,0-5.4-0.3-7-1v-1.7
	c1.8,0.8,4.1,1.1,6.9,1.1c2.1,0,3.7-0.5,4.9-1.4c1.2-0.9,1.8-2.2,1.8-3.7c0-0.9-0.2-1.7-0.6-2.3c-0.4-0.6-1-1.2-1.9-1.7
	c-0.9-0.5-2.2-1.1-4-1.7c-2.6-0.9-4.3-1.8-5.3-2.8s-1.5-2.4-1.5-4.1c0-1.9,0.7-3.4,2.2-4.6s3.3-1.8,5.6-1.8s4.6,0.4,6.6,1.3
	l-0.6,1.5c-2.1-0.9-4.1-1.3-5.9-1.3c-1.8,0-3.3,0.4-4.4,1.3c-1.1,0.9-1.6,2-1.6,3.5c0,0.9,0.2,1.7,0.5,2.3c0.3,0.6,0.9,1.1,1.6,1.6
	c0.7,0.5,2.1,1,3.9,1.7c1.9,0.7,3.4,1.3,4.4,2c1,0.6,1.7,1.3,2.1,2.2C290.1,295.3,290.3,296.3,290.3,297.4z"/>
<path fill="#33B573" d="M143.3,323.9h1.9l-9.3,25h-1.5l-9.3-25h1.9l6.3,17c1,2.6,1.6,4.5,1.9,5.8c0.2-0.9,0.7-2.2,1.4-4L143.3,323.9
	z"/>
<path fill="#33B573" d="M148.7,348.9v-25h1.7v25H148.7z"/>
<path fill="#33B573" d="M171.3,342.4c0,2.1-0.8,3.7-2.3,5c-1.5,1.2-3.6,1.8-6.1,1.8c-3.1,0-5.4-0.3-7-1v-1.7
	c1.8,0.8,4.1,1.1,6.9,1.1c2.1,0,3.7-0.5,4.9-1.4s1.8-2.2,1.8-3.7c0-0.9-0.2-1.7-0.6-2.3c-0.4-0.6-1-1.2-1.9-1.7s-2.2-1.1-4-1.7
	c-2.6-0.9-4.3-1.8-5.3-2.8s-1.5-2.4-1.5-4.1c0-1.9,0.7-3.4,2.2-4.6s3.3-1.8,5.6-1.8s4.6,0.4,6.6,1.3l-0.6,1.5
	c-2.1-0.9-4.1-1.3-5.9-1.3c-1.8,0-3.3,0.4-4.4,1.3s-1.6,2-1.6,3.5c0,0.9,0.2,1.7,0.5,2.3c0.3,0.6,0.9,1.1,1.6,1.6
	c0.8,0.5,2.1,1,3.9,1.7c1.9,0.7,3.4,1.3,4.4,2c1,0.6,1.7,1.3,2.1,2.2C171.1,340.3,171.3,341.3,171.3,342.4z"/>
<path fill="#33B573" d="M183.1,348.9h-1.8v-23.3h-8.1v-1.7h18v1.6h-8.1L183.1,348.9L183.1,348.9z"/>
<path fill="#33B573" d="M207,340.1h-10.2l-3.5,8.8h-1.9l10-25.1h1.1l9.8,25.1h-2L207,340.1z M197.5,338.5h8.9l-3.4-9
	c-0.3-0.7-0.6-1.7-1-2.9c-0.3,1.1-0.6,2.1-1,3L197.5,338.5z"/>
<rect x="-57.4" y="240.9" fill="#003430" width="116.2" height="144"/>
<path fill="#33B573" d="M460,570.3c0,2.2-2,4.3-4.2,5.7H-46.3c-2.2-1.4-3.6-3.5-3.6-5.7v-2.6H460V570.3z"/>
<path fill="#33B573" d="M-3.9,548.3l-1.3-9.2c0-0.7-0.4-1.4-0.8-1.4c-3.9,0.4-8,0.4-12.4,0c-0.5,0-0.8,0.7-0.8,1.5l-0.8,9.2
	L-3.9,548.3L-3.9,548.3z M15.2,548.3l-1.3-9.2c0-0.7-0.4-1.4-0.8-1.4c-3.9,0.4-8,0.4-12.4,0c-0.5,0-0.8,0.7-0.8,1.5l-0.8,9.2
	L15.2,548.3L15.2,548.3z M16.4,530c0-0.6-0.4-1.1-1-1.1H4c-0.5,0-1,0.5-1,1.1l-0.7,5.2h14.8L16.4,530z M50.1,548.3l-2.5-9.2
	c0-0.7-0.7-1.4-1.7-1.4c-7.6,0.4-15.8,0.4-24.6,0c-0.9,0-1.7,0.7-1.7,1.5l-1.7,9.2L50.1,548.3L50.1,548.3z M51.5,530
	c0-0.6-0.4-1.1-1-1.1H39.1c-0.5,0-1,0.5-1,1.1l-0.7,5.2h14.8L51.5,530z M54.6,521c0-0.6-0.4-1.1-1-1.1H42.2c-0.5,0-1,0.5-1,1.1
	l-0.7,5.2h14.8L54.6,521z M58.3,512c0-0.6-0.4-1.1-1-1.1H45.9c-0.5,0-1,0.5-1,1.1l-0.7,5.2H59L58.3,512z M61.6,503
	c0-0.6-0.4-1.1-1-1.1H49.2c-0.5,0-1,0.5-1,1.1l-0.7,5.2h14.8L61.6,503z M84.8,548.3l-1.3-8.3c0-0.7-0.4-1.3-0.8-1.3
	c-3.9,0.4-8,0.3-12.4,0c-0.5,0-0.8,0.7-0.8,1.3l-0.8,8.3H84.8z M103.2,548.3l-1.3-8.3c0-0.7-0.4-1.3-0.8-1.3c-3.9,0.4-8,0.3-12.4,0
	c-0.5,0-0.8,0.7-0.8,1.3l-0.8,8.3H103.2z M121.5,548.3l-1.3-8.3c0-0.7-0.4-1.3-0.8-1.3c-3.9,0.4-8,0.3-12.4,0
	c-0.5,0-0.8,0.7-0.8,1.3l-0.8,8.3H121.5z M124.2,516c0-0.7-0.4-1.1-0.8-1.1c-3.9,0.4-8,0.4-12.4,0c-0.5,0-0.8,0.5-0.8,1.1l-0.8,8.1
	h16.3L124.2,516z M129.2,488.9c0-0.7-0.4-1.2-0.8-1.2c-3.9,0.4-8,0.4-12.4,0c-0.5,0-0.8,0.5-0.8,1.2l-0.8,8.2h16.3L129.2,488.9z
	 M161.6,548.3l-2-9.2c0-0.7-0.6-1.4-1.3-1.4c-6.1,0.4-12.5,0.4-19.5,0c-0.7,0-1.3,0.7-1.3,1.5l-1.3,9.2L161.6,548.3L161.6,548.3z
	 M212.6,548.3l-2-9.2c0-0.7-0.6-1.4-1.3-1.4c-6.1,0.4-12.5,0.4-19.5,0c-0.7,0-1.3,0.7-1.3,1.5l-1.3,9.2L212.6,548.3L212.6,548.3z
	 M346.9,548.3l-2.6-9.2c0-0.8-0.7-1.5-1.6-1.5c-41,1-82,0.9-123.1,0c-0.9,0-1.6,0.8-1.6,1.6l-2.6,9.1L346.9,548.3L346.9,548.3z
	 M346.3,530c0-0.6-0.4-1.1-1-1.1h-11.4c-0.5,0-1,0.5-1,1.1l-0.7,5.2H347L346.3,530z M375.1,548.3l-2-9.2c0-0.7-0.6-1.4-1.3-1.4
	c-6.1,0.4-12.5,0.4-19.5,0c-0.7,0-1.3,0.7-1.3,1.5l-1.3,9.2L375.1,548.3L375.1,548.3z M381.4,530c0-0.6-0.4-1.1-1-1.1H369
	c-0.5,0-1,0.5-1,1.1l-0.7,5.2h14.8L381.4,530z M423.3,535.2l-0.7-5.5c0-0.4-0.3-0.7-0.7-0.7h-35.7c-0.4,0-0.7,0.3-0.7,0.7l-0.7,5.5
	H423.3z M428.8,548.3l-2-9.2c0-0.7-0.6-1.4-1.3-1.4c-6.1,0.4-12.5,0.4-19.5,0c-0.7,0-1.3,0.7-1.3,1.5l-1.3,9.2L428.8,548.3
	L428.8,548.3z M418.4,520.5c0-0.4-0.3-0.9-0.8-0.9c-8.4,0.4-16.5,0.4-24.3,0c-0.4,0-0.8,0.5-0.8,0.9l-0.7,5.6h27.3L418.4,520.5z
	 M415,511.5c0-0.4-0.3-0.9-0.8-0.9c-8.4,0.4-16.5,0.4-24.3,0c-0.4,0-0.8,0.5-0.8,0.9l-0.7,5.6h27.3L415,511.5z M389.6,508.2h14.8
	l-0.7-5.2c0-0.6-0.4-1.1-1-1.1h-11.4c-0.5,0-1,0.5-1,1.1L389.6,508.2z M404.3,488.9c0-0.7-0.4-1.2-0.8-1.2c-3.9,0.4-8,0.4-12.4,0
	c-0.5,0-0.8,0.5-0.8,1.2l-0.8,8.2h16.3L404.3,488.9z M387.4,519.9H376c-0.5,0-1,0.5-1,1.1l-0.7,5.2h14.8l-0.7-5.2
	C388.4,520.4,388,519.9,387.4,519.9 M386.2,503c0-0.6-0.4-1.1-1-1.1h-11.5c-0.5,0-1,0.5-1,1.1l-0.7,5.2h14.8L386.2,503z M371.6,512
	l-0.7,5.2h14.8L385,512c0-0.6-0.4-1.1-1-1.1h-11.4C372,510.9,371.6,511.4,371.6,512 M369.9,519.9h-11.4c-0.5,0-1,0.5-1,1.1l-0.7,5.2
	h14.8l-0.7-5.2C370.9,520.4,370.4,519.9,369.9,519.9 M369.2,488.9c0-0.7-0.4-1.2-0.8-1.2c-3.9,0.4-8,0.4-12.4,0
	c-0.5,0-0.8,0.5-0.8,1.2l-0.8,8.2h16.1L369.2,488.9z M369.3,508.2l-0.7-5.2c0-0.6-0.4-1.1-1-1.1h-11.4c-0.5,0-1,0.5-1,1.1l-0.7,5.2
	H369.3z M353.4,517.2h14.8l-0.7-5.2c0-0.6-0.4-1.1-1-1.1H355c-0.5,0-1,0.5-1,1.1L353.4,517.2z M349.7,535.2h14.8l-0.7-5.2
	c0-0.6-0.4-1.1-1-1.1h-11.4c-0.5,0-1,0.5-1,1.1L349.7,535.2z M352.3,519.9h-11.4c-0.5,0-1,0.5-1,1.1l-0.7,5.2H354l-0.7-5.2
	C353.3,520.4,352.9,519.9,352.3,519.9 M350.9,488.9c0-0.7-0.4-1.2-0.8-1.2c-3.9,0.4-8,0.4-12.4,0c-0.5,0-0.8,0.5-0.8,1.2l-0.8,8.2
	h16.3L350.9,488.9z M351.7,508.2L351,503c0-0.6-0.4-1.1-1-1.1h-11.4c-0.5,0-1,0.5-1,1.1l-0.7,5.2H351.7z M350.6,517.2l-0.7-5.2
	c0-0.6-0.4-1.1-1-1.1h-11.4c-0.5,0-1,0.5-1,1.1l-0.7,5.2H350.6z M334.8,519.9h-11.4c-0.5,0-1,0.5-1,1.1l-0.7,5.2h14.8l-0.7-5.2
	C335.8,520.4,335.3,519.9,334.8,519.9 M333.5,503c0-0.6-0.4-1.1-1-1.1h-11.4c-0.5,0-1,0.5-1,1.1l-0.7,5.2h14.8L333.5,503z
	 M332.6,488.9c0-0.7-0.4-1.2-0.8-1.2c-3.9,0.4-8,0.4-12.4,0c-0.5,0-0.8,0.5-0.8,1.2l-0.8,8.2h16.3L332.6,488.9z M333,517.2l-0.7-5.2
	c0-0.6-0.4-1.1-1-1.1h-11.4c-0.5,0-1,0.5-1,1.1l-0.7,5.2H333z M314.6,535.2h14.8l-0.7-5.2c0-0.6-0.4-1.1-1-1.1h-11.4
	c-0.5,0-1,0.5-1,1.1L314.6,535.2z M305.8,519.9c-0.5,0-1,0.5-1,1.1l-0.7,5.2h14.8l-0.7-5.2c0-0.6-0.4-1.1-1-1.1H305.8z M315.9,503
	c0-0.6-0.4-1.1-1-1.1h-11.4c-0.5,0-1,0.5-1,1.1l-0.7,5.2h14.8L315.9,503z M314.2,488.9c0-0.7-0.4-1.2-0.8-1.2c-3.9,0.4-8,0.4-12.4,0
	c-0.5,0-0.8,0.5-0.8,1.2l-0.8,8.2h16.3L314.2,488.9z M298.4,503c0-0.6-0.4-1.1-1-1.1H286c-0.5,0-1,0.5-1,1.1l-0.7,5.2h14.8
	L298.4,503z M288.4,488.9c0-0.7-0.4-1.2-0.8-1.2c-3.9,0.4-8,0.4-12.4,0c-0.5,0-0.8,0.5-0.8,1.2l-0.8,8.2h16.3L288.4,488.9z
	 M270,488.9c0-0.7-0.4-1.2-0.8-1.2c-3.9,0.4-8,0.4-12.4,0c-0.5,0-0.8,0.5-0.8,1.2l-0.8,8.2h16.3L270,488.9z M251.7,488.9
	c0-0.7-0.4-1.2-0.8-1.2c-3.9,0.4-8,0.4-12.4,0c-0.5,0-0.8,0.5-0.8,1.2l-0.8,8.2h16.3L251.7,488.9z M233.4,488.9
	c0-0.7-0.4-1.2-0.8-1.2c-3.9,0.4-8,0.4-12.4,0c-0.5,0-0.8,0.5-0.8,1.2l-0.8,8.2h16.3L233.4,488.9z M214.8,503l-0.7,5.2h14.8
	l-0.7-5.2c0-0.6-0.4-1.1-1-1.1h-11.4C215.2,501.9,214.8,502.4,214.8,503 M213.6,512l-0.7,5.2h14.8L227,512c0-0.6-0.4-1.1-1-1.1
	h-11.4C214.1,510.9,213.6,511.4,213.6,512 M223.4,530c0-0.6-0.4-1.1-1-1.1H211c-0.5,0-1,0.5-1,1.1l-0.7,5.2h14.8L223.4,530z
	 M231.2,526.2l-0.7-5.2c0-0.6-0.4-1.1-1-1.1H218c-0.5,0-1,0.5-1,1.1l-0.7,5.2H231.2z M241,530c0-0.6-0.4-1.1-1-1.1h-11.4
	c-0.5,0-1,0.5-1,1.1l-0.7,5.2h14.8L241,530z M231.2,512l-0.7,5.2h14.8l-0.7-5.2c0-0.6-0.4-1.1-1-1.1h-11.4
	C231.6,510.9,231.2,511.4,231.2,512 M246.4,508.2l-0.7-5.2c0-0.6-0.4-1.1-1-1.1h-11.4c-0.5,0-1,0.5-1,1.1l-0.7,5.2H246.4z
	 M248.7,526.2L248,521c0-0.6-0.4-1.1-1-1.1h-11.4c-0.5,0-1,0.5-1,1.1l-0.7,5.2H248.7z M258.5,530c0-0.6-0.4-1.1-1-1.1h-11.4
	c-0.5,0-1,0.5-1,1.1l-0.7,5.2h14.8L258.5,530z M248.7,512l-0.7,5.2h14.8l-0.7-5.2c0-0.6-0.4-1.1-1-1.1h-11.4
	C249.2,510.9,248.7,511.4,248.7,512 M264,508.2l-0.7-5.2c0-0.6-0.4-1.1-1-1.1h-11.4c-0.5,0-1,0.5-1,1.1l-0.7,5.2H264z M266.3,526.2
	l-0.7-5.2c0-0.6-0.4-1.1-1-1.1h-11.4c-0.5,0-1,0.5-1,1.1l-0.7,5.2H266.3z M276.1,530c0-0.6-0.4-1.1-1-1.1h-11.4c-0.5,0-1,0.5-1,1.1
	l-0.7,5.2h14.8L276.1,530z M266.3,512l-0.7,5.2h14.8l-0.7-5.2c0-0.6-0.4-1.1-1-1.1h-11.4C266.7,510.9,266.3,511.4,266.3,512
	 M281.5,508.2l-0.7-5.2c0-0.6-0.4-1.1-1-1.1h-11.4c-0.5,0-1,0.5-1,1.1l-0.7,5.2H281.5z M283.8,526.2l-0.7-5.2c0-0.6-0.4-1.1-1-1.1
	h-11.4c-0.5,0-1,0.5-1,1.1l-0.7,5.2H283.8z M293.6,530c0-0.6-0.4-1.1-1-1.1h-11.4c-0.5,0-1,0.5-1,1.1l-0.7,5.2h14.8L293.6,530z
	 M297.9,517.2l-0.7-5.2c0-0.6-0.4-1.1-1-1.1h-11.4c-0.5,0-1,0.5-1,1.1l-0.7,5.2H297.9z M315.5,517.2l-0.7-5.2c0-0.6-0.4-1.1-1-1.1
	h-11.4c-0.5,0-1,0.5-1,1.1l-0.7,5.2H315.5z M297.1,535.2h14.8l-0.7-5.2c0-0.6-0.4-1.1-1-1.1h-11.4c-0.5,0-1,0.5-1,1.1L297.1,535.2z
	 M301.4,526.2l-0.7-5.2c0-0.6-0.4-1.1-1-1.1h-11.4c-0.5,0-1,0.5-1,1.1l-0.7,5.2H301.4z M211.9,519.9h-11.4c-0.5,0-1,0.5-1,1.1
	l-0.7,5.2h14.8l-0.7-5.2C212.9,520.4,212.5,519.9,211.9,519.9 M210.6,503c0-0.6-0.4-1.1-1-1.1h-11.4c-0.5,0-1,0.5-1,1.1l-0.7,5.2
	h14.8L210.6,503z M208.5,488.9c0-0.7-0.4-1.2-0.8-1.2c-3.9,0.4-8,0.4-12.4,0c-0.5,0-0.8,0.5-0.8,1.2l-0.8,8.2H210L208.5,488.9z
	 M192.1,501.9h-11.4c-0.5,0-1,0.5-1,1.1l-0.7,5.2h14.8l-0.7-5.2C193.1,502.4,192.6,501.9,192.1,501.9 M190.1,488.9
	c0-0.7-0.4-1.2-0.8-1.2c-3.9,0.4-8,0.4-12.4,0c-0.5,0-0.8,0.5-0.8,1.2l-0.8,8.2h16.3L190.1,488.9z M143.1,501.9
	c-0.4,0-0.7,0.3-0.7,0.7l-0.7,5.5h34.5l-0.7-5.5c0-0.4-0.3-0.7-0.7-0.7H143.1z M171.8,488.9c0-0.7-0.4-1.2-0.8-1.2
	c-3.9,0.4-8,0.4-12.4,0c-0.5,0-0.8,0.5-0.8,1.2l-0.8,8.2h16.3L171.8,488.9z M153.5,488.9c0-0.7-0.4-1.2-0.8-1.2
	c-3.9,0.4-8,0.4-12.4,0c-0.5,0-0.8,0.5-0.8,1.2l-0.8,8.2H155L153.5,488.9z M192.6,517.2l-0.7-5.2c0-0.6-0.4-1.1-1-1.1h-11.4
	c-0.5,0-1,0.5-1,1.1l-0.7,5.2H192.6z M175.1,517.2l-0.7-5.5c0-0.4-0.3-0.7-0.7-0.7H142c-0.4,0-0.7,0.3-0.7,0.7l-0.7,5.5H175.1z
	 M141.2,519.9c-0.4,0-1.4,0.3-1.4,0.7l-0.7,5.5h39.3l-0.7-5.5c0-0.4-0.3-0.7-0.7-0.7H141.2z M210.2,517.2l-0.7-5.2
	c0-0.6-0.4-1.1-1-1.1h-11.4c-0.5,0-1,0.5-1,1.1l-0.7,5.2H210.2z M191.8,535.2h14.8l-0.7-5.2c0-0.6-0.4-1.1-1-1.1h-11.4
	c-0.5,0-1,0.5-1,1.1L191.8,535.2z M196,526.2l-0.7-5.2c0-0.6-0.4-1.1-1-1.1h-11.4c-0.5,0-1,0.5-1,1.1l-0.7,5.2H196z M137.6,535.2
	H189l-0.7-5.3c0-0.6-0.5-1.2-1.1-1.2c-15.7,0.6-32.4,0.5-47.9,0c-0.6,0-1.1,0.6-1.1,1.2L137.6,535.2z M110.9,488.9
	c0-0.7-0.4-1.2-0.8-1.2c-3.9,0.4-8,0.4-12.4,0c-0.5,0-0.8,0.5-0.8,1.2l-0.8,8.2h16.3L110.9,488.9z M90.9,524.1h16.3l-1.3-8.1
	c0-0.7-0.4-1.1-0.8-1.1c-3.9,0.4-8,0.4-12.4,0c-0.5,0-0.8,0.5-0.8,1.1L90.9,524.1z M92.5,488.9c0-0.7-0.4-1.2-0.8-1.2
	c-3.9,0.4-8,0.4-12.4,0c-0.5,0-0.8,0.5-0.8,1.2l-0.8,8.2H94L92.5,488.9z M73.4,516l-0.8,8.1h16.3l-1.3-8.1c0-0.7-0.4-1.1-0.8-1.1
	c-3.9,0.4-8,0.4-12.4,0C73.8,514.8,73.4,515.4,73.4,516 M44.1,503c0-0.6-0.4-1.1-1-1.1H31.7c-0.5,0-1,0.5-1,1.1l-0.7,5.2h14.8
	L44.1,503z M27.3,512l-0.7,5.2h14.8l-0.7-5.2c0-0.6-0.4-1.1-1-1.1H28.3C27.8,510.9,27.3,511.4,27.3,512 M26.5,503
	c0-0.6-0.4-1.1-1-1.1H14.1c-0.5,0-1,0.5-1,1.1l-0.7,5.2h14.8L26.5,503z M9.8,512l-0.7,5.2h14.8l-0.7-5.2c0-0.6-0.4-1.1-1-1.1H10.8
	C10.2,510.9,9.8,511.4,9.8,512 M37.8,526.2l-0.7-5.2c0-0.6-0.4-1.1-1-1.1H24.7c-0.5,0-1,0.5-1,1.1l-0.7,5.2H37.8z M33.9,530
	c0-0.6-0.4-1.1-1-1.1H21.5c-0.5,0-1,0.5-1,1.1l-0.7,5.2h14.8L33.9,530z M6.1,521l-0.7,5.2h14.8l-0.7-5.2c0-0.6-0.4-1.1-1-1.1H7.1
	C6.6,519.9,6.1,520.4,6.1,521 M1,516.9c0-0.7-0.4-1.4-0.8-1.4c-3.9,0.4-8,0.4-12.4,0c-0.5,0-0.8,0.7-0.8,1.5l-0.8,9.2H2.5L1,516.9z
	 M373.4,479.8h42c1.6,0,3.1,0.9,3.9,2.4l40.3,78.7l0,0c0.2,0,0.4,0.8,0.4,1.3v4.9H-49.9v-4.9c0-0.5-0.1-1.3,0.1-1.3h-0.1v-0.1
	c0.1-0.2,0.2-0.5,0.3-0.7l33.1-67.1l5.3-10.7c0.7-1.5,2.3-2.4,3.9-2.4H97h268.8"/>
<path fill="#33B573" d="M393.7,421.6c2.5,0,4.6-2.1,4.6-4.6V203.8c0-2.5-2.1-4.6-4.6-4.6H100.8c-2.5,0-4.6,2.1-4.6,4.6v213.1
	c0,2.5,2.1,4.6,4.6,4.6h292.9V421.6z M100.4,436.7c2.3,0,4.2-1.9,4.2-4.2c0-2.3-1.9-4.2-4.2-4.2c-2.3,0-4.2,1.9-4.2,4.2
	C96.3,434.8,98.1,436.7,100.4,436.7 M117.1,436.7c2.3,0,4.2-1.9,4.2-4.2c0-2.3-1.9-4.2-4.2-4.2s-4.2,1.9-4.2,4.2
	S114.8,436.7,117.1,436.7 M133,436.7c2.3,0,4.2-1.9,4.2-4.2c0-2.3-1.9-4.2-4.2-4.2s-4.2,1.9-4.2,4.2S130.7,436.7,133,436.7
	 M223.1,460.5v-14H87.4c-3.5,0-6.3-2.8-6.3-6.3V190.3c0-3.5,2.8-6.3,6.3-6.3h319.8c3.5,0,6.3,2.8,6.3,6.3v249.9
	c0,3.5-2.8,6.3-6.3,6.3H271.6v14c28,1.8,51.2,9.6,64.5,17.9H158.5C171.9,470.1,195.1,462.3,223.1,460.5"/>
<path fill="#33B573" d="M-53.4,327.7c0,9.8,7.9,17.7,17.7,17.7h74.8c9.8,0,17.7-7.9,17.7-17.7v-99.8c0-9.8-7.9-17.7-17.7-17.7h-74.8
	c-9.8,0-17.7,7.9-17.7,17.7L-53.4,327.7L-53.4,327.7z M5.4,359.5c0-1.5-1.2-2.8-2.8-2.8c-1.5,0-2.8,1.2-2.8,2.8
	c0,1.5,1.2,2.8,2.8,2.8C4.1,362.2,5.4,361,5.4,359.5 M2,369.6c-4.5,0-8.1,3.6-8.1,8.1s3.6,8.1,8.1,8.1s8.1-3.6,8.1-8.1
	S6.5,369.6,2,369.6 M-47.8,442.8c0,2.1,1.7,3.7,3.7,3.7h90.9c2.1,0,3.7-1.7,3.7-3.7v-17.5c0-2.1-1.7-3.7-3.7-3.7h-90.9
	c-2.1,0-3.7,1.7-3.7,3.7V442.8z M-47.8,474.6c0,2.1,1.7,3.7,3.7,3.7h90.9c2.1,0,3.7-1.7,3.7-3.7v-17.5c0-2.1-1.7-3.7-3.7-3.7h-90.9
	c-2.1,0-3.7,1.7-3.7,3.7V474.6z M-57.3,203.3H60.6c2.1,0,3.7,1.7,3.7,3.7v287c0,2.1-1.7,3.7-3.7,3.7H-57.3c-2.1,0-3.7-1.7-3.7-3.7
	V207C-61,205-59.3,203.3-57.3,203.3"/>
<path fill="#33B573" d="M45.5,312.1h-88.6c-0.7,0-1.2-0.7-1.2-1.4v-8.9c0-0.7,0.6-1.4,1.2-1.4h88.6c0.7,0,1.6,0.7,1.6,1.4v8.9
	C47.1,311.4,46.2,312.1,45.5,312.1"/>
<path fill="#33B573" d="M47.8,301.2c0-1-0.6-1.6-1.5-1.6h-89.8c-0.9,0-1.6,0.6-1.6,1.6v9.4c0,1,0.7,2.2,1.6,2.2h89.8
	c0.9,0,1.5-1.2,1.5-2.2V301.2z M-39.6,321.1h8.4c0.9,0,1.6-0.8,1.6-1.7c0-0.9-0.7-1.7-1.6-1.7h-8.4c-0.9,0-1.6,0.8-1.6,1.7
	C-41.2,320.3-40.5,321.1-39.6,321.1 M12.4,320.4h2.1v-0.7h-2.1V320.4z M23.5,321.8h9v-2.1h-9V321.8z M42.5,322.5
	c1.2,0,2.2-1.1,2.2-2.4s-1-2.4-2.2-2.4s-2.2,1.1-2.2,2.4S41.3,322.5,42.5,322.5 M55.4,328H-51.3v-32.6H55.4L55.4,328L55.4,328z"/>
<path fill="#33B573" d="M45.5,278.1h-88.6c-0.7,0-1.2-0.7-1.2-1.4v-8.9c0-0.7,0.6-1.4,1.2-1.4h88.6c0.7,0,1.6,0.7,1.6,1.4v8.9
	C47.1,277.4,46.2,278.1,45.5,278.1"/>
<path fill="#33B573" d="M47.8,267.2c0-1-0.6-1.6-1.5-1.6h-89.8c-0.9,0-1.6,0.6-1.6,1.6v9.4c0,1,0.7,2.2,1.6,2.2h89.8
	c0.9,0,1.5-1.2,1.5-2.2V267.2z M-39.6,287.1h8.4c0.9,0,1.6-0.8,1.6-1.7c0-0.9-0.7-1.7-1.6-1.7h-8.4c-0.9,0-1.6,0.8-1.6,1.7
	C-41.2,286.3-40.5,287.1-39.6,287.1 M12.4,286.5h2.1v-0.7h-2.1V286.5z M23.5,287.8h9v-2.1h-9V287.8z M42.5,288.5
	c1.2,0,2.2-1.1,2.2-2.4s-1-2.4-2.2-2.4s-2.2,1.1-2.2,2.4C40.3,287.5,41.3,288.5,42.5,288.5 M55.4,294.1H-51.3v-32.6H55.4L55.4,294.1
	L55.4,294.1z"/>
<path fill="#33B573" d="M45.5,244.2h-88.6c-0.7,0-1.2-0.7-1.2-1.4v-8.9c0-0.7,0.6-1.4,1.2-1.4h88.6c0.7,0,1.6,0.7,1.6,1.4v8.9
	C47.1,243.5,46.2,244.2,45.5,244.2"/>
<path fill="#33B573" d="M47.8,233.3c0-1-0.6-1.6-1.5-1.6h-89.8c-0.9,0-1.6,0.6-1.6,1.6v9.4c0,1,0.7,2.2,1.6,2.2h89.8
	c0.9,0,1.5-1.2,1.5-2.2V233.3z M-39.6,253.2h8.4c0.9,0,1.6-0.8,1.6-1.7s-0.7-1.7-1.6-1.7h-8.4c-0.9,0-1.6,0.8-1.6,1.7
	S-40.5,253.2-39.6,253.2 M12.4,252.5h2.1v-0.7h-2.1V252.5z M23.5,253.9h9v-2.1h-9V253.9z M42.5,254.6c1.2,0,2.2-1.1,2.2-2.4
	s-1-2.4-2.2-2.4s-2.2,1.1-2.2,2.4S41.3,254.6,42.5,254.6 M55.4,260.1H-51.3v-32.6H55.4L55.4,260.1L55.4,260.1z"/>
<rect x="-55.5" y="422.2" fill="#33B573" width="110.2" height="2.1"/>
<rect x="-55.5" y="425" fill="#33B573" width="110.2" height="2.1"/>
<rect x="-55.5" y="427.8" fill="#33B573" width="110.2" height="2.1"/>
<rect x="-55.5" y="430.6" fill="#33B573" width="110.2" height="2.1"/>
<rect x="-55.5" y="433.3" fill="#33B573" width="110.2" height="2.1"/>
<rect x="-55.5" y="436.1" fill="#33B573" width="110.2" height="2.1"/>
<rect x="-55.5" y="438.9" fill="#33B573" width="110.2" height="2.1"/>
<rect x="-55.5" y="441.6" fill="#33B573" width="110.2" height="2.1"/>
<rect x="-55.5" y="444.4" fill="#33B573" width="110.2" height="2.1"/>
<rect x="-55.5" y="447.2" fill="#33B573" width="110.2" height="2.1"/>
<rect x="-55.5" y="450" fill="#33B573" width="110.2" height="2.1"/>
<rect x="-55.5" y="452.7" fill="#33B573" width="110.2" height="2.1"/>
<rect x="-55.5" y="455.5" fill="#33B573" width="110.2" height="2.1"/>
<rect x="-55.5" y="458.3" fill="#33B573" width="110.2" height="2.1"/>
<rect x="-55.5" y="461" fill="#33B573" width="110.2" height="2.1"/>
<rect x="-55.5" y="463.8" fill="#33B573" width="110.2" height="2.1"/>
<rect x="-55.5" y="466.6" fill="#33B573" width="110.2" height="2.1"/>
<rect x="-55.5" y="469.4" fill="#33B573" width="110.2" height="2.1"/>
<rect x="-55.5" y="472.1" fill="#33B573" width="110.2" height="2.1"/>
<rect x="-55.5" y="474.9" fill="#33B573" width="110.2" height="2.1"/>
<rect x="-55.5" y="477.7" fill="#33B573" width="110.2" height="2.1"/>
<rect x="-55.5" y="480.4" fill="#33B573" width="110.2" height="2.1"/>
<rect x="-55.5" y="483.2" fill="#33B573" width="110.2" height="2.1"/>
<rect x="-55.5" y="486" fill="#33B573" width="110.2" height="2.1"/>
<rect x="-55.5" y="488.8" fill="#33B573" width="110.2" height="2.1"/>
<rect x="-55.5" y="485.3" fill="#33B573" width="110.2" height="6.2"/>
<rect x="-55.5" y="486" fill="#33B573" width="110.2" height="2.1"/>
<rect x="-55.5" y="488.8" fill="#33B573" width="110.2" height="2.1"/>
</svg>
