<?xml version="1.0" encoding="utf-8"?>
<!-- Generator: Adobe Illustrator 18.1.0, SVG Export Plug-In . SVG Version: 6.00 Build 0)  -->
<!DOCTYPE svg PUBLIC "-//W3C//DTD SVG 1.1//EN" "http://www.w3.org/Graphics/SVG/1.1/DTD/svg11.dtd">
<svg version="1.1" id="Warstwa_1" xmlns="http://www.w3.org/2000/svg" xmlns:xlink="http://www.w3.org/1999/xlink" x="0px" y="0px"
	 width="576px" height="576px" viewBox="-95 97 576 576" enable-background="new -95 97 576 576" xml:space="preserve">
<rect x="-95" y="97" fill="#163A33" width="576" height="576"/>
<rect x="-95" y="241.3" fill="#FFFFFF" width="576" height="143.7"/>
<path fill="#33B573" d="M78.4,304H77l-5.5-19.3c-0.5-1.6-0.8-2.9-1-3.9c-0.2,1-0.4,2.1-0.8,3.4c-0.3,1.3-2.2,7.9-5.5,19.8h-1.5
	l-6.9-25h1.8l4.4,16.1c0.2,0.6,0.3,1.3,0.5,1.8c0.1,0.6,0.3,1.1,0.4,1.6s0.2,1,0.3,1.4c0.1,0.5,0.2,0.9,0.3,1.4
	c0.3-1.5,0.9-3.9,1.7-7.1l4.3-15.2h1.9l5,17.4c0.6,2,1,3.6,1.2,4.9c0.1-0.8,0.3-1.7,0.6-2.6c0.2-0.9,2-7.5,5.3-19.6h1.8L78.4,304z"
	/>
<path fill="#33B573" d="M89.8,304v-25h1.7v25H89.8z"/>
<path fill="#33B573" d="M116.7,304h-1.8l-14.8-22.2H100c0.1,2.6,0.2,4.6,0.2,6V304h-1.7v-25h1.7l14.8,22.1h0.1
	c-0.1-2.1-0.2-4-0.2-5.8V279h1.7L116.7,304L116.7,304z"/>
<path fill="#33B573" d="M142.8,291.3c0,4.2-1.1,7.4-3.3,9.5s-5.4,3.2-9.7,3.2h-6v-25h6.8c4,0,7,1,9.1,3.1
	C141.8,284.3,142.8,287.3,142.8,291.3z M140.9,291.4c0-3.6-0.9-6.3-2.7-8.1c-1.8-1.8-4.5-2.7-8-2.7h-4.6v21.9h4.1
	C137.2,302.5,140.9,298.8,140.9,291.4z"/>
<path fill="#33B573" d="M169.5,291.5c0,4-1,7.1-3,9.4s-4.7,3.5-8.2,3.5s-6.2-1.2-8.2-3.5s-3-5.5-3-9.4c0-4,1-7.1,3-9.4
	s4.7-3.4,8.2-3.4s6.2,1.1,8.2,3.4C168.6,284.4,169.5,287.5,169.5,291.5z M149.1,291.5c0,3.6,0.8,6.3,2.4,8.3c1.6,2,3.9,2.9,6.9,2.9
	s5.3-1,6.9-2.9c1.6-1.9,2.4-4.7,2.4-8.3c0-3.6-0.8-6.4-2.4-8.3c-1.6-1.9-3.9-2.9-6.9-2.9s-5.3,1-6.9,2.9
	C149.9,285.2,149.1,287.9,149.1,291.5z"/>
<path fill="#33B573" d="M195.2,304h-1.4l-5.5-19.3c-0.5-1.6-0.8-2.9-1-3.9c-0.2,1-0.4,2.1-0.8,3.4c-0.3,1.3-2.2,7.9-5.5,19.8h-1.5
	l-6.9-25h1.8l4.4,16.1c0.2,0.6,0.3,1.3,0.5,1.8c0.1,0.6,0.3,1.1,0.4,1.6c0.1,0.5,0.2,1,0.3,1.4c0.1,0.5,0.2,0.9,0.3,1.4
	c0.3-1.5,0.9-3.9,1.7-7.1l4.3-15.2h1.9l5,17.4c0.6,2,1,3.6,1.2,4.9c0.1-0.8,0.3-1.7,0.6-2.6c0.2-0.9,2-7.5,5.3-19.6h1.8L195.2,304z"
	/>
<path fill="#33B573" d="M220.3,297.6c0,2.1-0.8,3.7-2.3,5c-1.5,1.2-3.6,1.8-6.1,1.8c-3.1,0-5.4-0.3-7-1v-1.7
	c1.8,0.8,4.1,1.1,6.9,1.1c2.1,0,3.7-0.5,4.9-1.4s1.8-2.2,1.8-3.7c0-0.9-0.2-1.7-0.6-2.3c-0.4-0.6-1-1.2-1.9-1.7s-2.2-1.1-4-1.7
	c-2.6-0.9-4.3-1.8-5.3-2.8s-1.5-2.4-1.5-4.1c0-1.9,0.7-3.4,2.2-4.6s3.3-1.8,5.6-1.8s4.6,0.4,6.6,1.3l-0.6,1.5
	c-2.1-0.9-4.1-1.3-5.9-1.3c-1.8,0-3.3,0.4-4.4,1.3s-1.6,2-1.6,3.5c0,0.9,0.2,1.7,0.5,2.3c0.3,0.6,0.9,1.1,1.6,1.6s2.1,1,3.9,1.7
	c1.9,0.7,3.4,1.3,4.4,2c1,0.6,1.7,1.3,2.1,2.2C220.1,295.5,220.3,296.4,220.3,297.6z"/>
<path fill="#33B573" d="M73.8,349h-2l-7.4-11.7L56.9,349H55l8.4-13l-7.6-12h2l6.8,10.7l6.9-10.7h1.9l-7.7,11.9L73.8,349z"/>
<path fill="#33B573" d="M92.4,331.2c0,2.4-0.8,4.3-2.5,5.6c-1.6,1.3-4,1.9-7,1.9H79V349h-1.7v-25h6.1
	C89.4,324.1,92.4,326.4,92.4,331.2z M79.1,337.2h3.4c2.8,0,4.8-0.5,6.1-1.4c1.3-0.9,1.9-2.4,1.9-4.5c0-1.9-0.6-3.4-1.8-4.3
	c-1.2-0.9-3-1.4-5.5-1.4h-4.1V337.2z"/>
<rect x="305" y="241" fill="#0B7A4F" width="144" height="144"/>
<path fill="#33B573" d="M-67.5,555.4c0,2.2,2,4.3,4.2,5.7h501.4c2.2-1.4,3.6-3.5,3.6-5.7v-2.6H-67.5V555.4z"/>
<path fill="#33B573" d="M395.7,533.4l1.3-9.2c0-0.7,0.4-1.4,0.8-1.4c3.9,0.4,8,0.4,12.4,0c0.5,0,0.8,0.7,0.8,1.5l0.8,9.2
	L395.7,533.4L395.7,533.4z M376.7,533.4l1.3-9.2c0-0.7,0.4-1.4,0.8-1.4c3.9,0.4,8,0.4,12.4,0c0.5,0,0.8,0.7,0.8,1.5l0.8,9.2
	L376.7,533.4L376.7,533.4z M375.5,515.1c0-0.6,0.4-1.1,1-1.1h11.4c0.5,0,1,0.5,1,1.1l0.7,5.1h-14.8L375.5,515.1z M341.9,533.4
	l2.5-9.2c0-0.7,0.7-1.4,1.7-1.4c7.6,0.4,15.8,0.4,24.6,0c0.9,0,1.7,0.7,1.7,1.5l1.7,9.2L341.9,533.4L341.9,533.4z M340.5,515.1
	c0-0.6,0.4-1.1,1-1.1h11.4c0.5,0,1,0.5,1,1.1l0.7,5.1h-14.8L340.5,515.1z M337.3,506.1c0-0.6,0.4-1.1,1-1.1h11.4c0.5,0,1,0.5,1,1.1
	l0.7,5.1h-14.8L337.3,506.1z M333.7,497.1c0-0.6,0.4-1.1,1-1.1h11.4c0.5,0,1,0.5,1,1.1l0.7,5.1H333L333.7,497.1z M330.3,488.2
	c0-0.6,0.4-1.1,1-1.1h11.4c0.5,0,1,0.5,1,1.1l0.7,5.1h-14.8L330.3,488.2z M307.2,533.4l1.3-8.3c0-0.7,0.4-1.3,0.8-1.3
	c3.9,0.4,8,0.3,12.4,0c0.5,0,0.8,0.7,0.8,1.3l0.8,8.3H307.2z M288.9,533.4l1.3-8.3c0-0.7,0.4-1.3,0.8-1.3c3.9,0.4,8,0.3,12.4,0
	c0.5,0,0.8,0.7,0.8,1.3l0.8,8.3H288.9z M270.5,533.4l1.3-8.3c0-0.7,0.4-1.3,0.8-1.3c3.9,0.4,8,0.3,12.4,0c0.5,0,0.8,0.7,0.8,1.3
	l0.8,8.3H270.5z M267.8,501.1c0-0.7,0.4-1.1,0.8-1.1c3.9,0.4,8,0.4,12.4,0c0.5,0,0.8,0.5,0.8,1.1l0.8,8.1h-16.2L267.8,501.1z
	 M262.8,474.1c0-0.7,0.4-1.2,0.8-1.2c3.9,0.4,8,0.4,12.4,0c0.5,0,0.8,0.5,0.8,1.2l0.8,8.2h-16.2L262.8,474.1z M230.5,533.4l2-9.2
	c0-0.7,0.6-1.4,1.3-1.4c6,0.4,12.5,0.4,19.4,0c0.7,0,1.3,0.7,1.3,1.5l1.3,9.2L230.5,533.4L230.5,533.4z M179.5,533.4l2-9.2
	c0-0.7,0.6-1.4,1.3-1.4c6,0.4,12.5,0.4,19.4,0c0.7,0,1.3,0.7,1.3,1.5l1.3,9.2L179.5,533.4L179.5,533.4z M45.5,533.4l2.6-9.1
	c0-0.8,0.7-1.5,1.6-1.5c41,1,81.9,0.9,122.9,0c0.9,0,1.6,0.8,1.6,1.6l2.6,9.1L45.5,533.4L45.5,533.4z M46.1,515.1
	c0-0.6,0.4-1.1,1-1.1h11.4c0.5,0,1,0.5,1,1.1l0.7,5.1H45.4L46.1,515.1z M17.3,533.4l2-9.2c0-0.7,0.6-1.4,1.3-1.4
	c6,0.4,12.5,0.4,19.4,0c0.7,0,1.3,0.7,1.3,1.5l1.3,9.2L17.3,533.4L17.3,533.4z M11,515.1c0-0.6,0.4-1.1,1-1.1h11.4
	c0.5,0,1,0.5,1,1.1l0.7,5.1H10.3L11,515.1z M-30.9,520.3l0.7-5.5c0-0.4,0.3-0.7,0.7-0.7H6.2c0.4,0,0.7,0.3,0.7,0.7l0.7,5.5H-30.9z
	 M-36.3,533.4l2-9.2c0-0.7,0.6-1.4,1.3-1.4c6,0.4,12.5,0.4,19.4,0c0.7,0,1.3,0.7,1.3,1.5l1.3,9.2L-36.3,533.4L-36.3,533.4z
	 M-26,505.7c0-0.4,0.3-0.9,0.8-0.9c8.4,0.4,16.5,0.4,24.3,0c0.4,0,0.8,0.5,0.8,0.9l0.7,5.6h-27.2L-26,505.7z M-22.6,496.7
	c0-0.4,0.3-0.9,0.8-0.9c8.4,0.4,16.5,0.4,24.3,0c0.4,0,0.8,0.5,0.8,0.9l0.7,5.6h-27.2L-22.6,496.7z M2.8,493.3H-12l0.7-5.1
	c0-0.6,0.4-1.1,1-1.1H1.1c0.5,0,1,0.5,1,1.1L2.8,493.3z M-11.8,474.1c0-0.7,0.4-1.2,0.8-1.2c3.9,0.4,8,0.4,12.4,0
	c0.5,0,0.8,0.5,0.8,1.2l0.8,8.2h-16.2L-11.8,474.1z M5,505.1h11.4c0.5,0,1,0.5,1,1.1l0.7,5.1H3.3l0.7-5.1C4,505.5,4.4,505.1,5,505.1
	 M6.3,488.2c0-0.6,0.4-1.1,1-1.1h11.4c0.5,0,1,0.5,1,1.1l0.7,5.1H5.6L6.3,488.2z M20.8,497.1l0.7,5.1H6.7l0.7-5.1
	c0-0.6,0.4-1.1,1-1.1h11.4C20.3,496.1,20.8,496.6,20.8,497.1 M22.5,505.1h11.4c0.5,0,1,0.5,1,1.1l0.7,5.1H20.8l0.7-5.1
	C21.5,505.5,22,505.1,22.5,505.1 M23.1,474.1c0-0.7,0.4-1.2,0.8-1.2c3.9,0.4,8,0.4,12.4,0c0.5,0,0.8,0.5,0.8,1.2l0.8,8.2H21.7
	L23.1,474.1z M23.1,493.3l0.7-5.1c0-0.6,0.4-1.1,1-1.1h11.4c0.5,0,1,0.5,1,1.1l0.7,5.1H23.1z M39,502.3H24.2l0.7-5.1
	c0-0.6,0.4-1.1,1-1.1h11.4c0.5,0,1,0.5,1,1.1L39,502.3z M42.6,520.3H27.8l0.7-5.1c0-0.6,0.4-1.1,1-1.1h11.4c0.5,0,1,0.5,1,1.1
	L42.6,520.3z M40,505.1h11.4c0.5,0,1,0.5,1,1.1l0.7,5.1H38.3l0.7-5.1C39,505.5,39.5,505.1,40,505.1 M41.5,474.1
	c0-0.7,0.4-1.2,0.8-1.2c3.9,0.4,8,0.4,12.4,0c0.5,0,0.8,0.5,0.8,1.2l0.8,8.2H40.1L41.5,474.1z M40.6,493.3l0.7-5.1
	c0-0.6,0.4-1.1,1-1.1h11.4c0.5,0,1,0.5,1,1.1l0.7,5.1H40.6z M41.8,502.3l0.7-5.1c0-0.6,0.4-1.1,1-1.1h11.4c0.5,0,1,0.5,1,1.1
	l0.7,5.1H41.8z M57.6,505.1H69c0.5,0,1,0.5,1,1.1l0.7,5.1H55.9l0.7-5.1C56.6,505.5,57,505.1,57.6,505.1 M58.8,488.2
	c0-0.6,0.4-1.1,1-1.1h11.4c0.5,0,1,0.5,1,1.1l0.7,5.1H58.1L58.8,488.2z M59.8,474.1c0-0.7,0.4-1.2,0.8-1.2c3.9,0.4,8,0.4,12.4,0
	c0.5,0,0.8,0.5,0.8,1.2l0.8,8.2H58.4L59.8,474.1z M59.3,502.3l0.7-5.1c0-0.6,0.4-1.1,1-1.1h11.4c0.5,0,1,0.5,1,1.1l0.7,5.1H59.3z
	 M77.7,520.3H62.9l0.7-5.1c0-0.6,0.4-1.1,1-1.1H76c0.5,0,1,0.5,1,1.1L77.7,520.3z M86.5,505.1c0.5,0,1,0.5,1,1.1l0.7,5.1H73.4
	l0.7-5.1c0-0.6,0.4-1.1,1-1.1L86.5,505.1L86.5,505.1z M76.4,488.2c0-0.6,0.4-1.1,1-1.1h11.4c0.5,0,1,0.5,1,1.1l0.7,5.1H75.7
	L76.4,488.2z M78.1,474.1c0-0.7,0.4-1.2,0.8-1.2c3.9,0.4,8,0.4,12.4,0c0.5,0,0.8,0.5,0.8,1.2l0.8,8.2H76.7L78.1,474.1z M93.9,488.2
	c0-0.6,0.4-1.1,1-1.1h11.4c0.5,0,1,0.5,1,1.1l0.7,5.1H93.2L93.9,488.2z M103.9,474.1c0-0.7,0.4-1.2,0.8-1.2c3.9,0.4,8,0.4,12.4,0
	c0.5,0,0.8,0.5,0.8,1.2l0.8,8.2h-16.2L103.9,474.1z M122.2,474.1c0-0.7,0.4-1.2,0.8-1.2c3.9,0.4,8,0.4,12.4,0c0.5,0,0.8,0.5,0.8,1.2
	l0.8,8.2h-16.2L122.2,474.1z M140.5,474.1c0-0.7,0.4-1.2,0.8-1.2c3.9,0.4,8,0.4,12.4,0c0.5,0,0.8,0.5,0.8,1.2l0.8,8.2h-16.2
	L140.5,474.1z M158.9,474.1c0-0.7,0.4-1.2,0.8-1.2c3.9,0.4,8,0.4,12.4,0c0.5,0,0.8,0.5,0.8,1.2l0.8,8.2h-16.2L158.9,474.1z
	 M177.4,488.2l0.7,5.1h-14.8l0.7-5.1c0-0.6,0.4-1.1,1-1.1h11.4C176.9,487.1,177.4,487.6,177.4,488.2 M178.5,497.1l0.7,5.1h-14.8
	l0.7-5.1c0-0.6,0.4-1.1,1-1.1h11.4C178.1,496.1,178.5,496.6,178.5,497.1 M168.8,515.1c0-0.6,0.4-1.1,1-1.1h11.4c0.5,0,1,0.5,1,1.1
	l0.7,5.1h-14.8L168.8,515.1z M161,511.3l0.7-5.1c0-0.6,0.4-1.1,1-1.1h11.4c0.5,0,1,0.5,1,1.1l0.7,5.1H161z M151.2,515.1
	c0-0.6,0.4-1.1,1-1.1h11.4c0.5,0,1,0.5,1,1.1l0.7,5.1h-14.8L151.2,515.1z M161,497.1l0.7,5.1h-14.8l0.7-5.1c0-0.6,0.4-1.1,1-1.1H160
	C160.6,496.1,161,496.6,161,497.1 M145.8,493.3l0.7-5.1c0-0.6,0.4-1.1,1-1.1h11.4c0.5,0,1,0.5,1,1.1l0.7,5.1H145.8z M143.5,511.3
	l0.7-5.1c0-0.6,0.4-1.1,1-1.1h11.4c0.5,0,1,0.5,1,1.1l0.7,5.1H143.5z M133.7,515.1c0-0.6,0.4-1.1,1-1.1h11.4c0.5,0,1,0.5,1,1.1
	l0.7,5.1H133L133.7,515.1z M143.5,497.1l0.7,5.1h-14.8l0.7-5.1c0-0.6,0.4-1.1,1-1.1h11.4C143,496.1,143.5,496.6,143.5,497.1
	 M128.3,493.3l0.7-5.1c0-0.6,0.4-1.1,1-1.1h11.4c0.5,0,1,0.5,1,1.1l0.7,5.1H128.3z M126,511.3l0.7-5.1c0-0.6,0.4-1.1,1-1.1h11.4
	c0.5,0,1,0.5,1,1.1l0.7,5.1H126z M116.2,515.1c0-0.6,0.4-1.1,1-1.1h11.4c0.5,0,1,0.5,1,1.1l0.7,5.1h-14.8L116.2,515.1z M126,497.1
	l0.7,5.1h-14.8l0.7-5.1c0-0.6,0.4-1.1,1-1.1H125C125.5,496.1,126,496.6,126,497.1 M110.7,493.3l0.7-5.1c0-0.6,0.4-1.1,1-1.1h11.4
	c0.5,0,1,0.5,1,1.1l0.7,5.1H110.7z M108.5,511.3l0.7-5.1c0-0.6,0.4-1.1,1-1.1h11.4c0.5,0,1,0.5,1,1.1l0.7,5.1H108.5z M98.7,515.1
	c0-0.6,0.4-1.1,1-1.1h11.4c0.5,0,1,0.5,1,1.1l0.7,5.1H98L98.7,515.1z M94.4,502.3l0.7-5.1c0-0.6,0.4-1.1,1-1.1h11.4
	c0.5,0,1,0.5,1,1.1l0.7,5.1H94.4z M76.8,502.3l0.7-5.1c0-0.6,0.4-1.1,1-1.1h11.4c0.5,0,1,0.5,1,1.1l0.7,5.1H76.8z M95.2,520.3H80.4
	l0.7-5.1c0-0.6,0.4-1.1,1-1.1h11.4c0.5,0,1,0.5,1,1.1L95.2,520.3z M90.9,511.3l0.7-5.1c0-0.6,0.4-1.1,1-1.1H104c0.5,0,1,0.5,1,1.1
	l0.7,5.1H90.9z M180.3,505.1h11.4c0.5,0,1,0.5,1,1.1l0.7,5.1h-14.8l0.7-5.1C179.3,505.5,179.7,505.1,180.3,505.1 M181.5,488.2
	c0-0.6,0.4-1.1,1-1.1h11.4c0.5,0,1,0.5,1,1.1l0.7,5.1h-14.8L181.5,488.2z M183.7,474.1c0-0.7,0.4-1.2,0.8-1.2c3.9,0.4,8,0.4,12.4,0
	c0.5,0,0.8,0.5,0.8,1.2l0.8,8.2h-16.2L183.7,474.1z M200,487.1h11.4c0.5,0,1,0.5,1,1.1l0.7,5.1h-14.8l0.7-5.1
	C199.1,487.6,199.5,487.1,200,487.1 M202,474.1c0-0.7,0.4-1.2,0.8-1.2c3.9,0.4,8,0.4,12.4,0c0.5,0,0.8,0.5,0.8,1.2l0.8,8.2h-16.2
	L202,474.1z M249,487.1c0.4,0,0.7,0.3,0.7,0.7l0.7,5.5H216l0.7-5.5c0-0.4,0.3-0.7,0.7-0.7H249z M220.3,474.1c0-0.7,0.4-1.2,0.8-1.2
	c3.9,0.4,8,0.4,12.4,0c0.5,0,0.8,0.5,0.8,1.2l0.8,8.2H219L220.3,474.1z M238.6,474.1c0-0.7,0.4-1.2,0.8-1.2c3.9,0.4,8,0.4,12.4,0
	c0.5,0,0.8,0.5,0.8,1.2l0.8,8.2h-16.2L238.6,474.1z M199.5,502.3l0.7-5.1c0-0.6,0.4-1.1,1-1.1h11.4c0.5,0,1,0.5,1,1.1l0.7,5.1H199.5
	z M217.1,502.3l0.7-5.5c0-0.4,0.3-0.7,0.7-0.7h31.7c0.4,0,0.7,0.3,0.7,0.7l0.7,5.5H217.1z M250.9,505.1c0.4,0,1.4,0.3,1.4,0.7
	l0.7,5.5h-39.3l0.7-5.5c0-0.4,0.3-0.7,0.7-0.7L250.9,505.1L250.9,505.1z M182,502.3l0.7-5.1c0-0.6,0.4-1.1,1-1.1h11.4
	c0.5,0,1,0.5,1,1.1l0.7,5.1H182z M200.4,520.3h-14.8l0.7-5.1c0-0.6,0.4-1.1,1-1.1h11.4c0.5,0,1,0.5,1,1.1L200.4,520.3z M196.1,511.3
	l0.7-5.1c0-0.6,0.4-1.1,1-1.1h11.4c0.5,0,1,0.5,1,1.1l0.7,5.1H196.1z M254.5,520.3h-51.4l0.7-5.3c0-0.6,0.5-1.2,1.1-1.2
	c15.7,0.6,32.3,0.5,47.8,0c0.6,0,1.1,0.6,1.1,1.2L254.5,520.3z M281.2,474.1c0-0.7,0.4-1.2,0.8-1.2c3.9,0.4,8,0.4,12.4,0
	c0.5,0,0.8,0.5,0.8,1.2l0.8,8.2h-16.2L281.2,474.1z M301.1,509.2h-16.2l1.3-8.1c0-0.7,0.4-1.1,0.8-1.1c3.9,0.4,8,0.4,12.4,0
	c0.5,0,0.8,0.5,0.8,1.1L301.1,509.2z M299.5,474.1c0-0.7,0.4-1.2,0.8-1.2c3.9,0.4,8,0.4,12.4,0c0.5,0,0.8,0.5,0.8,1.2l0.8,8.2h-16.2
	L299.5,474.1z M318.6,501.1l0.8,8.1h-16.2l1.3-8.1c0-0.7,0.4-1.1,0.8-1.1c3.9,0.4,8,0.4,12.4,0C318.2,500,318.6,500.5,318.6,501.1
	 M347.9,488.2c0-0.6,0.4-1.1,1-1.1h11.4c0.5,0,1,0.5,1,1.1l0.7,5.1h-14.8L347.9,488.2z M364.6,497.1l0.7,5.1h-14.8l0.7-5.1
	c0-0.6,0.4-1.1,1-1.1h11.4C364.2,496.1,364.6,496.6,364.6,497.1 M365.4,488.2c0-0.6,0.4-1.1,1-1.1h11.4c0.5,0,1,0.5,1,1.1l0.7,5.1
	h-14.8L365.4,488.2z M382.1,497.1l0.7,5.1h-14.7l0.7-5.1c0-0.6,0.4-1.1,1-1.1h11.4C381.7,496.1,382.1,496.6,382.1,497.1
	 M354.2,511.3l0.7-5.1c0-0.6,0.4-1.1,1-1.1h11.4c0.5,0,1,0.5,1,1.1l0.7,5.1H354.2z M358,515.1c0-0.6,0.4-1.1,1-1.1h11.4
	c0.5,0,1,0.5,1,1.1l0.7,5.1h-14.8L358,515.1z M385.8,506.1l0.7,5.1h-14.8l0.7-5.1c0-0.6,0.4-1.1,1-1.1h11.4
	C385.3,505.1,385.8,505.5,385.8,506.1 M390.9,502.1c0-0.7,0.4-1.4,0.8-1.4c3.9,0.4,8,0.4,12.4,0c0.5,0,0.8,0.7,0.8,1.5l0.8,9.2
	h-16.1L390.9,502.1z M19,464.9h-41.9c-1.6,0-3.1,0.9-3.9,2.4l-40.3,78.6l0,0c-0.2,0-0.4,0.8-0.4,1.3v4.9h509.2v-4.9
	c0-0.5,0.1-1.3-0.1-1.3h0.1v-0.1c-0.1-0.2-0.2-0.5-0.3-0.7l-33-67.1l-5.3-10.7c-0.7-1.5-2.3-2.4-3.9-2.4H295.1H26.6"/>
<path fill="#33B573" d="M422.4,230.8c0,1.1-0.8,2.3-1.8,2.3H317c-1.1,0-1.9-1.2-1.9-2.3v-10.6c0-1.1,0.8-1.6,1.9-1.6h103.5
	c1.1,0,1.8,0.5,1.8,1.6v10.6H422.4z M419.6,241.1c0,2.2-1.3,3.8-3.4,3.8h-1.6c-2.1,0-4-1.6-4-3.8v-0.3h9V241.1z M393.6,246.1
	c-0.5,0-1-0.5-1-1c0-0.6,0.4-1,1-1c0.5,0,1,0.5,1,1C394.6,245.7,394.2,246.1,393.6,246.1 M430,215.2H307.5v34.6H430V215.2z"/>
<path fill="#33B573" d="M420.4,219.3H317.1c-0.7,0-1.3,0.5-1.3,1.2v10.7c0,0.7,0.6,1.2,1.3,1.2h103.3c0.7,0,1.3-0.5,1.3-1.2v-10.7
	C421.7,219.8,421.1,219.3,420.4,219.3"/>
<rect x="307.5" y="250.4" fill="#33B573" width="122.5" height="36.7"/>
<rect x="307.5" y="141.8" fill="#33B573" width="122.5" height="35.3"/>
<path fill="#33B573" d="M421,183.3H318c-0.8,0-1.5,0.8-1.5,1.5v10.1c0,0.8,0.7,1.5,1.5,1.5h103c0.8,0,1.3-0.8,1.3-1.5v-10.1
	C422.4,184.1,421.8,183.3,421,183.3"/>
<path fill="#33B573" d="M423.1,194.9c0,1.1-1,2.3-2,2.3H317.5c-1.1,0-1.7-1.2-1.7-2.3v-10.6c0-1.1,0.6-1.6,1.7-1.6H421
	c1.1,0,2,0.5,2,1.6v10.6H423.1z M416.6,206.9h-9.7c-1,0-1.8-1-1.8-2.1s0.8-2.1,1.8-2.1h9.7c1,0,1.8,1,1.8,2.1
	S417.6,206.9,416.6,206.9 M356.6,206.2h-2.1v-1.4h2.1V206.2z M344.2,207.5h-11.1v-2.8h11.1C344.2,204.7,344.2,207.5,344.2,207.5z
	 M321.9,208.2c-1.4,0-2.5-1.2-2.5-2.7s1.1-2.7,2.5-2.7s2.5,1.2,2.5,2.7S323.2,208.2,321.9,208.2 M430,177.8H307.5v36.7H430V177.8z"
	/>
<rect x="302" y="372.9" fill="#33B573" width="134.2" height="1.4"/>
<rect x="302" y="328.6" fill="#33B573" width="134.2" height="1.4"/>
<rect x="302" y="364.6" fill="#33B573" width="134.2" height="1.4"/>
<rect x="302" y="323.1" fill="#33B573" width="134.2" height="1.4"/>
<rect x="302" y="325.9" fill="#33B573" width="134.2" height="1.4"/>
<rect x="302" y="367.4" fill="#33B573" width="134.2" height="1.4"/>
<rect x="302" y="381.2" fill="#33B573" width="134.2" height="1.4"/>
<rect x="302" y="320.3" fill="#33B573" width="134.2" height="1.4"/>
<rect x="302" y="378.4" fill="#33B573" width="134.2" height="1.4"/>
<rect x="302" y="375.7" fill="#33B573" width="134.2" height="1.4"/>
<rect x="302" y="370.1" fill="#33B573" width="134.2" height="1.4"/>
<rect x="302" y="317.6" fill="#33B573" width="134.2" height="1.4"/>
<rect x="302" y="342.5" fill="#33B573" width="134.2" height="1.4"/>
<rect x="302" y="350.8" fill="#33B573" width="134.2" height="1.4"/>
<rect x="302" y="345.2" fill="#33B573" width="134.2" height="1.4"/>
<rect x="302" y="348" fill="#33B573" width="134.2" height="1.4"/>
<rect x="302" y="336.9" fill="#33B573" width="134.2" height="1.4"/>
<rect x="302" y="359.1" fill="#33B573" width="134.2" height="1.4"/>
<rect x="302" y="331.4" fill="#33B573" width="134.2" height="1.4"/>
<rect x="302" y="361.8" fill="#33B573" width="134.2" height="1.4"/>
<rect x="302" y="334.2" fill="#33B573" width="134.2" height="1.4"/>
<rect x="302" y="356.3" fill="#33B573" width="134.2" height="1.4"/>
<rect x="302" y="353.5" fill="#33B573" width="134.2" height="1.4"/>
<rect x="302" y="397.8" fill="#33B573" width="134.2" height="1.4"/>
<rect x="302" y="306.5" fill="#33B573" width="134.2" height="1.4"/>
<rect x="302" y="414.4" fill="#33B573" width="134.2" height="1.4"/>
<rect x="302" y="411.7" fill="#33B573" width="134.2" height="1.4"/>
<rect x="302" y="406.1" fill="#33B573" width="134.2" height="1.4"/>
<rect x="302" y="408.9" fill="#33B573" width="134.2" height="1.4"/>
<rect x="302" y="303.7" fill="#33B573" width="134.2" height="1.4"/>
<rect x="302" y="298.2" fill="#33B573" width="134.2" height="1.4"/>
<rect x="302" y="417.2" fill="#33B573" width="134.2" height="1.4"/>
<rect x="302" y="384" fill="#33B573" width="134.2" height="1.4"/>
<polyline fill="#33B573" points="302,301 302,302.3 436.2,302.3 436.2,301 "/>
<rect x="302" y="403.4" fill="#33B573" width="134.2" height="1.4"/>
<rect x="302" y="392.3" fill="#33B573" width="134.2" height="1.4"/>
<rect x="302" y="386.7" fill="#33B573" width="134.2" height="1.4"/>
<rect x="302" y="314.8" fill="#33B573" width="134.2" height="1.4"/>
<rect x="302" y="312" fill="#33B573" width="134.2" height="1.4"/>
<rect x="302" y="389.5" fill="#33B573" width="134.2" height="1.4"/>
<rect x="302" y="309.3" fill="#33B573" width="134.2" height="1.4"/>
<rect x="302" y="395" fill="#33B573" width="134.2" height="1.4"/>
<rect x="302" y="400.6" fill="#33B573" width="134.2" height="1.4"/>
<rect x="302" y="339.7" fill="#33B573" width="134.2" height="1.4"/>
<path fill="#33B573" d="M445.9,204.1h5.5v2.1h-5.5V204.1z M445.9,201.3h5.5v2.1h-5.5V201.3z M430.7,141.8v35.3v0.2v0.2v0.3v36.7v0.7
	v34.6v0.7v36.7v0.7H306.8v-0.7v-36.7v-0.7v-34.6v-0.7v-36.7v-0.7v-35.3v-0.7h123.9V141.8z M441.7,143.4c2.3,0,4.2,1.9,4.2,4.2
	s-1.9,4.2-4.2,4.2c-2.3,0-4.2-1.9-4.2-4.2C437.6,145.2,439.4,143.4,441.7,143.4 M453.5,155.7v-16c0-2.6-2.2-4.7-4.8-4.7h-16v0.1
	c-0.2,0-0.4-0.1-0.6-0.1H306c-2.2,0-4.1,1.9-4.1,4.3v1.9v0.7v35.3v0.7v36.7v0.7v34.6v0.7v36.7v0.7v9h130.8v123H302v43.6h98.6
	c1.6,0,3,0.9,3.7,2.4l5,10.7h22.8c0.2,0,0.6,0,0.6-0.1v0.1h15.9c2.6,0,4.8-2.1,4.8-4.7V199.2h-18.6v-43.6L453.5,155.7L453.5,155.7z"
	/>
<rect x="435.5" y="156.5" fill="#33B573" width="18" height="42.2"/>
<path fill="#33B573" d="M152.4,453.5c-16.1,0-30.5-7.6-39.7-19.4c-22.9,5.4-38.3,14.3-38.3,19.7c0,8.1,34.5,14.6,77.1,14.6
	s77.1-6.5,77.1-14.6c0-5.3-14.7-14-36.8-19.3C182.6,446.1,168.3,453.5,152.4,453.5"/>
<path fill="#33B573" d="M112.6,434.1c9.2,11.8,23.6,19.4,39.7,19.4c16,0,30.2-7.5,39.4-19.1c-11.7-2.9-25.5-4.8-40.3-4.8
	C137.3,429.6,124.1,431.4,112.6,434.1"/>
<path fill="#33B573" d="M259.8,397.2c0,1.9-1.5,3.4-3.4,3.4h-53.8H102.1H46.6c-1.9,0-3.4-1.5-3.4-3.4V233.1c0-1.9,1.5-3.4,3.4-3.4
	h209.8c1.9,0,3.4,1.5,3.4,3.4C259.8,233.1,259.8,397.2,259.8,397.2z M258.4,409.6h-13.8v-2.8h13.8V409.6z M279.5,205.5H25.6
	c-2.9,0-5.2,2.3-5.2,5.2v206.2c0,2.9,2.3,5.2,5.2,5.2h68.1c-1.8,16.9-21.1,17.6-50.4,16.7c-18.7-0.6-36.5-1.1-46.6,6.3
	c-2.8,2.1-4.4,4.9-4.6,8.3c-0.7,10.7,12.8,23.9,14.3,25.3l3.8-4c-3.7-3.5-13.1-14-12.6-21c0.1-1.8,0.9-3.1,2.4-4.2
	c8.6-6.3,26.2-5.8,43.2-5.3c12.8,0.4,26,0.8,36.2-1.6c12.4-2.9,18.9-9.6,19.9-20.3l-2.8-0.3h9.2c1.8,4.4,4.1,8.4,7,12.1
	c11.4-2.7,24.7-4.4,38.8-4.4c14.8,0,28.6,1.9,40.3,4.8c3-3.7,5.4-7.9,7.2-12.4h80.5c2.9,0,5.2-2.3,5.2-5.2V210.7
	C284.7,207.8,282.4,205.5,279.5,205.5"/>
</svg>
